G04 #@! TF.GenerationSoftware,KiCad,Pcbnew,(5.1.2-1)-1*
G04 #@! TF.CreationDate,2019-06-03T10:07:55+02:00*
G04 #@! TF.ProjectId,Dash,44617368-2e6b-4696-9361-645f70636258,rev?*
G04 #@! TF.SameCoordinates,Original*
G04 #@! TF.FileFunction,Legend,Top*
G04 #@! TF.FilePolarity,Positive*
%FSLAX46Y46*%
G04 Gerber Fmt 4.6, Leading zero omitted, Abs format (unit mm)*
G04 Created by KiCad (PCBNEW (5.1.2-1)-1) date 2019-06-03 10:07:55*
%MOMM*%
%LPD*%
G04 APERTURE LIST*
%ADD10C,0.200000*%
%ADD11C,0.300000*%
%ADD12C,0.150000*%
%ADD13C,0.120000*%
%ADD14C,0.010000*%
%ADD15C,0.127000*%
%ADD16C,0.400000*%
%ADD17C,0.050000*%
G04 APERTURE END LIST*
D10*
X149790312Y-60759688D02*
G75*
G03X149790312Y-60759688I-640312J0D01*
G01*
D11*
X109245714Y-105468571D02*
X109245714Y-103968571D01*
X109602857Y-103968571D01*
X109817142Y-104040000D01*
X109960000Y-104182857D01*
X110031428Y-104325714D01*
X110102857Y-104611428D01*
X110102857Y-104825714D01*
X110031428Y-105111428D01*
X109960000Y-105254285D01*
X109817142Y-105397142D01*
X109602857Y-105468571D01*
X109245714Y-105468571D01*
X110674285Y-105040000D02*
X111388571Y-105040000D01*
X110531428Y-105468571D02*
X111031428Y-103968571D01*
X111531428Y-105468571D01*
X111960000Y-105397142D02*
X112174285Y-105468571D01*
X112531428Y-105468571D01*
X112674285Y-105397142D01*
X112745714Y-105325714D01*
X112817142Y-105182857D01*
X112817142Y-105040000D01*
X112745714Y-104897142D01*
X112674285Y-104825714D01*
X112531428Y-104754285D01*
X112245714Y-104682857D01*
X112102857Y-104611428D01*
X112031428Y-104540000D01*
X111960000Y-104397142D01*
X111960000Y-104254285D01*
X112031428Y-104111428D01*
X112102857Y-104040000D01*
X112245714Y-103968571D01*
X112602857Y-103968571D01*
X112817142Y-104040000D01*
X113460000Y-105468571D02*
X113460000Y-103968571D01*
X113460000Y-104682857D02*
X114317142Y-104682857D01*
X114317142Y-105468571D02*
X114317142Y-103968571D01*
X116674285Y-104682857D02*
X116888571Y-104754285D01*
X116960000Y-104825714D01*
X117031428Y-104968571D01*
X117031428Y-105182857D01*
X116960000Y-105325714D01*
X116888571Y-105397142D01*
X116745714Y-105468571D01*
X116174285Y-105468571D01*
X116174285Y-103968571D01*
X116674285Y-103968571D01*
X116817142Y-104040000D01*
X116888571Y-104111428D01*
X116960000Y-104254285D01*
X116960000Y-104397142D01*
X116888571Y-104540000D01*
X116817142Y-104611428D01*
X116674285Y-104682857D01*
X116174285Y-104682857D01*
X117960000Y-103968571D02*
X118245714Y-103968571D01*
X118388571Y-104040000D01*
X118531428Y-104182857D01*
X118602857Y-104468571D01*
X118602857Y-104968571D01*
X118531428Y-105254285D01*
X118388571Y-105397142D01*
X118245714Y-105468571D01*
X117960000Y-105468571D01*
X117817142Y-105397142D01*
X117674285Y-105254285D01*
X117602857Y-104968571D01*
X117602857Y-104468571D01*
X117674285Y-104182857D01*
X117817142Y-104040000D01*
X117960000Y-103968571D01*
X119174285Y-105040000D02*
X119888571Y-105040000D01*
X119031428Y-105468571D02*
X119531428Y-103968571D01*
X120031428Y-105468571D01*
X121388571Y-105468571D02*
X120888571Y-104754285D01*
X120531428Y-105468571D02*
X120531428Y-103968571D01*
X121102857Y-103968571D01*
X121245714Y-104040000D01*
X121317142Y-104111428D01*
X121388571Y-104254285D01*
X121388571Y-104468571D01*
X121317142Y-104611428D01*
X121245714Y-104682857D01*
X121102857Y-104754285D01*
X120531428Y-104754285D01*
X122031428Y-105468571D02*
X122031428Y-103968571D01*
X122388571Y-103968571D01*
X122602857Y-104040000D01*
X122745714Y-104182857D01*
X122817142Y-104325714D01*
X122888571Y-104611428D01*
X122888571Y-104825714D01*
X122817142Y-105111428D01*
X122745714Y-105254285D01*
X122602857Y-105397142D01*
X122388571Y-105468571D01*
X122031428Y-105468571D01*
X124531428Y-104468571D02*
X124888571Y-105468571D01*
X125245714Y-104468571D01*
X126602857Y-105468571D02*
X125745714Y-105468571D01*
X126174285Y-105468571D02*
X126174285Y-103968571D01*
X126031428Y-104182857D01*
X125888571Y-104325714D01*
X125745714Y-104397142D01*
X127245714Y-105325714D02*
X127317142Y-105397142D01*
X127245714Y-105468571D01*
X127174285Y-105397142D01*
X127245714Y-105325714D01*
X127245714Y-105468571D01*
X128745714Y-105468571D02*
X127888571Y-105468571D01*
X128317142Y-105468571D02*
X128317142Y-103968571D01*
X128174285Y-104182857D01*
X128031428Y-104325714D01*
X127888571Y-104397142D01*
D12*
X154450000Y-92150000D02*
X156800000Y-92150000D01*
X154450000Y-90400000D02*
X154450000Y-92150000D01*
D13*
X160303733Y-85510000D02*
X160646267Y-85510000D01*
X160303733Y-84490000D02*
X160646267Y-84490000D01*
D14*
G36*
X120500927Y-95890335D02*
G01*
X120585924Y-95893317D01*
X120644365Y-95898619D01*
X120682226Y-95906447D01*
X120705482Y-95917008D01*
X120719697Y-95930009D01*
X120747916Y-95983247D01*
X120732190Y-96026124D01*
X120669164Y-96060778D01*
X120555486Y-96089348D01*
X120441882Y-96107153D01*
X120260495Y-96136968D01*
X120087420Y-96178252D01*
X119919955Y-96233501D01*
X119755403Y-96305214D01*
X119591065Y-96395886D01*
X119424241Y-96508016D01*
X119252233Y-96644099D01*
X119072343Y-96806634D01*
X118881870Y-96998118D01*
X118678116Y-97221047D01*
X118458382Y-97477918D01*
X118219970Y-97771230D01*
X117960179Y-98103478D01*
X117676313Y-98477160D01*
X117365670Y-98894774D01*
X117230712Y-99078223D01*
X117079650Y-99283009D01*
X116917306Y-99501167D01*
X116752786Y-99720592D01*
X116595195Y-99929179D01*
X116453641Y-100114822D01*
X116349687Y-100249445D01*
X116137704Y-100532117D01*
X115968487Y-100782502D01*
X115841149Y-101004094D01*
X115754802Y-101200386D01*
X115708558Y-101374871D01*
X115701531Y-101531044D01*
X115732831Y-101672398D01*
X115801572Y-101802427D01*
X115906866Y-101924624D01*
X115920700Y-101937792D01*
X116103047Y-102077554D01*
X116324515Y-102191040D01*
X116588201Y-102279257D01*
X116897208Y-102343211D01*
X117254633Y-102383910D01*
X117306000Y-102387625D01*
X117376527Y-102400443D01*
X117407921Y-102433101D01*
X117413790Y-102457788D01*
X117404384Y-102513176D01*
X117349304Y-102549185D01*
X117348453Y-102549510D01*
X117302710Y-102556096D01*
X117207692Y-102561625D01*
X117070558Y-102566107D01*
X116898466Y-102569550D01*
X116698576Y-102571964D01*
X116478047Y-102573358D01*
X116244037Y-102573740D01*
X116003706Y-102573120D01*
X115764213Y-102571506D01*
X115532717Y-102568908D01*
X115316376Y-102565334D01*
X115122350Y-102560794D01*
X114957798Y-102555297D01*
X114829879Y-102548851D01*
X114794222Y-102546303D01*
X114553092Y-102523865D01*
X114358455Y-102497858D01*
X114200379Y-102466235D01*
X114068934Y-102426946D01*
X113954187Y-102377943D01*
X113937840Y-102369648D01*
X113777908Y-102260905D01*
X113666659Y-102125230D01*
X113604046Y-101962253D01*
X113590022Y-101771603D01*
X113624540Y-101552910D01*
X113707552Y-101305804D01*
X113782020Y-101140886D01*
X113832995Y-101050852D01*
X113916234Y-100921281D01*
X114028436Y-100756467D01*
X114166299Y-100560703D01*
X114326524Y-100338284D01*
X114505808Y-100093502D01*
X114700851Y-99830651D01*
X114908352Y-99554026D01*
X115125010Y-99267919D01*
X115347524Y-98976625D01*
X115572592Y-98684436D01*
X115796915Y-98395648D01*
X116017190Y-98114553D01*
X116230117Y-97845444D01*
X116432395Y-97592617D01*
X116620723Y-97360364D01*
X116791800Y-97152978D01*
X116942324Y-96974755D01*
X117068995Y-96829987D01*
X117168513Y-96722967D01*
X117209615Y-96682556D01*
X117507310Y-96438177D01*
X117827465Y-96241824D01*
X118176262Y-96090327D01*
X118559883Y-95980517D01*
X118592034Y-95973487D01*
X118679935Y-95956058D01*
X118769126Y-95941907D01*
X118867470Y-95930529D01*
X118982829Y-95921420D01*
X119123065Y-95914075D01*
X119296043Y-95907989D01*
X119509624Y-95902658D01*
X119771672Y-95897577D01*
X119775889Y-95897502D01*
X120026856Y-95893258D01*
X120227368Y-95890512D01*
X120383400Y-95889469D01*
X120500927Y-95890335D01*
X120500927Y-95890335D01*
G37*
X120500927Y-95890335D02*
X120585924Y-95893317D01*
X120644365Y-95898619D01*
X120682226Y-95906447D01*
X120705482Y-95917008D01*
X120719697Y-95930009D01*
X120747916Y-95983247D01*
X120732190Y-96026124D01*
X120669164Y-96060778D01*
X120555486Y-96089348D01*
X120441882Y-96107153D01*
X120260495Y-96136968D01*
X120087420Y-96178252D01*
X119919955Y-96233501D01*
X119755403Y-96305214D01*
X119591065Y-96395886D01*
X119424241Y-96508016D01*
X119252233Y-96644099D01*
X119072343Y-96806634D01*
X118881870Y-96998118D01*
X118678116Y-97221047D01*
X118458382Y-97477918D01*
X118219970Y-97771230D01*
X117960179Y-98103478D01*
X117676313Y-98477160D01*
X117365670Y-98894774D01*
X117230712Y-99078223D01*
X117079650Y-99283009D01*
X116917306Y-99501167D01*
X116752786Y-99720592D01*
X116595195Y-99929179D01*
X116453641Y-100114822D01*
X116349687Y-100249445D01*
X116137704Y-100532117D01*
X115968487Y-100782502D01*
X115841149Y-101004094D01*
X115754802Y-101200386D01*
X115708558Y-101374871D01*
X115701531Y-101531044D01*
X115732831Y-101672398D01*
X115801572Y-101802427D01*
X115906866Y-101924624D01*
X115920700Y-101937792D01*
X116103047Y-102077554D01*
X116324515Y-102191040D01*
X116588201Y-102279257D01*
X116897208Y-102343211D01*
X117254633Y-102383910D01*
X117306000Y-102387625D01*
X117376527Y-102400443D01*
X117407921Y-102433101D01*
X117413790Y-102457788D01*
X117404384Y-102513176D01*
X117349304Y-102549185D01*
X117348453Y-102549510D01*
X117302710Y-102556096D01*
X117207692Y-102561625D01*
X117070558Y-102566107D01*
X116898466Y-102569550D01*
X116698576Y-102571964D01*
X116478047Y-102573358D01*
X116244037Y-102573740D01*
X116003706Y-102573120D01*
X115764213Y-102571506D01*
X115532717Y-102568908D01*
X115316376Y-102565334D01*
X115122350Y-102560794D01*
X114957798Y-102555297D01*
X114829879Y-102548851D01*
X114794222Y-102546303D01*
X114553092Y-102523865D01*
X114358455Y-102497858D01*
X114200379Y-102466235D01*
X114068934Y-102426946D01*
X113954187Y-102377943D01*
X113937840Y-102369648D01*
X113777908Y-102260905D01*
X113666659Y-102125230D01*
X113604046Y-101962253D01*
X113590022Y-101771603D01*
X113624540Y-101552910D01*
X113707552Y-101305804D01*
X113782020Y-101140886D01*
X113832995Y-101050852D01*
X113916234Y-100921281D01*
X114028436Y-100756467D01*
X114166299Y-100560703D01*
X114326524Y-100338284D01*
X114505808Y-100093502D01*
X114700851Y-99830651D01*
X114908352Y-99554026D01*
X115125010Y-99267919D01*
X115347524Y-98976625D01*
X115572592Y-98684436D01*
X115796915Y-98395648D01*
X116017190Y-98114553D01*
X116230117Y-97845444D01*
X116432395Y-97592617D01*
X116620723Y-97360364D01*
X116791800Y-97152978D01*
X116942324Y-96974755D01*
X117068995Y-96829987D01*
X117168513Y-96722967D01*
X117209615Y-96682556D01*
X117507310Y-96438177D01*
X117827465Y-96241824D01*
X118176262Y-96090327D01*
X118559883Y-95980517D01*
X118592034Y-95973487D01*
X118679935Y-95956058D01*
X118769126Y-95941907D01*
X118867470Y-95930529D01*
X118982829Y-95921420D01*
X119123065Y-95914075D01*
X119296043Y-95907989D01*
X119509624Y-95902658D01*
X119771672Y-95897577D01*
X119775889Y-95897502D01*
X120026856Y-95893258D01*
X120227368Y-95890512D01*
X120383400Y-95889469D01*
X120500927Y-95890335D01*
G36*
X118031776Y-95538908D02*
G01*
X118206697Y-95541409D01*
X118351644Y-95546100D01*
X118456737Y-95553072D01*
X118500109Y-95559102D01*
X118569811Y-95578618D01*
X118597922Y-95606469D01*
X118598956Y-95657150D01*
X118598886Y-95657757D01*
X118588433Y-95702176D01*
X118560457Y-95728340D01*
X118500464Y-95744823D01*
X118434889Y-95754752D01*
X118241215Y-95782827D01*
X118090176Y-95809285D01*
X117968141Y-95837038D01*
X117861482Y-95868998D01*
X117804262Y-95889490D01*
X117606111Y-95983601D01*
X117387359Y-96122579D01*
X117153864Y-96301435D01*
X116911486Y-96515179D01*
X116666083Y-96758819D01*
X116423515Y-97027367D01*
X116313503Y-97159111D01*
X116224445Y-97270732D01*
X116105808Y-97422902D01*
X115961348Y-97610624D01*
X115794821Y-97828897D01*
X115609982Y-98072723D01*
X115410588Y-98337102D01*
X115200395Y-98617034D01*
X114983157Y-98907521D01*
X114762632Y-99203563D01*
X114542575Y-99500161D01*
X114326741Y-99792315D01*
X114118887Y-100075026D01*
X113970630Y-100277667D01*
X113762972Y-100560886D01*
X113583248Y-100802801D01*
X113427239Y-101008498D01*
X113290727Y-101183063D01*
X113169490Y-101331582D01*
X113059310Y-101459142D01*
X112955967Y-101570827D01*
X112855242Y-101671726D01*
X112752914Y-101766923D01*
X112686330Y-101825735D01*
X112394763Y-102051699D01*
X112094474Y-102227650D01*
X111772821Y-102359881D01*
X111427262Y-102452576D01*
X111276840Y-102478766D01*
X111089635Y-102502825D01*
X110875399Y-102524274D01*
X110643886Y-102542630D01*
X110404848Y-102557414D01*
X110168037Y-102568143D01*
X109943207Y-102574337D01*
X109740109Y-102575516D01*
X109568498Y-102571197D01*
X109438124Y-102560900D01*
X109390011Y-102553055D01*
X109323457Y-102520434D01*
X109292097Y-102468372D01*
X109304384Y-102413353D01*
X109313127Y-102403140D01*
X109350417Y-102386627D01*
X109430875Y-102362590D01*
X109542281Y-102334385D01*
X109659536Y-102308073D01*
X109940236Y-102234805D01*
X110187168Y-102137676D01*
X110421147Y-102007213D01*
X110607501Y-101876630D01*
X110722524Y-101784532D01*
X110843007Y-101677133D01*
X110971422Y-101551462D01*
X111110239Y-101404546D01*
X111261930Y-101233414D01*
X111428968Y-101035092D01*
X111613823Y-100806609D01*
X111818967Y-100544992D01*
X112046873Y-100247269D01*
X112300011Y-99910469D01*
X112580853Y-99531617D01*
X112758551Y-99289889D01*
X113033298Y-98915242D01*
X113277203Y-98582947D01*
X113492756Y-98289802D01*
X113682445Y-98032607D01*
X113848761Y-97808161D01*
X113994191Y-97613264D01*
X114121225Y-97444713D01*
X114232352Y-97299309D01*
X114330062Y-97173850D01*
X114416843Y-97065136D01*
X114495184Y-96969965D01*
X114567575Y-96885137D01*
X114636505Y-96807451D01*
X114704463Y-96733706D01*
X114773938Y-96660701D01*
X114847419Y-96585235D01*
X114915574Y-96516068D01*
X115203399Y-96248218D01*
X115490808Y-96030999D01*
X115787575Y-95859526D01*
X116103473Y-95728913D01*
X116448275Y-95634273D01*
X116798000Y-95574959D01*
X116906091Y-95564715D01*
X117053370Y-95556015D01*
X117229957Y-95548951D01*
X117425971Y-95543617D01*
X117631532Y-95540104D01*
X117836761Y-95538503D01*
X118031776Y-95538908D01*
X118031776Y-95538908D01*
G37*
X118031776Y-95538908D02*
X118206697Y-95541409D01*
X118351644Y-95546100D01*
X118456737Y-95553072D01*
X118500109Y-95559102D01*
X118569811Y-95578618D01*
X118597922Y-95606469D01*
X118598956Y-95657150D01*
X118598886Y-95657757D01*
X118588433Y-95702176D01*
X118560457Y-95728340D01*
X118500464Y-95744823D01*
X118434889Y-95754752D01*
X118241215Y-95782827D01*
X118090176Y-95809285D01*
X117968141Y-95837038D01*
X117861482Y-95868998D01*
X117804262Y-95889490D01*
X117606111Y-95983601D01*
X117387359Y-96122579D01*
X117153864Y-96301435D01*
X116911486Y-96515179D01*
X116666083Y-96758819D01*
X116423515Y-97027367D01*
X116313503Y-97159111D01*
X116224445Y-97270732D01*
X116105808Y-97422902D01*
X115961348Y-97610624D01*
X115794821Y-97828897D01*
X115609982Y-98072723D01*
X115410588Y-98337102D01*
X115200395Y-98617034D01*
X114983157Y-98907521D01*
X114762632Y-99203563D01*
X114542575Y-99500161D01*
X114326741Y-99792315D01*
X114118887Y-100075026D01*
X113970630Y-100277667D01*
X113762972Y-100560886D01*
X113583248Y-100802801D01*
X113427239Y-101008498D01*
X113290727Y-101183063D01*
X113169490Y-101331582D01*
X113059310Y-101459142D01*
X112955967Y-101570827D01*
X112855242Y-101671726D01*
X112752914Y-101766923D01*
X112686330Y-101825735D01*
X112394763Y-102051699D01*
X112094474Y-102227650D01*
X111772821Y-102359881D01*
X111427262Y-102452576D01*
X111276840Y-102478766D01*
X111089635Y-102502825D01*
X110875399Y-102524274D01*
X110643886Y-102542630D01*
X110404848Y-102557414D01*
X110168037Y-102568143D01*
X109943207Y-102574337D01*
X109740109Y-102575516D01*
X109568498Y-102571197D01*
X109438124Y-102560900D01*
X109390011Y-102553055D01*
X109323457Y-102520434D01*
X109292097Y-102468372D01*
X109304384Y-102413353D01*
X109313127Y-102403140D01*
X109350417Y-102386627D01*
X109430875Y-102362590D01*
X109542281Y-102334385D01*
X109659536Y-102308073D01*
X109940236Y-102234805D01*
X110187168Y-102137676D01*
X110421147Y-102007213D01*
X110607501Y-101876630D01*
X110722524Y-101784532D01*
X110843007Y-101677133D01*
X110971422Y-101551462D01*
X111110239Y-101404546D01*
X111261930Y-101233414D01*
X111428968Y-101035092D01*
X111613823Y-100806609D01*
X111818967Y-100544992D01*
X112046873Y-100247269D01*
X112300011Y-99910469D01*
X112580853Y-99531617D01*
X112758551Y-99289889D01*
X113033298Y-98915242D01*
X113277203Y-98582947D01*
X113492756Y-98289802D01*
X113682445Y-98032607D01*
X113848761Y-97808161D01*
X113994191Y-97613264D01*
X114121225Y-97444713D01*
X114232352Y-97299309D01*
X114330062Y-97173850D01*
X114416843Y-97065136D01*
X114495184Y-96969965D01*
X114567575Y-96885137D01*
X114636505Y-96807451D01*
X114704463Y-96733706D01*
X114773938Y-96660701D01*
X114847419Y-96585235D01*
X114915574Y-96516068D01*
X115203399Y-96248218D01*
X115490808Y-96030999D01*
X115787575Y-95859526D01*
X116103473Y-95728913D01*
X116448275Y-95634273D01*
X116798000Y-95574959D01*
X116906091Y-95564715D01*
X117053370Y-95556015D01*
X117229957Y-95548951D01*
X117425971Y-95543617D01*
X117631532Y-95540104D01*
X117836761Y-95538503D01*
X118031776Y-95538908D01*
D12*
X151400001Y-80699999D02*
X152050001Y-80699999D01*
X151400001Y-66449999D02*
X152160001Y-66449999D01*
X165650001Y-66449999D02*
X164890001Y-66449999D01*
X165650001Y-80699999D02*
X164890001Y-80699999D01*
X151400001Y-80699999D02*
X151400001Y-79939999D01*
X165650001Y-80699999D02*
X165650001Y-79939999D01*
X165650001Y-66449999D02*
X165650001Y-67209999D01*
X151400001Y-66449999D02*
X151400001Y-67209999D01*
X152050001Y-80699999D02*
X152050001Y-82224999D01*
D13*
X163260000Y-87896267D02*
X163260000Y-87553733D01*
X162240000Y-87896267D02*
X162240000Y-87553733D01*
X152071267Y-90640000D02*
X151728733Y-90640000D01*
X152071267Y-91660000D02*
X151728733Y-91660000D01*
X143597936Y-54710000D02*
X144802064Y-54710000D01*
X143597936Y-52890000D02*
X144802064Y-52890000D01*
X136810000Y-102171267D02*
X136810000Y-101828733D01*
X135790000Y-102171267D02*
X135790000Y-101828733D01*
X157540000Y-93970000D02*
X159000000Y-93970000D01*
X157540000Y-97130000D02*
X159700000Y-97130000D01*
X157540000Y-97130000D02*
X157540000Y-96200000D01*
X157540000Y-93970000D02*
X157540000Y-94900000D01*
X158440000Y-102770000D02*
X156980000Y-102770000D01*
X158440000Y-99610000D02*
X156280000Y-99610000D01*
X158440000Y-99610000D02*
X158440000Y-100540000D01*
X158440000Y-102770000D02*
X158440000Y-101840000D01*
X174060000Y-73780000D02*
X172600000Y-73780000D01*
X174060000Y-70620000D02*
X171900000Y-70620000D01*
X174060000Y-70620000D02*
X174060000Y-71550000D01*
X174060000Y-73780000D02*
X174060000Y-72850000D01*
X138940000Y-100120000D02*
X140400000Y-100120000D01*
X138940000Y-103280000D02*
X141100000Y-103280000D01*
X138940000Y-103280000D02*
X138940000Y-102350000D01*
X138940000Y-100120000D02*
X138940000Y-101050000D01*
X128640000Y-98120000D02*
X130100000Y-98120000D01*
X128640000Y-101280000D02*
X130800000Y-101280000D01*
X128640000Y-101280000D02*
X128640000Y-100350000D01*
X128640000Y-98120000D02*
X128640000Y-99050000D01*
X139040000Y-95120000D02*
X140500000Y-95120000D01*
X139040000Y-98280000D02*
X141200000Y-98280000D01*
X139040000Y-98280000D02*
X139040000Y-97350000D01*
X139040000Y-95120000D02*
X139040000Y-96050000D01*
X128640000Y-87320000D02*
X130100000Y-87320000D01*
X128640000Y-90480000D02*
X130800000Y-90480000D01*
X128640000Y-90480000D02*
X128640000Y-89550000D01*
X128640000Y-87320000D02*
X128640000Y-88250000D01*
X139040000Y-85120000D02*
X140500000Y-85120000D01*
X139040000Y-88280000D02*
X141200000Y-88280000D01*
X139040000Y-88280000D02*
X139040000Y-87350000D01*
X139040000Y-85120000D02*
X139040000Y-86050000D01*
X139040000Y-90320000D02*
X140500000Y-90320000D01*
X139040000Y-93480000D02*
X141200000Y-93480000D01*
X139040000Y-93480000D02*
X139040000Y-92550000D01*
X139040000Y-90320000D02*
X139040000Y-91250000D01*
X128640000Y-82420000D02*
X130100000Y-82420000D01*
X128640000Y-85580000D02*
X130800000Y-85580000D01*
X128640000Y-85580000D02*
X128640000Y-84650000D01*
X128640000Y-82420000D02*
X128640000Y-83350000D01*
X128540000Y-92320000D02*
X130000000Y-92320000D01*
X128540000Y-95480000D02*
X130700000Y-95480000D01*
X128540000Y-95480000D02*
X128540000Y-94550000D01*
X128540000Y-92320000D02*
X128540000Y-93250000D01*
X125090000Y-100353733D02*
X125090000Y-100696267D01*
X126110000Y-100353733D02*
X126110000Y-100696267D01*
X135790000Y-97428733D02*
X135790000Y-97771267D01*
X136810000Y-97428733D02*
X136810000Y-97771267D01*
X149740000Y-59760000D02*
X149740000Y-58700000D01*
X150800000Y-59760000D02*
X149740000Y-59760000D01*
X149740000Y-57700000D02*
X149740000Y-55640000D01*
X151800000Y-57700000D02*
X149740000Y-57700000D01*
X151800000Y-59760000D02*
X151800000Y-57700000D01*
X149740000Y-55640000D02*
X159860000Y-55640000D01*
X151800000Y-59760000D02*
X159860000Y-59760000D01*
X159860000Y-59760000D02*
X159860000Y-55640000D01*
X163038748Y-59410000D02*
X163561252Y-59410000D01*
X163038748Y-57990000D02*
X163561252Y-57990000D01*
X142361252Y-65390000D02*
X141838748Y-65390000D01*
X142361252Y-66810000D02*
X141838748Y-66810000D01*
X153240000Y-95338748D02*
X153240000Y-95861252D01*
X154660000Y-95338748D02*
X154660000Y-95861252D01*
X111710000Y-57963748D02*
X111710000Y-58486252D01*
X110290000Y-57963748D02*
X110290000Y-58486252D01*
X143716253Y-56640000D02*
X143193749Y-56640000D01*
X143716253Y-58060000D02*
X143193749Y-58060000D01*
X116636252Y-65260000D02*
X116113748Y-65260000D01*
X116636252Y-63840000D02*
X116113748Y-63840000D01*
X170138748Y-79310000D02*
X170661252Y-79310000D01*
X170138748Y-77890000D02*
X170661252Y-77890000D01*
X170710000Y-67638748D02*
X170710000Y-68161252D01*
X169290000Y-67638748D02*
X169290000Y-68161252D01*
X154161252Y-85510000D02*
X153638748Y-85510000D01*
X154161252Y-84090000D02*
X153638748Y-84090000D01*
X147510000Y-79661252D02*
X147510000Y-79138748D01*
X146090000Y-79661252D02*
X146090000Y-79138748D01*
X134138748Y-66290000D02*
X134661252Y-66290000D01*
X134138748Y-67710000D02*
X134661252Y-67710000D01*
X134761252Y-74810000D02*
X134238748Y-74810000D01*
X134761252Y-73390000D02*
X134238748Y-73390000D01*
X152538748Y-61690000D02*
X153061252Y-61690000D01*
X152538748Y-63110000D02*
X153061252Y-63110000D01*
X153070000Y-101028748D02*
X153070000Y-101551252D01*
X154490000Y-101028748D02*
X154490000Y-101551252D01*
X142611252Y-82660000D02*
X142088748Y-82660000D01*
X142611252Y-81240000D02*
X142088748Y-81240000D01*
D15*
X101300000Y-98650000D02*
X108300000Y-98650000D01*
X108300000Y-98650000D02*
X108300000Y-92150000D01*
X108300000Y-92150000D02*
X108300000Y-65650000D01*
X108300000Y-65650000D02*
X108300000Y-59150000D01*
X108300000Y-59150000D02*
X101300000Y-59150000D01*
X101300000Y-59150000D02*
X101300000Y-62650000D01*
X101300000Y-62650000D02*
X101300000Y-95150000D01*
X101300000Y-95150000D02*
X101300000Y-98650000D01*
X108300000Y-65650000D02*
X121800000Y-65650000D01*
X121800000Y-65650000D02*
X121800000Y-92150000D01*
X121800000Y-92150000D02*
X108300000Y-92150000D01*
X101300000Y-62650000D02*
X85300000Y-62650000D01*
X85300000Y-62650000D02*
X85300000Y-95150000D01*
X85300000Y-95150000D02*
X101300000Y-95150000D01*
D16*
X111508000Y-64801000D02*
G75*
G03X111508000Y-64801000I-200000J0D01*
G01*
D13*
X163028733Y-62010000D02*
X163371267Y-62010000D01*
X163028733Y-60990000D02*
X163371267Y-60990000D01*
X133910000Y-93678733D02*
X133910000Y-94021267D01*
X132890000Y-93678733D02*
X132890000Y-94021267D01*
X132890000Y-83728733D02*
X132890000Y-84071267D01*
X133910000Y-83728733D02*
X133910000Y-84071267D01*
X143510000Y-91728733D02*
X143510000Y-92071267D01*
X142490000Y-91728733D02*
X142490000Y-92071267D01*
X142390000Y-86378733D02*
X142390000Y-86721267D01*
X143410000Y-86378733D02*
X143410000Y-86721267D01*
X133910000Y-88628733D02*
X133910000Y-88971267D01*
X132890000Y-88628733D02*
X132890000Y-88971267D01*
X137196267Y-79940000D02*
X136853733Y-79940000D01*
X137196267Y-80960000D02*
X136853733Y-80960000D01*
X142590000Y-96428733D02*
X142590000Y-96771267D01*
X143610000Y-96428733D02*
X143610000Y-96771267D01*
X133910000Y-99628733D02*
X133910000Y-99971267D01*
X132890000Y-99628733D02*
X132890000Y-99971267D01*
X142590000Y-101628733D02*
X142590000Y-101971267D01*
X143610000Y-101628733D02*
X143610000Y-101971267D01*
X170410000Y-72271267D02*
X170410000Y-71928733D01*
X169390000Y-72271267D02*
X169390000Y-71928733D01*
X170903733Y-97610000D02*
X171246267Y-97610000D01*
X170903733Y-96590000D02*
X171246267Y-96590000D01*
X172071267Y-89090000D02*
X171728733Y-89090000D01*
X172071267Y-90110000D02*
X171728733Y-90110000D01*
X174910000Y-93903733D02*
X174910000Y-94246267D01*
X173890000Y-93903733D02*
X173890000Y-94246267D01*
X109910000Y-63778733D02*
X109910000Y-64121267D01*
X108890000Y-63778733D02*
X108890000Y-64121267D01*
X111740000Y-63803733D02*
X111740000Y-64146267D01*
X112760000Y-63803733D02*
X112760000Y-64146267D01*
X150570000Y-101018733D02*
X150570000Y-101361267D01*
X151590000Y-101018733D02*
X151590000Y-101361267D01*
X148370000Y-101361267D02*
X148370000Y-101018733D01*
X149390000Y-101361267D02*
X149390000Y-101018733D01*
X157951267Y-104800000D02*
X157608733Y-104800000D01*
X157951267Y-103780000D02*
X157608733Y-103780000D01*
X137246267Y-76790000D02*
X136903733Y-76790000D01*
X137246267Y-77810000D02*
X136903733Y-77810000D01*
X147720000Y-95353733D02*
X147720000Y-95696267D01*
X148740000Y-95353733D02*
X148740000Y-95696267D01*
X150630000Y-95681267D02*
X150630000Y-95338733D01*
X151650000Y-95681267D02*
X151650000Y-95338733D01*
X162250000Y-95681267D02*
X162250000Y-95338733D01*
X161230000Y-95681267D02*
X161230000Y-95338733D01*
X144590000Y-61250000D02*
X144590000Y-64110000D01*
X144590000Y-64110000D02*
X146510000Y-64110000D01*
X146510000Y-64110000D02*
X146510000Y-61250000D01*
X124915000Y-66560000D02*
X127775000Y-66560000D01*
X124915000Y-64640000D02*
X124915000Y-66560000D01*
X127775000Y-64640000D02*
X124915000Y-64640000D01*
D12*
X145875000Y-73170000D02*
X145875000Y-73120000D01*
X141725000Y-73170000D02*
X141725000Y-73025000D01*
X141725000Y-68020000D02*
X141725000Y-68165000D01*
X145875000Y-68020000D02*
X145875000Y-68165000D01*
X145875000Y-73170000D02*
X141725000Y-73170000D01*
X145875000Y-68020000D02*
X141725000Y-68020000D01*
X145875000Y-73120000D02*
X147275000Y-73120000D01*
D13*
X139810000Y-55190000D02*
X138550000Y-55190000D01*
X132990000Y-55190000D02*
X134250000Y-55190000D01*
X139810000Y-58950000D02*
X139810000Y-55190000D01*
X132990000Y-61200000D02*
X132990000Y-55190000D01*
X141150000Y-79860000D02*
X142950000Y-79860000D01*
X142950000Y-76640000D02*
X140500000Y-76640000D01*
D12*
X157373809Y-86276190D02*
X157373809Y-86752380D01*
X157040476Y-85752380D02*
X157373809Y-86276190D01*
X157707142Y-85752380D01*
X158564285Y-86752380D02*
X157992857Y-86752380D01*
X158278571Y-86752380D02*
X158278571Y-85752380D01*
X158183333Y-85895238D01*
X158088095Y-85990476D01*
X157992857Y-86038095D01*
X130652380Y-70816666D02*
X130652380Y-71292857D01*
X129652380Y-71292857D01*
X129747619Y-70530952D02*
X129700000Y-70483333D01*
X129652380Y-70388095D01*
X129652380Y-70150000D01*
X129700000Y-70054761D01*
X129747619Y-70007142D01*
X129842857Y-69959523D01*
X129938095Y-69959523D01*
X130080952Y-70007142D01*
X130652380Y-70578571D01*
X130652380Y-69959523D01*
X159832142Y-84022380D02*
X159498809Y-83546190D01*
X159260714Y-84022380D02*
X159260714Y-83022380D01*
X159641666Y-83022380D01*
X159736904Y-83070000D01*
X159784523Y-83117619D01*
X159832142Y-83212857D01*
X159832142Y-83355714D01*
X159784523Y-83450952D01*
X159736904Y-83498571D01*
X159641666Y-83546190D01*
X159260714Y-83546190D01*
X160784523Y-84022380D02*
X160213095Y-84022380D01*
X160498809Y-84022380D02*
X160498809Y-83022380D01*
X160403571Y-83165238D01*
X160308333Y-83260476D01*
X160213095Y-83308095D01*
X161165476Y-83117619D02*
X161213095Y-83070000D01*
X161308333Y-83022380D01*
X161546428Y-83022380D01*
X161641666Y-83070000D01*
X161689285Y-83117619D01*
X161736904Y-83212857D01*
X161736904Y-83308095D01*
X161689285Y-83450952D01*
X161117857Y-84022380D01*
X161736904Y-84022380D01*
X148327381Y-74336903D02*
X149136905Y-74336903D01*
X149232143Y-74289284D01*
X149279762Y-74241665D01*
X149327381Y-74146427D01*
X149327381Y-73955951D01*
X149279762Y-73860713D01*
X149232143Y-73813094D01*
X149136905Y-73765475D01*
X148327381Y-73765475D01*
X149327381Y-72765475D02*
X149327381Y-73336903D01*
X149327381Y-73051189D02*
X148327381Y-73051189D01*
X148470239Y-73146427D01*
X148565477Y-73241665D01*
X148613096Y-73336903D01*
X164607142Y-87766666D02*
X164654761Y-87814285D01*
X164702380Y-87957142D01*
X164702380Y-88052380D01*
X164654761Y-88195238D01*
X164559523Y-88290476D01*
X164464285Y-88338095D01*
X164273809Y-88385714D01*
X164130952Y-88385714D01*
X163940476Y-88338095D01*
X163845238Y-88290476D01*
X163750000Y-88195238D01*
X163702380Y-88052380D01*
X163702380Y-87957142D01*
X163750000Y-87814285D01*
X163797619Y-87766666D01*
X164130952Y-87195238D02*
X164083333Y-87290476D01*
X164035714Y-87338095D01*
X163940476Y-87385714D01*
X163892857Y-87385714D01*
X163797619Y-87338095D01*
X163750000Y-87290476D01*
X163702380Y-87195238D01*
X163702380Y-87004761D01*
X163750000Y-86909523D01*
X163797619Y-86861904D01*
X163892857Y-86814285D01*
X163940476Y-86814285D01*
X164035714Y-86861904D01*
X164083333Y-86909523D01*
X164130952Y-87004761D01*
X164130952Y-87195238D01*
X164178571Y-87290476D01*
X164226190Y-87338095D01*
X164321428Y-87385714D01*
X164511904Y-87385714D01*
X164607142Y-87338095D01*
X164654761Y-87290476D01*
X164702380Y-87195238D01*
X164702380Y-87004761D01*
X164654761Y-86909523D01*
X164607142Y-86861904D01*
X164511904Y-86814285D01*
X164321428Y-86814285D01*
X164226190Y-86861904D01*
X164178571Y-86909523D01*
X164130952Y-87004761D01*
X151733333Y-92937142D02*
X151685714Y-92984761D01*
X151542857Y-93032380D01*
X151447619Y-93032380D01*
X151304761Y-92984761D01*
X151209523Y-92889523D01*
X151161904Y-92794285D01*
X151114285Y-92603809D01*
X151114285Y-92460952D01*
X151161904Y-92270476D01*
X151209523Y-92175238D01*
X151304761Y-92080000D01*
X151447619Y-92032380D01*
X151542857Y-92032380D01*
X151685714Y-92080000D01*
X151733333Y-92127619D01*
X152066666Y-92032380D02*
X152733333Y-92032380D01*
X152304761Y-93032380D01*
X148357142Y-54342857D02*
X148404761Y-54390476D01*
X148452380Y-54533333D01*
X148452380Y-54628571D01*
X148404761Y-54771428D01*
X148309523Y-54866666D01*
X148214285Y-54914285D01*
X148023809Y-54961904D01*
X147880952Y-54961904D01*
X147690476Y-54914285D01*
X147595238Y-54866666D01*
X147500000Y-54771428D01*
X147452380Y-54628571D01*
X147452380Y-54533333D01*
X147500000Y-54390476D01*
X147547619Y-54342857D01*
X147452380Y-54009523D02*
X147452380Y-53390476D01*
X147833333Y-53723809D01*
X147833333Y-53580952D01*
X147880952Y-53485714D01*
X147928571Y-53438095D01*
X148023809Y-53390476D01*
X148261904Y-53390476D01*
X148357142Y-53438095D01*
X148404761Y-53485714D01*
X148452380Y-53580952D01*
X148452380Y-53866666D01*
X148404761Y-53961904D01*
X148357142Y-54009523D01*
X147785714Y-52533333D02*
X148452380Y-52533333D01*
X147404761Y-52771428D02*
X148119047Y-53009523D01*
X148119047Y-52390476D01*
X135657142Y-105002380D02*
X135323809Y-104526190D01*
X135085714Y-105002380D02*
X135085714Y-104002380D01*
X135466666Y-104002380D01*
X135561904Y-104050000D01*
X135609523Y-104097619D01*
X135657142Y-104192857D01*
X135657142Y-104335714D01*
X135609523Y-104430952D01*
X135561904Y-104478571D01*
X135466666Y-104526190D01*
X135085714Y-104526190D01*
X136609523Y-105002380D02*
X136038095Y-105002380D01*
X136323809Y-105002380D02*
X136323809Y-104002380D01*
X136228571Y-104145238D01*
X136133333Y-104240476D01*
X136038095Y-104288095D01*
X137561904Y-105002380D02*
X136990476Y-105002380D01*
X137276190Y-105002380D02*
X137276190Y-104002380D01*
X137180952Y-104145238D01*
X137085714Y-104240476D01*
X136990476Y-104288095D01*
X157728571Y-98697619D02*
X157633333Y-98650000D01*
X157538095Y-98554761D01*
X157395238Y-98411904D01*
X157300000Y-98364285D01*
X157204761Y-98364285D01*
X157252380Y-98602380D02*
X157157142Y-98554761D01*
X157061904Y-98459523D01*
X157014285Y-98269047D01*
X157014285Y-97935714D01*
X157061904Y-97745238D01*
X157157142Y-97650000D01*
X157252380Y-97602380D01*
X157442857Y-97602380D01*
X157538095Y-97650000D01*
X157633333Y-97745238D01*
X157680952Y-97935714D01*
X157680952Y-98269047D01*
X157633333Y-98459523D01*
X157538095Y-98554761D01*
X157442857Y-98602380D01*
X157252380Y-98602380D01*
X158633333Y-98602380D02*
X158061904Y-98602380D01*
X158347619Y-98602380D02*
X158347619Y-97602380D01*
X158252380Y-97745238D01*
X158157142Y-97840476D01*
X158061904Y-97888095D01*
X159538095Y-97602380D02*
X159061904Y-97602380D01*
X159014285Y-98078571D01*
X159061904Y-98030952D01*
X159157142Y-97983333D01*
X159395238Y-97983333D01*
X159490476Y-98030952D01*
X159538095Y-98078571D01*
X159585714Y-98173809D01*
X159585714Y-98411904D01*
X159538095Y-98507142D01*
X159490476Y-98554761D01*
X159395238Y-98602380D01*
X159157142Y-98602380D01*
X159061904Y-98554761D01*
X159014285Y-98507142D01*
X160827619Y-101661428D02*
X160780000Y-101756666D01*
X160684761Y-101851904D01*
X160541904Y-101994761D01*
X160494285Y-102090000D01*
X160494285Y-102185238D01*
X160732380Y-102137619D02*
X160684761Y-102232857D01*
X160589523Y-102328095D01*
X160399047Y-102375714D01*
X160065714Y-102375714D01*
X159875238Y-102328095D01*
X159780000Y-102232857D01*
X159732380Y-102137619D01*
X159732380Y-101947142D01*
X159780000Y-101851904D01*
X159875238Y-101756666D01*
X160065714Y-101709047D01*
X160399047Y-101709047D01*
X160589523Y-101756666D01*
X160684761Y-101851904D01*
X160732380Y-101947142D01*
X160732380Y-102137619D01*
X160732380Y-100756666D02*
X160732380Y-101328095D01*
X160732380Y-101042380D02*
X159732380Y-101042380D01*
X159875238Y-101137619D01*
X159970476Y-101232857D01*
X160018095Y-101328095D01*
X160065714Y-99899523D02*
X160732380Y-99899523D01*
X159684761Y-100137619D02*
X160399047Y-100375714D01*
X160399047Y-99756666D01*
X172728571Y-75697619D02*
X172633333Y-75650000D01*
X172538095Y-75554761D01*
X172395238Y-75411904D01*
X172300000Y-75364285D01*
X172204761Y-75364285D01*
X172252380Y-75602380D02*
X172157142Y-75554761D01*
X172061904Y-75459523D01*
X172014285Y-75269047D01*
X172014285Y-74935714D01*
X172061904Y-74745238D01*
X172157142Y-74650000D01*
X172252380Y-74602380D01*
X172442857Y-74602380D01*
X172538095Y-74650000D01*
X172633333Y-74745238D01*
X172680952Y-74935714D01*
X172680952Y-75269047D01*
X172633333Y-75459523D01*
X172538095Y-75554761D01*
X172442857Y-75602380D01*
X172252380Y-75602380D01*
X173633333Y-75602380D02*
X173061904Y-75602380D01*
X173347619Y-75602380D02*
X173347619Y-74602380D01*
X173252380Y-74745238D01*
X173157142Y-74840476D01*
X173061904Y-74888095D01*
X174252380Y-74602380D02*
X174347619Y-74602380D01*
X174442857Y-74650000D01*
X174490476Y-74697619D01*
X174538095Y-74792857D01*
X174585714Y-74983333D01*
X174585714Y-75221428D01*
X174538095Y-75411904D01*
X174490476Y-75507142D01*
X174442857Y-75554761D01*
X174347619Y-75602380D01*
X174252380Y-75602380D01*
X174157142Y-75554761D01*
X174109523Y-75507142D01*
X174061904Y-75411904D01*
X174014285Y-75221428D01*
X174014285Y-74983333D01*
X174061904Y-74792857D01*
X174109523Y-74697619D01*
X174157142Y-74650000D01*
X174252380Y-74602380D01*
X140004761Y-104747619D02*
X139909523Y-104700000D01*
X139814285Y-104604761D01*
X139671428Y-104461904D01*
X139576190Y-104414285D01*
X139480952Y-104414285D01*
X139528571Y-104652380D02*
X139433333Y-104604761D01*
X139338095Y-104509523D01*
X139290476Y-104319047D01*
X139290476Y-103985714D01*
X139338095Y-103795238D01*
X139433333Y-103700000D01*
X139528571Y-103652380D01*
X139719047Y-103652380D01*
X139814285Y-103700000D01*
X139909523Y-103795238D01*
X139957142Y-103985714D01*
X139957142Y-104319047D01*
X139909523Y-104509523D01*
X139814285Y-104604761D01*
X139719047Y-104652380D01*
X139528571Y-104652380D01*
X140528571Y-104080952D02*
X140433333Y-104033333D01*
X140385714Y-103985714D01*
X140338095Y-103890476D01*
X140338095Y-103842857D01*
X140385714Y-103747619D01*
X140433333Y-103700000D01*
X140528571Y-103652380D01*
X140719047Y-103652380D01*
X140814285Y-103700000D01*
X140861904Y-103747619D01*
X140909523Y-103842857D01*
X140909523Y-103890476D01*
X140861904Y-103985714D01*
X140814285Y-104033333D01*
X140719047Y-104080952D01*
X140528571Y-104080952D01*
X140433333Y-104128571D01*
X140385714Y-104176190D01*
X140338095Y-104271428D01*
X140338095Y-104461904D01*
X140385714Y-104557142D01*
X140433333Y-104604761D01*
X140528571Y-104652380D01*
X140719047Y-104652380D01*
X140814285Y-104604761D01*
X140861904Y-104557142D01*
X140909523Y-104461904D01*
X140909523Y-104271428D01*
X140861904Y-104176190D01*
X140814285Y-104128571D01*
X140719047Y-104080952D01*
X129404761Y-102947619D02*
X129309523Y-102900000D01*
X129214285Y-102804761D01*
X129071428Y-102661904D01*
X128976190Y-102614285D01*
X128880952Y-102614285D01*
X128928571Y-102852380D02*
X128833333Y-102804761D01*
X128738095Y-102709523D01*
X128690476Y-102519047D01*
X128690476Y-102185714D01*
X128738095Y-101995238D01*
X128833333Y-101900000D01*
X128928571Y-101852380D01*
X129119047Y-101852380D01*
X129214285Y-101900000D01*
X129309523Y-101995238D01*
X129357142Y-102185714D01*
X129357142Y-102519047D01*
X129309523Y-102709523D01*
X129214285Y-102804761D01*
X129119047Y-102852380D01*
X128928571Y-102852380D01*
X129690476Y-101852380D02*
X130357142Y-101852380D01*
X129928571Y-102852380D01*
X139704761Y-99747619D02*
X139609523Y-99700000D01*
X139514285Y-99604761D01*
X139371428Y-99461904D01*
X139276190Y-99414285D01*
X139180952Y-99414285D01*
X139228571Y-99652380D02*
X139133333Y-99604761D01*
X139038095Y-99509523D01*
X138990476Y-99319047D01*
X138990476Y-98985714D01*
X139038095Y-98795238D01*
X139133333Y-98700000D01*
X139228571Y-98652380D01*
X139419047Y-98652380D01*
X139514285Y-98700000D01*
X139609523Y-98795238D01*
X139657142Y-98985714D01*
X139657142Y-99319047D01*
X139609523Y-99509523D01*
X139514285Y-99604761D01*
X139419047Y-99652380D01*
X139228571Y-99652380D01*
X140514285Y-98652380D02*
X140323809Y-98652380D01*
X140228571Y-98700000D01*
X140180952Y-98747619D01*
X140085714Y-98890476D01*
X140038095Y-99080952D01*
X140038095Y-99461904D01*
X140085714Y-99557142D01*
X140133333Y-99604761D01*
X140228571Y-99652380D01*
X140419047Y-99652380D01*
X140514285Y-99604761D01*
X140561904Y-99557142D01*
X140609523Y-99461904D01*
X140609523Y-99223809D01*
X140561904Y-99128571D01*
X140514285Y-99080952D01*
X140419047Y-99033333D01*
X140228571Y-99033333D01*
X140133333Y-99080952D01*
X140085714Y-99128571D01*
X140038095Y-99223809D01*
X127447619Y-88795238D02*
X127400000Y-88890476D01*
X127304761Y-88985714D01*
X127161904Y-89128571D01*
X127114285Y-89223809D01*
X127114285Y-89319047D01*
X127352380Y-89271428D02*
X127304761Y-89366666D01*
X127209523Y-89461904D01*
X127019047Y-89509523D01*
X126685714Y-89509523D01*
X126495238Y-89461904D01*
X126400000Y-89366666D01*
X126352380Y-89271428D01*
X126352380Y-89080952D01*
X126400000Y-88985714D01*
X126495238Y-88890476D01*
X126685714Y-88842857D01*
X127019047Y-88842857D01*
X127209523Y-88890476D01*
X127304761Y-88985714D01*
X127352380Y-89080952D01*
X127352380Y-89271428D01*
X126352380Y-87938095D02*
X126352380Y-88414285D01*
X126828571Y-88461904D01*
X126780952Y-88414285D01*
X126733333Y-88319047D01*
X126733333Y-88080952D01*
X126780952Y-87985714D01*
X126828571Y-87938095D01*
X126923809Y-87890476D01*
X127161904Y-87890476D01*
X127257142Y-87938095D01*
X127304761Y-87985714D01*
X127352380Y-88080952D01*
X127352380Y-88319047D01*
X127304761Y-88414285D01*
X127257142Y-88461904D01*
X139704761Y-89747619D02*
X139609523Y-89700000D01*
X139514285Y-89604761D01*
X139371428Y-89461904D01*
X139276190Y-89414285D01*
X139180952Y-89414285D01*
X139228571Y-89652380D02*
X139133333Y-89604761D01*
X139038095Y-89509523D01*
X138990476Y-89319047D01*
X138990476Y-88985714D01*
X139038095Y-88795238D01*
X139133333Y-88700000D01*
X139228571Y-88652380D01*
X139419047Y-88652380D01*
X139514285Y-88700000D01*
X139609523Y-88795238D01*
X139657142Y-88985714D01*
X139657142Y-89319047D01*
X139609523Y-89509523D01*
X139514285Y-89604761D01*
X139419047Y-89652380D01*
X139228571Y-89652380D01*
X140514285Y-88985714D02*
X140514285Y-89652380D01*
X140276190Y-88604761D02*
X140038095Y-89319047D01*
X140657142Y-89319047D01*
X139704761Y-94947619D02*
X139609523Y-94900000D01*
X139514285Y-94804761D01*
X139371428Y-94661904D01*
X139276190Y-94614285D01*
X139180952Y-94614285D01*
X139228571Y-94852380D02*
X139133333Y-94804761D01*
X139038095Y-94709523D01*
X138990476Y-94519047D01*
X138990476Y-94185714D01*
X139038095Y-93995238D01*
X139133333Y-93900000D01*
X139228571Y-93852380D01*
X139419047Y-93852380D01*
X139514285Y-93900000D01*
X139609523Y-93995238D01*
X139657142Y-94185714D01*
X139657142Y-94519047D01*
X139609523Y-94709523D01*
X139514285Y-94804761D01*
X139419047Y-94852380D01*
X139228571Y-94852380D01*
X139990476Y-93852380D02*
X140609523Y-93852380D01*
X140276190Y-94233333D01*
X140419047Y-94233333D01*
X140514285Y-94280952D01*
X140561904Y-94328571D01*
X140609523Y-94423809D01*
X140609523Y-94661904D01*
X140561904Y-94757142D01*
X140514285Y-94804761D01*
X140419047Y-94852380D01*
X140133333Y-94852380D01*
X140038095Y-94804761D01*
X139990476Y-94757142D01*
X127247619Y-83995238D02*
X127200000Y-84090476D01*
X127104761Y-84185714D01*
X126961904Y-84328571D01*
X126914285Y-84423809D01*
X126914285Y-84519047D01*
X127152380Y-84471428D02*
X127104761Y-84566666D01*
X127009523Y-84661904D01*
X126819047Y-84709523D01*
X126485714Y-84709523D01*
X126295238Y-84661904D01*
X126200000Y-84566666D01*
X126152380Y-84471428D01*
X126152380Y-84280952D01*
X126200000Y-84185714D01*
X126295238Y-84090476D01*
X126485714Y-84042857D01*
X126819047Y-84042857D01*
X127009523Y-84090476D01*
X127104761Y-84185714D01*
X127152380Y-84280952D01*
X127152380Y-84471428D01*
X126247619Y-83661904D02*
X126200000Y-83614285D01*
X126152380Y-83519047D01*
X126152380Y-83280952D01*
X126200000Y-83185714D01*
X126247619Y-83138095D01*
X126342857Y-83090476D01*
X126438095Y-83090476D01*
X126580952Y-83138095D01*
X127152380Y-83709523D01*
X127152380Y-83090476D01*
X127047619Y-93895238D02*
X127000000Y-93990476D01*
X126904761Y-94085714D01*
X126761904Y-94228571D01*
X126714285Y-94323809D01*
X126714285Y-94419047D01*
X126952380Y-94371428D02*
X126904761Y-94466666D01*
X126809523Y-94561904D01*
X126619047Y-94609523D01*
X126285714Y-94609523D01*
X126095238Y-94561904D01*
X126000000Y-94466666D01*
X125952380Y-94371428D01*
X125952380Y-94180952D01*
X126000000Y-94085714D01*
X126095238Y-93990476D01*
X126285714Y-93942857D01*
X126619047Y-93942857D01*
X126809523Y-93990476D01*
X126904761Y-94085714D01*
X126952380Y-94180952D01*
X126952380Y-94371428D01*
X126952380Y-92990476D02*
X126952380Y-93561904D01*
X126952380Y-93276190D02*
X125952380Y-93276190D01*
X126095238Y-93371428D01*
X126190476Y-93466666D01*
X126238095Y-93561904D01*
X124402380Y-100616666D02*
X123926190Y-100950000D01*
X124402380Y-101188095D02*
X123402380Y-101188095D01*
X123402380Y-100807142D01*
X123450000Y-100711904D01*
X123497619Y-100664285D01*
X123592857Y-100616666D01*
X123735714Y-100616666D01*
X123830952Y-100664285D01*
X123878571Y-100711904D01*
X123926190Y-100807142D01*
X123926190Y-101188095D01*
X123402380Y-99711904D02*
X123402380Y-100188095D01*
X123878571Y-100235714D01*
X123830952Y-100188095D01*
X123783333Y-100092857D01*
X123783333Y-99854761D01*
X123830952Y-99759523D01*
X123878571Y-99711904D01*
X123973809Y-99664285D01*
X124211904Y-99664285D01*
X124307142Y-99711904D01*
X124354761Y-99759523D01*
X124402380Y-99854761D01*
X124402380Y-100092857D01*
X124354761Y-100188095D01*
X124307142Y-100235714D01*
X136133333Y-95602380D02*
X135800000Y-95126190D01*
X135561904Y-95602380D02*
X135561904Y-94602380D01*
X135942857Y-94602380D01*
X136038095Y-94650000D01*
X136085714Y-94697619D01*
X136133333Y-94792857D01*
X136133333Y-94935714D01*
X136085714Y-95030952D01*
X136038095Y-95078571D01*
X135942857Y-95126190D01*
X135561904Y-95126190D01*
X136990476Y-94935714D02*
X136990476Y-95602380D01*
X136752380Y-94554761D02*
X136514285Y-95269047D01*
X137133333Y-95269047D01*
X154716666Y-53802380D02*
X154716666Y-54516666D01*
X154669047Y-54659523D01*
X154573809Y-54754761D01*
X154430952Y-54802380D01*
X154335714Y-54802380D01*
X155716666Y-54802380D02*
X155145238Y-54802380D01*
X155430952Y-54802380D02*
X155430952Y-53802380D01*
X155335714Y-53945238D01*
X155240476Y-54040476D01*
X155145238Y-54088095D01*
X166161904Y-94652380D02*
X166161904Y-93652380D01*
X166400000Y-93652380D01*
X166542857Y-93700000D01*
X166638095Y-93795238D01*
X166685714Y-93890476D01*
X166733333Y-94080952D01*
X166733333Y-94223809D01*
X166685714Y-94414285D01*
X166638095Y-94509523D01*
X166542857Y-94604761D01*
X166400000Y-94652380D01*
X166161904Y-94652380D01*
X167590476Y-93985714D02*
X167590476Y-94652380D01*
X167352380Y-93604761D02*
X167114285Y-94319047D01*
X167733333Y-94319047D01*
X166533333Y-58857142D02*
X166485714Y-58904761D01*
X166342857Y-58952380D01*
X166247619Y-58952380D01*
X166104761Y-58904761D01*
X166009523Y-58809523D01*
X165961904Y-58714285D01*
X165914285Y-58523809D01*
X165914285Y-58380952D01*
X165961904Y-58190476D01*
X166009523Y-58095238D01*
X166104761Y-58000000D01*
X166247619Y-57952380D01*
X166342857Y-57952380D01*
X166485714Y-58000000D01*
X166533333Y-58047619D01*
X167485714Y-58952380D02*
X166914285Y-58952380D01*
X167200000Y-58952380D02*
X167200000Y-57952380D01*
X167104761Y-58095238D01*
X167009523Y-58190476D01*
X166914285Y-58238095D01*
X144957142Y-66557142D02*
X144909523Y-66604761D01*
X144766666Y-66652380D01*
X144671428Y-66652380D01*
X144528571Y-66604761D01*
X144433333Y-66509523D01*
X144385714Y-66414285D01*
X144338095Y-66223809D01*
X144338095Y-66080952D01*
X144385714Y-65890476D01*
X144433333Y-65795238D01*
X144528571Y-65700000D01*
X144671428Y-65652380D01*
X144766666Y-65652380D01*
X144909523Y-65700000D01*
X144957142Y-65747619D01*
X145909523Y-66652380D02*
X145338095Y-66652380D01*
X145623809Y-66652380D02*
X145623809Y-65652380D01*
X145528571Y-65795238D01*
X145433333Y-65890476D01*
X145338095Y-65938095D01*
X146242857Y-65652380D02*
X146909523Y-65652380D01*
X146480952Y-66652380D01*
X156107142Y-96142857D02*
X156154761Y-96190476D01*
X156202380Y-96333333D01*
X156202380Y-96428571D01*
X156154761Y-96571428D01*
X156059523Y-96666666D01*
X155964285Y-96714285D01*
X155773809Y-96761904D01*
X155630952Y-96761904D01*
X155440476Y-96714285D01*
X155345238Y-96666666D01*
X155250000Y-96571428D01*
X155202380Y-96428571D01*
X155202380Y-96333333D01*
X155250000Y-96190476D01*
X155297619Y-96142857D01*
X156202380Y-95190476D02*
X156202380Y-95761904D01*
X156202380Y-95476190D02*
X155202380Y-95476190D01*
X155345238Y-95571428D01*
X155440476Y-95666666D01*
X155488095Y-95761904D01*
X155630952Y-94619047D02*
X155583333Y-94714285D01*
X155535714Y-94761904D01*
X155440476Y-94809523D01*
X155392857Y-94809523D01*
X155297619Y-94761904D01*
X155250000Y-94714285D01*
X155202380Y-94619047D01*
X155202380Y-94428571D01*
X155250000Y-94333333D01*
X155297619Y-94285714D01*
X155392857Y-94238095D01*
X155440476Y-94238095D01*
X155535714Y-94285714D01*
X155583333Y-94333333D01*
X155630952Y-94428571D01*
X155630952Y-94619047D01*
X155678571Y-94714285D01*
X155726190Y-94761904D01*
X155821428Y-94809523D01*
X156011904Y-94809523D01*
X156107142Y-94761904D01*
X156154761Y-94714285D01*
X156202380Y-94619047D01*
X156202380Y-94428571D01*
X156154761Y-94333333D01*
X156107142Y-94285714D01*
X156011904Y-94238095D01*
X155821428Y-94238095D01*
X155726190Y-94285714D01*
X155678571Y-94333333D01*
X155630952Y-94428571D01*
X113007142Y-58867857D02*
X113054761Y-58915476D01*
X113102380Y-59058333D01*
X113102380Y-59153571D01*
X113054761Y-59296428D01*
X112959523Y-59391666D01*
X112864285Y-59439285D01*
X112673809Y-59486904D01*
X112530952Y-59486904D01*
X112340476Y-59439285D01*
X112245238Y-59391666D01*
X112150000Y-59296428D01*
X112102380Y-59153571D01*
X112102380Y-59058333D01*
X112150000Y-58915476D01*
X112197619Y-58867857D01*
X113102380Y-57915476D02*
X113102380Y-58486904D01*
X113102380Y-58201190D02*
X112102380Y-58201190D01*
X112245238Y-58296428D01*
X112340476Y-58391666D01*
X112388095Y-58486904D01*
X113102380Y-57439285D02*
X113102380Y-57248809D01*
X113054761Y-57153571D01*
X113007142Y-57105952D01*
X112864285Y-57010714D01*
X112673809Y-56963095D01*
X112292857Y-56963095D01*
X112197619Y-57010714D01*
X112150000Y-57058333D01*
X112102380Y-57153571D01*
X112102380Y-57344047D01*
X112150000Y-57439285D01*
X112197619Y-57486904D01*
X112292857Y-57534523D01*
X112530952Y-57534523D01*
X112626190Y-57486904D01*
X112673809Y-57439285D01*
X112721428Y-57344047D01*
X112721428Y-57153571D01*
X112673809Y-57058333D01*
X112626190Y-57010714D01*
X112530952Y-56963095D01*
X142812143Y-59357142D02*
X142764524Y-59404761D01*
X142621667Y-59452380D01*
X142526429Y-59452380D01*
X142383572Y-59404761D01*
X142288334Y-59309523D01*
X142240715Y-59214285D01*
X142193096Y-59023809D01*
X142193096Y-58880952D01*
X142240715Y-58690476D01*
X142288334Y-58595238D01*
X142383572Y-58500000D01*
X142526429Y-58452380D01*
X142621667Y-58452380D01*
X142764524Y-58500000D01*
X142812143Y-58547619D01*
X143193096Y-58547619D02*
X143240715Y-58500000D01*
X143335953Y-58452380D01*
X143574048Y-58452380D01*
X143669286Y-58500000D01*
X143716905Y-58547619D01*
X143764524Y-58642857D01*
X143764524Y-58738095D01*
X143716905Y-58880952D01*
X143145477Y-59452380D01*
X143764524Y-59452380D01*
X144383572Y-58452380D02*
X144478810Y-58452380D01*
X144574048Y-58500000D01*
X144621667Y-58547619D01*
X144669286Y-58642857D01*
X144716905Y-58833333D01*
X144716905Y-59071428D01*
X144669286Y-59261904D01*
X144621667Y-59357142D01*
X144574048Y-59404761D01*
X144478810Y-59452380D01*
X144383572Y-59452380D01*
X144288334Y-59404761D01*
X144240715Y-59357142D01*
X144193096Y-59261904D01*
X144145477Y-59071428D01*
X144145477Y-58833333D01*
X144193096Y-58642857D01*
X144240715Y-58547619D01*
X144288334Y-58500000D01*
X144383572Y-58452380D01*
X119257142Y-65007142D02*
X119209523Y-65054761D01*
X119066666Y-65102380D01*
X118971428Y-65102380D01*
X118828571Y-65054761D01*
X118733333Y-64959523D01*
X118685714Y-64864285D01*
X118638095Y-64673809D01*
X118638095Y-64530952D01*
X118685714Y-64340476D01*
X118733333Y-64245238D01*
X118828571Y-64150000D01*
X118971428Y-64102380D01*
X119066666Y-64102380D01*
X119209523Y-64150000D01*
X119257142Y-64197619D01*
X119638095Y-64197619D02*
X119685714Y-64150000D01*
X119780952Y-64102380D01*
X120019047Y-64102380D01*
X120114285Y-64150000D01*
X120161904Y-64197619D01*
X120209523Y-64292857D01*
X120209523Y-64388095D01*
X120161904Y-64530952D01*
X119590476Y-65102380D01*
X120209523Y-65102380D01*
X121161904Y-65102380D02*
X120590476Y-65102380D01*
X120876190Y-65102380D02*
X120876190Y-64102380D01*
X120780952Y-64245238D01*
X120685714Y-64340476D01*
X120590476Y-64388095D01*
X169707142Y-80857142D02*
X169659523Y-80904761D01*
X169516666Y-80952380D01*
X169421428Y-80952380D01*
X169278571Y-80904761D01*
X169183333Y-80809523D01*
X169135714Y-80714285D01*
X169088095Y-80523809D01*
X169088095Y-80380952D01*
X169135714Y-80190476D01*
X169183333Y-80095238D01*
X169278571Y-80000000D01*
X169421428Y-79952380D01*
X169516666Y-79952380D01*
X169659523Y-80000000D01*
X169707142Y-80047619D01*
X170088095Y-80047619D02*
X170135714Y-80000000D01*
X170230952Y-79952380D01*
X170469047Y-79952380D01*
X170564285Y-80000000D01*
X170611904Y-80047619D01*
X170659523Y-80142857D01*
X170659523Y-80238095D01*
X170611904Y-80380952D01*
X170040476Y-80952380D01*
X170659523Y-80952380D01*
X171516666Y-80285714D02*
X171516666Y-80952380D01*
X171278571Y-79904761D02*
X171040476Y-80619047D01*
X171659523Y-80619047D01*
X172357142Y-68542857D02*
X172404761Y-68590476D01*
X172452380Y-68733333D01*
X172452380Y-68828571D01*
X172404761Y-68971428D01*
X172309523Y-69066666D01*
X172214285Y-69114285D01*
X172023809Y-69161904D01*
X171880952Y-69161904D01*
X171690476Y-69114285D01*
X171595238Y-69066666D01*
X171500000Y-68971428D01*
X171452380Y-68828571D01*
X171452380Y-68733333D01*
X171500000Y-68590476D01*
X171547619Y-68542857D01*
X171547619Y-68161904D02*
X171500000Y-68114285D01*
X171452380Y-68019047D01*
X171452380Y-67780952D01*
X171500000Y-67685714D01*
X171547619Y-67638095D01*
X171642857Y-67590476D01*
X171738095Y-67590476D01*
X171880952Y-67638095D01*
X172452380Y-68209523D01*
X172452380Y-67590476D01*
X171452380Y-66733333D02*
X171452380Y-66923809D01*
X171500000Y-67019047D01*
X171547619Y-67066666D01*
X171690476Y-67161904D01*
X171880952Y-67209523D01*
X172261904Y-67209523D01*
X172357142Y-67161904D01*
X172404761Y-67114285D01*
X172452380Y-67019047D01*
X172452380Y-66828571D01*
X172404761Y-66733333D01*
X172357142Y-66685714D01*
X172261904Y-66638095D01*
X172023809Y-66638095D01*
X171928571Y-66685714D01*
X171880952Y-66733333D01*
X171833333Y-66828571D01*
X171833333Y-67019047D01*
X171880952Y-67114285D01*
X171928571Y-67161904D01*
X172023809Y-67209523D01*
X149557142Y-85257142D02*
X149509523Y-85304761D01*
X149366666Y-85352380D01*
X149271428Y-85352380D01*
X149128571Y-85304761D01*
X149033333Y-85209523D01*
X148985714Y-85114285D01*
X148938095Y-84923809D01*
X148938095Y-84780952D01*
X148985714Y-84590476D01*
X149033333Y-84495238D01*
X149128571Y-84400000D01*
X149271428Y-84352380D01*
X149366666Y-84352380D01*
X149509523Y-84400000D01*
X149557142Y-84447619D01*
X149938095Y-84447619D02*
X149985714Y-84400000D01*
X150080952Y-84352380D01*
X150319047Y-84352380D01*
X150414285Y-84400000D01*
X150461904Y-84447619D01*
X150509523Y-84542857D01*
X150509523Y-84638095D01*
X150461904Y-84780952D01*
X149890476Y-85352380D01*
X150509523Y-85352380D01*
X150842857Y-84352380D02*
X151509523Y-84352380D01*
X151080952Y-85352380D01*
X147157142Y-76642857D02*
X147204761Y-76690476D01*
X147252380Y-76833333D01*
X147252380Y-76928571D01*
X147204761Y-77071428D01*
X147109523Y-77166666D01*
X147014285Y-77214285D01*
X146823809Y-77261904D01*
X146680952Y-77261904D01*
X146490476Y-77214285D01*
X146395238Y-77166666D01*
X146300000Y-77071428D01*
X146252380Y-76928571D01*
X146252380Y-76833333D01*
X146300000Y-76690476D01*
X146347619Y-76642857D01*
X146347619Y-76261904D02*
X146300000Y-76214285D01*
X146252380Y-76119047D01*
X146252380Y-75880952D01*
X146300000Y-75785714D01*
X146347619Y-75738095D01*
X146442857Y-75690476D01*
X146538095Y-75690476D01*
X146680952Y-75738095D01*
X147252380Y-76309523D01*
X147252380Y-75690476D01*
X146680952Y-75119047D02*
X146633333Y-75214285D01*
X146585714Y-75261904D01*
X146490476Y-75309523D01*
X146442857Y-75309523D01*
X146347619Y-75261904D01*
X146300000Y-75214285D01*
X146252380Y-75119047D01*
X146252380Y-74928571D01*
X146300000Y-74833333D01*
X146347619Y-74785714D01*
X146442857Y-74738095D01*
X146490476Y-74738095D01*
X146585714Y-74785714D01*
X146633333Y-74833333D01*
X146680952Y-74928571D01*
X146680952Y-75119047D01*
X146728571Y-75214285D01*
X146776190Y-75261904D01*
X146871428Y-75309523D01*
X147061904Y-75309523D01*
X147157142Y-75261904D01*
X147204761Y-75214285D01*
X147252380Y-75119047D01*
X147252380Y-74928571D01*
X147204761Y-74833333D01*
X147157142Y-74785714D01*
X147061904Y-74738095D01*
X146871428Y-74738095D01*
X146776190Y-74785714D01*
X146728571Y-74833333D01*
X146680952Y-74928571D01*
X133757142Y-65707142D02*
X133709523Y-65754761D01*
X133566666Y-65802380D01*
X133471428Y-65802380D01*
X133328571Y-65754761D01*
X133233333Y-65659523D01*
X133185714Y-65564285D01*
X133138095Y-65373809D01*
X133138095Y-65230952D01*
X133185714Y-65040476D01*
X133233333Y-64945238D01*
X133328571Y-64850000D01*
X133471428Y-64802380D01*
X133566666Y-64802380D01*
X133709523Y-64850000D01*
X133757142Y-64897619D01*
X134138095Y-64897619D02*
X134185714Y-64850000D01*
X134280952Y-64802380D01*
X134519047Y-64802380D01*
X134614285Y-64850000D01*
X134661904Y-64897619D01*
X134709523Y-64992857D01*
X134709523Y-65088095D01*
X134661904Y-65230952D01*
X134090476Y-65802380D01*
X134709523Y-65802380D01*
X135185714Y-65802380D02*
X135376190Y-65802380D01*
X135471428Y-65754761D01*
X135519047Y-65707142D01*
X135614285Y-65564285D01*
X135661904Y-65373809D01*
X135661904Y-64992857D01*
X135614285Y-64897619D01*
X135566666Y-64850000D01*
X135471428Y-64802380D01*
X135280952Y-64802380D01*
X135185714Y-64850000D01*
X135138095Y-64897619D01*
X135090476Y-64992857D01*
X135090476Y-65230952D01*
X135138095Y-65326190D01*
X135185714Y-65373809D01*
X135280952Y-65421428D01*
X135471428Y-65421428D01*
X135566666Y-65373809D01*
X135614285Y-65326190D01*
X135661904Y-65230952D01*
X133857142Y-76107142D02*
X133809523Y-76154761D01*
X133666666Y-76202380D01*
X133571428Y-76202380D01*
X133428571Y-76154761D01*
X133333333Y-76059523D01*
X133285714Y-75964285D01*
X133238095Y-75773809D01*
X133238095Y-75630952D01*
X133285714Y-75440476D01*
X133333333Y-75345238D01*
X133428571Y-75250000D01*
X133571428Y-75202380D01*
X133666666Y-75202380D01*
X133809523Y-75250000D01*
X133857142Y-75297619D01*
X134190476Y-75202380D02*
X134809523Y-75202380D01*
X134476190Y-75583333D01*
X134619047Y-75583333D01*
X134714285Y-75630952D01*
X134761904Y-75678571D01*
X134809523Y-75773809D01*
X134809523Y-76011904D01*
X134761904Y-76107142D01*
X134714285Y-76154761D01*
X134619047Y-76202380D01*
X134333333Y-76202380D01*
X134238095Y-76154761D01*
X134190476Y-76107142D01*
X135428571Y-75202380D02*
X135523809Y-75202380D01*
X135619047Y-75250000D01*
X135666666Y-75297619D01*
X135714285Y-75392857D01*
X135761904Y-75583333D01*
X135761904Y-75821428D01*
X135714285Y-76011904D01*
X135666666Y-76107142D01*
X135619047Y-76154761D01*
X135523809Y-76202380D01*
X135428571Y-76202380D01*
X135333333Y-76154761D01*
X135285714Y-76107142D01*
X135238095Y-76011904D01*
X135190476Y-75821428D01*
X135190476Y-75583333D01*
X135238095Y-75392857D01*
X135285714Y-75297619D01*
X135333333Y-75250000D01*
X135428571Y-75202380D01*
X155507142Y-62807142D02*
X155459523Y-62854761D01*
X155316666Y-62902380D01*
X155221428Y-62902380D01*
X155078571Y-62854761D01*
X154983333Y-62759523D01*
X154935714Y-62664285D01*
X154888095Y-62473809D01*
X154888095Y-62330952D01*
X154935714Y-62140476D01*
X154983333Y-62045238D01*
X155078571Y-61950000D01*
X155221428Y-61902380D01*
X155316666Y-61902380D01*
X155459523Y-61950000D01*
X155507142Y-61997619D01*
X155840476Y-61902380D02*
X156459523Y-61902380D01*
X156126190Y-62283333D01*
X156269047Y-62283333D01*
X156364285Y-62330952D01*
X156411904Y-62378571D01*
X156459523Y-62473809D01*
X156459523Y-62711904D01*
X156411904Y-62807142D01*
X156364285Y-62854761D01*
X156269047Y-62902380D01*
X155983333Y-62902380D01*
X155888095Y-62854761D01*
X155840476Y-62807142D01*
X157411904Y-62902380D02*
X156840476Y-62902380D01*
X157126190Y-62902380D02*
X157126190Y-61902380D01*
X157030952Y-62045238D01*
X156935714Y-62140476D01*
X156840476Y-62188095D01*
X154237142Y-105432857D02*
X154284761Y-105480476D01*
X154332380Y-105623333D01*
X154332380Y-105718571D01*
X154284761Y-105861428D01*
X154189523Y-105956666D01*
X154094285Y-106004285D01*
X153903809Y-106051904D01*
X153760952Y-106051904D01*
X153570476Y-106004285D01*
X153475238Y-105956666D01*
X153380000Y-105861428D01*
X153332380Y-105718571D01*
X153332380Y-105623333D01*
X153380000Y-105480476D01*
X153427619Y-105432857D01*
X153332380Y-105099523D02*
X153332380Y-104480476D01*
X153713333Y-104813809D01*
X153713333Y-104670952D01*
X153760952Y-104575714D01*
X153808571Y-104528095D01*
X153903809Y-104480476D01*
X154141904Y-104480476D01*
X154237142Y-104528095D01*
X154284761Y-104575714D01*
X154332380Y-104670952D01*
X154332380Y-104956666D01*
X154284761Y-105051904D01*
X154237142Y-105099523D01*
X153427619Y-104099523D02*
X153380000Y-104051904D01*
X153332380Y-103956666D01*
X153332380Y-103718571D01*
X153380000Y-103623333D01*
X153427619Y-103575714D01*
X153522857Y-103528095D01*
X153618095Y-103528095D01*
X153760952Y-103575714D01*
X154332380Y-104147142D01*
X154332380Y-103528095D01*
X141507142Y-84257142D02*
X141459523Y-84304761D01*
X141316666Y-84352380D01*
X141221428Y-84352380D01*
X141078571Y-84304761D01*
X140983333Y-84209523D01*
X140935714Y-84114285D01*
X140888095Y-83923809D01*
X140888095Y-83780952D01*
X140935714Y-83590476D01*
X140983333Y-83495238D01*
X141078571Y-83400000D01*
X141221428Y-83352380D01*
X141316666Y-83352380D01*
X141459523Y-83400000D01*
X141507142Y-83447619D01*
X141840476Y-83352380D02*
X142459523Y-83352380D01*
X142126190Y-83733333D01*
X142269047Y-83733333D01*
X142364285Y-83780952D01*
X142411904Y-83828571D01*
X142459523Y-83923809D01*
X142459523Y-84161904D01*
X142411904Y-84257142D01*
X142364285Y-84304761D01*
X142269047Y-84352380D01*
X141983333Y-84352380D01*
X141888095Y-84304761D01*
X141840476Y-84257142D01*
X142792857Y-83352380D02*
X143411904Y-83352380D01*
X143078571Y-83733333D01*
X143221428Y-83733333D01*
X143316666Y-83780952D01*
X143364285Y-83828571D01*
X143411904Y-83923809D01*
X143411904Y-84161904D01*
X143364285Y-84257142D01*
X143316666Y-84304761D01*
X143221428Y-84352380D01*
X142935714Y-84352380D01*
X142840476Y-84304761D01*
X142792857Y-84257142D01*
D17*
X83808242Y-89707762D02*
X83856008Y-89755528D01*
X83903774Y-89898825D01*
X83903774Y-89994357D01*
X83856008Y-90137654D01*
X83760477Y-90233185D01*
X83664945Y-90280951D01*
X83473882Y-90328717D01*
X83330585Y-90328717D01*
X83139522Y-90280951D01*
X83043991Y-90233185D01*
X82948460Y-90137654D01*
X82900694Y-89994357D01*
X82900694Y-89898825D01*
X82948460Y-89755528D01*
X82996225Y-89707762D01*
X83903774Y-89134574D02*
X83856008Y-89230105D01*
X83808242Y-89277871D01*
X83712711Y-89325637D01*
X83426117Y-89325637D01*
X83330585Y-89277871D01*
X83282820Y-89230105D01*
X83235054Y-89134574D01*
X83235054Y-88991277D01*
X83282820Y-88895745D01*
X83330585Y-88847980D01*
X83426117Y-88800214D01*
X83712711Y-88800214D01*
X83808242Y-88847980D01*
X83856008Y-88895745D01*
X83903774Y-88991277D01*
X83903774Y-89134574D01*
X83235054Y-88370322D02*
X83903774Y-88370322D01*
X83330585Y-88370322D02*
X83282820Y-88322557D01*
X83235054Y-88227025D01*
X83235054Y-88083728D01*
X83282820Y-87988197D01*
X83378351Y-87940431D01*
X83903774Y-87940431D01*
X83235054Y-87462774D02*
X83903774Y-87462774D01*
X83330585Y-87462774D02*
X83282820Y-87415008D01*
X83235054Y-87319477D01*
X83235054Y-87176180D01*
X83282820Y-87080648D01*
X83378351Y-87032882D01*
X83903774Y-87032882D01*
X83999305Y-86794054D02*
X83999305Y-86029802D01*
X82900694Y-85599911D02*
X82900694Y-85504380D01*
X82948460Y-85408848D01*
X82996225Y-85361082D01*
X83091757Y-85313317D01*
X83282820Y-85265551D01*
X83521648Y-85265551D01*
X83712711Y-85313317D01*
X83808242Y-85361082D01*
X83856008Y-85408848D01*
X83903774Y-85504380D01*
X83903774Y-85599911D01*
X83856008Y-85695442D01*
X83808242Y-85743208D01*
X83712711Y-85790974D01*
X83521648Y-85838740D01*
X83282820Y-85838740D01*
X83091757Y-85790974D01*
X82996225Y-85743208D01*
X82948460Y-85695442D01*
X82900694Y-85599911D01*
X82996225Y-84883425D02*
X82948460Y-84835660D01*
X82900694Y-84740128D01*
X82900694Y-84501300D01*
X82948460Y-84405768D01*
X82996225Y-84358002D01*
X83091757Y-84310237D01*
X83187288Y-84310237D01*
X83330585Y-84358002D01*
X83903774Y-84931191D01*
X83903774Y-84310237D01*
X83903774Y-83975877D02*
X83235054Y-83450454D01*
X83235054Y-83975877D02*
X83903774Y-83450454D01*
X83903774Y-82542905D02*
X83903774Y-83116094D01*
X83903774Y-82829500D02*
X82900694Y-82829500D01*
X83043991Y-82925031D01*
X83139522Y-83020562D01*
X83187288Y-83116094D01*
X82900694Y-82208545D02*
X82900694Y-81587591D01*
X83282820Y-81921951D01*
X83282820Y-81778654D01*
X83330585Y-81683122D01*
X83378351Y-81635357D01*
X83473882Y-81587591D01*
X83712711Y-81587591D01*
X83808242Y-81635357D01*
X83856008Y-81683122D01*
X83903774Y-81778654D01*
X83903774Y-82065248D01*
X83856008Y-82160780D01*
X83808242Y-82208545D01*
X83999305Y-81396528D02*
X83999305Y-80632277D01*
X83808242Y-79820260D02*
X83856008Y-79868025D01*
X83903774Y-80011322D01*
X83903774Y-80106854D01*
X83856008Y-80250151D01*
X83760477Y-80345682D01*
X83664945Y-80393448D01*
X83473882Y-80441214D01*
X83330585Y-80441214D01*
X83139522Y-80393448D01*
X83043991Y-80345682D01*
X82948460Y-80250151D01*
X82900694Y-80106854D01*
X82900694Y-80011322D01*
X82948460Y-79868025D01*
X82996225Y-79820260D01*
X83903774Y-79247071D02*
X83856008Y-79342602D01*
X83808242Y-79390368D01*
X83712711Y-79438134D01*
X83426117Y-79438134D01*
X83330585Y-79390368D01*
X83282820Y-79342602D01*
X83235054Y-79247071D01*
X83235054Y-79103774D01*
X83282820Y-79008242D01*
X83330585Y-78960477D01*
X83426117Y-78912711D01*
X83712711Y-78912711D01*
X83808242Y-78960477D01*
X83856008Y-79008242D01*
X83903774Y-79103774D01*
X83903774Y-79247071D01*
X83235054Y-78052928D02*
X83903774Y-78052928D01*
X83235054Y-78482820D02*
X83760477Y-78482820D01*
X83856008Y-78435054D01*
X83903774Y-78339522D01*
X83903774Y-78196225D01*
X83856008Y-78100694D01*
X83808242Y-78052928D01*
X83235054Y-77575271D02*
X83903774Y-77575271D01*
X83330585Y-77575271D02*
X83282820Y-77527505D01*
X83235054Y-77431974D01*
X83235054Y-77288677D01*
X83282820Y-77193145D01*
X83378351Y-77145380D01*
X83903774Y-77145380D01*
X83235054Y-76811020D02*
X83235054Y-76428894D01*
X82900694Y-76667722D02*
X83760477Y-76667722D01*
X83856008Y-76619957D01*
X83903774Y-76524425D01*
X83903774Y-76428894D01*
X83856008Y-75712408D02*
X83903774Y-75807940D01*
X83903774Y-75999002D01*
X83856008Y-76094534D01*
X83760477Y-76142300D01*
X83378351Y-76142300D01*
X83282820Y-76094534D01*
X83235054Y-75999002D01*
X83235054Y-75807940D01*
X83282820Y-75712408D01*
X83378351Y-75664642D01*
X83473882Y-75664642D01*
X83569414Y-76142300D01*
X83903774Y-75234751D02*
X83235054Y-75234751D01*
X83426117Y-75234751D02*
X83330585Y-75186985D01*
X83282820Y-75139220D01*
X83235054Y-75043688D01*
X83235054Y-74948157D01*
X83999305Y-74852625D02*
X83999305Y-74088374D01*
X83808242Y-73276357D02*
X83856008Y-73324122D01*
X83903774Y-73467420D01*
X83903774Y-73562951D01*
X83856008Y-73706248D01*
X83760477Y-73801780D01*
X83664945Y-73849545D01*
X83473882Y-73897311D01*
X83330585Y-73897311D01*
X83139522Y-73849545D01*
X83043991Y-73801780D01*
X82948460Y-73706248D01*
X82900694Y-73562951D01*
X82900694Y-73467420D01*
X82948460Y-73324122D01*
X82996225Y-73276357D01*
X83903774Y-72703168D02*
X83856008Y-72798700D01*
X83760477Y-72846465D01*
X82900694Y-72846465D01*
X83903774Y-72177745D02*
X83856008Y-72273277D01*
X83808242Y-72321042D01*
X83712711Y-72368808D01*
X83426117Y-72368808D01*
X83330585Y-72321042D01*
X83282820Y-72273277D01*
X83235054Y-72177745D01*
X83235054Y-72034448D01*
X83282820Y-71938917D01*
X83330585Y-71891151D01*
X83426117Y-71843385D01*
X83712711Y-71843385D01*
X83808242Y-71891151D01*
X83856008Y-71938917D01*
X83903774Y-72034448D01*
X83903774Y-72177745D01*
X83856008Y-70983602D02*
X83903774Y-71079134D01*
X83903774Y-71270197D01*
X83856008Y-71365728D01*
X83808242Y-71413494D01*
X83712711Y-71461260D01*
X83426117Y-71461260D01*
X83330585Y-71413494D01*
X83282820Y-71365728D01*
X83235054Y-71270197D01*
X83235054Y-71079134D01*
X83282820Y-70983602D01*
X83903774Y-70553711D02*
X82900694Y-70553711D01*
X83521648Y-70458180D02*
X83903774Y-70171585D01*
X83235054Y-70171585D02*
X83617180Y-70553711D01*
X83235054Y-69837225D02*
X83903774Y-69646162D01*
X83426117Y-69455100D01*
X83903774Y-69264037D01*
X83235054Y-69072974D01*
X83903774Y-68690848D02*
X83235054Y-68690848D01*
X82900694Y-68690848D02*
X82948460Y-68738614D01*
X82996225Y-68690848D01*
X82948460Y-68643082D01*
X82900694Y-68690848D01*
X82996225Y-68690848D01*
X83856008Y-68260957D02*
X83903774Y-68165425D01*
X83903774Y-67974362D01*
X83856008Y-67878831D01*
X83760477Y-67831065D01*
X83712711Y-67831065D01*
X83617180Y-67878831D01*
X83569414Y-67974362D01*
X83569414Y-68117660D01*
X83521648Y-68213191D01*
X83426117Y-68260957D01*
X83378351Y-68260957D01*
X83282820Y-68213191D01*
X83235054Y-68117660D01*
X83235054Y-67974362D01*
X83282820Y-67878831D01*
X83856008Y-67019048D02*
X83903774Y-67114580D01*
X83903774Y-67305642D01*
X83856008Y-67401174D01*
X83760477Y-67448940D01*
X83378351Y-67448940D01*
X83282820Y-67401174D01*
X83235054Y-67305642D01*
X83235054Y-67114580D01*
X83282820Y-67019048D01*
X83378351Y-66971282D01*
X83473882Y-66971282D01*
X83569414Y-67448940D01*
D12*
X166533333Y-61952380D02*
X166200000Y-61476190D01*
X165961904Y-61952380D02*
X165961904Y-60952380D01*
X166342857Y-60952380D01*
X166438095Y-61000000D01*
X166485714Y-61047619D01*
X166533333Y-61142857D01*
X166533333Y-61285714D01*
X166485714Y-61380952D01*
X166438095Y-61428571D01*
X166342857Y-61476190D01*
X165961904Y-61476190D01*
X166866666Y-60952380D02*
X167485714Y-60952380D01*
X167152380Y-61333333D01*
X167295238Y-61333333D01*
X167390476Y-61380952D01*
X167438095Y-61428571D01*
X167485714Y-61523809D01*
X167485714Y-61761904D01*
X167438095Y-61857142D01*
X167390476Y-61904761D01*
X167295238Y-61952380D01*
X167009523Y-61952380D01*
X166914285Y-61904761D01*
X166866666Y-61857142D01*
X135282380Y-94016666D02*
X134806190Y-94350000D01*
X135282380Y-94588095D02*
X134282380Y-94588095D01*
X134282380Y-94207142D01*
X134330000Y-94111904D01*
X134377619Y-94064285D01*
X134472857Y-94016666D01*
X134615714Y-94016666D01*
X134710952Y-94064285D01*
X134758571Y-94111904D01*
X134806190Y-94207142D01*
X134806190Y-94588095D01*
X134282380Y-93159523D02*
X134282380Y-93350000D01*
X134330000Y-93445238D01*
X134377619Y-93492857D01*
X134520476Y-93588095D01*
X134710952Y-93635714D01*
X135091904Y-93635714D01*
X135187142Y-93588095D01*
X135234761Y-93540476D01*
X135282380Y-93445238D01*
X135282380Y-93254761D01*
X135234761Y-93159523D01*
X135187142Y-93111904D01*
X135091904Y-93064285D01*
X134853809Y-93064285D01*
X134758571Y-93111904D01*
X134710952Y-93159523D01*
X134663333Y-93254761D01*
X134663333Y-93445238D01*
X134710952Y-93540476D01*
X134758571Y-93588095D01*
X134853809Y-93635714D01*
X135452380Y-84066666D02*
X134976190Y-84400000D01*
X135452380Y-84638095D02*
X134452380Y-84638095D01*
X134452380Y-84257142D01*
X134500000Y-84161904D01*
X134547619Y-84114285D01*
X134642857Y-84066666D01*
X134785714Y-84066666D01*
X134880952Y-84114285D01*
X134928571Y-84161904D01*
X134976190Y-84257142D01*
X134976190Y-84638095D01*
X134452380Y-83733333D02*
X134452380Y-83066666D01*
X135452380Y-83495238D01*
X144882380Y-92066666D02*
X144406190Y-92400000D01*
X144882380Y-92638095D02*
X143882380Y-92638095D01*
X143882380Y-92257142D01*
X143930000Y-92161904D01*
X143977619Y-92114285D01*
X144072857Y-92066666D01*
X144215714Y-92066666D01*
X144310952Y-92114285D01*
X144358571Y-92161904D01*
X144406190Y-92257142D01*
X144406190Y-92638095D01*
X144310952Y-91495238D02*
X144263333Y-91590476D01*
X144215714Y-91638095D01*
X144120476Y-91685714D01*
X144072857Y-91685714D01*
X143977619Y-91638095D01*
X143930000Y-91590476D01*
X143882380Y-91495238D01*
X143882380Y-91304761D01*
X143930000Y-91209523D01*
X143977619Y-91161904D01*
X144072857Y-91114285D01*
X144120476Y-91114285D01*
X144215714Y-91161904D01*
X144263333Y-91209523D01*
X144310952Y-91304761D01*
X144310952Y-91495238D01*
X144358571Y-91590476D01*
X144406190Y-91638095D01*
X144501428Y-91685714D01*
X144691904Y-91685714D01*
X144787142Y-91638095D01*
X144834761Y-91590476D01*
X144882380Y-91495238D01*
X144882380Y-91304761D01*
X144834761Y-91209523D01*
X144787142Y-91161904D01*
X144691904Y-91114285D01*
X144501428Y-91114285D01*
X144406190Y-91161904D01*
X144358571Y-91209523D01*
X144310952Y-91304761D01*
X144782380Y-86716666D02*
X144306190Y-87050000D01*
X144782380Y-87288095D02*
X143782380Y-87288095D01*
X143782380Y-86907142D01*
X143830000Y-86811904D01*
X143877619Y-86764285D01*
X143972857Y-86716666D01*
X144115714Y-86716666D01*
X144210952Y-86764285D01*
X144258571Y-86811904D01*
X144306190Y-86907142D01*
X144306190Y-87288095D01*
X144782380Y-86240476D02*
X144782380Y-86050000D01*
X144734761Y-85954761D01*
X144687142Y-85907142D01*
X144544285Y-85811904D01*
X144353809Y-85764285D01*
X143972857Y-85764285D01*
X143877619Y-85811904D01*
X143830000Y-85859523D01*
X143782380Y-85954761D01*
X143782380Y-86145238D01*
X143830000Y-86240476D01*
X143877619Y-86288095D01*
X143972857Y-86335714D01*
X144210952Y-86335714D01*
X144306190Y-86288095D01*
X144353809Y-86240476D01*
X144401428Y-86145238D01*
X144401428Y-85954761D01*
X144353809Y-85859523D01*
X144306190Y-85811904D01*
X144210952Y-85764285D01*
X135282380Y-89442857D02*
X134806190Y-89776190D01*
X135282380Y-90014285D02*
X134282380Y-90014285D01*
X134282380Y-89633333D01*
X134330000Y-89538095D01*
X134377619Y-89490476D01*
X134472857Y-89442857D01*
X134615714Y-89442857D01*
X134710952Y-89490476D01*
X134758571Y-89538095D01*
X134806190Y-89633333D01*
X134806190Y-90014285D01*
X135282380Y-88490476D02*
X135282380Y-89061904D01*
X135282380Y-88776190D02*
X134282380Y-88776190D01*
X134425238Y-88871428D01*
X134520476Y-88966666D01*
X134568095Y-89061904D01*
X134282380Y-87871428D02*
X134282380Y-87776190D01*
X134330000Y-87680952D01*
X134377619Y-87633333D01*
X134472857Y-87585714D01*
X134663333Y-87538095D01*
X134901428Y-87538095D01*
X135091904Y-87585714D01*
X135187142Y-87633333D01*
X135234761Y-87680952D01*
X135282380Y-87776190D01*
X135282380Y-87871428D01*
X135234761Y-87966666D01*
X135187142Y-88014285D01*
X135091904Y-88061904D01*
X134901428Y-88109523D01*
X134663333Y-88109523D01*
X134472857Y-88061904D01*
X134377619Y-88014285D01*
X134330000Y-87966666D01*
X134282380Y-87871428D01*
X136407142Y-82552380D02*
X136073809Y-82076190D01*
X135835714Y-82552380D02*
X135835714Y-81552380D01*
X136216666Y-81552380D01*
X136311904Y-81600000D01*
X136359523Y-81647619D01*
X136407142Y-81742857D01*
X136407142Y-81885714D01*
X136359523Y-81980952D01*
X136311904Y-82028571D01*
X136216666Y-82076190D01*
X135835714Y-82076190D01*
X137359523Y-82552380D02*
X136788095Y-82552380D01*
X137073809Y-82552380D02*
X137073809Y-81552380D01*
X136978571Y-81695238D01*
X136883333Y-81790476D01*
X136788095Y-81838095D01*
X138216666Y-81885714D02*
X138216666Y-82552380D01*
X137978571Y-81504761D02*
X137740476Y-82219047D01*
X138359523Y-82219047D01*
X144982380Y-97242857D02*
X144506190Y-97576190D01*
X144982380Y-97814285D02*
X143982380Y-97814285D01*
X143982380Y-97433333D01*
X144030000Y-97338095D01*
X144077619Y-97290476D01*
X144172857Y-97242857D01*
X144315714Y-97242857D01*
X144410952Y-97290476D01*
X144458571Y-97338095D01*
X144506190Y-97433333D01*
X144506190Y-97814285D01*
X144982380Y-96290476D02*
X144982380Y-96861904D01*
X144982380Y-96576190D02*
X143982380Y-96576190D01*
X144125238Y-96671428D01*
X144220476Y-96766666D01*
X144268095Y-96861904D01*
X143982380Y-95433333D02*
X143982380Y-95623809D01*
X144030000Y-95719047D01*
X144077619Y-95766666D01*
X144220476Y-95861904D01*
X144410952Y-95909523D01*
X144791904Y-95909523D01*
X144887142Y-95861904D01*
X144934761Y-95814285D01*
X144982380Y-95719047D01*
X144982380Y-95528571D01*
X144934761Y-95433333D01*
X144887142Y-95385714D01*
X144791904Y-95338095D01*
X144553809Y-95338095D01*
X144458571Y-95385714D01*
X144410952Y-95433333D01*
X144363333Y-95528571D01*
X144363333Y-95719047D01*
X144410952Y-95814285D01*
X144458571Y-95861904D01*
X144553809Y-95909523D01*
X135502380Y-100442857D02*
X135026190Y-100776190D01*
X135502380Y-101014285D02*
X134502380Y-101014285D01*
X134502380Y-100633333D01*
X134550000Y-100538095D01*
X134597619Y-100490476D01*
X134692857Y-100442857D01*
X134835714Y-100442857D01*
X134930952Y-100490476D01*
X134978571Y-100538095D01*
X135026190Y-100633333D01*
X135026190Y-101014285D01*
X135502380Y-99490476D02*
X135502380Y-100061904D01*
X135502380Y-99776190D02*
X134502380Y-99776190D01*
X134645238Y-99871428D01*
X134740476Y-99966666D01*
X134788095Y-100061904D01*
X134502380Y-99157142D02*
X134502380Y-98490476D01*
X135502380Y-98919047D01*
X145552380Y-102642857D02*
X145076190Y-102976190D01*
X145552380Y-103214285D02*
X144552380Y-103214285D01*
X144552380Y-102833333D01*
X144600000Y-102738095D01*
X144647619Y-102690476D01*
X144742857Y-102642857D01*
X144885714Y-102642857D01*
X144980952Y-102690476D01*
X145028571Y-102738095D01*
X145076190Y-102833333D01*
X145076190Y-103214285D01*
X145552380Y-101690476D02*
X145552380Y-102261904D01*
X145552380Y-101976190D02*
X144552380Y-101976190D01*
X144695238Y-102071428D01*
X144790476Y-102166666D01*
X144838095Y-102261904D01*
X144980952Y-101119047D02*
X144933333Y-101214285D01*
X144885714Y-101261904D01*
X144790476Y-101309523D01*
X144742857Y-101309523D01*
X144647619Y-101261904D01*
X144600000Y-101214285D01*
X144552380Y-101119047D01*
X144552380Y-100928571D01*
X144600000Y-100833333D01*
X144647619Y-100785714D01*
X144742857Y-100738095D01*
X144790476Y-100738095D01*
X144885714Y-100785714D01*
X144933333Y-100833333D01*
X144980952Y-100928571D01*
X144980952Y-101119047D01*
X145028571Y-101214285D01*
X145076190Y-101261904D01*
X145171428Y-101309523D01*
X145361904Y-101309523D01*
X145457142Y-101261904D01*
X145504761Y-101214285D01*
X145552380Y-101119047D01*
X145552380Y-100928571D01*
X145504761Y-100833333D01*
X145457142Y-100785714D01*
X145361904Y-100738095D01*
X145171428Y-100738095D01*
X145076190Y-100785714D01*
X145028571Y-100833333D01*
X144980952Y-100928571D01*
X168922380Y-72742857D02*
X168446190Y-73076190D01*
X168922380Y-73314285D02*
X167922380Y-73314285D01*
X167922380Y-72933333D01*
X167970000Y-72838095D01*
X168017619Y-72790476D01*
X168112857Y-72742857D01*
X168255714Y-72742857D01*
X168350952Y-72790476D01*
X168398571Y-72838095D01*
X168446190Y-72933333D01*
X168446190Y-73314285D01*
X168017619Y-72361904D02*
X167970000Y-72314285D01*
X167922380Y-72219047D01*
X167922380Y-71980952D01*
X167970000Y-71885714D01*
X168017619Y-71838095D01*
X168112857Y-71790476D01*
X168208095Y-71790476D01*
X168350952Y-71838095D01*
X168922380Y-72409523D01*
X168922380Y-71790476D01*
X167922380Y-71171428D02*
X167922380Y-71076190D01*
X167970000Y-70980952D01*
X168017619Y-70933333D01*
X168112857Y-70885714D01*
X168303333Y-70838095D01*
X168541428Y-70838095D01*
X168731904Y-70885714D01*
X168827142Y-70933333D01*
X168874761Y-70980952D01*
X168922380Y-71076190D01*
X168922380Y-71171428D01*
X168874761Y-71266666D01*
X168827142Y-71314285D01*
X168731904Y-71361904D01*
X168541428Y-71409523D01*
X168303333Y-71409523D01*
X168112857Y-71361904D01*
X168017619Y-71314285D01*
X167970000Y-71266666D01*
X167922380Y-71171428D01*
X166957142Y-97652380D02*
X166623809Y-97176190D01*
X166385714Y-97652380D02*
X166385714Y-96652380D01*
X166766666Y-96652380D01*
X166861904Y-96700000D01*
X166909523Y-96747619D01*
X166957142Y-96842857D01*
X166957142Y-96985714D01*
X166909523Y-97080952D01*
X166861904Y-97128571D01*
X166766666Y-97176190D01*
X166385714Y-97176190D01*
X167338095Y-96747619D02*
X167385714Y-96700000D01*
X167480952Y-96652380D01*
X167719047Y-96652380D01*
X167814285Y-96700000D01*
X167861904Y-96747619D01*
X167909523Y-96842857D01*
X167909523Y-96938095D01*
X167861904Y-97080952D01*
X167290476Y-97652380D01*
X167909523Y-97652380D01*
X168861904Y-97652380D02*
X168290476Y-97652380D01*
X168576190Y-97652380D02*
X168576190Y-96652380D01*
X168480952Y-96795238D01*
X168385714Y-96890476D01*
X168290476Y-96938095D01*
X171257142Y-88452380D02*
X170923809Y-87976190D01*
X170685714Y-88452380D02*
X170685714Y-87452380D01*
X171066666Y-87452380D01*
X171161904Y-87500000D01*
X171209523Y-87547619D01*
X171257142Y-87642857D01*
X171257142Y-87785714D01*
X171209523Y-87880952D01*
X171161904Y-87928571D01*
X171066666Y-87976190D01*
X170685714Y-87976190D01*
X171638095Y-87547619D02*
X171685714Y-87500000D01*
X171780952Y-87452380D01*
X172019047Y-87452380D01*
X172114285Y-87500000D01*
X172161904Y-87547619D01*
X172209523Y-87642857D01*
X172209523Y-87738095D01*
X172161904Y-87880952D01*
X171590476Y-88452380D01*
X172209523Y-88452380D01*
X172542857Y-87452380D02*
X173161904Y-87452380D01*
X172828571Y-87833333D01*
X172971428Y-87833333D01*
X173066666Y-87880952D01*
X173114285Y-87928571D01*
X173161904Y-88023809D01*
X173161904Y-88261904D01*
X173114285Y-88357142D01*
X173066666Y-88404761D01*
X172971428Y-88452380D01*
X172685714Y-88452380D01*
X172590476Y-88404761D01*
X172542857Y-88357142D01*
X174852380Y-98342857D02*
X174376190Y-98676190D01*
X174852380Y-98914285D02*
X173852380Y-98914285D01*
X173852380Y-98533333D01*
X173900000Y-98438095D01*
X173947619Y-98390476D01*
X174042857Y-98342857D01*
X174185714Y-98342857D01*
X174280952Y-98390476D01*
X174328571Y-98438095D01*
X174376190Y-98533333D01*
X174376190Y-98914285D01*
X173947619Y-97961904D02*
X173900000Y-97914285D01*
X173852380Y-97819047D01*
X173852380Y-97580952D01*
X173900000Y-97485714D01*
X173947619Y-97438095D01*
X174042857Y-97390476D01*
X174138095Y-97390476D01*
X174280952Y-97438095D01*
X174852380Y-98009523D01*
X174852380Y-97390476D01*
X174185714Y-96533333D02*
X174852380Y-96533333D01*
X173804761Y-96771428D02*
X174519047Y-97009523D01*
X174519047Y-96390476D01*
X111282380Y-64592857D02*
X110806190Y-64926190D01*
X111282380Y-65164285D02*
X110282380Y-65164285D01*
X110282380Y-64783333D01*
X110330000Y-64688095D01*
X110377619Y-64640476D01*
X110472857Y-64592857D01*
X110615714Y-64592857D01*
X110710952Y-64640476D01*
X110758571Y-64688095D01*
X110806190Y-64783333D01*
X110806190Y-65164285D01*
X110282380Y-64259523D02*
X110282380Y-63640476D01*
X110663333Y-63973809D01*
X110663333Y-63830952D01*
X110710952Y-63735714D01*
X110758571Y-63688095D01*
X110853809Y-63640476D01*
X111091904Y-63640476D01*
X111187142Y-63688095D01*
X111234761Y-63735714D01*
X111282380Y-63830952D01*
X111282380Y-64116666D01*
X111234761Y-64211904D01*
X111187142Y-64259523D01*
X110377619Y-63259523D02*
X110330000Y-63211904D01*
X110282380Y-63116666D01*
X110282380Y-62878571D01*
X110330000Y-62783333D01*
X110377619Y-62735714D01*
X110472857Y-62688095D01*
X110568095Y-62688095D01*
X110710952Y-62735714D01*
X111282380Y-63307142D01*
X111282380Y-62688095D01*
X114202380Y-64642857D02*
X113726190Y-64976190D01*
X114202380Y-65214285D02*
X113202380Y-65214285D01*
X113202380Y-64833333D01*
X113250000Y-64738095D01*
X113297619Y-64690476D01*
X113392857Y-64642857D01*
X113535714Y-64642857D01*
X113630952Y-64690476D01*
X113678571Y-64738095D01*
X113726190Y-64833333D01*
X113726190Y-65214285D01*
X113202380Y-64309523D02*
X113202380Y-63690476D01*
X113583333Y-64023809D01*
X113583333Y-63880952D01*
X113630952Y-63785714D01*
X113678571Y-63738095D01*
X113773809Y-63690476D01*
X114011904Y-63690476D01*
X114107142Y-63738095D01*
X114154761Y-63785714D01*
X114202380Y-63880952D01*
X114202380Y-64166666D01*
X114154761Y-64261904D01*
X114107142Y-64309523D01*
X113535714Y-62833333D02*
X114202380Y-62833333D01*
X113154761Y-63071428D02*
X113869047Y-63309523D01*
X113869047Y-62690476D01*
X151432380Y-105032857D02*
X150956190Y-105366190D01*
X151432380Y-105604285D02*
X150432380Y-105604285D01*
X150432380Y-105223333D01*
X150480000Y-105128095D01*
X150527619Y-105080476D01*
X150622857Y-105032857D01*
X150765714Y-105032857D01*
X150860952Y-105080476D01*
X150908571Y-105128095D01*
X150956190Y-105223333D01*
X150956190Y-105604285D01*
X150432380Y-104699523D02*
X150432380Y-104080476D01*
X150813333Y-104413809D01*
X150813333Y-104270952D01*
X150860952Y-104175714D01*
X150908571Y-104128095D01*
X151003809Y-104080476D01*
X151241904Y-104080476D01*
X151337142Y-104128095D01*
X151384761Y-104175714D01*
X151432380Y-104270952D01*
X151432380Y-104556666D01*
X151384761Y-104651904D01*
X151337142Y-104699523D01*
X150432380Y-103223333D02*
X150432380Y-103413809D01*
X150480000Y-103509047D01*
X150527619Y-103556666D01*
X150670476Y-103651904D01*
X150860952Y-103699523D01*
X151241904Y-103699523D01*
X151337142Y-103651904D01*
X151384761Y-103604285D01*
X151432380Y-103509047D01*
X151432380Y-103318571D01*
X151384761Y-103223333D01*
X151337142Y-103175714D01*
X151241904Y-103128095D01*
X151003809Y-103128095D01*
X150908571Y-103175714D01*
X150860952Y-103223333D01*
X150813333Y-103318571D01*
X150813333Y-103509047D01*
X150860952Y-103604285D01*
X150908571Y-103651904D01*
X151003809Y-103699523D01*
X149232380Y-105232857D02*
X148756190Y-105566190D01*
X149232380Y-105804285D02*
X148232380Y-105804285D01*
X148232380Y-105423333D01*
X148280000Y-105328095D01*
X148327619Y-105280476D01*
X148422857Y-105232857D01*
X148565714Y-105232857D01*
X148660952Y-105280476D01*
X148708571Y-105328095D01*
X148756190Y-105423333D01*
X148756190Y-105804285D01*
X148232380Y-104899523D02*
X148232380Y-104280476D01*
X148613333Y-104613809D01*
X148613333Y-104470952D01*
X148660952Y-104375714D01*
X148708571Y-104328095D01*
X148803809Y-104280476D01*
X149041904Y-104280476D01*
X149137142Y-104328095D01*
X149184761Y-104375714D01*
X149232380Y-104470952D01*
X149232380Y-104756666D01*
X149184761Y-104851904D01*
X149137142Y-104899523D01*
X148232380Y-103947142D02*
X148232380Y-103280476D01*
X149232380Y-103709047D01*
X157137142Y-106172380D02*
X156803809Y-105696190D01*
X156565714Y-106172380D02*
X156565714Y-105172380D01*
X156946666Y-105172380D01*
X157041904Y-105220000D01*
X157089523Y-105267619D01*
X157137142Y-105362857D01*
X157137142Y-105505714D01*
X157089523Y-105600952D01*
X157041904Y-105648571D01*
X156946666Y-105696190D01*
X156565714Y-105696190D01*
X157470476Y-105172380D02*
X158089523Y-105172380D01*
X157756190Y-105553333D01*
X157899047Y-105553333D01*
X157994285Y-105600952D01*
X158041904Y-105648571D01*
X158089523Y-105743809D01*
X158089523Y-105981904D01*
X158041904Y-106077142D01*
X157994285Y-106124761D01*
X157899047Y-106172380D01*
X157613333Y-106172380D01*
X157518095Y-106124761D01*
X157470476Y-106077142D01*
X158660952Y-105600952D02*
X158565714Y-105553333D01*
X158518095Y-105505714D01*
X158470476Y-105410476D01*
X158470476Y-105362857D01*
X158518095Y-105267619D01*
X158565714Y-105220000D01*
X158660952Y-105172380D01*
X158851428Y-105172380D01*
X158946666Y-105220000D01*
X158994285Y-105267619D01*
X159041904Y-105362857D01*
X159041904Y-105410476D01*
X158994285Y-105505714D01*
X158946666Y-105553333D01*
X158851428Y-105600952D01*
X158660952Y-105600952D01*
X158565714Y-105648571D01*
X158518095Y-105696190D01*
X158470476Y-105791428D01*
X158470476Y-105981904D01*
X158518095Y-106077142D01*
X158565714Y-106124761D01*
X158660952Y-106172380D01*
X158851428Y-106172380D01*
X158946666Y-106124761D01*
X158994285Y-106077142D01*
X159041904Y-105981904D01*
X159041904Y-105791428D01*
X158994285Y-105696190D01*
X158946666Y-105648571D01*
X158851428Y-105600952D01*
X136407142Y-79302380D02*
X136073809Y-78826190D01*
X135835714Y-79302380D02*
X135835714Y-78302380D01*
X136216666Y-78302380D01*
X136311904Y-78350000D01*
X136359523Y-78397619D01*
X136407142Y-78492857D01*
X136407142Y-78635714D01*
X136359523Y-78730952D01*
X136311904Y-78778571D01*
X136216666Y-78826190D01*
X135835714Y-78826190D01*
X136740476Y-78302380D02*
X137359523Y-78302380D01*
X137026190Y-78683333D01*
X137169047Y-78683333D01*
X137264285Y-78730952D01*
X137311904Y-78778571D01*
X137359523Y-78873809D01*
X137359523Y-79111904D01*
X137311904Y-79207142D01*
X137264285Y-79254761D01*
X137169047Y-79302380D01*
X136883333Y-79302380D01*
X136788095Y-79254761D01*
X136740476Y-79207142D01*
X137835714Y-79302380D02*
X138026190Y-79302380D01*
X138121428Y-79254761D01*
X138169047Y-79207142D01*
X138264285Y-79064285D01*
X138311904Y-78873809D01*
X138311904Y-78492857D01*
X138264285Y-78397619D01*
X138216666Y-78350000D01*
X138121428Y-78302380D01*
X137930952Y-78302380D01*
X137835714Y-78350000D01*
X137788095Y-78397619D01*
X137740476Y-78492857D01*
X137740476Y-78730952D01*
X137788095Y-78826190D01*
X137835714Y-78873809D01*
X137930952Y-78921428D01*
X138121428Y-78921428D01*
X138216666Y-78873809D01*
X138264285Y-78826190D01*
X138311904Y-78730952D01*
X147172380Y-96292857D02*
X146696190Y-96626190D01*
X147172380Y-96864285D02*
X146172380Y-96864285D01*
X146172380Y-96483333D01*
X146220000Y-96388095D01*
X146267619Y-96340476D01*
X146362857Y-96292857D01*
X146505714Y-96292857D01*
X146600952Y-96340476D01*
X146648571Y-96388095D01*
X146696190Y-96483333D01*
X146696190Y-96864285D01*
X146505714Y-95435714D02*
X147172380Y-95435714D01*
X146124761Y-95673809D02*
X146839047Y-95911904D01*
X146839047Y-95292857D01*
X146172380Y-94721428D02*
X146172380Y-94626190D01*
X146220000Y-94530952D01*
X146267619Y-94483333D01*
X146362857Y-94435714D01*
X146553333Y-94388095D01*
X146791428Y-94388095D01*
X146981904Y-94435714D01*
X147077142Y-94483333D01*
X147124761Y-94530952D01*
X147172380Y-94626190D01*
X147172380Y-94721428D01*
X147124761Y-94816666D01*
X147077142Y-94864285D01*
X146981904Y-94911904D01*
X146791428Y-94959523D01*
X146553333Y-94959523D01*
X146362857Y-94911904D01*
X146267619Y-94864285D01*
X146220000Y-94816666D01*
X146172380Y-94721428D01*
X150212380Y-96137857D02*
X149736190Y-96471190D01*
X150212380Y-96709285D02*
X149212380Y-96709285D01*
X149212380Y-96328333D01*
X149260000Y-96233095D01*
X149307619Y-96185476D01*
X149402857Y-96137857D01*
X149545714Y-96137857D01*
X149640952Y-96185476D01*
X149688571Y-96233095D01*
X149736190Y-96328333D01*
X149736190Y-96709285D01*
X149545714Y-95280714D02*
X150212380Y-95280714D01*
X149164761Y-95518809D02*
X149879047Y-95756904D01*
X149879047Y-95137857D01*
X150212380Y-94233095D02*
X150212380Y-94804523D01*
X150212380Y-94518809D02*
X149212380Y-94518809D01*
X149355238Y-94614047D01*
X149450476Y-94709285D01*
X149498095Y-94804523D01*
X163952380Y-95942857D02*
X163476190Y-96276190D01*
X163952380Y-96514285D02*
X162952380Y-96514285D01*
X162952380Y-96133333D01*
X163000000Y-96038095D01*
X163047619Y-95990476D01*
X163142857Y-95942857D01*
X163285714Y-95942857D01*
X163380952Y-95990476D01*
X163428571Y-96038095D01*
X163476190Y-96133333D01*
X163476190Y-96514285D01*
X163285714Y-95085714D02*
X163952380Y-95085714D01*
X162904761Y-95323809D02*
X163619047Y-95561904D01*
X163619047Y-94942857D01*
X163047619Y-94609523D02*
X163000000Y-94561904D01*
X162952380Y-94466666D01*
X162952380Y-94228571D01*
X163000000Y-94133333D01*
X163047619Y-94085714D01*
X163142857Y-94038095D01*
X163238095Y-94038095D01*
X163380952Y-94085714D01*
X163952380Y-94657142D01*
X163952380Y-94038095D01*
X144062380Y-62568095D02*
X143062380Y-62568095D01*
X143062380Y-62330000D01*
X143110000Y-62187142D01*
X143205238Y-62091904D01*
X143300476Y-62044285D01*
X143490952Y-61996666D01*
X143633809Y-61996666D01*
X143824285Y-62044285D01*
X143919523Y-62091904D01*
X144014761Y-62187142D01*
X144062380Y-62330000D01*
X144062380Y-62568095D01*
X143157619Y-61615714D02*
X143110000Y-61568095D01*
X143062380Y-61472857D01*
X143062380Y-61234761D01*
X143110000Y-61139523D01*
X143157619Y-61091904D01*
X143252857Y-61044285D01*
X143348095Y-61044285D01*
X143490952Y-61091904D01*
X144062380Y-61663333D01*
X144062380Y-61044285D01*
X126111904Y-68102380D02*
X126111904Y-67102380D01*
X126350000Y-67102380D01*
X126492857Y-67150000D01*
X126588095Y-67245238D01*
X126635714Y-67340476D01*
X126683333Y-67530952D01*
X126683333Y-67673809D01*
X126635714Y-67864285D01*
X126588095Y-67959523D01*
X126492857Y-68054761D01*
X126350000Y-68102380D01*
X126111904Y-68102380D01*
X127016666Y-67102380D02*
X127635714Y-67102380D01*
X127302380Y-67483333D01*
X127445238Y-67483333D01*
X127540476Y-67530952D01*
X127588095Y-67578571D01*
X127635714Y-67673809D01*
X127635714Y-67911904D01*
X127588095Y-68007142D01*
X127540476Y-68054761D01*
X127445238Y-68102380D01*
X127159523Y-68102380D01*
X127064285Y-68054761D01*
X127016666Y-68007142D01*
X143038095Y-73547380D02*
X143038095Y-74356904D01*
X143085714Y-74452142D01*
X143133333Y-74499761D01*
X143228571Y-74547380D01*
X143419047Y-74547380D01*
X143514285Y-74499761D01*
X143561904Y-74452142D01*
X143609523Y-74356904D01*
X143609523Y-73547380D01*
X144038095Y-73642619D02*
X144085714Y-73595000D01*
X144180952Y-73547380D01*
X144419047Y-73547380D01*
X144514285Y-73595000D01*
X144561904Y-73642619D01*
X144609523Y-73737857D01*
X144609523Y-73833095D01*
X144561904Y-73975952D01*
X143990476Y-74547380D01*
X144609523Y-74547380D01*
X135638095Y-62202380D02*
X135638095Y-63011904D01*
X135685714Y-63107142D01*
X135733333Y-63154761D01*
X135828571Y-63202380D01*
X136019047Y-63202380D01*
X136114285Y-63154761D01*
X136161904Y-63107142D01*
X136209523Y-63011904D01*
X136209523Y-62202380D01*
X136590476Y-62202380D02*
X137209523Y-62202380D01*
X136876190Y-62583333D01*
X137019047Y-62583333D01*
X137114285Y-62630952D01*
X137161904Y-62678571D01*
X137209523Y-62773809D01*
X137209523Y-63011904D01*
X137161904Y-63107142D01*
X137114285Y-63154761D01*
X137019047Y-63202380D01*
X136733333Y-63202380D01*
X136638095Y-63154761D01*
X136590476Y-63107142D01*
X141288095Y-75102380D02*
X141288095Y-75911904D01*
X141335714Y-76007142D01*
X141383333Y-76054761D01*
X141478571Y-76102380D01*
X141669047Y-76102380D01*
X141764285Y-76054761D01*
X141811904Y-76007142D01*
X141859523Y-75911904D01*
X141859523Y-75102380D01*
X142764285Y-75435714D02*
X142764285Y-76102380D01*
X142526190Y-75054761D02*
X142288095Y-75769047D01*
X142907142Y-75769047D01*
M02*
