M48
METRIC,TZ
T1C0.400
T2C0.600
T3C0.800
T4C1.300
%
G90
G05
T1
X107500Y-57000
X109200Y-66550
X112900Y-52500
X112900Y-56900
X118900Y-52075
X122200Y-101400
X127700Y-92100
X128800Y-97700
X130200Y-63200
X130350Y-81350
X131600Y-70600
X132800Y-79200
X133400Y-65200
X133400Y-76500
X135100Y-99750
X135150Y-87750
X136150Y-78800
X137500Y-67000
X137900Y-74100
X138250Y-78850
X138800Y-65800
X139500Y-82500
X143750Y-63550
X144450Y-72600
X145100Y-101300
X145200Y-66100
X145200Y-83000
X145200Y-91000
X145300Y-86000
X145400Y-95800
X145420Y-97460
X145550Y-59300
X146575Y-94545
X146580Y-101190
X146698Y-76800
X146700Y-82300
X146730Y-102640
X148280Y-105290
X148318Y-77043
X149430Y-88880
X150300Y-63050
X152000Y-86700
X152080Y-104690
X152740Y-92890
X152900Y-60500
X153100Y-71850
X153400Y-89150
X153640Y-79250
X154010Y-83170
X154580Y-78230
X154600Y-63800
X154700Y-98300
X155180Y-105190
X155650Y-86750
X156160Y-77040
X157300Y-73020
X157350Y-78310
X157650Y-93850
X158700Y-72050
X159710Y-93240
X160200Y-73730
X162050Y-90750
X162800Y-83650
X163370Y-79260
X163400Y-69100
X163450Y-77740
X164610Y-69310
X165300Y-60300
X166500Y-61650
X166800Y-81500
X168300Y-96600
X168980Y-76230
X169530Y-74790
X169962Y-76421
X170040Y-86590
X170600Y-95500
X171400Y-76500
X171800Y-85000
X172200Y-66800
X172200Y-68900
X172400Y-74900
X174200Y-96500
T2
X116250Y-68200
X121600Y-56900
X121600Y-58750
X124700Y-56900
X124700Y-58750
X127600Y-56900
X127600Y-58750
X133100Y-54000
X138400Y-62900
X141600Y-59500
X143300Y-59500
X147750Y-54100
T3
X150800Y-56700
X150800Y-58700
X152800Y-56700
X152800Y-58700
X154800Y-56700
X154800Y-58700
X156800Y-56700
X156800Y-58700
X158800Y-56700
X158800Y-58700
T4
X111300Y-69900
X111300Y-72900
X111300Y-75900
X111300Y-78900
X111300Y-81900
X111300Y-84900
X111300Y-87900
X113800Y-71400
X113800Y-74400
X113800Y-77400
X113800Y-80400
X113800Y-83400
X113800Y-86400
X116800Y-71400
X116800Y-74400
X116800Y-77400
X116800Y-80400
X116800Y-83400
X116800Y-86400
X119300Y-69900
X119300Y-72900
X119300Y-75900
X119300Y-78900
X119300Y-81900
X119300Y-84900
X119300Y-87900
T0
M30
