G04 #@! TF.GenerationSoftware,KiCad,Pcbnew,(5.1.2-1)-1*
G04 #@! TF.CreationDate,2019-06-03T10:07:54+02:00*
G04 #@! TF.ProjectId,Dash,44617368-2e6b-4696-9361-645f70636258,rev?*
G04 #@! TF.SameCoordinates,Original*
G04 #@! TF.FileFunction,Copper,L2,Inr*
G04 #@! TF.FilePolarity,Positive*
%FSLAX46Y46*%
G04 Gerber Fmt 4.6, Leading zero omitted, Abs format (unit mm)*
G04 Created by KiCad (PCBNEW (5.1.2-1)-1) date 2019-06-03 10:07:54*
%MOMM*%
%LPD*%
G04 APERTURE LIST*
%ADD10O,1.350000X1.350000*%
%ADD11R,1.350000X1.350000*%
%ADD12R,1.950000X1.950000*%
%ADD13C,1.950000*%
%ADD14C,1.200000*%
%ADD15C,0.800000*%
%ADD16C,0.254000*%
G04 APERTURE END LIST*
D10*
X158800000Y-56700000D03*
X158800000Y-58700000D03*
X156800000Y-56700000D03*
X156800000Y-58700000D03*
X154800000Y-56700000D03*
X154800000Y-58700000D03*
X152800000Y-56700000D03*
X152800000Y-58700000D03*
X150800000Y-56700000D03*
D11*
X150800000Y-58700000D03*
D12*
X111300000Y-69900000D03*
D13*
X111300000Y-72900000D03*
X111300000Y-75900000D03*
X111300000Y-78900000D03*
X111300000Y-81900000D03*
X111300000Y-84900000D03*
X111300000Y-87900000D03*
X113800000Y-71400000D03*
X113800000Y-74400000D03*
X113800000Y-77400000D03*
X113800000Y-80400000D03*
X113800000Y-83400000D03*
X113800000Y-86400000D03*
X116800000Y-71400000D03*
X116800000Y-74400000D03*
X116800000Y-77400000D03*
X116800000Y-80400000D03*
X116800000Y-83400000D03*
X116800000Y-86400000D03*
X119300000Y-69900000D03*
X119300000Y-72900000D03*
X119300000Y-75900000D03*
X119300000Y-78900000D03*
X119300000Y-81900000D03*
X119300000Y-84900000D03*
X119300000Y-87900000D03*
D14*
X127600000Y-56900000D03*
X124700000Y-56900000D03*
X121600000Y-56900000D03*
D15*
X172200000Y-68900000D03*
X171400000Y-76500000D03*
X165300000Y-60300000D03*
X152900000Y-60500000D03*
X137500000Y-67000000D03*
X137900000Y-74100000D03*
X145200000Y-66100000D03*
X107500000Y-57000000D03*
X131600000Y-70600000D03*
X145100000Y-101300000D03*
X145400000Y-95800000D03*
X145200000Y-91000000D03*
X145300000Y-86000000D03*
X127700000Y-92100000D03*
X128800000Y-97700000D03*
X171800000Y-85000000D03*
X172400000Y-74900000D03*
X152080000Y-104690000D03*
X144450000Y-72600000D03*
X152000000Y-86700000D03*
X160200000Y-73730000D03*
X168980000Y-76230000D03*
X162800000Y-83650000D03*
X153400000Y-89150000D03*
X162050000Y-90750000D03*
X146698300Y-76800009D03*
X139500000Y-82500000D03*
X138250000Y-78850000D03*
D14*
X127600000Y-58750000D03*
X124700000Y-58750000D03*
X121600000Y-58750000D03*
D15*
X109200000Y-66550000D03*
X135150000Y-87750000D03*
X130350000Y-81350000D03*
X157650000Y-93850000D03*
X154700000Y-98300000D03*
D14*
X147750000Y-54100000D03*
D15*
X143750000Y-63550000D03*
X158700000Y-72050000D03*
X163450000Y-77740000D03*
X163370000Y-79260000D03*
X112900000Y-52500000D03*
X157350000Y-78310000D03*
X152740000Y-92890000D03*
X149430000Y-88880000D03*
X154010000Y-83170000D03*
X172200000Y-66800000D03*
X146700000Y-82300000D03*
X138800000Y-65800000D03*
X168300000Y-96600000D03*
X155180000Y-105190000D03*
X146580000Y-101190000D03*
X159710000Y-93240000D03*
X153640000Y-79250000D03*
X163400000Y-69100000D03*
X169961544Y-76421303D03*
X166500000Y-61650000D03*
X155650000Y-86750000D03*
X136150000Y-78800000D03*
X145200000Y-83000000D03*
X150300000Y-63050000D03*
D14*
X141600000Y-59500000D03*
X143300000Y-59500000D03*
X133100000Y-54000000D03*
D15*
X145550000Y-59300000D03*
X130200000Y-63200000D03*
X170600000Y-95500000D03*
X169530000Y-74790000D03*
X170040000Y-86590000D03*
X174200000Y-96500000D03*
X148317833Y-77042842D03*
X153100000Y-71850000D03*
X154600000Y-63800000D03*
X133400000Y-76500000D03*
X133400000Y-65200000D03*
X164610000Y-69310000D03*
X166800000Y-81500000D03*
X148280000Y-105290000D03*
X132800000Y-79200000D03*
X146575338Y-94545338D03*
X112900000Y-56900000D03*
X118900000Y-52075000D03*
D14*
X138400000Y-62900000D03*
D15*
X122200000Y-101400000D03*
D14*
X116250000Y-68200000D03*
D15*
X154580000Y-78230000D03*
X145420000Y-97460000D03*
X146730000Y-102640000D03*
X157300000Y-73020000D03*
X156160000Y-77040000D03*
X135100000Y-99750000D03*
D16*
G36*
X112096063Y-53159774D02*
G01*
X112240226Y-53303937D01*
X112409744Y-53417205D01*
X112598102Y-53495226D01*
X112798061Y-53535000D01*
X113001939Y-53535000D01*
X113201898Y-53495226D01*
X113390256Y-53417205D01*
X113559774Y-53303937D01*
X113703937Y-53159774D01*
X113725836Y-53127000D01*
X132226446Y-53127000D01*
X132140713Y-53212733D01*
X132005557Y-53415008D01*
X131912460Y-53639764D01*
X131865000Y-53878363D01*
X131865000Y-54121637D01*
X131912460Y-54360236D01*
X132005557Y-54584992D01*
X132140713Y-54787267D01*
X132312733Y-54959287D01*
X132515008Y-55094443D01*
X132739764Y-55187540D01*
X132978363Y-55235000D01*
X133221637Y-55235000D01*
X133460236Y-55187540D01*
X133684992Y-55094443D01*
X133887267Y-54959287D01*
X134059287Y-54787267D01*
X134194443Y-54584992D01*
X134287540Y-54360236D01*
X134335000Y-54121637D01*
X134335000Y-53878363D01*
X134287540Y-53639764D01*
X134194443Y-53415008D01*
X134059287Y-53212733D01*
X133973554Y-53127000D01*
X172973000Y-53127000D01*
X172973000Y-55329910D01*
X172736038Y-54975271D01*
X172424729Y-54663962D01*
X172058669Y-54419369D01*
X171651925Y-54250890D01*
X171220128Y-54165000D01*
X170779872Y-54165000D01*
X170348075Y-54250890D01*
X169941331Y-54419369D01*
X169575271Y-54663962D01*
X169263962Y-54975271D01*
X169019369Y-55341331D01*
X168850890Y-55748075D01*
X168765000Y-56179872D01*
X168765000Y-56620128D01*
X168850890Y-57051925D01*
X169019369Y-57458669D01*
X169263962Y-57824729D01*
X169575271Y-58136038D01*
X169941331Y-58380631D01*
X170348075Y-58549110D01*
X170779872Y-58635000D01*
X171220128Y-58635000D01*
X171651925Y-58549110D01*
X172058669Y-58380631D01*
X172424729Y-58136038D01*
X172736038Y-57824729D01*
X172973000Y-57470090D01*
X172973000Y-66109289D01*
X172859774Y-65996063D01*
X172690256Y-65882795D01*
X172501898Y-65804774D01*
X172301939Y-65765000D01*
X172098061Y-65765000D01*
X171898102Y-65804774D01*
X171709744Y-65882795D01*
X171540226Y-65996063D01*
X171396063Y-66140226D01*
X171282795Y-66309744D01*
X171204774Y-66498102D01*
X171165000Y-66698061D01*
X171165000Y-66901939D01*
X171204774Y-67101898D01*
X171282795Y-67290256D01*
X171396063Y-67459774D01*
X171540226Y-67603937D01*
X171709744Y-67717205D01*
X171898102Y-67795226D01*
X172098061Y-67835000D01*
X172301939Y-67835000D01*
X172501898Y-67795226D01*
X172690256Y-67717205D01*
X172859774Y-67603937D01*
X172973000Y-67490711D01*
X172973000Y-100329910D01*
X172736038Y-99975271D01*
X172424729Y-99663962D01*
X172058669Y-99419369D01*
X171651925Y-99250890D01*
X171220128Y-99165000D01*
X170779872Y-99165000D01*
X170348075Y-99250890D01*
X169941331Y-99419369D01*
X169575271Y-99663962D01*
X169263962Y-99975271D01*
X169019369Y-100341331D01*
X168850890Y-100748075D01*
X168765000Y-101179872D01*
X168765000Y-101620128D01*
X168850890Y-102051925D01*
X169019369Y-102458669D01*
X169263962Y-102824729D01*
X169575271Y-103136038D01*
X169941331Y-103380631D01*
X170348075Y-103549110D01*
X170779872Y-103635000D01*
X171220128Y-103635000D01*
X171651925Y-103549110D01*
X172058669Y-103380631D01*
X172424729Y-103136038D01*
X172736038Y-102824729D01*
X172973000Y-102470090D01*
X172973000Y-105273000D01*
X156215000Y-105273000D01*
X156215000Y-105088061D01*
X156175226Y-104888102D01*
X156097205Y-104699744D01*
X155983937Y-104530226D01*
X155839774Y-104386063D01*
X155670256Y-104272795D01*
X155481898Y-104194774D01*
X155281939Y-104155000D01*
X155078061Y-104155000D01*
X154878102Y-104194774D01*
X154689744Y-104272795D01*
X154520226Y-104386063D01*
X154376063Y-104530226D01*
X154262795Y-104699744D01*
X154184774Y-104888102D01*
X154145000Y-105088061D01*
X154145000Y-105273000D01*
X149315000Y-105273000D01*
X149315000Y-105188061D01*
X149275226Y-104988102D01*
X149197205Y-104799744D01*
X149083937Y-104630226D01*
X148939774Y-104486063D01*
X148770256Y-104372795D01*
X148581898Y-104294774D01*
X148381939Y-104255000D01*
X148178061Y-104255000D01*
X147978102Y-104294774D01*
X147789744Y-104372795D01*
X147620226Y-104486063D01*
X147476063Y-104630226D01*
X147362795Y-104799744D01*
X147284774Y-104988102D01*
X147245000Y-105188061D01*
X147245000Y-105273000D01*
X108627000Y-105273000D01*
X108627000Y-101298061D01*
X121165000Y-101298061D01*
X121165000Y-101501939D01*
X121204774Y-101701898D01*
X121282795Y-101890256D01*
X121396063Y-102059774D01*
X121540226Y-102203937D01*
X121709744Y-102317205D01*
X121898102Y-102395226D01*
X122098061Y-102435000D01*
X122301939Y-102435000D01*
X122501898Y-102395226D01*
X122690256Y-102317205D01*
X122859774Y-102203937D01*
X123003937Y-102059774D01*
X123117205Y-101890256D01*
X123195226Y-101701898D01*
X123235000Y-101501939D01*
X123235000Y-101298061D01*
X123195226Y-101098102D01*
X123191067Y-101088061D01*
X145545000Y-101088061D01*
X145545000Y-101291939D01*
X145584774Y-101491898D01*
X145662795Y-101680256D01*
X145776063Y-101849774D01*
X145918233Y-101991944D01*
X145812795Y-102149744D01*
X145734774Y-102338102D01*
X145695000Y-102538061D01*
X145695000Y-102741939D01*
X145734774Y-102941898D01*
X145812795Y-103130256D01*
X145926063Y-103299774D01*
X146070226Y-103443937D01*
X146239744Y-103557205D01*
X146428102Y-103635226D01*
X146628061Y-103675000D01*
X146831939Y-103675000D01*
X147031898Y-103635226D01*
X147220256Y-103557205D01*
X147389774Y-103443937D01*
X147533937Y-103299774D01*
X147647205Y-103130256D01*
X147725226Y-102941898D01*
X147765000Y-102741939D01*
X147765000Y-102538061D01*
X147725226Y-102338102D01*
X147647205Y-102149744D01*
X147533937Y-101980226D01*
X147391767Y-101838056D01*
X147497205Y-101680256D01*
X147575226Y-101491898D01*
X147615000Y-101291939D01*
X147615000Y-101088061D01*
X147575226Y-100888102D01*
X147497205Y-100699744D01*
X147383937Y-100530226D01*
X147239774Y-100386063D01*
X147070256Y-100272795D01*
X146881898Y-100194774D01*
X146681939Y-100155000D01*
X146478061Y-100155000D01*
X146278102Y-100194774D01*
X146089744Y-100272795D01*
X145920226Y-100386063D01*
X145776063Y-100530226D01*
X145662795Y-100699744D01*
X145584774Y-100888102D01*
X145545000Y-101088061D01*
X123191067Y-101088061D01*
X123117205Y-100909744D01*
X123003937Y-100740226D01*
X122859774Y-100596063D01*
X122690256Y-100482795D01*
X122501898Y-100404774D01*
X122301939Y-100365000D01*
X122098061Y-100365000D01*
X121898102Y-100404774D01*
X121709744Y-100482795D01*
X121540226Y-100596063D01*
X121396063Y-100740226D01*
X121282795Y-100909744D01*
X121204774Y-101098102D01*
X121165000Y-101298061D01*
X108627000Y-101298061D01*
X108627000Y-99648061D01*
X134065000Y-99648061D01*
X134065000Y-99851939D01*
X134104774Y-100051898D01*
X134182795Y-100240256D01*
X134296063Y-100409774D01*
X134440226Y-100553937D01*
X134609744Y-100667205D01*
X134798102Y-100745226D01*
X134998061Y-100785000D01*
X135201939Y-100785000D01*
X135401898Y-100745226D01*
X135590256Y-100667205D01*
X135759774Y-100553937D01*
X135903937Y-100409774D01*
X136017205Y-100240256D01*
X136095226Y-100051898D01*
X136135000Y-99851939D01*
X136135000Y-99648061D01*
X136095226Y-99448102D01*
X136017205Y-99259744D01*
X135903937Y-99090226D01*
X135759774Y-98946063D01*
X135590256Y-98832795D01*
X135401898Y-98754774D01*
X135201939Y-98715000D01*
X134998061Y-98715000D01*
X134798102Y-98754774D01*
X134609744Y-98832795D01*
X134440226Y-98946063D01*
X134296063Y-99090226D01*
X134182795Y-99259744D01*
X134104774Y-99448102D01*
X134065000Y-99648061D01*
X108627000Y-99648061D01*
X108627000Y-97358061D01*
X144385000Y-97358061D01*
X144385000Y-97561939D01*
X144424774Y-97761898D01*
X144502795Y-97950256D01*
X144616063Y-98119774D01*
X144760226Y-98263937D01*
X144929744Y-98377205D01*
X145118102Y-98455226D01*
X145318061Y-98495000D01*
X145521939Y-98495000D01*
X145721898Y-98455226D01*
X145910256Y-98377205D01*
X146079774Y-98263937D01*
X146223937Y-98119774D01*
X146337205Y-97950256D01*
X146415226Y-97761898D01*
X146455000Y-97561939D01*
X146455000Y-97358061D01*
X146415226Y-97158102D01*
X146337205Y-96969744D01*
X146223937Y-96800226D01*
X146079774Y-96656063D01*
X145910256Y-96542795D01*
X145802260Y-96498061D01*
X167265000Y-96498061D01*
X167265000Y-96701939D01*
X167304774Y-96901898D01*
X167382795Y-97090256D01*
X167496063Y-97259774D01*
X167640226Y-97403937D01*
X167809744Y-97517205D01*
X167998102Y-97595226D01*
X168198061Y-97635000D01*
X168401939Y-97635000D01*
X168601898Y-97595226D01*
X168790256Y-97517205D01*
X168959774Y-97403937D01*
X169103937Y-97259774D01*
X169217205Y-97090256D01*
X169295226Y-96901898D01*
X169335000Y-96701939D01*
X169335000Y-96498061D01*
X169295226Y-96298102D01*
X169217205Y-96109744D01*
X169103937Y-95940226D01*
X168959774Y-95796063D01*
X168790256Y-95682795D01*
X168601898Y-95604774D01*
X168401939Y-95565000D01*
X168198061Y-95565000D01*
X167998102Y-95604774D01*
X167809744Y-95682795D01*
X167640226Y-95796063D01*
X167496063Y-95940226D01*
X167382795Y-96109744D01*
X167304774Y-96298102D01*
X167265000Y-96498061D01*
X145802260Y-96498061D01*
X145721898Y-96464774D01*
X145521939Y-96425000D01*
X145318061Y-96425000D01*
X145118102Y-96464774D01*
X144929744Y-96542795D01*
X144760226Y-96656063D01*
X144616063Y-96800226D01*
X144502795Y-96969744D01*
X144424774Y-97158102D01*
X144385000Y-97358061D01*
X108627000Y-97358061D01*
X108627000Y-94443399D01*
X145540338Y-94443399D01*
X145540338Y-94647277D01*
X145580112Y-94847236D01*
X145658133Y-95035594D01*
X145771401Y-95205112D01*
X145915564Y-95349275D01*
X146085082Y-95462543D01*
X146273440Y-95540564D01*
X146473399Y-95580338D01*
X146677277Y-95580338D01*
X146877236Y-95540564D01*
X147065594Y-95462543D01*
X147162098Y-95398061D01*
X169565000Y-95398061D01*
X169565000Y-95601939D01*
X169604774Y-95801898D01*
X169682795Y-95990256D01*
X169796063Y-96159774D01*
X169940226Y-96303937D01*
X170109744Y-96417205D01*
X170298102Y-96495226D01*
X170498061Y-96535000D01*
X170701939Y-96535000D01*
X170901898Y-96495226D01*
X171090256Y-96417205D01*
X171259774Y-96303937D01*
X171403937Y-96159774D01*
X171517205Y-95990256D01*
X171595226Y-95801898D01*
X171635000Y-95601939D01*
X171635000Y-95398061D01*
X171595226Y-95198102D01*
X171517205Y-95009744D01*
X171403937Y-94840226D01*
X171259774Y-94696063D01*
X171090256Y-94582795D01*
X170901898Y-94504774D01*
X170701939Y-94465000D01*
X170498061Y-94465000D01*
X170298102Y-94504774D01*
X170109744Y-94582795D01*
X169940226Y-94696063D01*
X169796063Y-94840226D01*
X169682795Y-95009744D01*
X169604774Y-95198102D01*
X169565000Y-95398061D01*
X147162098Y-95398061D01*
X147235112Y-95349275D01*
X147379275Y-95205112D01*
X147492543Y-95035594D01*
X147570564Y-94847236D01*
X147610338Y-94647277D01*
X147610338Y-94443399D01*
X147570564Y-94243440D01*
X147492543Y-94055082D01*
X147379275Y-93885564D01*
X147235112Y-93741401D01*
X147065594Y-93628133D01*
X146877236Y-93550112D01*
X146677277Y-93510338D01*
X146473399Y-93510338D01*
X146273440Y-93550112D01*
X146085082Y-93628133D01*
X145915564Y-93741401D01*
X145771401Y-93885564D01*
X145658133Y-94055082D01*
X145580112Y-94243440D01*
X145540338Y-94443399D01*
X108627000Y-94443399D01*
X108627000Y-92788061D01*
X151705000Y-92788061D01*
X151705000Y-92991939D01*
X151744774Y-93191898D01*
X151822795Y-93380256D01*
X151936063Y-93549774D01*
X152080226Y-93693937D01*
X152249744Y-93807205D01*
X152438102Y-93885226D01*
X152638061Y-93925000D01*
X152841939Y-93925000D01*
X153041898Y-93885226D01*
X153230256Y-93807205D01*
X153399774Y-93693937D01*
X153543937Y-93549774D01*
X153657205Y-93380256D01*
X153735226Y-93191898D01*
X153745934Y-93138061D01*
X158675000Y-93138061D01*
X158675000Y-93341939D01*
X158714774Y-93541898D01*
X158792795Y-93730256D01*
X158906063Y-93899774D01*
X159050226Y-94043937D01*
X159219744Y-94157205D01*
X159408102Y-94235226D01*
X159608061Y-94275000D01*
X159811939Y-94275000D01*
X160011898Y-94235226D01*
X160200256Y-94157205D01*
X160369774Y-94043937D01*
X160513937Y-93899774D01*
X160627205Y-93730256D01*
X160705226Y-93541898D01*
X160745000Y-93341939D01*
X160745000Y-93138061D01*
X160705226Y-92938102D01*
X160627205Y-92749744D01*
X160513937Y-92580226D01*
X160369774Y-92436063D01*
X160200256Y-92322795D01*
X160011898Y-92244774D01*
X159811939Y-92205000D01*
X159608061Y-92205000D01*
X159408102Y-92244774D01*
X159219744Y-92322795D01*
X159050226Y-92436063D01*
X158906063Y-92580226D01*
X158792795Y-92749744D01*
X158714774Y-92938102D01*
X158675000Y-93138061D01*
X153745934Y-93138061D01*
X153775000Y-92991939D01*
X153775000Y-92788061D01*
X153735226Y-92588102D01*
X153657205Y-92399744D01*
X153543937Y-92230226D01*
X153399774Y-92086063D01*
X153230256Y-91972795D01*
X153041898Y-91894774D01*
X152841939Y-91855000D01*
X152638061Y-91855000D01*
X152438102Y-91894774D01*
X152249744Y-91972795D01*
X152080226Y-92086063D01*
X151936063Y-92230226D01*
X151822795Y-92399744D01*
X151744774Y-92588102D01*
X151705000Y-92788061D01*
X108627000Y-92788061D01*
X108627000Y-68925000D01*
X109686928Y-68925000D01*
X109686928Y-70875000D01*
X109699188Y-70999482D01*
X109735498Y-71119180D01*
X109794463Y-71229494D01*
X109873815Y-71326185D01*
X109970506Y-71405537D01*
X110080820Y-71464502D01*
X110200518Y-71500812D01*
X110325000Y-71513072D01*
X110477761Y-71513072D01*
X110273685Y-71649431D01*
X110049431Y-71873685D01*
X109873237Y-72137379D01*
X109751871Y-72430380D01*
X109690000Y-72741429D01*
X109690000Y-73058571D01*
X109751871Y-73369620D01*
X109873237Y-73662621D01*
X110049431Y-73926315D01*
X110273685Y-74150569D01*
X110537379Y-74326763D01*
X110714187Y-74400000D01*
X110537379Y-74473237D01*
X110273685Y-74649431D01*
X110049431Y-74873685D01*
X109873237Y-75137379D01*
X109751871Y-75430380D01*
X109690000Y-75741429D01*
X109690000Y-76058571D01*
X109751871Y-76369620D01*
X109873237Y-76662621D01*
X110049431Y-76926315D01*
X110273685Y-77150569D01*
X110537379Y-77326763D01*
X110830380Y-77448129D01*
X111141429Y-77510000D01*
X111458571Y-77510000D01*
X111769620Y-77448129D01*
X112062621Y-77326763D01*
X112190000Y-77241651D01*
X112190000Y-77558571D01*
X112251871Y-77869620D01*
X112373237Y-78162621D01*
X112549431Y-78426315D01*
X112773685Y-78650569D01*
X113037379Y-78826763D01*
X113330380Y-78948129D01*
X113641429Y-79010000D01*
X113958571Y-79010000D01*
X114269620Y-78948129D01*
X114562621Y-78826763D01*
X114826315Y-78650569D01*
X115050569Y-78426315D01*
X115226763Y-78162621D01*
X115300000Y-77985813D01*
X115373237Y-78162621D01*
X115549431Y-78426315D01*
X115773685Y-78650569D01*
X116037379Y-78826763D01*
X116214187Y-78900000D01*
X116037379Y-78973237D01*
X115773685Y-79149431D01*
X115549431Y-79373685D01*
X115373237Y-79637379D01*
X115251871Y-79930380D01*
X115190000Y-80241429D01*
X115190000Y-80558571D01*
X115251871Y-80869620D01*
X115373237Y-81162621D01*
X115549431Y-81426315D01*
X115773685Y-81650569D01*
X116037379Y-81826763D01*
X116214187Y-81900000D01*
X116037379Y-81973237D01*
X115773685Y-82149431D01*
X115549431Y-82373685D01*
X115373237Y-82637379D01*
X115251871Y-82930380D01*
X115190000Y-83241429D01*
X115190000Y-83558571D01*
X115251871Y-83869620D01*
X115373237Y-84162621D01*
X115549431Y-84426315D01*
X115773685Y-84650569D01*
X116037379Y-84826763D01*
X116214187Y-84900000D01*
X116037379Y-84973237D01*
X115773685Y-85149431D01*
X115549431Y-85373685D01*
X115373237Y-85637379D01*
X115300000Y-85814187D01*
X115226763Y-85637379D01*
X115050569Y-85373685D01*
X114826315Y-85149431D01*
X114562621Y-84973237D01*
X114269620Y-84851871D01*
X113958571Y-84790000D01*
X113641429Y-84790000D01*
X113330380Y-84851871D01*
X113037379Y-84973237D01*
X112773685Y-85149431D01*
X112549431Y-85373685D01*
X112373237Y-85637379D01*
X112251871Y-85930380D01*
X112190000Y-86241429D01*
X112190000Y-86558349D01*
X112062621Y-86473237D01*
X111769620Y-86351871D01*
X111458571Y-86290000D01*
X111141429Y-86290000D01*
X110830380Y-86351871D01*
X110537379Y-86473237D01*
X110273685Y-86649431D01*
X110049431Y-86873685D01*
X109873237Y-87137379D01*
X109751871Y-87430380D01*
X109690000Y-87741429D01*
X109690000Y-88058571D01*
X109751871Y-88369620D01*
X109873237Y-88662621D01*
X110049431Y-88926315D01*
X110273685Y-89150569D01*
X110537379Y-89326763D01*
X110830380Y-89448129D01*
X111141429Y-89510000D01*
X111458571Y-89510000D01*
X111769620Y-89448129D01*
X112062621Y-89326763D01*
X112326315Y-89150569D01*
X112550569Y-88926315D01*
X112726763Y-88662621D01*
X112848129Y-88369620D01*
X112910000Y-88058571D01*
X112910000Y-87741651D01*
X113037379Y-87826763D01*
X113330380Y-87948129D01*
X113641429Y-88010000D01*
X113958571Y-88010000D01*
X114269620Y-87948129D01*
X114562621Y-87826763D01*
X114826315Y-87650569D01*
X115050569Y-87426315D01*
X115226763Y-87162621D01*
X115300000Y-86985813D01*
X115373237Y-87162621D01*
X115549431Y-87426315D01*
X115773685Y-87650569D01*
X116037379Y-87826763D01*
X116330380Y-87948129D01*
X116641429Y-88010000D01*
X116958571Y-88010000D01*
X117269620Y-87948129D01*
X117562621Y-87826763D01*
X117690000Y-87741651D01*
X117690000Y-88058571D01*
X117751871Y-88369620D01*
X117873237Y-88662621D01*
X118049431Y-88926315D01*
X118273685Y-89150569D01*
X118537379Y-89326763D01*
X118830380Y-89448129D01*
X119141429Y-89510000D01*
X119458571Y-89510000D01*
X119769620Y-89448129D01*
X120062621Y-89326763D01*
X120326315Y-89150569D01*
X120550569Y-88926315D01*
X120649628Y-88778061D01*
X148395000Y-88778061D01*
X148395000Y-88981939D01*
X148434774Y-89181898D01*
X148512795Y-89370256D01*
X148626063Y-89539774D01*
X148770226Y-89683937D01*
X148939744Y-89797205D01*
X149128102Y-89875226D01*
X149328061Y-89915000D01*
X149531939Y-89915000D01*
X149731898Y-89875226D01*
X149920256Y-89797205D01*
X150089774Y-89683937D01*
X150233937Y-89539774D01*
X150347205Y-89370256D01*
X150425226Y-89181898D01*
X150465000Y-88981939D01*
X150465000Y-88778061D01*
X150425226Y-88578102D01*
X150347205Y-88389744D01*
X150233937Y-88220226D01*
X150089774Y-88076063D01*
X149920256Y-87962795D01*
X149731898Y-87884774D01*
X149531939Y-87845000D01*
X149328061Y-87845000D01*
X149128102Y-87884774D01*
X148939744Y-87962795D01*
X148770226Y-88076063D01*
X148626063Y-88220226D01*
X148512795Y-88389744D01*
X148434774Y-88578102D01*
X148395000Y-88778061D01*
X120649628Y-88778061D01*
X120726763Y-88662621D01*
X120848129Y-88369620D01*
X120910000Y-88058571D01*
X120910000Y-87741429D01*
X120848129Y-87430380D01*
X120726763Y-87137379D01*
X120550569Y-86873685D01*
X120326315Y-86649431D01*
X120324265Y-86648061D01*
X154615000Y-86648061D01*
X154615000Y-86851939D01*
X154654774Y-87051898D01*
X154732795Y-87240256D01*
X154846063Y-87409774D01*
X154990226Y-87553937D01*
X155159744Y-87667205D01*
X155348102Y-87745226D01*
X155548061Y-87785000D01*
X155751939Y-87785000D01*
X155951898Y-87745226D01*
X156140256Y-87667205D01*
X156309774Y-87553937D01*
X156453937Y-87409774D01*
X156567205Y-87240256D01*
X156645226Y-87051898D01*
X156685000Y-86851939D01*
X156685000Y-86648061D01*
X156653175Y-86488061D01*
X169005000Y-86488061D01*
X169005000Y-86691939D01*
X169044774Y-86891898D01*
X169122795Y-87080256D01*
X169236063Y-87249774D01*
X169380226Y-87393937D01*
X169549744Y-87507205D01*
X169738102Y-87585226D01*
X169938061Y-87625000D01*
X170141939Y-87625000D01*
X170341898Y-87585226D01*
X170530256Y-87507205D01*
X170699774Y-87393937D01*
X170843937Y-87249774D01*
X170957205Y-87080256D01*
X171035226Y-86891898D01*
X171075000Y-86691939D01*
X171075000Y-86488061D01*
X171035226Y-86288102D01*
X170957205Y-86099744D01*
X170843937Y-85930226D01*
X170699774Y-85786063D01*
X170530256Y-85672795D01*
X170341898Y-85594774D01*
X170141939Y-85555000D01*
X169938061Y-85555000D01*
X169738102Y-85594774D01*
X169549744Y-85672795D01*
X169380226Y-85786063D01*
X169236063Y-85930226D01*
X169122795Y-86099744D01*
X169044774Y-86288102D01*
X169005000Y-86488061D01*
X156653175Y-86488061D01*
X156645226Y-86448102D01*
X156567205Y-86259744D01*
X156453937Y-86090226D01*
X156309774Y-85946063D01*
X156140256Y-85832795D01*
X155951898Y-85754774D01*
X155751939Y-85715000D01*
X155548061Y-85715000D01*
X155348102Y-85754774D01*
X155159744Y-85832795D01*
X154990226Y-85946063D01*
X154846063Y-86090226D01*
X154732795Y-86259744D01*
X154654774Y-86448102D01*
X154615000Y-86648061D01*
X120324265Y-86648061D01*
X120062621Y-86473237D01*
X119885813Y-86400000D01*
X120062621Y-86326763D01*
X120326315Y-86150569D01*
X120550569Y-85926315D01*
X120726763Y-85662621D01*
X120848129Y-85369620D01*
X120910000Y-85058571D01*
X120910000Y-84741429D01*
X120848129Y-84430380D01*
X120726763Y-84137379D01*
X120550569Y-83873685D01*
X120326315Y-83649431D01*
X120062621Y-83473237D01*
X119885813Y-83400000D01*
X120062621Y-83326763D01*
X120326315Y-83150569D01*
X120550569Y-82926315D01*
X120569447Y-82898061D01*
X144165000Y-82898061D01*
X144165000Y-83101939D01*
X144204774Y-83301898D01*
X144282795Y-83490256D01*
X144396063Y-83659774D01*
X144540226Y-83803937D01*
X144709744Y-83917205D01*
X144898102Y-83995226D01*
X145098061Y-84035000D01*
X145301939Y-84035000D01*
X145501898Y-83995226D01*
X145690256Y-83917205D01*
X145859774Y-83803937D01*
X146003937Y-83659774D01*
X146117205Y-83490256D01*
X146195226Y-83301898D01*
X146211895Y-83218096D01*
X146398102Y-83295226D01*
X146598061Y-83335000D01*
X146801939Y-83335000D01*
X147001898Y-83295226D01*
X147190256Y-83217205D01*
X147359774Y-83103937D01*
X147395650Y-83068061D01*
X152975000Y-83068061D01*
X152975000Y-83271939D01*
X153014774Y-83471898D01*
X153092795Y-83660256D01*
X153206063Y-83829774D01*
X153350226Y-83973937D01*
X153519744Y-84087205D01*
X153708102Y-84165226D01*
X153908061Y-84205000D01*
X154111939Y-84205000D01*
X154311898Y-84165226D01*
X154500256Y-84087205D01*
X154669774Y-83973937D01*
X154813937Y-83829774D01*
X154927205Y-83660256D01*
X155005226Y-83471898D01*
X155045000Y-83271939D01*
X155045000Y-83068061D01*
X155005226Y-82868102D01*
X154927205Y-82679744D01*
X154813937Y-82510226D01*
X154669774Y-82366063D01*
X154500256Y-82252795D01*
X154311898Y-82174774D01*
X154111939Y-82135000D01*
X153908061Y-82135000D01*
X153708102Y-82174774D01*
X153519744Y-82252795D01*
X153350226Y-82366063D01*
X153206063Y-82510226D01*
X153092795Y-82679744D01*
X153014774Y-82868102D01*
X152975000Y-83068061D01*
X147395650Y-83068061D01*
X147503937Y-82959774D01*
X147617205Y-82790256D01*
X147695226Y-82601898D01*
X147735000Y-82401939D01*
X147735000Y-82198061D01*
X147695226Y-81998102D01*
X147617205Y-81809744D01*
X147503937Y-81640226D01*
X147359774Y-81496063D01*
X147213104Y-81398061D01*
X165765000Y-81398061D01*
X165765000Y-81601939D01*
X165804774Y-81801898D01*
X165882795Y-81990256D01*
X165996063Y-82159774D01*
X166140226Y-82303937D01*
X166309744Y-82417205D01*
X166498102Y-82495226D01*
X166698061Y-82535000D01*
X166901939Y-82535000D01*
X167101898Y-82495226D01*
X167290256Y-82417205D01*
X167459774Y-82303937D01*
X167603937Y-82159774D01*
X167717205Y-81990256D01*
X167795226Y-81801898D01*
X167835000Y-81601939D01*
X167835000Y-81398061D01*
X167795226Y-81198102D01*
X167717205Y-81009744D01*
X167603937Y-80840226D01*
X167459774Y-80696063D01*
X167290256Y-80582795D01*
X167101898Y-80504774D01*
X166901939Y-80465000D01*
X166698061Y-80465000D01*
X166498102Y-80504774D01*
X166309744Y-80582795D01*
X166140226Y-80696063D01*
X165996063Y-80840226D01*
X165882795Y-81009744D01*
X165804774Y-81198102D01*
X165765000Y-81398061D01*
X147213104Y-81398061D01*
X147190256Y-81382795D01*
X147001898Y-81304774D01*
X146801939Y-81265000D01*
X146598061Y-81265000D01*
X146398102Y-81304774D01*
X146209744Y-81382795D01*
X146040226Y-81496063D01*
X145896063Y-81640226D01*
X145782795Y-81809744D01*
X145704774Y-81998102D01*
X145688105Y-82081904D01*
X145501898Y-82004774D01*
X145301939Y-81965000D01*
X145098061Y-81965000D01*
X144898102Y-82004774D01*
X144709744Y-82082795D01*
X144540226Y-82196063D01*
X144396063Y-82340226D01*
X144282795Y-82509744D01*
X144204774Y-82698102D01*
X144165000Y-82898061D01*
X120569447Y-82898061D01*
X120726763Y-82662621D01*
X120848129Y-82369620D01*
X120910000Y-82058571D01*
X120910000Y-81741429D01*
X120848129Y-81430380D01*
X120726763Y-81137379D01*
X120550569Y-80873685D01*
X120326315Y-80649431D01*
X120062621Y-80473237D01*
X119885813Y-80400000D01*
X120062621Y-80326763D01*
X120326315Y-80150569D01*
X120550569Y-79926315D01*
X120726763Y-79662621D01*
X120848129Y-79369620D01*
X120902145Y-79098061D01*
X131765000Y-79098061D01*
X131765000Y-79301939D01*
X131804774Y-79501898D01*
X131882795Y-79690256D01*
X131996063Y-79859774D01*
X132140226Y-80003937D01*
X132309744Y-80117205D01*
X132498102Y-80195226D01*
X132698061Y-80235000D01*
X132901939Y-80235000D01*
X133101898Y-80195226D01*
X133290256Y-80117205D01*
X133459774Y-80003937D01*
X133603937Y-79859774D01*
X133717205Y-79690256D01*
X133795226Y-79501898D01*
X133835000Y-79301939D01*
X133835000Y-79098061D01*
X133795226Y-78898102D01*
X133717205Y-78709744D01*
X133709399Y-78698061D01*
X135115000Y-78698061D01*
X135115000Y-78901939D01*
X135154774Y-79101898D01*
X135232795Y-79290256D01*
X135346063Y-79459774D01*
X135490226Y-79603937D01*
X135659744Y-79717205D01*
X135848102Y-79795226D01*
X136048061Y-79835000D01*
X136251939Y-79835000D01*
X136451898Y-79795226D01*
X136640256Y-79717205D01*
X136809774Y-79603937D01*
X136953937Y-79459774D01*
X137067205Y-79290256D01*
X137126104Y-79148061D01*
X152605000Y-79148061D01*
X152605000Y-79351939D01*
X152644774Y-79551898D01*
X152722795Y-79740256D01*
X152836063Y-79909774D01*
X152980226Y-80053937D01*
X153149744Y-80167205D01*
X153338102Y-80245226D01*
X153538061Y-80285000D01*
X153741939Y-80285000D01*
X153941898Y-80245226D01*
X154130256Y-80167205D01*
X154299774Y-80053937D01*
X154443937Y-79909774D01*
X154557205Y-79740256D01*
X154635226Y-79551898D01*
X154675000Y-79351939D01*
X154675000Y-79265000D01*
X154681939Y-79265000D01*
X154881898Y-79225226D01*
X155070256Y-79147205D01*
X155239774Y-79033937D01*
X155383937Y-78889774D01*
X155497205Y-78720256D01*
X155575226Y-78531898D01*
X155615000Y-78331939D01*
X155615000Y-78128061D01*
X155575226Y-77928102D01*
X155555724Y-77881019D01*
X155669744Y-77957205D01*
X155858102Y-78035226D01*
X156058061Y-78075000D01*
X156261939Y-78075000D01*
X156344743Y-78058529D01*
X156315000Y-78208061D01*
X156315000Y-78411939D01*
X156354774Y-78611898D01*
X156432795Y-78800256D01*
X156546063Y-78969774D01*
X156690226Y-79113937D01*
X156859744Y-79227205D01*
X157048102Y-79305226D01*
X157248061Y-79345000D01*
X157451939Y-79345000D01*
X157651898Y-79305226D01*
X157840256Y-79227205D01*
X157943737Y-79158061D01*
X162335000Y-79158061D01*
X162335000Y-79361939D01*
X162374774Y-79561898D01*
X162452795Y-79750256D01*
X162566063Y-79919774D01*
X162710226Y-80063937D01*
X162879744Y-80177205D01*
X163068102Y-80255226D01*
X163268061Y-80295000D01*
X163471939Y-80295000D01*
X163671898Y-80255226D01*
X163860256Y-80177205D01*
X164029774Y-80063937D01*
X164173937Y-79919774D01*
X164287205Y-79750256D01*
X164365226Y-79561898D01*
X164405000Y-79361939D01*
X164405000Y-79158061D01*
X164365226Y-78958102D01*
X164287205Y-78769744D01*
X164173937Y-78600226D01*
X164113711Y-78540000D01*
X164253937Y-78399774D01*
X164367205Y-78230256D01*
X164445226Y-78041898D01*
X164485000Y-77841939D01*
X164485000Y-77638061D01*
X164445226Y-77438102D01*
X164367205Y-77249744D01*
X164253937Y-77080226D01*
X164109774Y-76936063D01*
X163940256Y-76822795D01*
X163751898Y-76744774D01*
X163551939Y-76705000D01*
X163348061Y-76705000D01*
X163148102Y-76744774D01*
X162959744Y-76822795D01*
X162790226Y-76936063D01*
X162646063Y-77080226D01*
X162532795Y-77249744D01*
X162454774Y-77438102D01*
X162415000Y-77638061D01*
X162415000Y-77841939D01*
X162454774Y-78041898D01*
X162532795Y-78230256D01*
X162646063Y-78399774D01*
X162706289Y-78460000D01*
X162566063Y-78600226D01*
X162452795Y-78769744D01*
X162374774Y-78958102D01*
X162335000Y-79158061D01*
X157943737Y-79158061D01*
X158009774Y-79113937D01*
X158153937Y-78969774D01*
X158267205Y-78800256D01*
X158345226Y-78611898D01*
X158385000Y-78411939D01*
X158385000Y-78208061D01*
X158345226Y-78008102D01*
X158267205Y-77819744D01*
X158153937Y-77650226D01*
X158009774Y-77506063D01*
X157840256Y-77392795D01*
X157651898Y-77314774D01*
X157451939Y-77275000D01*
X157248061Y-77275000D01*
X157165257Y-77291471D01*
X157195000Y-77141939D01*
X157195000Y-76938061D01*
X157155226Y-76738102D01*
X157077205Y-76549744D01*
X156963937Y-76380226D01*
X156819774Y-76236063D01*
X156650256Y-76122795D01*
X156461898Y-76044774D01*
X156261939Y-76005000D01*
X156058061Y-76005000D01*
X155858102Y-76044774D01*
X155669744Y-76122795D01*
X155500226Y-76236063D01*
X155356063Y-76380226D01*
X155242795Y-76549744D01*
X155164774Y-76738102D01*
X155125000Y-76938061D01*
X155125000Y-77141939D01*
X155164774Y-77341898D01*
X155184276Y-77388981D01*
X155070256Y-77312795D01*
X154881898Y-77234774D01*
X154681939Y-77195000D01*
X154478061Y-77195000D01*
X154278102Y-77234774D01*
X154089744Y-77312795D01*
X153920226Y-77426063D01*
X153776063Y-77570226D01*
X153662795Y-77739744D01*
X153584774Y-77928102D01*
X153545000Y-78128061D01*
X153545000Y-78215000D01*
X153538061Y-78215000D01*
X153338102Y-78254774D01*
X153149744Y-78332795D01*
X152980226Y-78446063D01*
X152836063Y-78590226D01*
X152722795Y-78759744D01*
X152644774Y-78948102D01*
X152605000Y-79148061D01*
X137126104Y-79148061D01*
X137145226Y-79101898D01*
X137185000Y-78901939D01*
X137185000Y-78698061D01*
X137145226Y-78498102D01*
X137067205Y-78309744D01*
X136953937Y-78140226D01*
X136809774Y-77996063D01*
X136640256Y-77882795D01*
X136451898Y-77804774D01*
X136251939Y-77765000D01*
X136048061Y-77765000D01*
X135848102Y-77804774D01*
X135659744Y-77882795D01*
X135490226Y-77996063D01*
X135346063Y-78140226D01*
X135232795Y-78309744D01*
X135154774Y-78498102D01*
X135115000Y-78698061D01*
X133709399Y-78698061D01*
X133603937Y-78540226D01*
X133459774Y-78396063D01*
X133290256Y-78282795D01*
X133101898Y-78204774D01*
X132901939Y-78165000D01*
X132698061Y-78165000D01*
X132498102Y-78204774D01*
X132309744Y-78282795D01*
X132140226Y-78396063D01*
X131996063Y-78540226D01*
X131882795Y-78709744D01*
X131804774Y-78898102D01*
X131765000Y-79098061D01*
X120902145Y-79098061D01*
X120910000Y-79058571D01*
X120910000Y-78741429D01*
X120848129Y-78430380D01*
X120726763Y-78137379D01*
X120550569Y-77873685D01*
X120326315Y-77649431D01*
X120062621Y-77473237D01*
X119885813Y-77400000D01*
X120062621Y-77326763D01*
X120326315Y-77150569D01*
X120550569Y-76926315D01*
X120726763Y-76662621D01*
X120836348Y-76398061D01*
X132365000Y-76398061D01*
X132365000Y-76601939D01*
X132404774Y-76801898D01*
X132482795Y-76990256D01*
X132596063Y-77159774D01*
X132740226Y-77303937D01*
X132909744Y-77417205D01*
X133098102Y-77495226D01*
X133298061Y-77535000D01*
X133501939Y-77535000D01*
X133701898Y-77495226D01*
X133890256Y-77417205D01*
X134059774Y-77303937D01*
X134203937Y-77159774D01*
X134317205Y-76990256D01*
X134337647Y-76940903D01*
X147282833Y-76940903D01*
X147282833Y-77144781D01*
X147322607Y-77344740D01*
X147400628Y-77533098D01*
X147513896Y-77702616D01*
X147658059Y-77846779D01*
X147827577Y-77960047D01*
X148015935Y-78038068D01*
X148215894Y-78077842D01*
X148419772Y-78077842D01*
X148619731Y-78038068D01*
X148808089Y-77960047D01*
X148977607Y-77846779D01*
X149121770Y-77702616D01*
X149235038Y-77533098D01*
X149313059Y-77344740D01*
X149352833Y-77144781D01*
X149352833Y-76940903D01*
X149313059Y-76740944D01*
X149235038Y-76552586D01*
X149121770Y-76383068D01*
X148977607Y-76238905D01*
X148808089Y-76125637D01*
X148619731Y-76047616D01*
X148419772Y-76007842D01*
X148215894Y-76007842D01*
X148015935Y-76047616D01*
X147827577Y-76125637D01*
X147658059Y-76238905D01*
X147513896Y-76383068D01*
X147400628Y-76552586D01*
X147322607Y-76740944D01*
X147282833Y-76940903D01*
X134337647Y-76940903D01*
X134395226Y-76801898D01*
X134435000Y-76601939D01*
X134435000Y-76398061D01*
X134395226Y-76198102D01*
X134317205Y-76009744D01*
X134203937Y-75840226D01*
X134059774Y-75696063D01*
X133890256Y-75582795D01*
X133701898Y-75504774D01*
X133501939Y-75465000D01*
X133298061Y-75465000D01*
X133098102Y-75504774D01*
X132909744Y-75582795D01*
X132740226Y-75696063D01*
X132596063Y-75840226D01*
X132482795Y-76009744D01*
X132404774Y-76198102D01*
X132365000Y-76398061D01*
X120836348Y-76398061D01*
X120848129Y-76369620D01*
X120910000Y-76058571D01*
X120910000Y-75741429D01*
X120848129Y-75430380D01*
X120726763Y-75137379D01*
X120550569Y-74873685D01*
X120364945Y-74688061D01*
X168495000Y-74688061D01*
X168495000Y-74891939D01*
X168534774Y-75091898D01*
X168612795Y-75280256D01*
X168726063Y-75449774D01*
X168870226Y-75593937D01*
X169039744Y-75707205D01*
X169161498Y-75757638D01*
X169157607Y-75761529D01*
X169044339Y-75931047D01*
X168966318Y-76119405D01*
X168926544Y-76319364D01*
X168926544Y-76523242D01*
X168966318Y-76723201D01*
X169044339Y-76911559D01*
X169157607Y-77081077D01*
X169301770Y-77225240D01*
X169471288Y-77338508D01*
X169659646Y-77416529D01*
X169859605Y-77456303D01*
X170063483Y-77456303D01*
X170263442Y-77416529D01*
X170451800Y-77338508D01*
X170621318Y-77225240D01*
X170765481Y-77081077D01*
X170878749Y-76911559D01*
X170956770Y-76723201D01*
X170996544Y-76523242D01*
X170996544Y-76319364D01*
X170956770Y-76119405D01*
X170878749Y-75931047D01*
X170765481Y-75761529D01*
X170621318Y-75617366D01*
X170451800Y-75504098D01*
X170330046Y-75453665D01*
X170333937Y-75449774D01*
X170447205Y-75280256D01*
X170525226Y-75091898D01*
X170565000Y-74891939D01*
X170565000Y-74688061D01*
X170525226Y-74488102D01*
X170447205Y-74299744D01*
X170333937Y-74130226D01*
X170189774Y-73986063D01*
X170020256Y-73872795D01*
X169831898Y-73794774D01*
X169631939Y-73755000D01*
X169428061Y-73755000D01*
X169228102Y-73794774D01*
X169039744Y-73872795D01*
X168870226Y-73986063D01*
X168726063Y-74130226D01*
X168612795Y-74299744D01*
X168534774Y-74488102D01*
X168495000Y-74688061D01*
X120364945Y-74688061D01*
X120326315Y-74649431D01*
X120062621Y-74473237D01*
X119885813Y-74400000D01*
X120062621Y-74326763D01*
X120326315Y-74150569D01*
X120550569Y-73926315D01*
X120726763Y-73662621D01*
X120848129Y-73369620D01*
X120910000Y-73058571D01*
X120910000Y-72918061D01*
X156265000Y-72918061D01*
X156265000Y-73121939D01*
X156304774Y-73321898D01*
X156382795Y-73510256D01*
X156496063Y-73679774D01*
X156640226Y-73823937D01*
X156809744Y-73937205D01*
X156998102Y-74015226D01*
X157198061Y-74055000D01*
X157401939Y-74055000D01*
X157601898Y-74015226D01*
X157790256Y-73937205D01*
X157959774Y-73823937D01*
X158103937Y-73679774D01*
X158217205Y-73510256D01*
X158295226Y-73321898D01*
X158335000Y-73121939D01*
X158335000Y-73019088D01*
X158398102Y-73045226D01*
X158598061Y-73085000D01*
X158801939Y-73085000D01*
X159001898Y-73045226D01*
X159190256Y-72967205D01*
X159359774Y-72853937D01*
X159503937Y-72709774D01*
X159617205Y-72540256D01*
X159695226Y-72351898D01*
X159735000Y-72151939D01*
X159735000Y-71948061D01*
X159695226Y-71748102D01*
X159617205Y-71559744D01*
X159503937Y-71390226D01*
X159359774Y-71246063D01*
X159190256Y-71132795D01*
X159001898Y-71054774D01*
X158801939Y-71015000D01*
X158598061Y-71015000D01*
X158398102Y-71054774D01*
X158209744Y-71132795D01*
X158040226Y-71246063D01*
X157896063Y-71390226D01*
X157782795Y-71559744D01*
X157704774Y-71748102D01*
X157665000Y-71948061D01*
X157665000Y-72050912D01*
X157601898Y-72024774D01*
X157401939Y-71985000D01*
X157198061Y-71985000D01*
X156998102Y-72024774D01*
X156809744Y-72102795D01*
X156640226Y-72216063D01*
X156496063Y-72360226D01*
X156382795Y-72529744D01*
X156304774Y-72718102D01*
X156265000Y-72918061D01*
X120910000Y-72918061D01*
X120910000Y-72741429D01*
X120848129Y-72430380D01*
X120726763Y-72137379D01*
X120550569Y-71873685D01*
X120424945Y-71748061D01*
X152065000Y-71748061D01*
X152065000Y-71951939D01*
X152104774Y-72151898D01*
X152182795Y-72340256D01*
X152296063Y-72509774D01*
X152440226Y-72653937D01*
X152609744Y-72767205D01*
X152798102Y-72845226D01*
X152998061Y-72885000D01*
X153201939Y-72885000D01*
X153401898Y-72845226D01*
X153590256Y-72767205D01*
X153759774Y-72653937D01*
X153903937Y-72509774D01*
X154017205Y-72340256D01*
X154095226Y-72151898D01*
X154135000Y-71951939D01*
X154135000Y-71748061D01*
X154095226Y-71548102D01*
X154017205Y-71359744D01*
X153903937Y-71190226D01*
X153759774Y-71046063D01*
X153590256Y-70932795D01*
X153401898Y-70854774D01*
X153201939Y-70815000D01*
X152998061Y-70815000D01*
X152798102Y-70854774D01*
X152609744Y-70932795D01*
X152440226Y-71046063D01*
X152296063Y-71190226D01*
X152182795Y-71359744D01*
X152104774Y-71548102D01*
X152065000Y-71748061D01*
X120424945Y-71748061D01*
X120326315Y-71649431D01*
X120062621Y-71473237D01*
X119885813Y-71400000D01*
X120062621Y-71326763D01*
X120326315Y-71150569D01*
X120550569Y-70926315D01*
X120726763Y-70662621D01*
X120848129Y-70369620D01*
X120910000Y-70058571D01*
X120910000Y-69741429D01*
X120848129Y-69430380D01*
X120726763Y-69137379D01*
X120633675Y-68998061D01*
X162365000Y-68998061D01*
X162365000Y-69201939D01*
X162404774Y-69401898D01*
X162482795Y-69590256D01*
X162596063Y-69759774D01*
X162740226Y-69903937D01*
X162909744Y-70017205D01*
X163098102Y-70095226D01*
X163298061Y-70135000D01*
X163501939Y-70135000D01*
X163701898Y-70095226D01*
X163864261Y-70027972D01*
X163950226Y-70113937D01*
X164119744Y-70227205D01*
X164308102Y-70305226D01*
X164508061Y-70345000D01*
X164711939Y-70345000D01*
X164911898Y-70305226D01*
X165100256Y-70227205D01*
X165269774Y-70113937D01*
X165413937Y-69969774D01*
X165527205Y-69800256D01*
X165605226Y-69611898D01*
X165645000Y-69411939D01*
X165645000Y-69208061D01*
X165605226Y-69008102D01*
X165527205Y-68819744D01*
X165413937Y-68650226D01*
X165269774Y-68506063D01*
X165100256Y-68392795D01*
X164911898Y-68314774D01*
X164711939Y-68275000D01*
X164508061Y-68275000D01*
X164308102Y-68314774D01*
X164145739Y-68382028D01*
X164059774Y-68296063D01*
X163890256Y-68182795D01*
X163701898Y-68104774D01*
X163501939Y-68065000D01*
X163298061Y-68065000D01*
X163098102Y-68104774D01*
X162909744Y-68182795D01*
X162740226Y-68296063D01*
X162596063Y-68440226D01*
X162482795Y-68609744D01*
X162404774Y-68798102D01*
X162365000Y-68998061D01*
X120633675Y-68998061D01*
X120550569Y-68873685D01*
X120326315Y-68649431D01*
X120062621Y-68473237D01*
X119769620Y-68351871D01*
X119458571Y-68290000D01*
X119141429Y-68290000D01*
X118830380Y-68351871D01*
X118537379Y-68473237D01*
X118273685Y-68649431D01*
X118049431Y-68873685D01*
X117873237Y-69137379D01*
X117751871Y-69430380D01*
X117690000Y-69741429D01*
X117690000Y-70058349D01*
X117562621Y-69973237D01*
X117269620Y-69851871D01*
X116958571Y-69790000D01*
X116641429Y-69790000D01*
X116330380Y-69851871D01*
X116037379Y-69973237D01*
X115773685Y-70149431D01*
X115549431Y-70373685D01*
X115373237Y-70637379D01*
X115300000Y-70814187D01*
X115226763Y-70637379D01*
X115050569Y-70373685D01*
X114826315Y-70149431D01*
X114562621Y-69973237D01*
X114269620Y-69851871D01*
X113958571Y-69790000D01*
X113641429Y-69790000D01*
X113330380Y-69851871D01*
X113037379Y-69973237D01*
X112913072Y-70056296D01*
X112913072Y-68925000D01*
X112900812Y-68800518D01*
X112864502Y-68680820D01*
X112805537Y-68570506D01*
X112726185Y-68473815D01*
X112629494Y-68394463D01*
X112519180Y-68335498D01*
X112399482Y-68299188D01*
X112275000Y-68286928D01*
X110325000Y-68286928D01*
X110200518Y-68299188D01*
X110080820Y-68335498D01*
X109970506Y-68394463D01*
X109873815Y-68473815D01*
X109794463Y-68570506D01*
X109735498Y-68680820D01*
X109699188Y-68800518D01*
X109686928Y-68925000D01*
X108627000Y-68925000D01*
X108627000Y-68078363D01*
X115015000Y-68078363D01*
X115015000Y-68321637D01*
X115062460Y-68560236D01*
X115155557Y-68784992D01*
X115290713Y-68987267D01*
X115462733Y-69159287D01*
X115665008Y-69294443D01*
X115889764Y-69387540D01*
X116128363Y-69435000D01*
X116371637Y-69435000D01*
X116610236Y-69387540D01*
X116834992Y-69294443D01*
X117037267Y-69159287D01*
X117209287Y-68987267D01*
X117344443Y-68784992D01*
X117437540Y-68560236D01*
X117485000Y-68321637D01*
X117485000Y-68078363D01*
X117437540Y-67839764D01*
X117344443Y-67615008D01*
X117209287Y-67412733D01*
X117037267Y-67240713D01*
X116834992Y-67105557D01*
X116610236Y-67012460D01*
X116371637Y-66965000D01*
X116128363Y-66965000D01*
X115889764Y-67012460D01*
X115665008Y-67105557D01*
X115462733Y-67240713D01*
X115290713Y-67412733D01*
X115155557Y-67615008D01*
X115062460Y-67839764D01*
X115015000Y-68078363D01*
X108627000Y-68078363D01*
X108627000Y-65098061D01*
X132365000Y-65098061D01*
X132365000Y-65301939D01*
X132404774Y-65501898D01*
X132482795Y-65690256D01*
X132596063Y-65859774D01*
X132740226Y-66003937D01*
X132909744Y-66117205D01*
X133098102Y-66195226D01*
X133298061Y-66235000D01*
X133501939Y-66235000D01*
X133701898Y-66195226D01*
X133890256Y-66117205D01*
X134059774Y-66003937D01*
X134203937Y-65859774D01*
X134311989Y-65698061D01*
X137765000Y-65698061D01*
X137765000Y-65901939D01*
X137804774Y-66101898D01*
X137882795Y-66290256D01*
X137996063Y-66459774D01*
X138140226Y-66603937D01*
X138309744Y-66717205D01*
X138498102Y-66795226D01*
X138698061Y-66835000D01*
X138901939Y-66835000D01*
X139101898Y-66795226D01*
X139290256Y-66717205D01*
X139459774Y-66603937D01*
X139603937Y-66459774D01*
X139717205Y-66290256D01*
X139795226Y-66101898D01*
X139835000Y-65901939D01*
X139835000Y-65698061D01*
X139795226Y-65498102D01*
X139717205Y-65309744D01*
X139603937Y-65140226D01*
X139459774Y-64996063D01*
X139290256Y-64882795D01*
X139101898Y-64804774D01*
X138901939Y-64765000D01*
X138698061Y-64765000D01*
X138498102Y-64804774D01*
X138309744Y-64882795D01*
X138140226Y-64996063D01*
X137996063Y-65140226D01*
X137882795Y-65309744D01*
X137804774Y-65498102D01*
X137765000Y-65698061D01*
X134311989Y-65698061D01*
X134317205Y-65690256D01*
X134395226Y-65501898D01*
X134435000Y-65301939D01*
X134435000Y-65098061D01*
X134395226Y-64898102D01*
X134317205Y-64709744D01*
X134203937Y-64540226D01*
X134059774Y-64396063D01*
X133890256Y-64282795D01*
X133701898Y-64204774D01*
X133501939Y-64165000D01*
X133298061Y-64165000D01*
X133098102Y-64204774D01*
X132909744Y-64282795D01*
X132740226Y-64396063D01*
X132596063Y-64540226D01*
X132482795Y-64709744D01*
X132404774Y-64898102D01*
X132365000Y-65098061D01*
X108627000Y-65098061D01*
X108627000Y-63098061D01*
X129165000Y-63098061D01*
X129165000Y-63301939D01*
X129204774Y-63501898D01*
X129282795Y-63690256D01*
X129396063Y-63859774D01*
X129540226Y-64003937D01*
X129709744Y-64117205D01*
X129898102Y-64195226D01*
X130098061Y-64235000D01*
X130301939Y-64235000D01*
X130501898Y-64195226D01*
X130690256Y-64117205D01*
X130859774Y-64003937D01*
X131003937Y-63859774D01*
X131117205Y-63690256D01*
X131195226Y-63501898D01*
X131235000Y-63301939D01*
X131235000Y-63098061D01*
X131195226Y-62898102D01*
X131145629Y-62778363D01*
X137165000Y-62778363D01*
X137165000Y-63021637D01*
X137212460Y-63260236D01*
X137305557Y-63484992D01*
X137440713Y-63687267D01*
X137612733Y-63859287D01*
X137815008Y-63994443D01*
X138039764Y-64087540D01*
X138278363Y-64135000D01*
X138521637Y-64135000D01*
X138760236Y-64087540D01*
X138984992Y-63994443D01*
X139187267Y-63859287D01*
X139359287Y-63687267D01*
X139494443Y-63484992D01*
X139587540Y-63260236D01*
X139635000Y-63021637D01*
X139635000Y-62948061D01*
X149265000Y-62948061D01*
X149265000Y-63151939D01*
X149304774Y-63351898D01*
X149382795Y-63540256D01*
X149496063Y-63709774D01*
X149640226Y-63853937D01*
X149809744Y-63967205D01*
X149998102Y-64045226D01*
X150198061Y-64085000D01*
X150401939Y-64085000D01*
X150601898Y-64045226D01*
X150790256Y-63967205D01*
X150959774Y-63853937D01*
X151103937Y-63709774D01*
X151111763Y-63698061D01*
X153565000Y-63698061D01*
X153565000Y-63901939D01*
X153604774Y-64101898D01*
X153682795Y-64290256D01*
X153796063Y-64459774D01*
X153940226Y-64603937D01*
X154109744Y-64717205D01*
X154298102Y-64795226D01*
X154498061Y-64835000D01*
X154701939Y-64835000D01*
X154901898Y-64795226D01*
X155090256Y-64717205D01*
X155259774Y-64603937D01*
X155403937Y-64459774D01*
X155517205Y-64290256D01*
X155595226Y-64101898D01*
X155635000Y-63901939D01*
X155635000Y-63698061D01*
X155595226Y-63498102D01*
X155517205Y-63309744D01*
X155403937Y-63140226D01*
X155259774Y-62996063D01*
X155090256Y-62882795D01*
X154901898Y-62804774D01*
X154701939Y-62765000D01*
X154498061Y-62765000D01*
X154298102Y-62804774D01*
X154109744Y-62882795D01*
X153940226Y-62996063D01*
X153796063Y-63140226D01*
X153682795Y-63309744D01*
X153604774Y-63498102D01*
X153565000Y-63698061D01*
X151111763Y-63698061D01*
X151217205Y-63540256D01*
X151295226Y-63351898D01*
X151335000Y-63151939D01*
X151335000Y-62948061D01*
X151295226Y-62748102D01*
X151217205Y-62559744D01*
X151103937Y-62390226D01*
X150959774Y-62246063D01*
X150790256Y-62132795D01*
X150601898Y-62054774D01*
X150401939Y-62015000D01*
X150198061Y-62015000D01*
X149998102Y-62054774D01*
X149809744Y-62132795D01*
X149640226Y-62246063D01*
X149496063Y-62390226D01*
X149382795Y-62559744D01*
X149304774Y-62748102D01*
X149265000Y-62948061D01*
X139635000Y-62948061D01*
X139635000Y-62778363D01*
X139587540Y-62539764D01*
X139494443Y-62315008D01*
X139359287Y-62112733D01*
X139187267Y-61940713D01*
X138984992Y-61805557D01*
X138760236Y-61712460D01*
X138521637Y-61665000D01*
X138278363Y-61665000D01*
X138039764Y-61712460D01*
X137815008Y-61805557D01*
X137612733Y-61940713D01*
X137440713Y-62112733D01*
X137305557Y-62315008D01*
X137212460Y-62539764D01*
X137165000Y-62778363D01*
X131145629Y-62778363D01*
X131117205Y-62709744D01*
X131003937Y-62540226D01*
X130859774Y-62396063D01*
X130690256Y-62282795D01*
X130501898Y-62204774D01*
X130301939Y-62165000D01*
X130098061Y-62165000D01*
X129898102Y-62204774D01*
X129709744Y-62282795D01*
X129540226Y-62396063D01*
X129396063Y-62540226D01*
X129282795Y-62709744D01*
X129204774Y-62898102D01*
X129165000Y-63098061D01*
X108627000Y-63098061D01*
X108627000Y-61548061D01*
X165465000Y-61548061D01*
X165465000Y-61751939D01*
X165504774Y-61951898D01*
X165582795Y-62140256D01*
X165696063Y-62309774D01*
X165840226Y-62453937D01*
X166009744Y-62567205D01*
X166198102Y-62645226D01*
X166398061Y-62685000D01*
X166601939Y-62685000D01*
X166801898Y-62645226D01*
X166990256Y-62567205D01*
X167159774Y-62453937D01*
X167303937Y-62309774D01*
X167417205Y-62140256D01*
X167495226Y-61951898D01*
X167535000Y-61751939D01*
X167535000Y-61548061D01*
X167495226Y-61348102D01*
X167417205Y-61159744D01*
X167303937Y-60990226D01*
X167159774Y-60846063D01*
X166990256Y-60732795D01*
X166801898Y-60654774D01*
X166601939Y-60615000D01*
X166398061Y-60615000D01*
X166198102Y-60654774D01*
X166009744Y-60732795D01*
X165840226Y-60846063D01*
X165696063Y-60990226D01*
X165582795Y-61159744D01*
X165504774Y-61348102D01*
X165465000Y-61548061D01*
X108627000Y-61548061D01*
X108627000Y-59378363D01*
X140365000Y-59378363D01*
X140365000Y-59621637D01*
X140412460Y-59860236D01*
X140505557Y-60084992D01*
X140640713Y-60287267D01*
X140812733Y-60459287D01*
X141015008Y-60594443D01*
X141239764Y-60687540D01*
X141478363Y-60735000D01*
X141721637Y-60735000D01*
X141960236Y-60687540D01*
X142184992Y-60594443D01*
X142387267Y-60459287D01*
X142450000Y-60396554D01*
X142512733Y-60459287D01*
X142715008Y-60594443D01*
X142939764Y-60687540D01*
X143178363Y-60735000D01*
X143421637Y-60735000D01*
X143660236Y-60687540D01*
X143884992Y-60594443D01*
X144087267Y-60459287D01*
X144259287Y-60287267D01*
X144394443Y-60084992D01*
X144487540Y-59860236D01*
X144535000Y-59621637D01*
X144535000Y-59502487D01*
X144554774Y-59601898D01*
X144632795Y-59790256D01*
X144746063Y-59959774D01*
X144890226Y-60103937D01*
X145059744Y-60217205D01*
X145248102Y-60295226D01*
X145448061Y-60335000D01*
X145651939Y-60335000D01*
X145851898Y-60295226D01*
X146040256Y-60217205D01*
X146209774Y-60103937D01*
X146353937Y-59959774D01*
X146467205Y-59790256D01*
X146545226Y-59601898D01*
X146585000Y-59401939D01*
X146585000Y-59198061D01*
X146545226Y-58998102D01*
X146467205Y-58809744D01*
X146353937Y-58640226D01*
X146209774Y-58496063D01*
X146040256Y-58382795D01*
X145851898Y-58304774D01*
X145651939Y-58265000D01*
X145448061Y-58265000D01*
X145248102Y-58304774D01*
X145059744Y-58382795D01*
X144890226Y-58496063D01*
X144746063Y-58640226D01*
X144632795Y-58809744D01*
X144554774Y-58998102D01*
X144515000Y-59198061D01*
X144515000Y-59277816D01*
X144487540Y-59139764D01*
X144394443Y-58915008D01*
X144259287Y-58712733D01*
X144087267Y-58540713D01*
X143884992Y-58405557D01*
X143660236Y-58312460D01*
X143421637Y-58265000D01*
X143178363Y-58265000D01*
X142939764Y-58312460D01*
X142715008Y-58405557D01*
X142512733Y-58540713D01*
X142450000Y-58603446D01*
X142387267Y-58540713D01*
X142184992Y-58405557D01*
X141960236Y-58312460D01*
X141721637Y-58265000D01*
X141478363Y-58265000D01*
X141239764Y-58312460D01*
X141015008Y-58405557D01*
X140812733Y-58540713D01*
X140640713Y-58712733D01*
X140505557Y-58915008D01*
X140412460Y-59139764D01*
X140365000Y-59378363D01*
X108627000Y-59378363D01*
X108627000Y-56798061D01*
X111865000Y-56798061D01*
X111865000Y-57001939D01*
X111904774Y-57201898D01*
X111982795Y-57390256D01*
X112096063Y-57559774D01*
X112240226Y-57703937D01*
X112409744Y-57817205D01*
X112598102Y-57895226D01*
X112798061Y-57935000D01*
X113001939Y-57935000D01*
X113201898Y-57895226D01*
X113390256Y-57817205D01*
X113559774Y-57703937D01*
X113703937Y-57559774D01*
X113817205Y-57390256D01*
X113895226Y-57201898D01*
X113935000Y-57001939D01*
X113935000Y-56798061D01*
X113915495Y-56700000D01*
X149483662Y-56700000D01*
X149508955Y-56956805D01*
X149583862Y-57203741D01*
X149705505Y-57431318D01*
X149762631Y-57500926D01*
X149673815Y-57573815D01*
X149594463Y-57670506D01*
X149535498Y-57780820D01*
X149499188Y-57900518D01*
X149486928Y-58025000D01*
X149486928Y-59375000D01*
X149499188Y-59499482D01*
X149535498Y-59619180D01*
X149594463Y-59729494D01*
X149673815Y-59826185D01*
X149770506Y-59905537D01*
X149880820Y-59964502D01*
X150000518Y-60000812D01*
X150125000Y-60013072D01*
X151475000Y-60013072D01*
X151599482Y-60000812D01*
X151719180Y-59964502D01*
X151829494Y-59905537D01*
X151926185Y-59826185D01*
X151999074Y-59737369D01*
X152068682Y-59794495D01*
X152296259Y-59916138D01*
X152543195Y-59991045D01*
X152735649Y-60010000D01*
X152864351Y-60010000D01*
X153056805Y-59991045D01*
X153303741Y-59916138D01*
X153531318Y-59794495D01*
X153730792Y-59630792D01*
X153800000Y-59546461D01*
X153869208Y-59630792D01*
X154068682Y-59794495D01*
X154296259Y-59916138D01*
X154543195Y-59991045D01*
X154735649Y-60010000D01*
X154864351Y-60010000D01*
X155056805Y-59991045D01*
X155303741Y-59916138D01*
X155531318Y-59794495D01*
X155730792Y-59630792D01*
X155800000Y-59546461D01*
X155869208Y-59630792D01*
X156068682Y-59794495D01*
X156296259Y-59916138D01*
X156543195Y-59991045D01*
X156735649Y-60010000D01*
X156864351Y-60010000D01*
X157056805Y-59991045D01*
X157303741Y-59916138D01*
X157531318Y-59794495D01*
X157730792Y-59630792D01*
X157800000Y-59546461D01*
X157869208Y-59630792D01*
X158068682Y-59794495D01*
X158296259Y-59916138D01*
X158543195Y-59991045D01*
X158735649Y-60010000D01*
X158864351Y-60010000D01*
X159056805Y-59991045D01*
X159303741Y-59916138D01*
X159531318Y-59794495D01*
X159730792Y-59630792D01*
X159894495Y-59431318D01*
X160016138Y-59203741D01*
X160091045Y-58956805D01*
X160116338Y-58700000D01*
X160091045Y-58443195D01*
X160016138Y-58196259D01*
X159894495Y-57968682D01*
X159730792Y-57769208D01*
X159646461Y-57700000D01*
X159730792Y-57630792D01*
X159894495Y-57431318D01*
X160016138Y-57203741D01*
X160091045Y-56956805D01*
X160116338Y-56700000D01*
X160091045Y-56443195D01*
X160016138Y-56196259D01*
X159894495Y-55968682D01*
X159730792Y-55769208D01*
X159531318Y-55605505D01*
X159303741Y-55483862D01*
X159056805Y-55408955D01*
X158864351Y-55390000D01*
X158735649Y-55390000D01*
X158543195Y-55408955D01*
X158296259Y-55483862D01*
X158068682Y-55605505D01*
X157869208Y-55769208D01*
X157705505Y-55968682D01*
X157583862Y-56196259D01*
X157508955Y-56443195D01*
X157483662Y-56700000D01*
X157508955Y-56956805D01*
X157583862Y-57203741D01*
X157705505Y-57431318D01*
X157869208Y-57630792D01*
X157953539Y-57700000D01*
X157869208Y-57769208D01*
X157800000Y-57853539D01*
X157730792Y-57769208D01*
X157531318Y-57605505D01*
X157303741Y-57483862D01*
X157056805Y-57408955D01*
X156864351Y-57390000D01*
X156735649Y-57390000D01*
X156543195Y-57408955D01*
X156296259Y-57483862D01*
X156068682Y-57605505D01*
X155869208Y-57769208D01*
X155800000Y-57853539D01*
X155730792Y-57769208D01*
X155646461Y-57700000D01*
X155730792Y-57630792D01*
X155894495Y-57431318D01*
X156016138Y-57203741D01*
X156091045Y-56956805D01*
X156116338Y-56700000D01*
X156091045Y-56443195D01*
X156016138Y-56196259D01*
X155894495Y-55968682D01*
X155730792Y-55769208D01*
X155531318Y-55605505D01*
X155303741Y-55483862D01*
X155056805Y-55408955D01*
X154864351Y-55390000D01*
X154735649Y-55390000D01*
X154543195Y-55408955D01*
X154296259Y-55483862D01*
X154068682Y-55605505D01*
X153869208Y-55769208D01*
X153800000Y-55853539D01*
X153730792Y-55769208D01*
X153531318Y-55605505D01*
X153303741Y-55483862D01*
X153056805Y-55408955D01*
X152864351Y-55390000D01*
X152735649Y-55390000D01*
X152543195Y-55408955D01*
X152296259Y-55483862D01*
X152068682Y-55605505D01*
X151869208Y-55769208D01*
X151800000Y-55853539D01*
X151730792Y-55769208D01*
X151531318Y-55605505D01*
X151303741Y-55483862D01*
X151056805Y-55408955D01*
X150864351Y-55390000D01*
X150735649Y-55390000D01*
X150543195Y-55408955D01*
X150296259Y-55483862D01*
X150068682Y-55605505D01*
X149869208Y-55769208D01*
X149705505Y-55968682D01*
X149583862Y-56196259D01*
X149508955Y-56443195D01*
X149483662Y-56700000D01*
X113915495Y-56700000D01*
X113895226Y-56598102D01*
X113817205Y-56409744D01*
X113703937Y-56240226D01*
X113559774Y-56096063D01*
X113390256Y-55982795D01*
X113201898Y-55904774D01*
X113001939Y-55865000D01*
X112798061Y-55865000D01*
X112598102Y-55904774D01*
X112409744Y-55982795D01*
X112240226Y-56096063D01*
X112096063Y-56240226D01*
X111982795Y-56409744D01*
X111904774Y-56598102D01*
X111865000Y-56798061D01*
X108627000Y-56798061D01*
X108627000Y-53127000D01*
X112074164Y-53127000D01*
X112096063Y-53159774D01*
X112096063Y-53159774D01*
G37*
X112096063Y-53159774D02*
X112240226Y-53303937D01*
X112409744Y-53417205D01*
X112598102Y-53495226D01*
X112798061Y-53535000D01*
X113001939Y-53535000D01*
X113201898Y-53495226D01*
X113390256Y-53417205D01*
X113559774Y-53303937D01*
X113703937Y-53159774D01*
X113725836Y-53127000D01*
X132226446Y-53127000D01*
X132140713Y-53212733D01*
X132005557Y-53415008D01*
X131912460Y-53639764D01*
X131865000Y-53878363D01*
X131865000Y-54121637D01*
X131912460Y-54360236D01*
X132005557Y-54584992D01*
X132140713Y-54787267D01*
X132312733Y-54959287D01*
X132515008Y-55094443D01*
X132739764Y-55187540D01*
X132978363Y-55235000D01*
X133221637Y-55235000D01*
X133460236Y-55187540D01*
X133684992Y-55094443D01*
X133887267Y-54959287D01*
X134059287Y-54787267D01*
X134194443Y-54584992D01*
X134287540Y-54360236D01*
X134335000Y-54121637D01*
X134335000Y-53878363D01*
X134287540Y-53639764D01*
X134194443Y-53415008D01*
X134059287Y-53212733D01*
X133973554Y-53127000D01*
X172973000Y-53127000D01*
X172973000Y-55329910D01*
X172736038Y-54975271D01*
X172424729Y-54663962D01*
X172058669Y-54419369D01*
X171651925Y-54250890D01*
X171220128Y-54165000D01*
X170779872Y-54165000D01*
X170348075Y-54250890D01*
X169941331Y-54419369D01*
X169575271Y-54663962D01*
X169263962Y-54975271D01*
X169019369Y-55341331D01*
X168850890Y-55748075D01*
X168765000Y-56179872D01*
X168765000Y-56620128D01*
X168850890Y-57051925D01*
X169019369Y-57458669D01*
X169263962Y-57824729D01*
X169575271Y-58136038D01*
X169941331Y-58380631D01*
X170348075Y-58549110D01*
X170779872Y-58635000D01*
X171220128Y-58635000D01*
X171651925Y-58549110D01*
X172058669Y-58380631D01*
X172424729Y-58136038D01*
X172736038Y-57824729D01*
X172973000Y-57470090D01*
X172973000Y-66109289D01*
X172859774Y-65996063D01*
X172690256Y-65882795D01*
X172501898Y-65804774D01*
X172301939Y-65765000D01*
X172098061Y-65765000D01*
X171898102Y-65804774D01*
X171709744Y-65882795D01*
X171540226Y-65996063D01*
X171396063Y-66140226D01*
X171282795Y-66309744D01*
X171204774Y-66498102D01*
X171165000Y-66698061D01*
X171165000Y-66901939D01*
X171204774Y-67101898D01*
X171282795Y-67290256D01*
X171396063Y-67459774D01*
X171540226Y-67603937D01*
X171709744Y-67717205D01*
X171898102Y-67795226D01*
X172098061Y-67835000D01*
X172301939Y-67835000D01*
X172501898Y-67795226D01*
X172690256Y-67717205D01*
X172859774Y-67603937D01*
X172973000Y-67490711D01*
X172973000Y-100329910D01*
X172736038Y-99975271D01*
X172424729Y-99663962D01*
X172058669Y-99419369D01*
X171651925Y-99250890D01*
X171220128Y-99165000D01*
X170779872Y-99165000D01*
X170348075Y-99250890D01*
X169941331Y-99419369D01*
X169575271Y-99663962D01*
X169263962Y-99975271D01*
X169019369Y-100341331D01*
X168850890Y-100748075D01*
X168765000Y-101179872D01*
X168765000Y-101620128D01*
X168850890Y-102051925D01*
X169019369Y-102458669D01*
X169263962Y-102824729D01*
X169575271Y-103136038D01*
X169941331Y-103380631D01*
X170348075Y-103549110D01*
X170779872Y-103635000D01*
X171220128Y-103635000D01*
X171651925Y-103549110D01*
X172058669Y-103380631D01*
X172424729Y-103136038D01*
X172736038Y-102824729D01*
X172973000Y-102470090D01*
X172973000Y-105273000D01*
X156215000Y-105273000D01*
X156215000Y-105088061D01*
X156175226Y-104888102D01*
X156097205Y-104699744D01*
X155983937Y-104530226D01*
X155839774Y-104386063D01*
X155670256Y-104272795D01*
X155481898Y-104194774D01*
X155281939Y-104155000D01*
X155078061Y-104155000D01*
X154878102Y-104194774D01*
X154689744Y-104272795D01*
X154520226Y-104386063D01*
X154376063Y-104530226D01*
X154262795Y-104699744D01*
X154184774Y-104888102D01*
X154145000Y-105088061D01*
X154145000Y-105273000D01*
X149315000Y-105273000D01*
X149315000Y-105188061D01*
X149275226Y-104988102D01*
X149197205Y-104799744D01*
X149083937Y-104630226D01*
X148939774Y-104486063D01*
X148770256Y-104372795D01*
X148581898Y-104294774D01*
X148381939Y-104255000D01*
X148178061Y-104255000D01*
X147978102Y-104294774D01*
X147789744Y-104372795D01*
X147620226Y-104486063D01*
X147476063Y-104630226D01*
X147362795Y-104799744D01*
X147284774Y-104988102D01*
X147245000Y-105188061D01*
X147245000Y-105273000D01*
X108627000Y-105273000D01*
X108627000Y-101298061D01*
X121165000Y-101298061D01*
X121165000Y-101501939D01*
X121204774Y-101701898D01*
X121282795Y-101890256D01*
X121396063Y-102059774D01*
X121540226Y-102203937D01*
X121709744Y-102317205D01*
X121898102Y-102395226D01*
X122098061Y-102435000D01*
X122301939Y-102435000D01*
X122501898Y-102395226D01*
X122690256Y-102317205D01*
X122859774Y-102203937D01*
X123003937Y-102059774D01*
X123117205Y-101890256D01*
X123195226Y-101701898D01*
X123235000Y-101501939D01*
X123235000Y-101298061D01*
X123195226Y-101098102D01*
X123191067Y-101088061D01*
X145545000Y-101088061D01*
X145545000Y-101291939D01*
X145584774Y-101491898D01*
X145662795Y-101680256D01*
X145776063Y-101849774D01*
X145918233Y-101991944D01*
X145812795Y-102149744D01*
X145734774Y-102338102D01*
X145695000Y-102538061D01*
X145695000Y-102741939D01*
X145734774Y-102941898D01*
X145812795Y-103130256D01*
X145926063Y-103299774D01*
X146070226Y-103443937D01*
X146239744Y-103557205D01*
X146428102Y-103635226D01*
X146628061Y-103675000D01*
X146831939Y-103675000D01*
X147031898Y-103635226D01*
X147220256Y-103557205D01*
X147389774Y-103443937D01*
X147533937Y-103299774D01*
X147647205Y-103130256D01*
X147725226Y-102941898D01*
X147765000Y-102741939D01*
X147765000Y-102538061D01*
X147725226Y-102338102D01*
X147647205Y-102149744D01*
X147533937Y-101980226D01*
X147391767Y-101838056D01*
X147497205Y-101680256D01*
X147575226Y-101491898D01*
X147615000Y-101291939D01*
X147615000Y-101088061D01*
X147575226Y-100888102D01*
X147497205Y-100699744D01*
X147383937Y-100530226D01*
X147239774Y-100386063D01*
X147070256Y-100272795D01*
X146881898Y-100194774D01*
X146681939Y-100155000D01*
X146478061Y-100155000D01*
X146278102Y-100194774D01*
X146089744Y-100272795D01*
X145920226Y-100386063D01*
X145776063Y-100530226D01*
X145662795Y-100699744D01*
X145584774Y-100888102D01*
X145545000Y-101088061D01*
X123191067Y-101088061D01*
X123117205Y-100909744D01*
X123003937Y-100740226D01*
X122859774Y-100596063D01*
X122690256Y-100482795D01*
X122501898Y-100404774D01*
X122301939Y-100365000D01*
X122098061Y-100365000D01*
X121898102Y-100404774D01*
X121709744Y-100482795D01*
X121540226Y-100596063D01*
X121396063Y-100740226D01*
X121282795Y-100909744D01*
X121204774Y-101098102D01*
X121165000Y-101298061D01*
X108627000Y-101298061D01*
X108627000Y-99648061D01*
X134065000Y-99648061D01*
X134065000Y-99851939D01*
X134104774Y-100051898D01*
X134182795Y-100240256D01*
X134296063Y-100409774D01*
X134440226Y-100553937D01*
X134609744Y-100667205D01*
X134798102Y-100745226D01*
X134998061Y-100785000D01*
X135201939Y-100785000D01*
X135401898Y-100745226D01*
X135590256Y-100667205D01*
X135759774Y-100553937D01*
X135903937Y-100409774D01*
X136017205Y-100240256D01*
X136095226Y-100051898D01*
X136135000Y-99851939D01*
X136135000Y-99648061D01*
X136095226Y-99448102D01*
X136017205Y-99259744D01*
X135903937Y-99090226D01*
X135759774Y-98946063D01*
X135590256Y-98832795D01*
X135401898Y-98754774D01*
X135201939Y-98715000D01*
X134998061Y-98715000D01*
X134798102Y-98754774D01*
X134609744Y-98832795D01*
X134440226Y-98946063D01*
X134296063Y-99090226D01*
X134182795Y-99259744D01*
X134104774Y-99448102D01*
X134065000Y-99648061D01*
X108627000Y-99648061D01*
X108627000Y-97358061D01*
X144385000Y-97358061D01*
X144385000Y-97561939D01*
X144424774Y-97761898D01*
X144502795Y-97950256D01*
X144616063Y-98119774D01*
X144760226Y-98263937D01*
X144929744Y-98377205D01*
X145118102Y-98455226D01*
X145318061Y-98495000D01*
X145521939Y-98495000D01*
X145721898Y-98455226D01*
X145910256Y-98377205D01*
X146079774Y-98263937D01*
X146223937Y-98119774D01*
X146337205Y-97950256D01*
X146415226Y-97761898D01*
X146455000Y-97561939D01*
X146455000Y-97358061D01*
X146415226Y-97158102D01*
X146337205Y-96969744D01*
X146223937Y-96800226D01*
X146079774Y-96656063D01*
X145910256Y-96542795D01*
X145802260Y-96498061D01*
X167265000Y-96498061D01*
X167265000Y-96701939D01*
X167304774Y-96901898D01*
X167382795Y-97090256D01*
X167496063Y-97259774D01*
X167640226Y-97403937D01*
X167809744Y-97517205D01*
X167998102Y-97595226D01*
X168198061Y-97635000D01*
X168401939Y-97635000D01*
X168601898Y-97595226D01*
X168790256Y-97517205D01*
X168959774Y-97403937D01*
X169103937Y-97259774D01*
X169217205Y-97090256D01*
X169295226Y-96901898D01*
X169335000Y-96701939D01*
X169335000Y-96498061D01*
X169295226Y-96298102D01*
X169217205Y-96109744D01*
X169103937Y-95940226D01*
X168959774Y-95796063D01*
X168790256Y-95682795D01*
X168601898Y-95604774D01*
X168401939Y-95565000D01*
X168198061Y-95565000D01*
X167998102Y-95604774D01*
X167809744Y-95682795D01*
X167640226Y-95796063D01*
X167496063Y-95940226D01*
X167382795Y-96109744D01*
X167304774Y-96298102D01*
X167265000Y-96498061D01*
X145802260Y-96498061D01*
X145721898Y-96464774D01*
X145521939Y-96425000D01*
X145318061Y-96425000D01*
X145118102Y-96464774D01*
X144929744Y-96542795D01*
X144760226Y-96656063D01*
X144616063Y-96800226D01*
X144502795Y-96969744D01*
X144424774Y-97158102D01*
X144385000Y-97358061D01*
X108627000Y-97358061D01*
X108627000Y-94443399D01*
X145540338Y-94443399D01*
X145540338Y-94647277D01*
X145580112Y-94847236D01*
X145658133Y-95035594D01*
X145771401Y-95205112D01*
X145915564Y-95349275D01*
X146085082Y-95462543D01*
X146273440Y-95540564D01*
X146473399Y-95580338D01*
X146677277Y-95580338D01*
X146877236Y-95540564D01*
X147065594Y-95462543D01*
X147162098Y-95398061D01*
X169565000Y-95398061D01*
X169565000Y-95601939D01*
X169604774Y-95801898D01*
X169682795Y-95990256D01*
X169796063Y-96159774D01*
X169940226Y-96303937D01*
X170109744Y-96417205D01*
X170298102Y-96495226D01*
X170498061Y-96535000D01*
X170701939Y-96535000D01*
X170901898Y-96495226D01*
X171090256Y-96417205D01*
X171259774Y-96303937D01*
X171403937Y-96159774D01*
X171517205Y-95990256D01*
X171595226Y-95801898D01*
X171635000Y-95601939D01*
X171635000Y-95398061D01*
X171595226Y-95198102D01*
X171517205Y-95009744D01*
X171403937Y-94840226D01*
X171259774Y-94696063D01*
X171090256Y-94582795D01*
X170901898Y-94504774D01*
X170701939Y-94465000D01*
X170498061Y-94465000D01*
X170298102Y-94504774D01*
X170109744Y-94582795D01*
X169940226Y-94696063D01*
X169796063Y-94840226D01*
X169682795Y-95009744D01*
X169604774Y-95198102D01*
X169565000Y-95398061D01*
X147162098Y-95398061D01*
X147235112Y-95349275D01*
X147379275Y-95205112D01*
X147492543Y-95035594D01*
X147570564Y-94847236D01*
X147610338Y-94647277D01*
X147610338Y-94443399D01*
X147570564Y-94243440D01*
X147492543Y-94055082D01*
X147379275Y-93885564D01*
X147235112Y-93741401D01*
X147065594Y-93628133D01*
X146877236Y-93550112D01*
X146677277Y-93510338D01*
X146473399Y-93510338D01*
X146273440Y-93550112D01*
X146085082Y-93628133D01*
X145915564Y-93741401D01*
X145771401Y-93885564D01*
X145658133Y-94055082D01*
X145580112Y-94243440D01*
X145540338Y-94443399D01*
X108627000Y-94443399D01*
X108627000Y-92788061D01*
X151705000Y-92788061D01*
X151705000Y-92991939D01*
X151744774Y-93191898D01*
X151822795Y-93380256D01*
X151936063Y-93549774D01*
X152080226Y-93693937D01*
X152249744Y-93807205D01*
X152438102Y-93885226D01*
X152638061Y-93925000D01*
X152841939Y-93925000D01*
X153041898Y-93885226D01*
X153230256Y-93807205D01*
X153399774Y-93693937D01*
X153543937Y-93549774D01*
X153657205Y-93380256D01*
X153735226Y-93191898D01*
X153745934Y-93138061D01*
X158675000Y-93138061D01*
X158675000Y-93341939D01*
X158714774Y-93541898D01*
X158792795Y-93730256D01*
X158906063Y-93899774D01*
X159050226Y-94043937D01*
X159219744Y-94157205D01*
X159408102Y-94235226D01*
X159608061Y-94275000D01*
X159811939Y-94275000D01*
X160011898Y-94235226D01*
X160200256Y-94157205D01*
X160369774Y-94043937D01*
X160513937Y-93899774D01*
X160627205Y-93730256D01*
X160705226Y-93541898D01*
X160745000Y-93341939D01*
X160745000Y-93138061D01*
X160705226Y-92938102D01*
X160627205Y-92749744D01*
X160513937Y-92580226D01*
X160369774Y-92436063D01*
X160200256Y-92322795D01*
X160011898Y-92244774D01*
X159811939Y-92205000D01*
X159608061Y-92205000D01*
X159408102Y-92244774D01*
X159219744Y-92322795D01*
X159050226Y-92436063D01*
X158906063Y-92580226D01*
X158792795Y-92749744D01*
X158714774Y-92938102D01*
X158675000Y-93138061D01*
X153745934Y-93138061D01*
X153775000Y-92991939D01*
X153775000Y-92788061D01*
X153735226Y-92588102D01*
X153657205Y-92399744D01*
X153543937Y-92230226D01*
X153399774Y-92086063D01*
X153230256Y-91972795D01*
X153041898Y-91894774D01*
X152841939Y-91855000D01*
X152638061Y-91855000D01*
X152438102Y-91894774D01*
X152249744Y-91972795D01*
X152080226Y-92086063D01*
X151936063Y-92230226D01*
X151822795Y-92399744D01*
X151744774Y-92588102D01*
X151705000Y-92788061D01*
X108627000Y-92788061D01*
X108627000Y-68925000D01*
X109686928Y-68925000D01*
X109686928Y-70875000D01*
X109699188Y-70999482D01*
X109735498Y-71119180D01*
X109794463Y-71229494D01*
X109873815Y-71326185D01*
X109970506Y-71405537D01*
X110080820Y-71464502D01*
X110200518Y-71500812D01*
X110325000Y-71513072D01*
X110477761Y-71513072D01*
X110273685Y-71649431D01*
X110049431Y-71873685D01*
X109873237Y-72137379D01*
X109751871Y-72430380D01*
X109690000Y-72741429D01*
X109690000Y-73058571D01*
X109751871Y-73369620D01*
X109873237Y-73662621D01*
X110049431Y-73926315D01*
X110273685Y-74150569D01*
X110537379Y-74326763D01*
X110714187Y-74400000D01*
X110537379Y-74473237D01*
X110273685Y-74649431D01*
X110049431Y-74873685D01*
X109873237Y-75137379D01*
X109751871Y-75430380D01*
X109690000Y-75741429D01*
X109690000Y-76058571D01*
X109751871Y-76369620D01*
X109873237Y-76662621D01*
X110049431Y-76926315D01*
X110273685Y-77150569D01*
X110537379Y-77326763D01*
X110830380Y-77448129D01*
X111141429Y-77510000D01*
X111458571Y-77510000D01*
X111769620Y-77448129D01*
X112062621Y-77326763D01*
X112190000Y-77241651D01*
X112190000Y-77558571D01*
X112251871Y-77869620D01*
X112373237Y-78162621D01*
X112549431Y-78426315D01*
X112773685Y-78650569D01*
X113037379Y-78826763D01*
X113330380Y-78948129D01*
X113641429Y-79010000D01*
X113958571Y-79010000D01*
X114269620Y-78948129D01*
X114562621Y-78826763D01*
X114826315Y-78650569D01*
X115050569Y-78426315D01*
X115226763Y-78162621D01*
X115300000Y-77985813D01*
X115373237Y-78162621D01*
X115549431Y-78426315D01*
X115773685Y-78650569D01*
X116037379Y-78826763D01*
X116214187Y-78900000D01*
X116037379Y-78973237D01*
X115773685Y-79149431D01*
X115549431Y-79373685D01*
X115373237Y-79637379D01*
X115251871Y-79930380D01*
X115190000Y-80241429D01*
X115190000Y-80558571D01*
X115251871Y-80869620D01*
X115373237Y-81162621D01*
X115549431Y-81426315D01*
X115773685Y-81650569D01*
X116037379Y-81826763D01*
X116214187Y-81900000D01*
X116037379Y-81973237D01*
X115773685Y-82149431D01*
X115549431Y-82373685D01*
X115373237Y-82637379D01*
X115251871Y-82930380D01*
X115190000Y-83241429D01*
X115190000Y-83558571D01*
X115251871Y-83869620D01*
X115373237Y-84162621D01*
X115549431Y-84426315D01*
X115773685Y-84650569D01*
X116037379Y-84826763D01*
X116214187Y-84900000D01*
X116037379Y-84973237D01*
X115773685Y-85149431D01*
X115549431Y-85373685D01*
X115373237Y-85637379D01*
X115300000Y-85814187D01*
X115226763Y-85637379D01*
X115050569Y-85373685D01*
X114826315Y-85149431D01*
X114562621Y-84973237D01*
X114269620Y-84851871D01*
X113958571Y-84790000D01*
X113641429Y-84790000D01*
X113330380Y-84851871D01*
X113037379Y-84973237D01*
X112773685Y-85149431D01*
X112549431Y-85373685D01*
X112373237Y-85637379D01*
X112251871Y-85930380D01*
X112190000Y-86241429D01*
X112190000Y-86558349D01*
X112062621Y-86473237D01*
X111769620Y-86351871D01*
X111458571Y-86290000D01*
X111141429Y-86290000D01*
X110830380Y-86351871D01*
X110537379Y-86473237D01*
X110273685Y-86649431D01*
X110049431Y-86873685D01*
X109873237Y-87137379D01*
X109751871Y-87430380D01*
X109690000Y-87741429D01*
X109690000Y-88058571D01*
X109751871Y-88369620D01*
X109873237Y-88662621D01*
X110049431Y-88926315D01*
X110273685Y-89150569D01*
X110537379Y-89326763D01*
X110830380Y-89448129D01*
X111141429Y-89510000D01*
X111458571Y-89510000D01*
X111769620Y-89448129D01*
X112062621Y-89326763D01*
X112326315Y-89150569D01*
X112550569Y-88926315D01*
X112726763Y-88662621D01*
X112848129Y-88369620D01*
X112910000Y-88058571D01*
X112910000Y-87741651D01*
X113037379Y-87826763D01*
X113330380Y-87948129D01*
X113641429Y-88010000D01*
X113958571Y-88010000D01*
X114269620Y-87948129D01*
X114562621Y-87826763D01*
X114826315Y-87650569D01*
X115050569Y-87426315D01*
X115226763Y-87162621D01*
X115300000Y-86985813D01*
X115373237Y-87162621D01*
X115549431Y-87426315D01*
X115773685Y-87650569D01*
X116037379Y-87826763D01*
X116330380Y-87948129D01*
X116641429Y-88010000D01*
X116958571Y-88010000D01*
X117269620Y-87948129D01*
X117562621Y-87826763D01*
X117690000Y-87741651D01*
X117690000Y-88058571D01*
X117751871Y-88369620D01*
X117873237Y-88662621D01*
X118049431Y-88926315D01*
X118273685Y-89150569D01*
X118537379Y-89326763D01*
X118830380Y-89448129D01*
X119141429Y-89510000D01*
X119458571Y-89510000D01*
X119769620Y-89448129D01*
X120062621Y-89326763D01*
X120326315Y-89150569D01*
X120550569Y-88926315D01*
X120649628Y-88778061D01*
X148395000Y-88778061D01*
X148395000Y-88981939D01*
X148434774Y-89181898D01*
X148512795Y-89370256D01*
X148626063Y-89539774D01*
X148770226Y-89683937D01*
X148939744Y-89797205D01*
X149128102Y-89875226D01*
X149328061Y-89915000D01*
X149531939Y-89915000D01*
X149731898Y-89875226D01*
X149920256Y-89797205D01*
X150089774Y-89683937D01*
X150233937Y-89539774D01*
X150347205Y-89370256D01*
X150425226Y-89181898D01*
X150465000Y-88981939D01*
X150465000Y-88778061D01*
X150425226Y-88578102D01*
X150347205Y-88389744D01*
X150233937Y-88220226D01*
X150089774Y-88076063D01*
X149920256Y-87962795D01*
X149731898Y-87884774D01*
X149531939Y-87845000D01*
X149328061Y-87845000D01*
X149128102Y-87884774D01*
X148939744Y-87962795D01*
X148770226Y-88076063D01*
X148626063Y-88220226D01*
X148512795Y-88389744D01*
X148434774Y-88578102D01*
X148395000Y-88778061D01*
X120649628Y-88778061D01*
X120726763Y-88662621D01*
X120848129Y-88369620D01*
X120910000Y-88058571D01*
X120910000Y-87741429D01*
X120848129Y-87430380D01*
X120726763Y-87137379D01*
X120550569Y-86873685D01*
X120326315Y-86649431D01*
X120324265Y-86648061D01*
X154615000Y-86648061D01*
X154615000Y-86851939D01*
X154654774Y-87051898D01*
X154732795Y-87240256D01*
X154846063Y-87409774D01*
X154990226Y-87553937D01*
X155159744Y-87667205D01*
X155348102Y-87745226D01*
X155548061Y-87785000D01*
X155751939Y-87785000D01*
X155951898Y-87745226D01*
X156140256Y-87667205D01*
X156309774Y-87553937D01*
X156453937Y-87409774D01*
X156567205Y-87240256D01*
X156645226Y-87051898D01*
X156685000Y-86851939D01*
X156685000Y-86648061D01*
X156653175Y-86488061D01*
X169005000Y-86488061D01*
X169005000Y-86691939D01*
X169044774Y-86891898D01*
X169122795Y-87080256D01*
X169236063Y-87249774D01*
X169380226Y-87393937D01*
X169549744Y-87507205D01*
X169738102Y-87585226D01*
X169938061Y-87625000D01*
X170141939Y-87625000D01*
X170341898Y-87585226D01*
X170530256Y-87507205D01*
X170699774Y-87393937D01*
X170843937Y-87249774D01*
X170957205Y-87080256D01*
X171035226Y-86891898D01*
X171075000Y-86691939D01*
X171075000Y-86488061D01*
X171035226Y-86288102D01*
X170957205Y-86099744D01*
X170843937Y-85930226D01*
X170699774Y-85786063D01*
X170530256Y-85672795D01*
X170341898Y-85594774D01*
X170141939Y-85555000D01*
X169938061Y-85555000D01*
X169738102Y-85594774D01*
X169549744Y-85672795D01*
X169380226Y-85786063D01*
X169236063Y-85930226D01*
X169122795Y-86099744D01*
X169044774Y-86288102D01*
X169005000Y-86488061D01*
X156653175Y-86488061D01*
X156645226Y-86448102D01*
X156567205Y-86259744D01*
X156453937Y-86090226D01*
X156309774Y-85946063D01*
X156140256Y-85832795D01*
X155951898Y-85754774D01*
X155751939Y-85715000D01*
X155548061Y-85715000D01*
X155348102Y-85754774D01*
X155159744Y-85832795D01*
X154990226Y-85946063D01*
X154846063Y-86090226D01*
X154732795Y-86259744D01*
X154654774Y-86448102D01*
X154615000Y-86648061D01*
X120324265Y-86648061D01*
X120062621Y-86473237D01*
X119885813Y-86400000D01*
X120062621Y-86326763D01*
X120326315Y-86150569D01*
X120550569Y-85926315D01*
X120726763Y-85662621D01*
X120848129Y-85369620D01*
X120910000Y-85058571D01*
X120910000Y-84741429D01*
X120848129Y-84430380D01*
X120726763Y-84137379D01*
X120550569Y-83873685D01*
X120326315Y-83649431D01*
X120062621Y-83473237D01*
X119885813Y-83400000D01*
X120062621Y-83326763D01*
X120326315Y-83150569D01*
X120550569Y-82926315D01*
X120569447Y-82898061D01*
X144165000Y-82898061D01*
X144165000Y-83101939D01*
X144204774Y-83301898D01*
X144282795Y-83490256D01*
X144396063Y-83659774D01*
X144540226Y-83803937D01*
X144709744Y-83917205D01*
X144898102Y-83995226D01*
X145098061Y-84035000D01*
X145301939Y-84035000D01*
X145501898Y-83995226D01*
X145690256Y-83917205D01*
X145859774Y-83803937D01*
X146003937Y-83659774D01*
X146117205Y-83490256D01*
X146195226Y-83301898D01*
X146211895Y-83218096D01*
X146398102Y-83295226D01*
X146598061Y-83335000D01*
X146801939Y-83335000D01*
X147001898Y-83295226D01*
X147190256Y-83217205D01*
X147359774Y-83103937D01*
X147395650Y-83068061D01*
X152975000Y-83068061D01*
X152975000Y-83271939D01*
X153014774Y-83471898D01*
X153092795Y-83660256D01*
X153206063Y-83829774D01*
X153350226Y-83973937D01*
X153519744Y-84087205D01*
X153708102Y-84165226D01*
X153908061Y-84205000D01*
X154111939Y-84205000D01*
X154311898Y-84165226D01*
X154500256Y-84087205D01*
X154669774Y-83973937D01*
X154813937Y-83829774D01*
X154927205Y-83660256D01*
X155005226Y-83471898D01*
X155045000Y-83271939D01*
X155045000Y-83068061D01*
X155005226Y-82868102D01*
X154927205Y-82679744D01*
X154813937Y-82510226D01*
X154669774Y-82366063D01*
X154500256Y-82252795D01*
X154311898Y-82174774D01*
X154111939Y-82135000D01*
X153908061Y-82135000D01*
X153708102Y-82174774D01*
X153519744Y-82252795D01*
X153350226Y-82366063D01*
X153206063Y-82510226D01*
X153092795Y-82679744D01*
X153014774Y-82868102D01*
X152975000Y-83068061D01*
X147395650Y-83068061D01*
X147503937Y-82959774D01*
X147617205Y-82790256D01*
X147695226Y-82601898D01*
X147735000Y-82401939D01*
X147735000Y-82198061D01*
X147695226Y-81998102D01*
X147617205Y-81809744D01*
X147503937Y-81640226D01*
X147359774Y-81496063D01*
X147213104Y-81398061D01*
X165765000Y-81398061D01*
X165765000Y-81601939D01*
X165804774Y-81801898D01*
X165882795Y-81990256D01*
X165996063Y-82159774D01*
X166140226Y-82303937D01*
X166309744Y-82417205D01*
X166498102Y-82495226D01*
X166698061Y-82535000D01*
X166901939Y-82535000D01*
X167101898Y-82495226D01*
X167290256Y-82417205D01*
X167459774Y-82303937D01*
X167603937Y-82159774D01*
X167717205Y-81990256D01*
X167795226Y-81801898D01*
X167835000Y-81601939D01*
X167835000Y-81398061D01*
X167795226Y-81198102D01*
X167717205Y-81009744D01*
X167603937Y-80840226D01*
X167459774Y-80696063D01*
X167290256Y-80582795D01*
X167101898Y-80504774D01*
X166901939Y-80465000D01*
X166698061Y-80465000D01*
X166498102Y-80504774D01*
X166309744Y-80582795D01*
X166140226Y-80696063D01*
X165996063Y-80840226D01*
X165882795Y-81009744D01*
X165804774Y-81198102D01*
X165765000Y-81398061D01*
X147213104Y-81398061D01*
X147190256Y-81382795D01*
X147001898Y-81304774D01*
X146801939Y-81265000D01*
X146598061Y-81265000D01*
X146398102Y-81304774D01*
X146209744Y-81382795D01*
X146040226Y-81496063D01*
X145896063Y-81640226D01*
X145782795Y-81809744D01*
X145704774Y-81998102D01*
X145688105Y-82081904D01*
X145501898Y-82004774D01*
X145301939Y-81965000D01*
X145098061Y-81965000D01*
X144898102Y-82004774D01*
X144709744Y-82082795D01*
X144540226Y-82196063D01*
X144396063Y-82340226D01*
X144282795Y-82509744D01*
X144204774Y-82698102D01*
X144165000Y-82898061D01*
X120569447Y-82898061D01*
X120726763Y-82662621D01*
X120848129Y-82369620D01*
X120910000Y-82058571D01*
X120910000Y-81741429D01*
X120848129Y-81430380D01*
X120726763Y-81137379D01*
X120550569Y-80873685D01*
X120326315Y-80649431D01*
X120062621Y-80473237D01*
X119885813Y-80400000D01*
X120062621Y-80326763D01*
X120326315Y-80150569D01*
X120550569Y-79926315D01*
X120726763Y-79662621D01*
X120848129Y-79369620D01*
X120902145Y-79098061D01*
X131765000Y-79098061D01*
X131765000Y-79301939D01*
X131804774Y-79501898D01*
X131882795Y-79690256D01*
X131996063Y-79859774D01*
X132140226Y-80003937D01*
X132309744Y-80117205D01*
X132498102Y-80195226D01*
X132698061Y-80235000D01*
X132901939Y-80235000D01*
X133101898Y-80195226D01*
X133290256Y-80117205D01*
X133459774Y-80003937D01*
X133603937Y-79859774D01*
X133717205Y-79690256D01*
X133795226Y-79501898D01*
X133835000Y-79301939D01*
X133835000Y-79098061D01*
X133795226Y-78898102D01*
X133717205Y-78709744D01*
X133709399Y-78698061D01*
X135115000Y-78698061D01*
X135115000Y-78901939D01*
X135154774Y-79101898D01*
X135232795Y-79290256D01*
X135346063Y-79459774D01*
X135490226Y-79603937D01*
X135659744Y-79717205D01*
X135848102Y-79795226D01*
X136048061Y-79835000D01*
X136251939Y-79835000D01*
X136451898Y-79795226D01*
X136640256Y-79717205D01*
X136809774Y-79603937D01*
X136953937Y-79459774D01*
X137067205Y-79290256D01*
X137126104Y-79148061D01*
X152605000Y-79148061D01*
X152605000Y-79351939D01*
X152644774Y-79551898D01*
X152722795Y-79740256D01*
X152836063Y-79909774D01*
X152980226Y-80053937D01*
X153149744Y-80167205D01*
X153338102Y-80245226D01*
X153538061Y-80285000D01*
X153741939Y-80285000D01*
X153941898Y-80245226D01*
X154130256Y-80167205D01*
X154299774Y-80053937D01*
X154443937Y-79909774D01*
X154557205Y-79740256D01*
X154635226Y-79551898D01*
X154675000Y-79351939D01*
X154675000Y-79265000D01*
X154681939Y-79265000D01*
X154881898Y-79225226D01*
X155070256Y-79147205D01*
X155239774Y-79033937D01*
X155383937Y-78889774D01*
X155497205Y-78720256D01*
X155575226Y-78531898D01*
X155615000Y-78331939D01*
X155615000Y-78128061D01*
X155575226Y-77928102D01*
X155555724Y-77881019D01*
X155669744Y-77957205D01*
X155858102Y-78035226D01*
X156058061Y-78075000D01*
X156261939Y-78075000D01*
X156344743Y-78058529D01*
X156315000Y-78208061D01*
X156315000Y-78411939D01*
X156354774Y-78611898D01*
X156432795Y-78800256D01*
X156546063Y-78969774D01*
X156690226Y-79113937D01*
X156859744Y-79227205D01*
X157048102Y-79305226D01*
X157248061Y-79345000D01*
X157451939Y-79345000D01*
X157651898Y-79305226D01*
X157840256Y-79227205D01*
X157943737Y-79158061D01*
X162335000Y-79158061D01*
X162335000Y-79361939D01*
X162374774Y-79561898D01*
X162452795Y-79750256D01*
X162566063Y-79919774D01*
X162710226Y-80063937D01*
X162879744Y-80177205D01*
X163068102Y-80255226D01*
X163268061Y-80295000D01*
X163471939Y-80295000D01*
X163671898Y-80255226D01*
X163860256Y-80177205D01*
X164029774Y-80063937D01*
X164173937Y-79919774D01*
X164287205Y-79750256D01*
X164365226Y-79561898D01*
X164405000Y-79361939D01*
X164405000Y-79158061D01*
X164365226Y-78958102D01*
X164287205Y-78769744D01*
X164173937Y-78600226D01*
X164113711Y-78540000D01*
X164253937Y-78399774D01*
X164367205Y-78230256D01*
X164445226Y-78041898D01*
X164485000Y-77841939D01*
X164485000Y-77638061D01*
X164445226Y-77438102D01*
X164367205Y-77249744D01*
X164253937Y-77080226D01*
X164109774Y-76936063D01*
X163940256Y-76822795D01*
X163751898Y-76744774D01*
X163551939Y-76705000D01*
X163348061Y-76705000D01*
X163148102Y-76744774D01*
X162959744Y-76822795D01*
X162790226Y-76936063D01*
X162646063Y-77080226D01*
X162532795Y-77249744D01*
X162454774Y-77438102D01*
X162415000Y-77638061D01*
X162415000Y-77841939D01*
X162454774Y-78041898D01*
X162532795Y-78230256D01*
X162646063Y-78399774D01*
X162706289Y-78460000D01*
X162566063Y-78600226D01*
X162452795Y-78769744D01*
X162374774Y-78958102D01*
X162335000Y-79158061D01*
X157943737Y-79158061D01*
X158009774Y-79113937D01*
X158153937Y-78969774D01*
X158267205Y-78800256D01*
X158345226Y-78611898D01*
X158385000Y-78411939D01*
X158385000Y-78208061D01*
X158345226Y-78008102D01*
X158267205Y-77819744D01*
X158153937Y-77650226D01*
X158009774Y-77506063D01*
X157840256Y-77392795D01*
X157651898Y-77314774D01*
X157451939Y-77275000D01*
X157248061Y-77275000D01*
X157165257Y-77291471D01*
X157195000Y-77141939D01*
X157195000Y-76938061D01*
X157155226Y-76738102D01*
X157077205Y-76549744D01*
X156963937Y-76380226D01*
X156819774Y-76236063D01*
X156650256Y-76122795D01*
X156461898Y-76044774D01*
X156261939Y-76005000D01*
X156058061Y-76005000D01*
X155858102Y-76044774D01*
X155669744Y-76122795D01*
X155500226Y-76236063D01*
X155356063Y-76380226D01*
X155242795Y-76549744D01*
X155164774Y-76738102D01*
X155125000Y-76938061D01*
X155125000Y-77141939D01*
X155164774Y-77341898D01*
X155184276Y-77388981D01*
X155070256Y-77312795D01*
X154881898Y-77234774D01*
X154681939Y-77195000D01*
X154478061Y-77195000D01*
X154278102Y-77234774D01*
X154089744Y-77312795D01*
X153920226Y-77426063D01*
X153776063Y-77570226D01*
X153662795Y-77739744D01*
X153584774Y-77928102D01*
X153545000Y-78128061D01*
X153545000Y-78215000D01*
X153538061Y-78215000D01*
X153338102Y-78254774D01*
X153149744Y-78332795D01*
X152980226Y-78446063D01*
X152836063Y-78590226D01*
X152722795Y-78759744D01*
X152644774Y-78948102D01*
X152605000Y-79148061D01*
X137126104Y-79148061D01*
X137145226Y-79101898D01*
X137185000Y-78901939D01*
X137185000Y-78698061D01*
X137145226Y-78498102D01*
X137067205Y-78309744D01*
X136953937Y-78140226D01*
X136809774Y-77996063D01*
X136640256Y-77882795D01*
X136451898Y-77804774D01*
X136251939Y-77765000D01*
X136048061Y-77765000D01*
X135848102Y-77804774D01*
X135659744Y-77882795D01*
X135490226Y-77996063D01*
X135346063Y-78140226D01*
X135232795Y-78309744D01*
X135154774Y-78498102D01*
X135115000Y-78698061D01*
X133709399Y-78698061D01*
X133603937Y-78540226D01*
X133459774Y-78396063D01*
X133290256Y-78282795D01*
X133101898Y-78204774D01*
X132901939Y-78165000D01*
X132698061Y-78165000D01*
X132498102Y-78204774D01*
X132309744Y-78282795D01*
X132140226Y-78396063D01*
X131996063Y-78540226D01*
X131882795Y-78709744D01*
X131804774Y-78898102D01*
X131765000Y-79098061D01*
X120902145Y-79098061D01*
X120910000Y-79058571D01*
X120910000Y-78741429D01*
X120848129Y-78430380D01*
X120726763Y-78137379D01*
X120550569Y-77873685D01*
X120326315Y-77649431D01*
X120062621Y-77473237D01*
X119885813Y-77400000D01*
X120062621Y-77326763D01*
X120326315Y-77150569D01*
X120550569Y-76926315D01*
X120726763Y-76662621D01*
X120836348Y-76398061D01*
X132365000Y-76398061D01*
X132365000Y-76601939D01*
X132404774Y-76801898D01*
X132482795Y-76990256D01*
X132596063Y-77159774D01*
X132740226Y-77303937D01*
X132909744Y-77417205D01*
X133098102Y-77495226D01*
X133298061Y-77535000D01*
X133501939Y-77535000D01*
X133701898Y-77495226D01*
X133890256Y-77417205D01*
X134059774Y-77303937D01*
X134203937Y-77159774D01*
X134317205Y-76990256D01*
X134337647Y-76940903D01*
X147282833Y-76940903D01*
X147282833Y-77144781D01*
X147322607Y-77344740D01*
X147400628Y-77533098D01*
X147513896Y-77702616D01*
X147658059Y-77846779D01*
X147827577Y-77960047D01*
X148015935Y-78038068D01*
X148215894Y-78077842D01*
X148419772Y-78077842D01*
X148619731Y-78038068D01*
X148808089Y-77960047D01*
X148977607Y-77846779D01*
X149121770Y-77702616D01*
X149235038Y-77533098D01*
X149313059Y-77344740D01*
X149352833Y-77144781D01*
X149352833Y-76940903D01*
X149313059Y-76740944D01*
X149235038Y-76552586D01*
X149121770Y-76383068D01*
X148977607Y-76238905D01*
X148808089Y-76125637D01*
X148619731Y-76047616D01*
X148419772Y-76007842D01*
X148215894Y-76007842D01*
X148015935Y-76047616D01*
X147827577Y-76125637D01*
X147658059Y-76238905D01*
X147513896Y-76383068D01*
X147400628Y-76552586D01*
X147322607Y-76740944D01*
X147282833Y-76940903D01*
X134337647Y-76940903D01*
X134395226Y-76801898D01*
X134435000Y-76601939D01*
X134435000Y-76398061D01*
X134395226Y-76198102D01*
X134317205Y-76009744D01*
X134203937Y-75840226D01*
X134059774Y-75696063D01*
X133890256Y-75582795D01*
X133701898Y-75504774D01*
X133501939Y-75465000D01*
X133298061Y-75465000D01*
X133098102Y-75504774D01*
X132909744Y-75582795D01*
X132740226Y-75696063D01*
X132596063Y-75840226D01*
X132482795Y-76009744D01*
X132404774Y-76198102D01*
X132365000Y-76398061D01*
X120836348Y-76398061D01*
X120848129Y-76369620D01*
X120910000Y-76058571D01*
X120910000Y-75741429D01*
X120848129Y-75430380D01*
X120726763Y-75137379D01*
X120550569Y-74873685D01*
X120364945Y-74688061D01*
X168495000Y-74688061D01*
X168495000Y-74891939D01*
X168534774Y-75091898D01*
X168612795Y-75280256D01*
X168726063Y-75449774D01*
X168870226Y-75593937D01*
X169039744Y-75707205D01*
X169161498Y-75757638D01*
X169157607Y-75761529D01*
X169044339Y-75931047D01*
X168966318Y-76119405D01*
X168926544Y-76319364D01*
X168926544Y-76523242D01*
X168966318Y-76723201D01*
X169044339Y-76911559D01*
X169157607Y-77081077D01*
X169301770Y-77225240D01*
X169471288Y-77338508D01*
X169659646Y-77416529D01*
X169859605Y-77456303D01*
X170063483Y-77456303D01*
X170263442Y-77416529D01*
X170451800Y-77338508D01*
X170621318Y-77225240D01*
X170765481Y-77081077D01*
X170878749Y-76911559D01*
X170956770Y-76723201D01*
X170996544Y-76523242D01*
X170996544Y-76319364D01*
X170956770Y-76119405D01*
X170878749Y-75931047D01*
X170765481Y-75761529D01*
X170621318Y-75617366D01*
X170451800Y-75504098D01*
X170330046Y-75453665D01*
X170333937Y-75449774D01*
X170447205Y-75280256D01*
X170525226Y-75091898D01*
X170565000Y-74891939D01*
X170565000Y-74688061D01*
X170525226Y-74488102D01*
X170447205Y-74299744D01*
X170333937Y-74130226D01*
X170189774Y-73986063D01*
X170020256Y-73872795D01*
X169831898Y-73794774D01*
X169631939Y-73755000D01*
X169428061Y-73755000D01*
X169228102Y-73794774D01*
X169039744Y-73872795D01*
X168870226Y-73986063D01*
X168726063Y-74130226D01*
X168612795Y-74299744D01*
X168534774Y-74488102D01*
X168495000Y-74688061D01*
X120364945Y-74688061D01*
X120326315Y-74649431D01*
X120062621Y-74473237D01*
X119885813Y-74400000D01*
X120062621Y-74326763D01*
X120326315Y-74150569D01*
X120550569Y-73926315D01*
X120726763Y-73662621D01*
X120848129Y-73369620D01*
X120910000Y-73058571D01*
X120910000Y-72918061D01*
X156265000Y-72918061D01*
X156265000Y-73121939D01*
X156304774Y-73321898D01*
X156382795Y-73510256D01*
X156496063Y-73679774D01*
X156640226Y-73823937D01*
X156809744Y-73937205D01*
X156998102Y-74015226D01*
X157198061Y-74055000D01*
X157401939Y-74055000D01*
X157601898Y-74015226D01*
X157790256Y-73937205D01*
X157959774Y-73823937D01*
X158103937Y-73679774D01*
X158217205Y-73510256D01*
X158295226Y-73321898D01*
X158335000Y-73121939D01*
X158335000Y-73019088D01*
X158398102Y-73045226D01*
X158598061Y-73085000D01*
X158801939Y-73085000D01*
X159001898Y-73045226D01*
X159190256Y-72967205D01*
X159359774Y-72853937D01*
X159503937Y-72709774D01*
X159617205Y-72540256D01*
X159695226Y-72351898D01*
X159735000Y-72151939D01*
X159735000Y-71948061D01*
X159695226Y-71748102D01*
X159617205Y-71559744D01*
X159503937Y-71390226D01*
X159359774Y-71246063D01*
X159190256Y-71132795D01*
X159001898Y-71054774D01*
X158801939Y-71015000D01*
X158598061Y-71015000D01*
X158398102Y-71054774D01*
X158209744Y-71132795D01*
X158040226Y-71246063D01*
X157896063Y-71390226D01*
X157782795Y-71559744D01*
X157704774Y-71748102D01*
X157665000Y-71948061D01*
X157665000Y-72050912D01*
X157601898Y-72024774D01*
X157401939Y-71985000D01*
X157198061Y-71985000D01*
X156998102Y-72024774D01*
X156809744Y-72102795D01*
X156640226Y-72216063D01*
X156496063Y-72360226D01*
X156382795Y-72529744D01*
X156304774Y-72718102D01*
X156265000Y-72918061D01*
X120910000Y-72918061D01*
X120910000Y-72741429D01*
X120848129Y-72430380D01*
X120726763Y-72137379D01*
X120550569Y-71873685D01*
X120424945Y-71748061D01*
X152065000Y-71748061D01*
X152065000Y-71951939D01*
X152104774Y-72151898D01*
X152182795Y-72340256D01*
X152296063Y-72509774D01*
X152440226Y-72653937D01*
X152609744Y-72767205D01*
X152798102Y-72845226D01*
X152998061Y-72885000D01*
X153201939Y-72885000D01*
X153401898Y-72845226D01*
X153590256Y-72767205D01*
X153759774Y-72653937D01*
X153903937Y-72509774D01*
X154017205Y-72340256D01*
X154095226Y-72151898D01*
X154135000Y-71951939D01*
X154135000Y-71748061D01*
X154095226Y-71548102D01*
X154017205Y-71359744D01*
X153903937Y-71190226D01*
X153759774Y-71046063D01*
X153590256Y-70932795D01*
X153401898Y-70854774D01*
X153201939Y-70815000D01*
X152998061Y-70815000D01*
X152798102Y-70854774D01*
X152609744Y-70932795D01*
X152440226Y-71046063D01*
X152296063Y-71190226D01*
X152182795Y-71359744D01*
X152104774Y-71548102D01*
X152065000Y-71748061D01*
X120424945Y-71748061D01*
X120326315Y-71649431D01*
X120062621Y-71473237D01*
X119885813Y-71400000D01*
X120062621Y-71326763D01*
X120326315Y-71150569D01*
X120550569Y-70926315D01*
X120726763Y-70662621D01*
X120848129Y-70369620D01*
X120910000Y-70058571D01*
X120910000Y-69741429D01*
X120848129Y-69430380D01*
X120726763Y-69137379D01*
X120633675Y-68998061D01*
X162365000Y-68998061D01*
X162365000Y-69201939D01*
X162404774Y-69401898D01*
X162482795Y-69590256D01*
X162596063Y-69759774D01*
X162740226Y-69903937D01*
X162909744Y-70017205D01*
X163098102Y-70095226D01*
X163298061Y-70135000D01*
X163501939Y-70135000D01*
X163701898Y-70095226D01*
X163864261Y-70027972D01*
X163950226Y-70113937D01*
X164119744Y-70227205D01*
X164308102Y-70305226D01*
X164508061Y-70345000D01*
X164711939Y-70345000D01*
X164911898Y-70305226D01*
X165100256Y-70227205D01*
X165269774Y-70113937D01*
X165413937Y-69969774D01*
X165527205Y-69800256D01*
X165605226Y-69611898D01*
X165645000Y-69411939D01*
X165645000Y-69208061D01*
X165605226Y-69008102D01*
X165527205Y-68819744D01*
X165413937Y-68650226D01*
X165269774Y-68506063D01*
X165100256Y-68392795D01*
X164911898Y-68314774D01*
X164711939Y-68275000D01*
X164508061Y-68275000D01*
X164308102Y-68314774D01*
X164145739Y-68382028D01*
X164059774Y-68296063D01*
X163890256Y-68182795D01*
X163701898Y-68104774D01*
X163501939Y-68065000D01*
X163298061Y-68065000D01*
X163098102Y-68104774D01*
X162909744Y-68182795D01*
X162740226Y-68296063D01*
X162596063Y-68440226D01*
X162482795Y-68609744D01*
X162404774Y-68798102D01*
X162365000Y-68998061D01*
X120633675Y-68998061D01*
X120550569Y-68873685D01*
X120326315Y-68649431D01*
X120062621Y-68473237D01*
X119769620Y-68351871D01*
X119458571Y-68290000D01*
X119141429Y-68290000D01*
X118830380Y-68351871D01*
X118537379Y-68473237D01*
X118273685Y-68649431D01*
X118049431Y-68873685D01*
X117873237Y-69137379D01*
X117751871Y-69430380D01*
X117690000Y-69741429D01*
X117690000Y-70058349D01*
X117562621Y-69973237D01*
X117269620Y-69851871D01*
X116958571Y-69790000D01*
X116641429Y-69790000D01*
X116330380Y-69851871D01*
X116037379Y-69973237D01*
X115773685Y-70149431D01*
X115549431Y-70373685D01*
X115373237Y-70637379D01*
X115300000Y-70814187D01*
X115226763Y-70637379D01*
X115050569Y-70373685D01*
X114826315Y-70149431D01*
X114562621Y-69973237D01*
X114269620Y-69851871D01*
X113958571Y-69790000D01*
X113641429Y-69790000D01*
X113330380Y-69851871D01*
X113037379Y-69973237D01*
X112913072Y-70056296D01*
X112913072Y-68925000D01*
X112900812Y-68800518D01*
X112864502Y-68680820D01*
X112805537Y-68570506D01*
X112726185Y-68473815D01*
X112629494Y-68394463D01*
X112519180Y-68335498D01*
X112399482Y-68299188D01*
X112275000Y-68286928D01*
X110325000Y-68286928D01*
X110200518Y-68299188D01*
X110080820Y-68335498D01*
X109970506Y-68394463D01*
X109873815Y-68473815D01*
X109794463Y-68570506D01*
X109735498Y-68680820D01*
X109699188Y-68800518D01*
X109686928Y-68925000D01*
X108627000Y-68925000D01*
X108627000Y-68078363D01*
X115015000Y-68078363D01*
X115015000Y-68321637D01*
X115062460Y-68560236D01*
X115155557Y-68784992D01*
X115290713Y-68987267D01*
X115462733Y-69159287D01*
X115665008Y-69294443D01*
X115889764Y-69387540D01*
X116128363Y-69435000D01*
X116371637Y-69435000D01*
X116610236Y-69387540D01*
X116834992Y-69294443D01*
X117037267Y-69159287D01*
X117209287Y-68987267D01*
X117344443Y-68784992D01*
X117437540Y-68560236D01*
X117485000Y-68321637D01*
X117485000Y-68078363D01*
X117437540Y-67839764D01*
X117344443Y-67615008D01*
X117209287Y-67412733D01*
X117037267Y-67240713D01*
X116834992Y-67105557D01*
X116610236Y-67012460D01*
X116371637Y-66965000D01*
X116128363Y-66965000D01*
X115889764Y-67012460D01*
X115665008Y-67105557D01*
X115462733Y-67240713D01*
X115290713Y-67412733D01*
X115155557Y-67615008D01*
X115062460Y-67839764D01*
X115015000Y-68078363D01*
X108627000Y-68078363D01*
X108627000Y-65098061D01*
X132365000Y-65098061D01*
X132365000Y-65301939D01*
X132404774Y-65501898D01*
X132482795Y-65690256D01*
X132596063Y-65859774D01*
X132740226Y-66003937D01*
X132909744Y-66117205D01*
X133098102Y-66195226D01*
X133298061Y-66235000D01*
X133501939Y-66235000D01*
X133701898Y-66195226D01*
X133890256Y-66117205D01*
X134059774Y-66003937D01*
X134203937Y-65859774D01*
X134311989Y-65698061D01*
X137765000Y-65698061D01*
X137765000Y-65901939D01*
X137804774Y-66101898D01*
X137882795Y-66290256D01*
X137996063Y-66459774D01*
X138140226Y-66603937D01*
X138309744Y-66717205D01*
X138498102Y-66795226D01*
X138698061Y-66835000D01*
X138901939Y-66835000D01*
X139101898Y-66795226D01*
X139290256Y-66717205D01*
X139459774Y-66603937D01*
X139603937Y-66459774D01*
X139717205Y-66290256D01*
X139795226Y-66101898D01*
X139835000Y-65901939D01*
X139835000Y-65698061D01*
X139795226Y-65498102D01*
X139717205Y-65309744D01*
X139603937Y-65140226D01*
X139459774Y-64996063D01*
X139290256Y-64882795D01*
X139101898Y-64804774D01*
X138901939Y-64765000D01*
X138698061Y-64765000D01*
X138498102Y-64804774D01*
X138309744Y-64882795D01*
X138140226Y-64996063D01*
X137996063Y-65140226D01*
X137882795Y-65309744D01*
X137804774Y-65498102D01*
X137765000Y-65698061D01*
X134311989Y-65698061D01*
X134317205Y-65690256D01*
X134395226Y-65501898D01*
X134435000Y-65301939D01*
X134435000Y-65098061D01*
X134395226Y-64898102D01*
X134317205Y-64709744D01*
X134203937Y-64540226D01*
X134059774Y-64396063D01*
X133890256Y-64282795D01*
X133701898Y-64204774D01*
X133501939Y-64165000D01*
X133298061Y-64165000D01*
X133098102Y-64204774D01*
X132909744Y-64282795D01*
X132740226Y-64396063D01*
X132596063Y-64540226D01*
X132482795Y-64709744D01*
X132404774Y-64898102D01*
X132365000Y-65098061D01*
X108627000Y-65098061D01*
X108627000Y-63098061D01*
X129165000Y-63098061D01*
X129165000Y-63301939D01*
X129204774Y-63501898D01*
X129282795Y-63690256D01*
X129396063Y-63859774D01*
X129540226Y-64003937D01*
X129709744Y-64117205D01*
X129898102Y-64195226D01*
X130098061Y-64235000D01*
X130301939Y-64235000D01*
X130501898Y-64195226D01*
X130690256Y-64117205D01*
X130859774Y-64003937D01*
X131003937Y-63859774D01*
X131117205Y-63690256D01*
X131195226Y-63501898D01*
X131235000Y-63301939D01*
X131235000Y-63098061D01*
X131195226Y-62898102D01*
X131145629Y-62778363D01*
X137165000Y-62778363D01*
X137165000Y-63021637D01*
X137212460Y-63260236D01*
X137305557Y-63484992D01*
X137440713Y-63687267D01*
X137612733Y-63859287D01*
X137815008Y-63994443D01*
X138039764Y-64087540D01*
X138278363Y-64135000D01*
X138521637Y-64135000D01*
X138760236Y-64087540D01*
X138984992Y-63994443D01*
X139187267Y-63859287D01*
X139359287Y-63687267D01*
X139494443Y-63484992D01*
X139587540Y-63260236D01*
X139635000Y-63021637D01*
X139635000Y-62948061D01*
X149265000Y-62948061D01*
X149265000Y-63151939D01*
X149304774Y-63351898D01*
X149382795Y-63540256D01*
X149496063Y-63709774D01*
X149640226Y-63853937D01*
X149809744Y-63967205D01*
X149998102Y-64045226D01*
X150198061Y-64085000D01*
X150401939Y-64085000D01*
X150601898Y-64045226D01*
X150790256Y-63967205D01*
X150959774Y-63853937D01*
X151103937Y-63709774D01*
X151111763Y-63698061D01*
X153565000Y-63698061D01*
X153565000Y-63901939D01*
X153604774Y-64101898D01*
X153682795Y-64290256D01*
X153796063Y-64459774D01*
X153940226Y-64603937D01*
X154109744Y-64717205D01*
X154298102Y-64795226D01*
X154498061Y-64835000D01*
X154701939Y-64835000D01*
X154901898Y-64795226D01*
X155090256Y-64717205D01*
X155259774Y-64603937D01*
X155403937Y-64459774D01*
X155517205Y-64290256D01*
X155595226Y-64101898D01*
X155635000Y-63901939D01*
X155635000Y-63698061D01*
X155595226Y-63498102D01*
X155517205Y-63309744D01*
X155403937Y-63140226D01*
X155259774Y-62996063D01*
X155090256Y-62882795D01*
X154901898Y-62804774D01*
X154701939Y-62765000D01*
X154498061Y-62765000D01*
X154298102Y-62804774D01*
X154109744Y-62882795D01*
X153940226Y-62996063D01*
X153796063Y-63140226D01*
X153682795Y-63309744D01*
X153604774Y-63498102D01*
X153565000Y-63698061D01*
X151111763Y-63698061D01*
X151217205Y-63540256D01*
X151295226Y-63351898D01*
X151335000Y-63151939D01*
X151335000Y-62948061D01*
X151295226Y-62748102D01*
X151217205Y-62559744D01*
X151103937Y-62390226D01*
X150959774Y-62246063D01*
X150790256Y-62132795D01*
X150601898Y-62054774D01*
X150401939Y-62015000D01*
X150198061Y-62015000D01*
X149998102Y-62054774D01*
X149809744Y-62132795D01*
X149640226Y-62246063D01*
X149496063Y-62390226D01*
X149382795Y-62559744D01*
X149304774Y-62748102D01*
X149265000Y-62948061D01*
X139635000Y-62948061D01*
X139635000Y-62778363D01*
X139587540Y-62539764D01*
X139494443Y-62315008D01*
X139359287Y-62112733D01*
X139187267Y-61940713D01*
X138984992Y-61805557D01*
X138760236Y-61712460D01*
X138521637Y-61665000D01*
X138278363Y-61665000D01*
X138039764Y-61712460D01*
X137815008Y-61805557D01*
X137612733Y-61940713D01*
X137440713Y-62112733D01*
X137305557Y-62315008D01*
X137212460Y-62539764D01*
X137165000Y-62778363D01*
X131145629Y-62778363D01*
X131117205Y-62709744D01*
X131003937Y-62540226D01*
X130859774Y-62396063D01*
X130690256Y-62282795D01*
X130501898Y-62204774D01*
X130301939Y-62165000D01*
X130098061Y-62165000D01*
X129898102Y-62204774D01*
X129709744Y-62282795D01*
X129540226Y-62396063D01*
X129396063Y-62540226D01*
X129282795Y-62709744D01*
X129204774Y-62898102D01*
X129165000Y-63098061D01*
X108627000Y-63098061D01*
X108627000Y-61548061D01*
X165465000Y-61548061D01*
X165465000Y-61751939D01*
X165504774Y-61951898D01*
X165582795Y-62140256D01*
X165696063Y-62309774D01*
X165840226Y-62453937D01*
X166009744Y-62567205D01*
X166198102Y-62645226D01*
X166398061Y-62685000D01*
X166601939Y-62685000D01*
X166801898Y-62645226D01*
X166990256Y-62567205D01*
X167159774Y-62453937D01*
X167303937Y-62309774D01*
X167417205Y-62140256D01*
X167495226Y-61951898D01*
X167535000Y-61751939D01*
X167535000Y-61548061D01*
X167495226Y-61348102D01*
X167417205Y-61159744D01*
X167303937Y-60990226D01*
X167159774Y-60846063D01*
X166990256Y-60732795D01*
X166801898Y-60654774D01*
X166601939Y-60615000D01*
X166398061Y-60615000D01*
X166198102Y-60654774D01*
X166009744Y-60732795D01*
X165840226Y-60846063D01*
X165696063Y-60990226D01*
X165582795Y-61159744D01*
X165504774Y-61348102D01*
X165465000Y-61548061D01*
X108627000Y-61548061D01*
X108627000Y-59378363D01*
X140365000Y-59378363D01*
X140365000Y-59621637D01*
X140412460Y-59860236D01*
X140505557Y-60084992D01*
X140640713Y-60287267D01*
X140812733Y-60459287D01*
X141015008Y-60594443D01*
X141239764Y-60687540D01*
X141478363Y-60735000D01*
X141721637Y-60735000D01*
X141960236Y-60687540D01*
X142184992Y-60594443D01*
X142387267Y-60459287D01*
X142450000Y-60396554D01*
X142512733Y-60459287D01*
X142715008Y-60594443D01*
X142939764Y-60687540D01*
X143178363Y-60735000D01*
X143421637Y-60735000D01*
X143660236Y-60687540D01*
X143884992Y-60594443D01*
X144087267Y-60459287D01*
X144259287Y-60287267D01*
X144394443Y-60084992D01*
X144487540Y-59860236D01*
X144535000Y-59621637D01*
X144535000Y-59502487D01*
X144554774Y-59601898D01*
X144632795Y-59790256D01*
X144746063Y-59959774D01*
X144890226Y-60103937D01*
X145059744Y-60217205D01*
X145248102Y-60295226D01*
X145448061Y-60335000D01*
X145651939Y-60335000D01*
X145851898Y-60295226D01*
X146040256Y-60217205D01*
X146209774Y-60103937D01*
X146353937Y-59959774D01*
X146467205Y-59790256D01*
X146545226Y-59601898D01*
X146585000Y-59401939D01*
X146585000Y-59198061D01*
X146545226Y-58998102D01*
X146467205Y-58809744D01*
X146353937Y-58640226D01*
X146209774Y-58496063D01*
X146040256Y-58382795D01*
X145851898Y-58304774D01*
X145651939Y-58265000D01*
X145448061Y-58265000D01*
X145248102Y-58304774D01*
X145059744Y-58382795D01*
X144890226Y-58496063D01*
X144746063Y-58640226D01*
X144632795Y-58809744D01*
X144554774Y-58998102D01*
X144515000Y-59198061D01*
X144515000Y-59277816D01*
X144487540Y-59139764D01*
X144394443Y-58915008D01*
X144259287Y-58712733D01*
X144087267Y-58540713D01*
X143884992Y-58405557D01*
X143660236Y-58312460D01*
X143421637Y-58265000D01*
X143178363Y-58265000D01*
X142939764Y-58312460D01*
X142715008Y-58405557D01*
X142512733Y-58540713D01*
X142450000Y-58603446D01*
X142387267Y-58540713D01*
X142184992Y-58405557D01*
X141960236Y-58312460D01*
X141721637Y-58265000D01*
X141478363Y-58265000D01*
X141239764Y-58312460D01*
X141015008Y-58405557D01*
X140812733Y-58540713D01*
X140640713Y-58712733D01*
X140505557Y-58915008D01*
X140412460Y-59139764D01*
X140365000Y-59378363D01*
X108627000Y-59378363D01*
X108627000Y-56798061D01*
X111865000Y-56798061D01*
X111865000Y-57001939D01*
X111904774Y-57201898D01*
X111982795Y-57390256D01*
X112096063Y-57559774D01*
X112240226Y-57703937D01*
X112409744Y-57817205D01*
X112598102Y-57895226D01*
X112798061Y-57935000D01*
X113001939Y-57935000D01*
X113201898Y-57895226D01*
X113390256Y-57817205D01*
X113559774Y-57703937D01*
X113703937Y-57559774D01*
X113817205Y-57390256D01*
X113895226Y-57201898D01*
X113935000Y-57001939D01*
X113935000Y-56798061D01*
X113915495Y-56700000D01*
X149483662Y-56700000D01*
X149508955Y-56956805D01*
X149583862Y-57203741D01*
X149705505Y-57431318D01*
X149762631Y-57500926D01*
X149673815Y-57573815D01*
X149594463Y-57670506D01*
X149535498Y-57780820D01*
X149499188Y-57900518D01*
X149486928Y-58025000D01*
X149486928Y-59375000D01*
X149499188Y-59499482D01*
X149535498Y-59619180D01*
X149594463Y-59729494D01*
X149673815Y-59826185D01*
X149770506Y-59905537D01*
X149880820Y-59964502D01*
X150000518Y-60000812D01*
X150125000Y-60013072D01*
X151475000Y-60013072D01*
X151599482Y-60000812D01*
X151719180Y-59964502D01*
X151829494Y-59905537D01*
X151926185Y-59826185D01*
X151999074Y-59737369D01*
X152068682Y-59794495D01*
X152296259Y-59916138D01*
X152543195Y-59991045D01*
X152735649Y-60010000D01*
X152864351Y-60010000D01*
X153056805Y-59991045D01*
X153303741Y-59916138D01*
X153531318Y-59794495D01*
X153730792Y-59630792D01*
X153800000Y-59546461D01*
X153869208Y-59630792D01*
X154068682Y-59794495D01*
X154296259Y-59916138D01*
X154543195Y-59991045D01*
X154735649Y-60010000D01*
X154864351Y-60010000D01*
X155056805Y-59991045D01*
X155303741Y-59916138D01*
X155531318Y-59794495D01*
X155730792Y-59630792D01*
X155800000Y-59546461D01*
X155869208Y-59630792D01*
X156068682Y-59794495D01*
X156296259Y-59916138D01*
X156543195Y-59991045D01*
X156735649Y-60010000D01*
X156864351Y-60010000D01*
X157056805Y-59991045D01*
X157303741Y-59916138D01*
X157531318Y-59794495D01*
X157730792Y-59630792D01*
X157800000Y-59546461D01*
X157869208Y-59630792D01*
X158068682Y-59794495D01*
X158296259Y-59916138D01*
X158543195Y-59991045D01*
X158735649Y-60010000D01*
X158864351Y-60010000D01*
X159056805Y-59991045D01*
X159303741Y-59916138D01*
X159531318Y-59794495D01*
X159730792Y-59630792D01*
X159894495Y-59431318D01*
X160016138Y-59203741D01*
X160091045Y-58956805D01*
X160116338Y-58700000D01*
X160091045Y-58443195D01*
X160016138Y-58196259D01*
X159894495Y-57968682D01*
X159730792Y-57769208D01*
X159646461Y-57700000D01*
X159730792Y-57630792D01*
X159894495Y-57431318D01*
X160016138Y-57203741D01*
X160091045Y-56956805D01*
X160116338Y-56700000D01*
X160091045Y-56443195D01*
X160016138Y-56196259D01*
X159894495Y-55968682D01*
X159730792Y-55769208D01*
X159531318Y-55605505D01*
X159303741Y-55483862D01*
X159056805Y-55408955D01*
X158864351Y-55390000D01*
X158735649Y-55390000D01*
X158543195Y-55408955D01*
X158296259Y-55483862D01*
X158068682Y-55605505D01*
X157869208Y-55769208D01*
X157705505Y-55968682D01*
X157583862Y-56196259D01*
X157508955Y-56443195D01*
X157483662Y-56700000D01*
X157508955Y-56956805D01*
X157583862Y-57203741D01*
X157705505Y-57431318D01*
X157869208Y-57630792D01*
X157953539Y-57700000D01*
X157869208Y-57769208D01*
X157800000Y-57853539D01*
X157730792Y-57769208D01*
X157531318Y-57605505D01*
X157303741Y-57483862D01*
X157056805Y-57408955D01*
X156864351Y-57390000D01*
X156735649Y-57390000D01*
X156543195Y-57408955D01*
X156296259Y-57483862D01*
X156068682Y-57605505D01*
X155869208Y-57769208D01*
X155800000Y-57853539D01*
X155730792Y-57769208D01*
X155646461Y-57700000D01*
X155730792Y-57630792D01*
X155894495Y-57431318D01*
X156016138Y-57203741D01*
X156091045Y-56956805D01*
X156116338Y-56700000D01*
X156091045Y-56443195D01*
X156016138Y-56196259D01*
X155894495Y-55968682D01*
X155730792Y-55769208D01*
X155531318Y-55605505D01*
X155303741Y-55483862D01*
X155056805Y-55408955D01*
X154864351Y-55390000D01*
X154735649Y-55390000D01*
X154543195Y-55408955D01*
X154296259Y-55483862D01*
X154068682Y-55605505D01*
X153869208Y-55769208D01*
X153800000Y-55853539D01*
X153730792Y-55769208D01*
X153531318Y-55605505D01*
X153303741Y-55483862D01*
X153056805Y-55408955D01*
X152864351Y-55390000D01*
X152735649Y-55390000D01*
X152543195Y-55408955D01*
X152296259Y-55483862D01*
X152068682Y-55605505D01*
X151869208Y-55769208D01*
X151800000Y-55853539D01*
X151730792Y-55769208D01*
X151531318Y-55605505D01*
X151303741Y-55483862D01*
X151056805Y-55408955D01*
X150864351Y-55390000D01*
X150735649Y-55390000D01*
X150543195Y-55408955D01*
X150296259Y-55483862D01*
X150068682Y-55605505D01*
X149869208Y-55769208D01*
X149705505Y-55968682D01*
X149583862Y-56196259D01*
X149508955Y-56443195D01*
X149483662Y-56700000D01*
X113915495Y-56700000D01*
X113895226Y-56598102D01*
X113817205Y-56409744D01*
X113703937Y-56240226D01*
X113559774Y-56096063D01*
X113390256Y-55982795D01*
X113201898Y-55904774D01*
X113001939Y-55865000D01*
X112798061Y-55865000D01*
X112598102Y-55904774D01*
X112409744Y-55982795D01*
X112240226Y-56096063D01*
X112096063Y-56240226D01*
X111982795Y-56409744D01*
X111904774Y-56598102D01*
X111865000Y-56798061D01*
X108627000Y-56798061D01*
X108627000Y-53127000D01*
X112074164Y-53127000D01*
X112096063Y-53159774D01*
M02*
