G04 #@! TF.GenerationSoftware,KiCad,Pcbnew,(5.1.2-1)-1*
G04 #@! TF.CreationDate,2019-06-03T10:07:54+02:00*
G04 #@! TF.ProjectId,Dash,44617368-2e6b-4696-9361-645f70636258,rev?*
G04 #@! TF.SameCoordinates,Original*
G04 #@! TF.FileFunction,Copper,L3,Inr*
G04 #@! TF.FilePolarity,Positive*
%FSLAX46Y46*%
G04 Gerber Fmt 4.6, Leading zero omitted, Abs format (unit mm)*
G04 Created by KiCad (PCBNEW (5.1.2-1)-1) date 2019-06-03 10:07:54*
%MOMM*%
%LPD*%
G04 APERTURE LIST*
%ADD10O,1.350000X1.350000*%
%ADD11R,1.350000X1.350000*%
%ADD12R,1.950000X1.950000*%
%ADD13C,1.950000*%
%ADD14C,1.200000*%
%ADD15C,0.800000*%
%ADD16C,0.254000*%
G04 APERTURE END LIST*
D10*
X158800000Y-56700000D03*
X158800000Y-58700000D03*
X156800000Y-56700000D03*
X156800000Y-58700000D03*
X154800000Y-56700000D03*
X154800000Y-58700000D03*
X152800000Y-56700000D03*
X152800000Y-58700000D03*
X150800000Y-56700000D03*
D11*
X150800000Y-58700000D03*
D12*
X111300000Y-69900000D03*
D13*
X111300000Y-72900000D03*
X111300000Y-75900000D03*
X111300000Y-78900000D03*
X111300000Y-81900000D03*
X111300000Y-84900000D03*
X111300000Y-87900000D03*
X113800000Y-71400000D03*
X113800000Y-74400000D03*
X113800000Y-77400000D03*
X113800000Y-80400000D03*
X113800000Y-83400000D03*
X113800000Y-86400000D03*
X116800000Y-71400000D03*
X116800000Y-74400000D03*
X116800000Y-77400000D03*
X116800000Y-80400000D03*
X116800000Y-83400000D03*
X116800000Y-86400000D03*
X119300000Y-69900000D03*
X119300000Y-72900000D03*
X119300000Y-75900000D03*
X119300000Y-78900000D03*
X119300000Y-81900000D03*
X119300000Y-84900000D03*
X119300000Y-87900000D03*
D14*
X127600000Y-56900000D03*
X124700000Y-56900000D03*
X121600000Y-56900000D03*
D15*
X172200000Y-68900000D03*
X171400000Y-76500000D03*
X165300000Y-60300000D03*
X152900000Y-60500000D03*
X137500000Y-67000000D03*
X137900000Y-74100000D03*
X145200000Y-66100000D03*
X107500000Y-57000000D03*
X131600000Y-70600000D03*
X145100000Y-101300000D03*
X145400000Y-95800000D03*
X145200000Y-91000000D03*
X145300000Y-86000000D03*
X127700000Y-92100000D03*
X128800000Y-97700000D03*
X171800000Y-85000000D03*
X172400000Y-74900000D03*
X152080000Y-104690000D03*
X144450000Y-72600000D03*
X152000000Y-86700000D03*
X160200000Y-73730000D03*
X168980000Y-76230000D03*
X162800000Y-83650000D03*
X153400000Y-89150000D03*
X162050000Y-90750000D03*
X146698300Y-76800009D03*
X139500000Y-82500000D03*
X138250000Y-78850000D03*
D14*
X127600000Y-58750000D03*
X124700000Y-58750000D03*
X121600000Y-58750000D03*
D15*
X109200000Y-66550000D03*
X135150000Y-87750000D03*
X130350000Y-81350000D03*
X157650000Y-93850000D03*
X154700000Y-98300000D03*
D14*
X147750000Y-54100000D03*
D15*
X143750000Y-63550000D03*
X158700000Y-72050000D03*
X163450000Y-77740000D03*
X163370000Y-79260000D03*
X112900000Y-52500000D03*
X157350000Y-78310000D03*
X152740000Y-92890000D03*
X149430000Y-88880000D03*
X154010000Y-83170000D03*
X172200000Y-66800000D03*
X146700000Y-82300000D03*
X138800000Y-65800000D03*
X168300000Y-96600000D03*
X155180000Y-105190000D03*
X146580000Y-101190000D03*
X159710000Y-93240000D03*
X153640000Y-79250000D03*
X163400000Y-69100000D03*
X169961544Y-76421303D03*
X166500000Y-61650000D03*
X155650000Y-86750000D03*
X136150000Y-78800000D03*
X145200000Y-83000000D03*
X150300000Y-63050000D03*
D14*
X141600000Y-59500000D03*
X143300000Y-59500000D03*
X133100000Y-54000000D03*
D15*
X145550000Y-59300000D03*
X130200000Y-63200000D03*
X170600000Y-95500000D03*
X169530000Y-74790000D03*
X170040000Y-86590000D03*
X174200000Y-96500000D03*
X148317833Y-77042842D03*
X153100000Y-71850000D03*
X154600000Y-63800000D03*
X133400000Y-76500000D03*
X133400000Y-65200000D03*
X164610000Y-69310000D03*
X166800000Y-81500000D03*
X148280000Y-105290000D03*
X132800000Y-79200000D03*
X146575338Y-94545338D03*
X112900000Y-56900000D03*
X118900000Y-52075000D03*
D14*
X138400000Y-62900000D03*
D15*
X122200000Y-101400000D03*
D14*
X116250000Y-68200000D03*
D15*
X154580000Y-78230000D03*
X145420000Y-97460000D03*
X146730000Y-102640000D03*
X157300000Y-73020000D03*
X156160000Y-77040000D03*
X135100000Y-99750000D03*
D16*
G36*
X112096063Y-53159774D02*
G01*
X112240226Y-53303937D01*
X112409744Y-53417205D01*
X112598102Y-53495226D01*
X112798061Y-53535000D01*
X113001939Y-53535000D01*
X113201898Y-53495226D01*
X113390256Y-53417205D01*
X113559774Y-53303937D01*
X113703937Y-53159774D01*
X113725836Y-53127000D01*
X146983256Y-53127000D01*
X146962733Y-53140713D01*
X146790713Y-53312733D01*
X146655557Y-53515008D01*
X146562460Y-53739764D01*
X146515000Y-53978363D01*
X146515000Y-54221637D01*
X146562460Y-54460236D01*
X146655557Y-54684992D01*
X146790713Y-54887267D01*
X146962733Y-55059287D01*
X147165008Y-55194443D01*
X147389764Y-55287540D01*
X147628363Y-55335000D01*
X147871637Y-55335000D01*
X148110236Y-55287540D01*
X148334992Y-55194443D01*
X148537267Y-55059287D01*
X148709287Y-54887267D01*
X148844443Y-54684992D01*
X148937540Y-54460236D01*
X148985000Y-54221637D01*
X148985000Y-53978363D01*
X148937540Y-53739764D01*
X148844443Y-53515008D01*
X148709287Y-53312733D01*
X148537267Y-53140713D01*
X148516744Y-53127000D01*
X172973000Y-53127000D01*
X172973000Y-55329910D01*
X172736038Y-54975271D01*
X172424729Y-54663962D01*
X172058669Y-54419369D01*
X171651925Y-54250890D01*
X171220128Y-54165000D01*
X170779872Y-54165000D01*
X170348075Y-54250890D01*
X169941331Y-54419369D01*
X169575271Y-54663962D01*
X169263962Y-54975271D01*
X169019369Y-55341331D01*
X168850890Y-55748075D01*
X168765000Y-56179872D01*
X168765000Y-56620128D01*
X168850890Y-57051925D01*
X169019369Y-57458669D01*
X169263962Y-57824729D01*
X169575271Y-58136038D01*
X169941331Y-58380631D01*
X170348075Y-58549110D01*
X170779872Y-58635000D01*
X171220128Y-58635000D01*
X171651925Y-58549110D01*
X172058669Y-58380631D01*
X172424729Y-58136038D01*
X172736038Y-57824729D01*
X172973000Y-57470090D01*
X172973000Y-68209289D01*
X172859774Y-68096063D01*
X172690256Y-67982795D01*
X172501898Y-67904774D01*
X172301939Y-67865000D01*
X172098061Y-67865000D01*
X171898102Y-67904774D01*
X171709744Y-67982795D01*
X171540226Y-68096063D01*
X171396063Y-68240226D01*
X171282795Y-68409744D01*
X171204774Y-68598102D01*
X171165000Y-68798061D01*
X171165000Y-69001939D01*
X171204774Y-69201898D01*
X171282795Y-69390256D01*
X171396063Y-69559774D01*
X171540226Y-69703937D01*
X171709744Y-69817205D01*
X171898102Y-69895226D01*
X172098061Y-69935000D01*
X172301939Y-69935000D01*
X172501898Y-69895226D01*
X172690256Y-69817205D01*
X172859774Y-69703937D01*
X172973000Y-69590711D01*
X172973000Y-74038083D01*
X172890256Y-73982795D01*
X172701898Y-73904774D01*
X172501939Y-73865000D01*
X172298061Y-73865000D01*
X172098102Y-73904774D01*
X171909744Y-73982795D01*
X171740226Y-74096063D01*
X171596063Y-74240226D01*
X171482795Y-74409744D01*
X171404774Y-74598102D01*
X171365000Y-74798061D01*
X171365000Y-75001939D01*
X171404774Y-75201898D01*
X171482795Y-75390256D01*
X171537458Y-75472065D01*
X171501939Y-75465000D01*
X171298061Y-75465000D01*
X171098102Y-75504774D01*
X170909744Y-75582795D01*
X170740226Y-75696063D01*
X170596063Y-75840226D01*
X170482795Y-76009744D01*
X170404774Y-76198102D01*
X170365000Y-76398061D01*
X170365000Y-76601939D01*
X170404774Y-76801898D01*
X170482795Y-76990256D01*
X170596063Y-77159774D01*
X170740226Y-77303937D01*
X170909744Y-77417205D01*
X171098102Y-77495226D01*
X171298061Y-77535000D01*
X171501939Y-77535000D01*
X171701898Y-77495226D01*
X171890256Y-77417205D01*
X172059774Y-77303937D01*
X172203937Y-77159774D01*
X172317205Y-76990256D01*
X172395226Y-76801898D01*
X172435000Y-76601939D01*
X172435000Y-76398061D01*
X172395226Y-76198102D01*
X172317205Y-76009744D01*
X172262542Y-75927935D01*
X172298061Y-75935000D01*
X172501939Y-75935000D01*
X172701898Y-75895226D01*
X172890256Y-75817205D01*
X172973000Y-75761917D01*
X172973000Y-100329910D01*
X172736038Y-99975271D01*
X172424729Y-99663962D01*
X172058669Y-99419369D01*
X171651925Y-99250890D01*
X171220128Y-99165000D01*
X170779872Y-99165000D01*
X170348075Y-99250890D01*
X169941331Y-99419369D01*
X169575271Y-99663962D01*
X169263962Y-99975271D01*
X169019369Y-100341331D01*
X168850890Y-100748075D01*
X168765000Y-101179872D01*
X168765000Y-101620128D01*
X168850890Y-102051925D01*
X169019369Y-102458669D01*
X169263962Y-102824729D01*
X169575271Y-103136038D01*
X169941331Y-103380631D01*
X170348075Y-103549110D01*
X170779872Y-103635000D01*
X171220128Y-103635000D01*
X171651925Y-103549110D01*
X172058669Y-103380631D01*
X172424729Y-103136038D01*
X172736038Y-102824729D01*
X172973000Y-102470090D01*
X172973000Y-105273000D01*
X152935236Y-105273000D01*
X152997205Y-105180256D01*
X153075226Y-104991898D01*
X153115000Y-104791939D01*
X153115000Y-104588061D01*
X153075226Y-104388102D01*
X152997205Y-104199744D01*
X152883937Y-104030226D01*
X152739774Y-103886063D01*
X152570256Y-103772795D01*
X152381898Y-103694774D01*
X152181939Y-103655000D01*
X151978061Y-103655000D01*
X151778102Y-103694774D01*
X151589744Y-103772795D01*
X151420226Y-103886063D01*
X151276063Y-104030226D01*
X151162795Y-104199744D01*
X151084774Y-104388102D01*
X151045000Y-104588061D01*
X151045000Y-104791939D01*
X151084774Y-104991898D01*
X151162795Y-105180256D01*
X151224764Y-105273000D01*
X149315000Y-105273000D01*
X149315000Y-105188061D01*
X149275226Y-104988102D01*
X149197205Y-104799744D01*
X149083937Y-104630226D01*
X148939774Y-104486063D01*
X148770256Y-104372795D01*
X148581898Y-104294774D01*
X148381939Y-104255000D01*
X148178061Y-104255000D01*
X147978102Y-104294774D01*
X147789744Y-104372795D01*
X147620226Y-104486063D01*
X147476063Y-104630226D01*
X147362795Y-104799744D01*
X147284774Y-104988102D01*
X147245000Y-105188061D01*
X147245000Y-105273000D01*
X108527243Y-105273000D01*
X108532461Y-102538061D01*
X145695000Y-102538061D01*
X145695000Y-102741939D01*
X145734774Y-102941898D01*
X145812795Y-103130256D01*
X145926063Y-103299774D01*
X146070226Y-103443937D01*
X146239744Y-103557205D01*
X146428102Y-103635226D01*
X146628061Y-103675000D01*
X146831939Y-103675000D01*
X147031898Y-103635226D01*
X147220256Y-103557205D01*
X147389774Y-103443937D01*
X147533937Y-103299774D01*
X147647205Y-103130256D01*
X147725226Y-102941898D01*
X147765000Y-102741939D01*
X147765000Y-102538061D01*
X147725226Y-102338102D01*
X147647205Y-102149744D01*
X147533937Y-101980226D01*
X147389774Y-101836063D01*
X147220256Y-101722795D01*
X147031898Y-101644774D01*
X146831939Y-101605000D01*
X146628061Y-101605000D01*
X146428102Y-101644774D01*
X146239744Y-101722795D01*
X146070226Y-101836063D01*
X145926063Y-101980226D01*
X145812795Y-102149744D01*
X145734774Y-102338102D01*
X145695000Y-102538061D01*
X108532461Y-102538061D01*
X108534828Y-101298061D01*
X121165000Y-101298061D01*
X121165000Y-101501939D01*
X121204774Y-101701898D01*
X121282795Y-101890256D01*
X121396063Y-102059774D01*
X121540226Y-102203937D01*
X121709744Y-102317205D01*
X121898102Y-102395226D01*
X122098061Y-102435000D01*
X122301939Y-102435000D01*
X122501898Y-102395226D01*
X122690256Y-102317205D01*
X122859774Y-102203937D01*
X123003937Y-102059774D01*
X123117205Y-101890256D01*
X123195226Y-101701898D01*
X123235000Y-101501939D01*
X123235000Y-101298061D01*
X123215109Y-101198061D01*
X144065000Y-101198061D01*
X144065000Y-101401939D01*
X144104774Y-101601898D01*
X144182795Y-101790256D01*
X144296063Y-101959774D01*
X144440226Y-102103937D01*
X144609744Y-102217205D01*
X144798102Y-102295226D01*
X144998061Y-102335000D01*
X145201939Y-102335000D01*
X145401898Y-102295226D01*
X145590256Y-102217205D01*
X145759774Y-102103937D01*
X145903937Y-101959774D01*
X146017205Y-101790256D01*
X146095226Y-101601898D01*
X146135000Y-101401939D01*
X146135000Y-101198061D01*
X146095226Y-100998102D01*
X146017205Y-100809744D01*
X145903937Y-100640226D01*
X145759774Y-100496063D01*
X145590256Y-100382795D01*
X145401898Y-100304774D01*
X145201939Y-100265000D01*
X144998061Y-100265000D01*
X144798102Y-100304774D01*
X144609744Y-100382795D01*
X144440226Y-100496063D01*
X144296063Y-100640226D01*
X144182795Y-100809744D01*
X144104774Y-100998102D01*
X144065000Y-101198061D01*
X123215109Y-101198061D01*
X123195226Y-101098102D01*
X123117205Y-100909744D01*
X123003937Y-100740226D01*
X122859774Y-100596063D01*
X122690256Y-100482795D01*
X122501898Y-100404774D01*
X122301939Y-100365000D01*
X122098061Y-100365000D01*
X121898102Y-100404774D01*
X121709744Y-100482795D01*
X121540226Y-100596063D01*
X121396063Y-100740226D01*
X121282795Y-100909744D01*
X121204774Y-101098102D01*
X121165000Y-101298061D01*
X108534828Y-101298061D01*
X108537976Y-99648061D01*
X134065000Y-99648061D01*
X134065000Y-99851939D01*
X134104774Y-100051898D01*
X134182795Y-100240256D01*
X134296063Y-100409774D01*
X134440226Y-100553937D01*
X134609744Y-100667205D01*
X134798102Y-100745226D01*
X134998061Y-100785000D01*
X135201939Y-100785000D01*
X135401898Y-100745226D01*
X135590256Y-100667205D01*
X135759774Y-100553937D01*
X135903937Y-100409774D01*
X136017205Y-100240256D01*
X136095226Y-100051898D01*
X136135000Y-99851939D01*
X136135000Y-99648061D01*
X136095226Y-99448102D01*
X136017205Y-99259744D01*
X135903937Y-99090226D01*
X135759774Y-98946063D01*
X135590256Y-98832795D01*
X135401898Y-98754774D01*
X135201939Y-98715000D01*
X134998061Y-98715000D01*
X134798102Y-98754774D01*
X134609744Y-98832795D01*
X134440226Y-98946063D01*
X134296063Y-99090226D01*
X134182795Y-99259744D01*
X134104774Y-99448102D01*
X134065000Y-99648061D01*
X108537976Y-99648061D01*
X108541889Y-97598061D01*
X127765000Y-97598061D01*
X127765000Y-97801939D01*
X127804774Y-98001898D01*
X127882795Y-98190256D01*
X127996063Y-98359774D01*
X128140226Y-98503937D01*
X128309744Y-98617205D01*
X128498102Y-98695226D01*
X128698061Y-98735000D01*
X128901939Y-98735000D01*
X129101898Y-98695226D01*
X129290256Y-98617205D01*
X129459774Y-98503937D01*
X129603937Y-98359774D01*
X129717205Y-98190256D01*
X129795226Y-98001898D01*
X129835000Y-97801939D01*
X129835000Y-97598061D01*
X129795226Y-97398102D01*
X129717205Y-97209744D01*
X129603937Y-97040226D01*
X129459774Y-96896063D01*
X129290256Y-96782795D01*
X129101898Y-96704774D01*
X128901939Y-96665000D01*
X128698061Y-96665000D01*
X128498102Y-96704774D01*
X128309744Y-96782795D01*
X128140226Y-96896063D01*
X127996063Y-97040226D01*
X127882795Y-97209744D01*
X127804774Y-97398102D01*
X127765000Y-97598061D01*
X108541889Y-97598061D01*
X108545514Y-95698061D01*
X144365000Y-95698061D01*
X144365000Y-95901939D01*
X144404774Y-96101898D01*
X144482795Y-96290256D01*
X144596063Y-96459774D01*
X144740226Y-96603937D01*
X144789232Y-96636682D01*
X144760226Y-96656063D01*
X144616063Y-96800226D01*
X144502795Y-96969744D01*
X144424774Y-97158102D01*
X144385000Y-97358061D01*
X144385000Y-97561939D01*
X144424774Y-97761898D01*
X144502795Y-97950256D01*
X144616063Y-98119774D01*
X144760226Y-98263937D01*
X144929744Y-98377205D01*
X145118102Y-98455226D01*
X145318061Y-98495000D01*
X145521939Y-98495000D01*
X145721898Y-98455226D01*
X145910256Y-98377205D01*
X146079774Y-98263937D01*
X146145650Y-98198061D01*
X153665000Y-98198061D01*
X153665000Y-98401939D01*
X153704774Y-98601898D01*
X153782795Y-98790256D01*
X153896063Y-98959774D01*
X154040226Y-99103937D01*
X154209744Y-99217205D01*
X154398102Y-99295226D01*
X154598061Y-99335000D01*
X154801939Y-99335000D01*
X155001898Y-99295226D01*
X155190256Y-99217205D01*
X155359774Y-99103937D01*
X155503937Y-98959774D01*
X155617205Y-98790256D01*
X155695226Y-98601898D01*
X155735000Y-98401939D01*
X155735000Y-98198061D01*
X155695226Y-97998102D01*
X155617205Y-97809744D01*
X155503937Y-97640226D01*
X155359774Y-97496063D01*
X155190256Y-97382795D01*
X155001898Y-97304774D01*
X154801939Y-97265000D01*
X154598061Y-97265000D01*
X154398102Y-97304774D01*
X154209744Y-97382795D01*
X154040226Y-97496063D01*
X153896063Y-97640226D01*
X153782795Y-97809744D01*
X153704774Y-97998102D01*
X153665000Y-98198061D01*
X146145650Y-98198061D01*
X146223937Y-98119774D01*
X146337205Y-97950256D01*
X146415226Y-97761898D01*
X146455000Y-97561939D01*
X146455000Y-97358061D01*
X146415226Y-97158102D01*
X146337205Y-96969744D01*
X146223937Y-96800226D01*
X146079774Y-96656063D01*
X146030768Y-96623318D01*
X146059774Y-96603937D01*
X146203937Y-96459774D01*
X146317205Y-96290256D01*
X146395226Y-96101898D01*
X146435000Y-95901939D01*
X146435000Y-95698061D01*
X146409037Y-95567536D01*
X146473399Y-95580338D01*
X146677277Y-95580338D01*
X146877236Y-95540564D01*
X147065594Y-95462543D01*
X147162098Y-95398061D01*
X169565000Y-95398061D01*
X169565000Y-95601939D01*
X169604774Y-95801898D01*
X169682795Y-95990256D01*
X169796063Y-96159774D01*
X169940226Y-96303937D01*
X170109744Y-96417205D01*
X170298102Y-96495226D01*
X170498061Y-96535000D01*
X170701939Y-96535000D01*
X170901898Y-96495226D01*
X171090256Y-96417205D01*
X171259774Y-96303937D01*
X171403937Y-96159774D01*
X171517205Y-95990256D01*
X171595226Y-95801898D01*
X171635000Y-95601939D01*
X171635000Y-95398061D01*
X171595226Y-95198102D01*
X171517205Y-95009744D01*
X171403937Y-94840226D01*
X171259774Y-94696063D01*
X171090256Y-94582795D01*
X170901898Y-94504774D01*
X170701939Y-94465000D01*
X170498061Y-94465000D01*
X170298102Y-94504774D01*
X170109744Y-94582795D01*
X169940226Y-94696063D01*
X169796063Y-94840226D01*
X169682795Y-95009744D01*
X169604774Y-95198102D01*
X169565000Y-95398061D01*
X147162098Y-95398061D01*
X147235112Y-95349275D01*
X147379275Y-95205112D01*
X147492543Y-95035594D01*
X147570564Y-94847236D01*
X147610338Y-94647277D01*
X147610338Y-94443399D01*
X147570564Y-94243440D01*
X147492543Y-94055082D01*
X147379275Y-93885564D01*
X147235112Y-93741401D01*
X147065594Y-93628133D01*
X146877236Y-93550112D01*
X146677277Y-93510338D01*
X146473399Y-93510338D01*
X146273440Y-93550112D01*
X146085082Y-93628133D01*
X145915564Y-93741401D01*
X145771401Y-93885564D01*
X145658133Y-94055082D01*
X145580112Y-94243440D01*
X145540338Y-94443399D01*
X145540338Y-94647277D01*
X145566301Y-94777802D01*
X145501939Y-94765000D01*
X145298061Y-94765000D01*
X145098102Y-94804774D01*
X144909744Y-94882795D01*
X144740226Y-94996063D01*
X144596063Y-95140226D01*
X144482795Y-95309744D01*
X144404774Y-95498102D01*
X144365000Y-95698061D01*
X108545514Y-95698061D01*
X108552576Y-91998061D01*
X126665000Y-91998061D01*
X126665000Y-92201939D01*
X126704774Y-92401898D01*
X126782795Y-92590256D01*
X126896063Y-92759774D01*
X127040226Y-92903937D01*
X127209744Y-93017205D01*
X127398102Y-93095226D01*
X127598061Y-93135000D01*
X127801939Y-93135000D01*
X128001898Y-93095226D01*
X128190256Y-93017205D01*
X128359774Y-92903937D01*
X128475650Y-92788061D01*
X151705000Y-92788061D01*
X151705000Y-92991939D01*
X151744774Y-93191898D01*
X151822795Y-93380256D01*
X151936063Y-93549774D01*
X152080226Y-93693937D01*
X152249744Y-93807205D01*
X152438102Y-93885226D01*
X152638061Y-93925000D01*
X152841939Y-93925000D01*
X153041898Y-93885226D01*
X153230256Y-93807205D01*
X153318771Y-93748061D01*
X156615000Y-93748061D01*
X156615000Y-93951939D01*
X156654774Y-94151898D01*
X156732795Y-94340256D01*
X156846063Y-94509774D01*
X156990226Y-94653937D01*
X157159744Y-94767205D01*
X157348102Y-94845226D01*
X157548061Y-94885000D01*
X157751939Y-94885000D01*
X157951898Y-94845226D01*
X158140256Y-94767205D01*
X158309774Y-94653937D01*
X158453937Y-94509774D01*
X158567205Y-94340256D01*
X158645226Y-94151898D01*
X158685000Y-93951939D01*
X158685000Y-93748061D01*
X158645226Y-93548102D01*
X158567205Y-93359744D01*
X158453937Y-93190226D01*
X158309774Y-93046063D01*
X158140256Y-92932795D01*
X157951898Y-92854774D01*
X157751939Y-92815000D01*
X157548061Y-92815000D01*
X157348102Y-92854774D01*
X157159744Y-92932795D01*
X156990226Y-93046063D01*
X156846063Y-93190226D01*
X156732795Y-93359744D01*
X156654774Y-93548102D01*
X156615000Y-93748061D01*
X153318771Y-93748061D01*
X153399774Y-93693937D01*
X153543937Y-93549774D01*
X153657205Y-93380256D01*
X153735226Y-93191898D01*
X153775000Y-92991939D01*
X153775000Y-92788061D01*
X153735226Y-92588102D01*
X153657205Y-92399744D01*
X153543937Y-92230226D01*
X153399774Y-92086063D01*
X153230256Y-91972795D01*
X153041898Y-91894774D01*
X152841939Y-91855000D01*
X152638061Y-91855000D01*
X152438102Y-91894774D01*
X152249744Y-91972795D01*
X152080226Y-92086063D01*
X151936063Y-92230226D01*
X151822795Y-92399744D01*
X151744774Y-92588102D01*
X151705000Y-92788061D01*
X128475650Y-92788061D01*
X128503937Y-92759774D01*
X128617205Y-92590256D01*
X128695226Y-92401898D01*
X128735000Y-92201939D01*
X128735000Y-91998061D01*
X128695226Y-91798102D01*
X128617205Y-91609744D01*
X128503937Y-91440226D01*
X128359774Y-91296063D01*
X128190256Y-91182795D01*
X128001898Y-91104774D01*
X127801939Y-91065000D01*
X127598061Y-91065000D01*
X127398102Y-91104774D01*
X127209744Y-91182795D01*
X127040226Y-91296063D01*
X126896063Y-91440226D01*
X126782795Y-91609744D01*
X126704774Y-91798102D01*
X126665000Y-91998061D01*
X108552576Y-91998061D01*
X108554675Y-90898061D01*
X144165000Y-90898061D01*
X144165000Y-91101939D01*
X144204774Y-91301898D01*
X144282795Y-91490256D01*
X144396063Y-91659774D01*
X144540226Y-91803937D01*
X144709744Y-91917205D01*
X144898102Y-91995226D01*
X145098061Y-92035000D01*
X145301939Y-92035000D01*
X145501898Y-91995226D01*
X145690256Y-91917205D01*
X145859774Y-91803937D01*
X146003937Y-91659774D01*
X146117205Y-91490256D01*
X146195226Y-91301898D01*
X146235000Y-91101939D01*
X146235000Y-90898061D01*
X146195226Y-90698102D01*
X146174499Y-90648061D01*
X161015000Y-90648061D01*
X161015000Y-90851939D01*
X161054774Y-91051898D01*
X161132795Y-91240256D01*
X161246063Y-91409774D01*
X161390226Y-91553937D01*
X161559744Y-91667205D01*
X161748102Y-91745226D01*
X161948061Y-91785000D01*
X162151939Y-91785000D01*
X162351898Y-91745226D01*
X162540256Y-91667205D01*
X162709774Y-91553937D01*
X162853937Y-91409774D01*
X162967205Y-91240256D01*
X163045226Y-91051898D01*
X163085000Y-90851939D01*
X163085000Y-90648061D01*
X163045226Y-90448102D01*
X162967205Y-90259744D01*
X162853937Y-90090226D01*
X162709774Y-89946063D01*
X162540256Y-89832795D01*
X162351898Y-89754774D01*
X162151939Y-89715000D01*
X161948061Y-89715000D01*
X161748102Y-89754774D01*
X161559744Y-89832795D01*
X161390226Y-89946063D01*
X161246063Y-90090226D01*
X161132795Y-90259744D01*
X161054774Y-90448102D01*
X161015000Y-90648061D01*
X146174499Y-90648061D01*
X146117205Y-90509744D01*
X146003937Y-90340226D01*
X145859774Y-90196063D01*
X145690256Y-90082795D01*
X145501898Y-90004774D01*
X145301939Y-89965000D01*
X145098061Y-89965000D01*
X144898102Y-90004774D01*
X144709744Y-90082795D01*
X144540226Y-90196063D01*
X144396063Y-90340226D01*
X144282795Y-90509744D01*
X144204774Y-90698102D01*
X144165000Y-90898061D01*
X108554675Y-90898061D01*
X108596609Y-68925000D01*
X109686928Y-68925000D01*
X109686928Y-70875000D01*
X109699188Y-70999482D01*
X109735498Y-71119180D01*
X109794463Y-71229494D01*
X109873815Y-71326185D01*
X109970506Y-71405537D01*
X110080820Y-71464502D01*
X110200518Y-71500812D01*
X110325000Y-71513072D01*
X110477761Y-71513072D01*
X110273685Y-71649431D01*
X110049431Y-71873685D01*
X109873237Y-72137379D01*
X109751871Y-72430380D01*
X109690000Y-72741429D01*
X109690000Y-73058571D01*
X109751871Y-73369620D01*
X109873237Y-73662621D01*
X110049431Y-73926315D01*
X110273685Y-74150569D01*
X110537379Y-74326763D01*
X110714187Y-74400000D01*
X110537379Y-74473237D01*
X110273685Y-74649431D01*
X110049431Y-74873685D01*
X109873237Y-75137379D01*
X109751871Y-75430380D01*
X109690000Y-75741429D01*
X109690000Y-76058571D01*
X109751871Y-76369620D01*
X109873237Y-76662621D01*
X110049431Y-76926315D01*
X110273685Y-77150569D01*
X110537379Y-77326763D01*
X110714187Y-77400000D01*
X110537379Y-77473237D01*
X110273685Y-77649431D01*
X110049431Y-77873685D01*
X109873237Y-78137379D01*
X109751871Y-78430380D01*
X109690000Y-78741429D01*
X109690000Y-79058571D01*
X109751871Y-79369620D01*
X109873237Y-79662621D01*
X110049431Y-79926315D01*
X110273685Y-80150569D01*
X110537379Y-80326763D01*
X110714187Y-80400000D01*
X110537379Y-80473237D01*
X110273685Y-80649431D01*
X110049431Y-80873685D01*
X109873237Y-81137379D01*
X109751871Y-81430380D01*
X109690000Y-81741429D01*
X109690000Y-82058571D01*
X109751871Y-82369620D01*
X109873237Y-82662621D01*
X110049431Y-82926315D01*
X110273685Y-83150569D01*
X110537379Y-83326763D01*
X110714187Y-83400000D01*
X110537379Y-83473237D01*
X110273685Y-83649431D01*
X110049431Y-83873685D01*
X109873237Y-84137379D01*
X109751871Y-84430380D01*
X109690000Y-84741429D01*
X109690000Y-85058571D01*
X109751871Y-85369620D01*
X109873237Y-85662621D01*
X110049431Y-85926315D01*
X110273685Y-86150569D01*
X110537379Y-86326763D01*
X110714187Y-86400000D01*
X110537379Y-86473237D01*
X110273685Y-86649431D01*
X110049431Y-86873685D01*
X109873237Y-87137379D01*
X109751871Y-87430380D01*
X109690000Y-87741429D01*
X109690000Y-88058571D01*
X109751871Y-88369620D01*
X109873237Y-88662621D01*
X110049431Y-88926315D01*
X110273685Y-89150569D01*
X110537379Y-89326763D01*
X110830380Y-89448129D01*
X111141429Y-89510000D01*
X111458571Y-89510000D01*
X111769620Y-89448129D01*
X112062621Y-89326763D01*
X112326315Y-89150569D01*
X112550569Y-88926315D01*
X112726763Y-88662621D01*
X112848129Y-88369620D01*
X112910000Y-88058571D01*
X112910000Y-87741651D01*
X113037379Y-87826763D01*
X113330380Y-87948129D01*
X113641429Y-88010000D01*
X113958571Y-88010000D01*
X114269620Y-87948129D01*
X114562621Y-87826763D01*
X114826315Y-87650569D01*
X115050569Y-87426315D01*
X115226763Y-87162621D01*
X115300000Y-86985813D01*
X115373237Y-87162621D01*
X115549431Y-87426315D01*
X115773685Y-87650569D01*
X116037379Y-87826763D01*
X116330380Y-87948129D01*
X116641429Y-88010000D01*
X116958571Y-88010000D01*
X117269620Y-87948129D01*
X117562621Y-87826763D01*
X117690000Y-87741651D01*
X117690000Y-88058571D01*
X117751871Y-88369620D01*
X117873237Y-88662621D01*
X118049431Y-88926315D01*
X118273685Y-89150569D01*
X118537379Y-89326763D01*
X118830380Y-89448129D01*
X119141429Y-89510000D01*
X119458571Y-89510000D01*
X119769620Y-89448129D01*
X120062621Y-89326763D01*
X120326315Y-89150569D01*
X120550569Y-88926315D01*
X120726763Y-88662621D01*
X120848129Y-88369620D01*
X120910000Y-88058571D01*
X120910000Y-87741429D01*
X120891429Y-87648061D01*
X134115000Y-87648061D01*
X134115000Y-87851939D01*
X134154774Y-88051898D01*
X134232795Y-88240256D01*
X134346063Y-88409774D01*
X134490226Y-88553937D01*
X134659744Y-88667205D01*
X134848102Y-88745226D01*
X135048061Y-88785000D01*
X135251939Y-88785000D01*
X135286823Y-88778061D01*
X148395000Y-88778061D01*
X148395000Y-88981939D01*
X148434774Y-89181898D01*
X148512795Y-89370256D01*
X148626063Y-89539774D01*
X148770226Y-89683937D01*
X148939744Y-89797205D01*
X149128102Y-89875226D01*
X149328061Y-89915000D01*
X149531939Y-89915000D01*
X149731898Y-89875226D01*
X149920256Y-89797205D01*
X150089774Y-89683937D01*
X150233937Y-89539774D01*
X150347205Y-89370256D01*
X150425226Y-89181898D01*
X150451847Y-89048061D01*
X152365000Y-89048061D01*
X152365000Y-89251939D01*
X152404774Y-89451898D01*
X152482795Y-89640256D01*
X152596063Y-89809774D01*
X152740226Y-89953937D01*
X152909744Y-90067205D01*
X153098102Y-90145226D01*
X153298061Y-90185000D01*
X153501939Y-90185000D01*
X153701898Y-90145226D01*
X153890256Y-90067205D01*
X154059774Y-89953937D01*
X154203937Y-89809774D01*
X154317205Y-89640256D01*
X154395226Y-89451898D01*
X154435000Y-89251939D01*
X154435000Y-89048061D01*
X154395226Y-88848102D01*
X154317205Y-88659744D01*
X154203937Y-88490226D01*
X154059774Y-88346063D01*
X153890256Y-88232795D01*
X153701898Y-88154774D01*
X153501939Y-88115000D01*
X153298061Y-88115000D01*
X153098102Y-88154774D01*
X152909744Y-88232795D01*
X152740226Y-88346063D01*
X152596063Y-88490226D01*
X152482795Y-88659744D01*
X152404774Y-88848102D01*
X152365000Y-89048061D01*
X150451847Y-89048061D01*
X150465000Y-88981939D01*
X150465000Y-88778061D01*
X150425226Y-88578102D01*
X150347205Y-88389744D01*
X150233937Y-88220226D01*
X150089774Y-88076063D01*
X149920256Y-87962795D01*
X149731898Y-87884774D01*
X149531939Y-87845000D01*
X149328061Y-87845000D01*
X149128102Y-87884774D01*
X148939744Y-87962795D01*
X148770226Y-88076063D01*
X148626063Y-88220226D01*
X148512795Y-88389744D01*
X148434774Y-88578102D01*
X148395000Y-88778061D01*
X135286823Y-88778061D01*
X135451898Y-88745226D01*
X135640256Y-88667205D01*
X135809774Y-88553937D01*
X135953937Y-88409774D01*
X136067205Y-88240256D01*
X136145226Y-88051898D01*
X136185000Y-87851939D01*
X136185000Y-87648061D01*
X136145226Y-87448102D01*
X136067205Y-87259744D01*
X135953937Y-87090226D01*
X135809774Y-86946063D01*
X135640256Y-86832795D01*
X135451898Y-86754774D01*
X135251939Y-86715000D01*
X135048061Y-86715000D01*
X134848102Y-86754774D01*
X134659744Y-86832795D01*
X134490226Y-86946063D01*
X134346063Y-87090226D01*
X134232795Y-87259744D01*
X134154774Y-87448102D01*
X134115000Y-87648061D01*
X120891429Y-87648061D01*
X120848129Y-87430380D01*
X120726763Y-87137379D01*
X120550569Y-86873685D01*
X120326315Y-86649431D01*
X120062621Y-86473237D01*
X119885813Y-86400000D01*
X120062621Y-86326763D01*
X120326315Y-86150569D01*
X120550569Y-85926315D01*
X120569447Y-85898061D01*
X144265000Y-85898061D01*
X144265000Y-86101939D01*
X144304774Y-86301898D01*
X144382795Y-86490256D01*
X144496063Y-86659774D01*
X144640226Y-86803937D01*
X144809744Y-86917205D01*
X144998102Y-86995226D01*
X145198061Y-87035000D01*
X145401939Y-87035000D01*
X145601898Y-86995226D01*
X145790256Y-86917205D01*
X145959774Y-86803937D01*
X146103937Y-86659774D01*
X146145172Y-86598061D01*
X150965000Y-86598061D01*
X150965000Y-86801939D01*
X151004774Y-87001898D01*
X151082795Y-87190256D01*
X151196063Y-87359774D01*
X151340226Y-87503937D01*
X151509744Y-87617205D01*
X151698102Y-87695226D01*
X151898061Y-87735000D01*
X152101939Y-87735000D01*
X152301898Y-87695226D01*
X152490256Y-87617205D01*
X152659774Y-87503937D01*
X152803937Y-87359774D01*
X152917205Y-87190256D01*
X152995226Y-87001898D01*
X153035000Y-86801939D01*
X153035000Y-86598061D01*
X153013120Y-86488061D01*
X169005000Y-86488061D01*
X169005000Y-86691939D01*
X169044774Y-86891898D01*
X169122795Y-87080256D01*
X169236063Y-87249774D01*
X169380226Y-87393937D01*
X169549744Y-87507205D01*
X169738102Y-87585226D01*
X169938061Y-87625000D01*
X170141939Y-87625000D01*
X170341898Y-87585226D01*
X170530256Y-87507205D01*
X170699774Y-87393937D01*
X170843937Y-87249774D01*
X170957205Y-87080256D01*
X171035226Y-86891898D01*
X171075000Y-86691939D01*
X171075000Y-86488061D01*
X171035226Y-86288102D01*
X170957205Y-86099744D01*
X170843937Y-85930226D01*
X170699774Y-85786063D01*
X170530256Y-85672795D01*
X170341898Y-85594774D01*
X170141939Y-85555000D01*
X169938061Y-85555000D01*
X169738102Y-85594774D01*
X169549744Y-85672795D01*
X169380226Y-85786063D01*
X169236063Y-85930226D01*
X169122795Y-86099744D01*
X169044774Y-86288102D01*
X169005000Y-86488061D01*
X153013120Y-86488061D01*
X152995226Y-86398102D01*
X152917205Y-86209744D01*
X152803937Y-86040226D01*
X152659774Y-85896063D01*
X152490256Y-85782795D01*
X152301898Y-85704774D01*
X152101939Y-85665000D01*
X151898061Y-85665000D01*
X151698102Y-85704774D01*
X151509744Y-85782795D01*
X151340226Y-85896063D01*
X151196063Y-86040226D01*
X151082795Y-86209744D01*
X151004774Y-86398102D01*
X150965000Y-86598061D01*
X146145172Y-86598061D01*
X146217205Y-86490256D01*
X146295226Y-86301898D01*
X146335000Y-86101939D01*
X146335000Y-85898061D01*
X146295226Y-85698102D01*
X146217205Y-85509744D01*
X146103937Y-85340226D01*
X145959774Y-85196063D01*
X145790256Y-85082795D01*
X145601898Y-85004774D01*
X145401939Y-84965000D01*
X145198061Y-84965000D01*
X144998102Y-85004774D01*
X144809744Y-85082795D01*
X144640226Y-85196063D01*
X144496063Y-85340226D01*
X144382795Y-85509744D01*
X144304774Y-85698102D01*
X144265000Y-85898061D01*
X120569447Y-85898061D01*
X120726763Y-85662621D01*
X120848129Y-85369620D01*
X120910000Y-85058571D01*
X120910000Y-84898061D01*
X170765000Y-84898061D01*
X170765000Y-85101939D01*
X170804774Y-85301898D01*
X170882795Y-85490256D01*
X170996063Y-85659774D01*
X171140226Y-85803937D01*
X171309744Y-85917205D01*
X171498102Y-85995226D01*
X171698061Y-86035000D01*
X171901939Y-86035000D01*
X172101898Y-85995226D01*
X172290256Y-85917205D01*
X172459774Y-85803937D01*
X172603937Y-85659774D01*
X172717205Y-85490256D01*
X172795226Y-85301898D01*
X172835000Y-85101939D01*
X172835000Y-84898061D01*
X172795226Y-84698102D01*
X172717205Y-84509744D01*
X172603937Y-84340226D01*
X172459774Y-84196063D01*
X172290256Y-84082795D01*
X172101898Y-84004774D01*
X171901939Y-83965000D01*
X171698061Y-83965000D01*
X171498102Y-84004774D01*
X171309744Y-84082795D01*
X171140226Y-84196063D01*
X170996063Y-84340226D01*
X170882795Y-84509744D01*
X170804774Y-84698102D01*
X170765000Y-84898061D01*
X120910000Y-84898061D01*
X120910000Y-84741429D01*
X120848129Y-84430380D01*
X120726763Y-84137379D01*
X120550569Y-83873685D01*
X120326315Y-83649431D01*
X120062621Y-83473237D01*
X119885813Y-83400000D01*
X120062621Y-83326763D01*
X120326315Y-83150569D01*
X120550569Y-82926315D01*
X120726763Y-82662621D01*
X120836348Y-82398061D01*
X138465000Y-82398061D01*
X138465000Y-82601939D01*
X138504774Y-82801898D01*
X138582795Y-82990256D01*
X138696063Y-83159774D01*
X138840226Y-83303937D01*
X139009744Y-83417205D01*
X139198102Y-83495226D01*
X139398061Y-83535000D01*
X139601939Y-83535000D01*
X139801898Y-83495226D01*
X139990256Y-83417205D01*
X140159774Y-83303937D01*
X140303937Y-83159774D01*
X140365217Y-83068061D01*
X152975000Y-83068061D01*
X152975000Y-83271939D01*
X153014774Y-83471898D01*
X153092795Y-83660256D01*
X153206063Y-83829774D01*
X153350226Y-83973937D01*
X153519744Y-84087205D01*
X153708102Y-84165226D01*
X153908061Y-84205000D01*
X154111939Y-84205000D01*
X154311898Y-84165226D01*
X154500256Y-84087205D01*
X154669774Y-83973937D01*
X154813937Y-83829774D01*
X154927205Y-83660256D01*
X154973678Y-83548061D01*
X161765000Y-83548061D01*
X161765000Y-83751939D01*
X161804774Y-83951898D01*
X161882795Y-84140256D01*
X161996063Y-84309774D01*
X162140226Y-84453937D01*
X162309744Y-84567205D01*
X162498102Y-84645226D01*
X162698061Y-84685000D01*
X162901939Y-84685000D01*
X163101898Y-84645226D01*
X163290256Y-84567205D01*
X163459774Y-84453937D01*
X163603937Y-84309774D01*
X163717205Y-84140256D01*
X163795226Y-83951898D01*
X163835000Y-83751939D01*
X163835000Y-83548061D01*
X163795226Y-83348102D01*
X163717205Y-83159744D01*
X163603937Y-82990226D01*
X163459774Y-82846063D01*
X163290256Y-82732795D01*
X163101898Y-82654774D01*
X162901939Y-82615000D01*
X162698061Y-82615000D01*
X162498102Y-82654774D01*
X162309744Y-82732795D01*
X162140226Y-82846063D01*
X161996063Y-82990226D01*
X161882795Y-83159744D01*
X161804774Y-83348102D01*
X161765000Y-83548061D01*
X154973678Y-83548061D01*
X155005226Y-83471898D01*
X155045000Y-83271939D01*
X155045000Y-83068061D01*
X155005226Y-82868102D01*
X154927205Y-82679744D01*
X154813937Y-82510226D01*
X154669774Y-82366063D01*
X154500256Y-82252795D01*
X154311898Y-82174774D01*
X154111939Y-82135000D01*
X153908061Y-82135000D01*
X153708102Y-82174774D01*
X153519744Y-82252795D01*
X153350226Y-82366063D01*
X153206063Y-82510226D01*
X153092795Y-82679744D01*
X153014774Y-82868102D01*
X152975000Y-83068061D01*
X140365217Y-83068061D01*
X140417205Y-82990256D01*
X140495226Y-82801898D01*
X140535000Y-82601939D01*
X140535000Y-82398061D01*
X140495226Y-82198102D01*
X140417205Y-82009744D01*
X140303937Y-81840226D01*
X140159774Y-81696063D01*
X139990256Y-81582795D01*
X139801898Y-81504774D01*
X139601939Y-81465000D01*
X139398061Y-81465000D01*
X139198102Y-81504774D01*
X139009744Y-81582795D01*
X138840226Y-81696063D01*
X138696063Y-81840226D01*
X138582795Y-82009744D01*
X138504774Y-82198102D01*
X138465000Y-82398061D01*
X120836348Y-82398061D01*
X120848129Y-82369620D01*
X120910000Y-82058571D01*
X120910000Y-81741429D01*
X120848129Y-81430380D01*
X120772610Y-81248061D01*
X129315000Y-81248061D01*
X129315000Y-81451939D01*
X129354774Y-81651898D01*
X129432795Y-81840256D01*
X129546063Y-82009774D01*
X129690226Y-82153937D01*
X129859744Y-82267205D01*
X130048102Y-82345226D01*
X130248061Y-82385000D01*
X130451939Y-82385000D01*
X130651898Y-82345226D01*
X130840256Y-82267205D01*
X131009774Y-82153937D01*
X131153937Y-82009774D01*
X131267205Y-81840256D01*
X131345226Y-81651898D01*
X131385000Y-81451939D01*
X131385000Y-81398061D01*
X165765000Y-81398061D01*
X165765000Y-81601939D01*
X165804774Y-81801898D01*
X165882795Y-81990256D01*
X165996063Y-82159774D01*
X166140226Y-82303937D01*
X166309744Y-82417205D01*
X166498102Y-82495226D01*
X166698061Y-82535000D01*
X166901939Y-82535000D01*
X167101898Y-82495226D01*
X167290256Y-82417205D01*
X167459774Y-82303937D01*
X167603937Y-82159774D01*
X167717205Y-81990256D01*
X167795226Y-81801898D01*
X167835000Y-81601939D01*
X167835000Y-81398061D01*
X167795226Y-81198102D01*
X167717205Y-81009744D01*
X167603937Y-80840226D01*
X167459774Y-80696063D01*
X167290256Y-80582795D01*
X167101898Y-80504774D01*
X166901939Y-80465000D01*
X166698061Y-80465000D01*
X166498102Y-80504774D01*
X166309744Y-80582795D01*
X166140226Y-80696063D01*
X165996063Y-80840226D01*
X165882795Y-81009744D01*
X165804774Y-81198102D01*
X165765000Y-81398061D01*
X131385000Y-81398061D01*
X131385000Y-81248061D01*
X131345226Y-81048102D01*
X131267205Y-80859744D01*
X131153937Y-80690226D01*
X131009774Y-80546063D01*
X130840256Y-80432795D01*
X130651898Y-80354774D01*
X130451939Y-80315000D01*
X130248061Y-80315000D01*
X130048102Y-80354774D01*
X129859744Y-80432795D01*
X129690226Y-80546063D01*
X129546063Y-80690226D01*
X129432795Y-80859744D01*
X129354774Y-81048102D01*
X129315000Y-81248061D01*
X120772610Y-81248061D01*
X120726763Y-81137379D01*
X120550569Y-80873685D01*
X120326315Y-80649431D01*
X120062621Y-80473237D01*
X119885813Y-80400000D01*
X120062621Y-80326763D01*
X120326315Y-80150569D01*
X120550569Y-79926315D01*
X120726763Y-79662621D01*
X120848129Y-79369620D01*
X120902145Y-79098061D01*
X131765000Y-79098061D01*
X131765000Y-79301939D01*
X131804774Y-79501898D01*
X131882795Y-79690256D01*
X131996063Y-79859774D01*
X132140226Y-80003937D01*
X132309744Y-80117205D01*
X132498102Y-80195226D01*
X132698061Y-80235000D01*
X132901939Y-80235000D01*
X133101898Y-80195226D01*
X133290256Y-80117205D01*
X133459774Y-80003937D01*
X133603937Y-79859774D01*
X133717205Y-79690256D01*
X133795226Y-79501898D01*
X133835000Y-79301939D01*
X133835000Y-79098061D01*
X133795226Y-78898102D01*
X133733077Y-78748061D01*
X137215000Y-78748061D01*
X137215000Y-78951939D01*
X137254774Y-79151898D01*
X137332795Y-79340256D01*
X137446063Y-79509774D01*
X137590226Y-79653937D01*
X137759744Y-79767205D01*
X137948102Y-79845226D01*
X138148061Y-79885000D01*
X138351939Y-79885000D01*
X138551898Y-79845226D01*
X138740256Y-79767205D01*
X138909774Y-79653937D01*
X139053937Y-79509774D01*
X139167205Y-79340256D01*
X139245226Y-79151898D01*
X139285000Y-78951939D01*
X139285000Y-78748061D01*
X139245226Y-78548102D01*
X139167205Y-78359744D01*
X139053937Y-78190226D01*
X138991772Y-78128061D01*
X153545000Y-78128061D01*
X153545000Y-78331939D01*
X153584774Y-78531898D01*
X153662795Y-78720256D01*
X153776063Y-78889774D01*
X153920226Y-79033937D01*
X154089744Y-79147205D01*
X154278102Y-79225226D01*
X154478061Y-79265000D01*
X154681939Y-79265000D01*
X154881898Y-79225226D01*
X155070256Y-79147205D01*
X155239774Y-79033937D01*
X155383937Y-78889774D01*
X155497205Y-78720256D01*
X155575226Y-78531898D01*
X155615000Y-78331939D01*
X155615000Y-78128061D01*
X155575226Y-77928102D01*
X155555724Y-77881019D01*
X155669744Y-77957205D01*
X155858102Y-78035226D01*
X156058061Y-78075000D01*
X156261939Y-78075000D01*
X156344743Y-78058529D01*
X156315000Y-78208061D01*
X156315000Y-78411939D01*
X156354774Y-78611898D01*
X156432795Y-78800256D01*
X156546063Y-78969774D01*
X156690226Y-79113937D01*
X156859744Y-79227205D01*
X157048102Y-79305226D01*
X157248061Y-79345000D01*
X157451939Y-79345000D01*
X157651898Y-79305226D01*
X157840256Y-79227205D01*
X157943737Y-79158061D01*
X162335000Y-79158061D01*
X162335000Y-79361939D01*
X162374774Y-79561898D01*
X162452795Y-79750256D01*
X162566063Y-79919774D01*
X162710226Y-80063937D01*
X162879744Y-80177205D01*
X163068102Y-80255226D01*
X163268061Y-80295000D01*
X163471939Y-80295000D01*
X163671898Y-80255226D01*
X163860256Y-80177205D01*
X164029774Y-80063937D01*
X164173937Y-79919774D01*
X164287205Y-79750256D01*
X164365226Y-79561898D01*
X164405000Y-79361939D01*
X164405000Y-79158061D01*
X164365226Y-78958102D01*
X164287205Y-78769744D01*
X164173937Y-78600226D01*
X164113711Y-78540000D01*
X164253937Y-78399774D01*
X164367205Y-78230256D01*
X164445226Y-78041898D01*
X164485000Y-77841939D01*
X164485000Y-77638061D01*
X164445226Y-77438102D01*
X164367205Y-77249744D01*
X164253937Y-77080226D01*
X164109774Y-76936063D01*
X163940256Y-76822795D01*
X163751898Y-76744774D01*
X163551939Y-76705000D01*
X163348061Y-76705000D01*
X163148102Y-76744774D01*
X162959744Y-76822795D01*
X162790226Y-76936063D01*
X162646063Y-77080226D01*
X162532795Y-77249744D01*
X162454774Y-77438102D01*
X162415000Y-77638061D01*
X162415000Y-77841939D01*
X162454774Y-78041898D01*
X162532795Y-78230256D01*
X162646063Y-78399774D01*
X162706289Y-78460000D01*
X162566063Y-78600226D01*
X162452795Y-78769744D01*
X162374774Y-78958102D01*
X162335000Y-79158061D01*
X157943737Y-79158061D01*
X158009774Y-79113937D01*
X158153937Y-78969774D01*
X158267205Y-78800256D01*
X158345226Y-78611898D01*
X158385000Y-78411939D01*
X158385000Y-78208061D01*
X158345226Y-78008102D01*
X158267205Y-77819744D01*
X158153937Y-77650226D01*
X158009774Y-77506063D01*
X157840256Y-77392795D01*
X157651898Y-77314774D01*
X157451939Y-77275000D01*
X157248061Y-77275000D01*
X157165257Y-77291471D01*
X157195000Y-77141939D01*
X157195000Y-76938061D01*
X157155226Y-76738102D01*
X157077205Y-76549744D01*
X156963937Y-76380226D01*
X156819774Y-76236063D01*
X156658138Y-76128061D01*
X167945000Y-76128061D01*
X167945000Y-76331939D01*
X167984774Y-76531898D01*
X168062795Y-76720256D01*
X168176063Y-76889774D01*
X168320226Y-77033937D01*
X168489744Y-77147205D01*
X168678102Y-77225226D01*
X168878061Y-77265000D01*
X169081939Y-77265000D01*
X169281898Y-77225226D01*
X169470256Y-77147205D01*
X169639774Y-77033937D01*
X169783937Y-76889774D01*
X169897205Y-76720256D01*
X169975226Y-76531898D01*
X170015000Y-76331939D01*
X170015000Y-76128061D01*
X169975226Y-75928102D01*
X169903721Y-75755476D01*
X170020256Y-75707205D01*
X170189774Y-75593937D01*
X170333937Y-75449774D01*
X170447205Y-75280256D01*
X170525226Y-75091898D01*
X170565000Y-74891939D01*
X170565000Y-74688061D01*
X170525226Y-74488102D01*
X170447205Y-74299744D01*
X170333937Y-74130226D01*
X170189774Y-73986063D01*
X170020256Y-73872795D01*
X169831898Y-73794774D01*
X169631939Y-73755000D01*
X169428061Y-73755000D01*
X169228102Y-73794774D01*
X169039744Y-73872795D01*
X168870226Y-73986063D01*
X168726063Y-74130226D01*
X168612795Y-74299744D01*
X168534774Y-74488102D01*
X168495000Y-74688061D01*
X168495000Y-74891939D01*
X168534774Y-75091898D01*
X168606279Y-75264524D01*
X168489744Y-75312795D01*
X168320226Y-75426063D01*
X168176063Y-75570226D01*
X168062795Y-75739744D01*
X167984774Y-75928102D01*
X167945000Y-76128061D01*
X156658138Y-76128061D01*
X156650256Y-76122795D01*
X156461898Y-76044774D01*
X156261939Y-76005000D01*
X156058061Y-76005000D01*
X155858102Y-76044774D01*
X155669744Y-76122795D01*
X155500226Y-76236063D01*
X155356063Y-76380226D01*
X155242795Y-76549744D01*
X155164774Y-76738102D01*
X155125000Y-76938061D01*
X155125000Y-77141939D01*
X155164774Y-77341898D01*
X155184276Y-77388981D01*
X155070256Y-77312795D01*
X154881898Y-77234774D01*
X154681939Y-77195000D01*
X154478061Y-77195000D01*
X154278102Y-77234774D01*
X154089744Y-77312795D01*
X153920226Y-77426063D01*
X153776063Y-77570226D01*
X153662795Y-77739744D01*
X153584774Y-77928102D01*
X153545000Y-78128061D01*
X138991772Y-78128061D01*
X138909774Y-78046063D01*
X138740256Y-77932795D01*
X138551898Y-77854774D01*
X138351939Y-77815000D01*
X138148061Y-77815000D01*
X137948102Y-77854774D01*
X137759744Y-77932795D01*
X137590226Y-78046063D01*
X137446063Y-78190226D01*
X137332795Y-78359744D01*
X137254774Y-78548102D01*
X137215000Y-78748061D01*
X133733077Y-78748061D01*
X133717205Y-78709744D01*
X133603937Y-78540226D01*
X133459774Y-78396063D01*
X133290256Y-78282795D01*
X133101898Y-78204774D01*
X132901939Y-78165000D01*
X132698061Y-78165000D01*
X132498102Y-78204774D01*
X132309744Y-78282795D01*
X132140226Y-78396063D01*
X131996063Y-78540226D01*
X131882795Y-78709744D01*
X131804774Y-78898102D01*
X131765000Y-79098061D01*
X120902145Y-79098061D01*
X120910000Y-79058571D01*
X120910000Y-78741429D01*
X120848129Y-78430380D01*
X120726763Y-78137379D01*
X120550569Y-77873685D01*
X120326315Y-77649431D01*
X120062621Y-77473237D01*
X119885813Y-77400000D01*
X120062621Y-77326763D01*
X120326315Y-77150569D01*
X120550569Y-76926315D01*
X120726763Y-76662621D01*
X120836348Y-76398061D01*
X132365000Y-76398061D01*
X132365000Y-76601939D01*
X132404774Y-76801898D01*
X132482795Y-76990256D01*
X132596063Y-77159774D01*
X132740226Y-77303937D01*
X132909744Y-77417205D01*
X133098102Y-77495226D01*
X133298061Y-77535000D01*
X133501939Y-77535000D01*
X133701898Y-77495226D01*
X133890256Y-77417205D01*
X134059774Y-77303937D01*
X134203937Y-77159774D01*
X134317205Y-76990256D01*
X134395226Y-76801898D01*
X134415878Y-76698070D01*
X145663300Y-76698070D01*
X145663300Y-76901948D01*
X145703074Y-77101907D01*
X145781095Y-77290265D01*
X145894363Y-77459783D01*
X146038526Y-77603946D01*
X146208044Y-77717214D01*
X146396402Y-77795235D01*
X146596361Y-77835009D01*
X146800239Y-77835009D01*
X147000198Y-77795235D01*
X147188556Y-77717214D01*
X147358074Y-77603946D01*
X147411961Y-77550059D01*
X147513896Y-77702616D01*
X147658059Y-77846779D01*
X147827577Y-77960047D01*
X148015935Y-78038068D01*
X148215894Y-78077842D01*
X148419772Y-78077842D01*
X148619731Y-78038068D01*
X148808089Y-77960047D01*
X148977607Y-77846779D01*
X149121770Y-77702616D01*
X149235038Y-77533098D01*
X149313059Y-77344740D01*
X149352833Y-77144781D01*
X149352833Y-76940903D01*
X149313059Y-76740944D01*
X149235038Y-76552586D01*
X149121770Y-76383068D01*
X148977607Y-76238905D01*
X148808089Y-76125637D01*
X148619731Y-76047616D01*
X148419772Y-76007842D01*
X148215894Y-76007842D01*
X148015935Y-76047616D01*
X147827577Y-76125637D01*
X147658059Y-76238905D01*
X147604172Y-76292792D01*
X147502237Y-76140235D01*
X147358074Y-75996072D01*
X147188556Y-75882804D01*
X147000198Y-75804783D01*
X146800239Y-75765009D01*
X146596361Y-75765009D01*
X146396402Y-75804783D01*
X146208044Y-75882804D01*
X146038526Y-75996072D01*
X145894363Y-76140235D01*
X145781095Y-76309753D01*
X145703074Y-76498111D01*
X145663300Y-76698070D01*
X134415878Y-76698070D01*
X134435000Y-76601939D01*
X134435000Y-76398061D01*
X134395226Y-76198102D01*
X134317205Y-76009744D01*
X134203937Y-75840226D01*
X134059774Y-75696063D01*
X133890256Y-75582795D01*
X133701898Y-75504774D01*
X133501939Y-75465000D01*
X133298061Y-75465000D01*
X133098102Y-75504774D01*
X132909744Y-75582795D01*
X132740226Y-75696063D01*
X132596063Y-75840226D01*
X132482795Y-76009744D01*
X132404774Y-76198102D01*
X132365000Y-76398061D01*
X120836348Y-76398061D01*
X120848129Y-76369620D01*
X120910000Y-76058571D01*
X120910000Y-75741429D01*
X120848129Y-75430380D01*
X120726763Y-75137379D01*
X120550569Y-74873685D01*
X120326315Y-74649431D01*
X120062621Y-74473237D01*
X119885813Y-74400000D01*
X120062621Y-74326763D01*
X120326315Y-74150569D01*
X120478823Y-73998061D01*
X136865000Y-73998061D01*
X136865000Y-74201939D01*
X136904774Y-74401898D01*
X136982795Y-74590256D01*
X137096063Y-74759774D01*
X137240226Y-74903937D01*
X137409744Y-75017205D01*
X137598102Y-75095226D01*
X137798061Y-75135000D01*
X138001939Y-75135000D01*
X138201898Y-75095226D01*
X138390256Y-75017205D01*
X138559774Y-74903937D01*
X138703937Y-74759774D01*
X138817205Y-74590256D01*
X138895226Y-74401898D01*
X138935000Y-74201939D01*
X138935000Y-73998061D01*
X138895226Y-73798102D01*
X138817205Y-73609744D01*
X138703937Y-73440226D01*
X138559774Y-73296063D01*
X138390256Y-73182795D01*
X138201898Y-73104774D01*
X138001939Y-73065000D01*
X137798061Y-73065000D01*
X137598102Y-73104774D01*
X137409744Y-73182795D01*
X137240226Y-73296063D01*
X137096063Y-73440226D01*
X136982795Y-73609744D01*
X136904774Y-73798102D01*
X136865000Y-73998061D01*
X120478823Y-73998061D01*
X120550569Y-73926315D01*
X120726763Y-73662621D01*
X120848129Y-73369620D01*
X120910000Y-73058571D01*
X120910000Y-72741429D01*
X120861592Y-72498061D01*
X143415000Y-72498061D01*
X143415000Y-72701939D01*
X143454774Y-72901898D01*
X143532795Y-73090256D01*
X143646063Y-73259774D01*
X143790226Y-73403937D01*
X143959744Y-73517205D01*
X144148102Y-73595226D01*
X144348061Y-73635000D01*
X144551939Y-73635000D01*
X144751898Y-73595226D01*
X144940256Y-73517205D01*
X145109774Y-73403937D01*
X145253937Y-73259774D01*
X145367205Y-73090256D01*
X145438531Y-72918061D01*
X156265000Y-72918061D01*
X156265000Y-73121939D01*
X156304774Y-73321898D01*
X156382795Y-73510256D01*
X156496063Y-73679774D01*
X156640226Y-73823937D01*
X156809744Y-73937205D01*
X156998102Y-74015226D01*
X157198061Y-74055000D01*
X157401939Y-74055000D01*
X157601898Y-74015226D01*
X157790256Y-73937205D01*
X157959774Y-73823937D01*
X158103937Y-73679774D01*
X158138490Y-73628061D01*
X159165000Y-73628061D01*
X159165000Y-73831939D01*
X159204774Y-74031898D01*
X159282795Y-74220256D01*
X159396063Y-74389774D01*
X159540226Y-74533937D01*
X159709744Y-74647205D01*
X159898102Y-74725226D01*
X160098061Y-74765000D01*
X160301939Y-74765000D01*
X160501898Y-74725226D01*
X160690256Y-74647205D01*
X160859774Y-74533937D01*
X161003937Y-74389774D01*
X161117205Y-74220256D01*
X161195226Y-74031898D01*
X161235000Y-73831939D01*
X161235000Y-73628061D01*
X161195226Y-73428102D01*
X161117205Y-73239744D01*
X161003937Y-73070226D01*
X160859774Y-72926063D01*
X160690256Y-72812795D01*
X160501898Y-72734774D01*
X160301939Y-72695000D01*
X160098061Y-72695000D01*
X159898102Y-72734774D01*
X159709744Y-72812795D01*
X159540226Y-72926063D01*
X159396063Y-73070226D01*
X159282795Y-73239744D01*
X159204774Y-73428102D01*
X159165000Y-73628061D01*
X158138490Y-73628061D01*
X158217205Y-73510256D01*
X158295226Y-73321898D01*
X158335000Y-73121939D01*
X158335000Y-73019088D01*
X158398102Y-73045226D01*
X158598061Y-73085000D01*
X158801939Y-73085000D01*
X159001898Y-73045226D01*
X159190256Y-72967205D01*
X159359774Y-72853937D01*
X159503937Y-72709774D01*
X159617205Y-72540256D01*
X159695226Y-72351898D01*
X159735000Y-72151939D01*
X159735000Y-71948061D01*
X159695226Y-71748102D01*
X159617205Y-71559744D01*
X159503937Y-71390226D01*
X159359774Y-71246063D01*
X159190256Y-71132795D01*
X159001898Y-71054774D01*
X158801939Y-71015000D01*
X158598061Y-71015000D01*
X158398102Y-71054774D01*
X158209744Y-71132795D01*
X158040226Y-71246063D01*
X157896063Y-71390226D01*
X157782795Y-71559744D01*
X157704774Y-71748102D01*
X157665000Y-71948061D01*
X157665000Y-72050912D01*
X157601898Y-72024774D01*
X157401939Y-71985000D01*
X157198061Y-71985000D01*
X156998102Y-72024774D01*
X156809744Y-72102795D01*
X156640226Y-72216063D01*
X156496063Y-72360226D01*
X156382795Y-72529744D01*
X156304774Y-72718102D01*
X156265000Y-72918061D01*
X145438531Y-72918061D01*
X145445226Y-72901898D01*
X145485000Y-72701939D01*
X145485000Y-72498061D01*
X145445226Y-72298102D01*
X145367205Y-72109744D01*
X145253937Y-71940226D01*
X145109774Y-71796063D01*
X145037934Y-71748061D01*
X152065000Y-71748061D01*
X152065000Y-71951939D01*
X152104774Y-72151898D01*
X152182795Y-72340256D01*
X152296063Y-72509774D01*
X152440226Y-72653937D01*
X152609744Y-72767205D01*
X152798102Y-72845226D01*
X152998061Y-72885000D01*
X153201939Y-72885000D01*
X153401898Y-72845226D01*
X153590256Y-72767205D01*
X153759774Y-72653937D01*
X153903937Y-72509774D01*
X154017205Y-72340256D01*
X154095226Y-72151898D01*
X154135000Y-71951939D01*
X154135000Y-71748061D01*
X154095226Y-71548102D01*
X154017205Y-71359744D01*
X153903937Y-71190226D01*
X153759774Y-71046063D01*
X153590256Y-70932795D01*
X153401898Y-70854774D01*
X153201939Y-70815000D01*
X152998061Y-70815000D01*
X152798102Y-70854774D01*
X152609744Y-70932795D01*
X152440226Y-71046063D01*
X152296063Y-71190226D01*
X152182795Y-71359744D01*
X152104774Y-71548102D01*
X152065000Y-71748061D01*
X145037934Y-71748061D01*
X144940256Y-71682795D01*
X144751898Y-71604774D01*
X144551939Y-71565000D01*
X144348061Y-71565000D01*
X144148102Y-71604774D01*
X143959744Y-71682795D01*
X143790226Y-71796063D01*
X143646063Y-71940226D01*
X143532795Y-72109744D01*
X143454774Y-72298102D01*
X143415000Y-72498061D01*
X120861592Y-72498061D01*
X120848129Y-72430380D01*
X120726763Y-72137379D01*
X120550569Y-71873685D01*
X120326315Y-71649431D01*
X120062621Y-71473237D01*
X119885813Y-71400000D01*
X120062621Y-71326763D01*
X120326315Y-71150569D01*
X120550569Y-70926315D01*
X120726763Y-70662621D01*
X120794926Y-70498061D01*
X130565000Y-70498061D01*
X130565000Y-70701939D01*
X130604774Y-70901898D01*
X130682795Y-71090256D01*
X130796063Y-71259774D01*
X130940226Y-71403937D01*
X131109744Y-71517205D01*
X131298102Y-71595226D01*
X131498061Y-71635000D01*
X131701939Y-71635000D01*
X131901898Y-71595226D01*
X132090256Y-71517205D01*
X132259774Y-71403937D01*
X132403937Y-71259774D01*
X132517205Y-71090256D01*
X132595226Y-70901898D01*
X132635000Y-70701939D01*
X132635000Y-70498061D01*
X132595226Y-70298102D01*
X132517205Y-70109744D01*
X132403937Y-69940226D01*
X132259774Y-69796063D01*
X132090256Y-69682795D01*
X131901898Y-69604774D01*
X131701939Y-69565000D01*
X131498061Y-69565000D01*
X131298102Y-69604774D01*
X131109744Y-69682795D01*
X130940226Y-69796063D01*
X130796063Y-69940226D01*
X130682795Y-70109744D01*
X130604774Y-70298102D01*
X130565000Y-70498061D01*
X120794926Y-70498061D01*
X120848129Y-70369620D01*
X120910000Y-70058571D01*
X120910000Y-69741429D01*
X120848129Y-69430380D01*
X120756041Y-69208061D01*
X163575000Y-69208061D01*
X163575000Y-69411939D01*
X163614774Y-69611898D01*
X163692795Y-69800256D01*
X163806063Y-69969774D01*
X163950226Y-70113937D01*
X164119744Y-70227205D01*
X164308102Y-70305226D01*
X164508061Y-70345000D01*
X164711939Y-70345000D01*
X164911898Y-70305226D01*
X165100256Y-70227205D01*
X165269774Y-70113937D01*
X165413937Y-69969774D01*
X165527205Y-69800256D01*
X165605226Y-69611898D01*
X165645000Y-69411939D01*
X165645000Y-69208061D01*
X165605226Y-69008102D01*
X165527205Y-68819744D01*
X165413937Y-68650226D01*
X165269774Y-68506063D01*
X165100256Y-68392795D01*
X164911898Y-68314774D01*
X164711939Y-68275000D01*
X164508061Y-68275000D01*
X164308102Y-68314774D01*
X164119744Y-68392795D01*
X163950226Y-68506063D01*
X163806063Y-68650226D01*
X163692795Y-68819744D01*
X163614774Y-69008102D01*
X163575000Y-69208061D01*
X120756041Y-69208061D01*
X120726763Y-69137379D01*
X120550569Y-68873685D01*
X120326315Y-68649431D01*
X120062621Y-68473237D01*
X119769620Y-68351871D01*
X119458571Y-68290000D01*
X119141429Y-68290000D01*
X118830380Y-68351871D01*
X118537379Y-68473237D01*
X118273685Y-68649431D01*
X118049431Y-68873685D01*
X117873237Y-69137379D01*
X117751871Y-69430380D01*
X117690000Y-69741429D01*
X117690000Y-70058349D01*
X117562621Y-69973237D01*
X117269620Y-69851871D01*
X116958571Y-69790000D01*
X116641429Y-69790000D01*
X116330380Y-69851871D01*
X116037379Y-69973237D01*
X115773685Y-70149431D01*
X115549431Y-70373685D01*
X115373237Y-70637379D01*
X115300000Y-70814187D01*
X115226763Y-70637379D01*
X115050569Y-70373685D01*
X114826315Y-70149431D01*
X114562621Y-69973237D01*
X114269620Y-69851871D01*
X113958571Y-69790000D01*
X113641429Y-69790000D01*
X113330380Y-69851871D01*
X113037379Y-69973237D01*
X112913072Y-70056296D01*
X112913072Y-68925000D01*
X112900812Y-68800518D01*
X112864502Y-68680820D01*
X112805537Y-68570506D01*
X112726185Y-68473815D01*
X112629494Y-68394463D01*
X112519180Y-68335498D01*
X112399482Y-68299188D01*
X112275000Y-68286928D01*
X110325000Y-68286928D01*
X110200518Y-68299188D01*
X110080820Y-68335498D01*
X109970506Y-68394463D01*
X109873815Y-68473815D01*
X109794463Y-68570506D01*
X109735498Y-68680820D01*
X109699188Y-68800518D01*
X109686928Y-68925000D01*
X108596609Y-68925000D01*
X108598224Y-68078363D01*
X115015000Y-68078363D01*
X115015000Y-68321637D01*
X115062460Y-68560236D01*
X115155557Y-68784992D01*
X115290713Y-68987267D01*
X115462733Y-69159287D01*
X115665008Y-69294443D01*
X115889764Y-69387540D01*
X116128363Y-69435000D01*
X116371637Y-69435000D01*
X116610236Y-69387540D01*
X116834992Y-69294443D01*
X117037267Y-69159287D01*
X117209287Y-68987267D01*
X117344443Y-68784992D01*
X117437540Y-68560236D01*
X117485000Y-68321637D01*
X117485000Y-68078363D01*
X117437540Y-67839764D01*
X117344443Y-67615008D01*
X117209287Y-67412733D01*
X117037267Y-67240713D01*
X116834992Y-67105557D01*
X116610236Y-67012460D01*
X116371637Y-66965000D01*
X116128363Y-66965000D01*
X115889764Y-67012460D01*
X115665008Y-67105557D01*
X115462733Y-67240713D01*
X115290713Y-67412733D01*
X115155557Y-67615008D01*
X115062460Y-67839764D01*
X115015000Y-68078363D01*
X108598224Y-68078363D01*
X108599532Y-67393564D01*
X108709744Y-67467205D01*
X108898102Y-67545226D01*
X109098061Y-67585000D01*
X109301939Y-67585000D01*
X109501898Y-67545226D01*
X109690256Y-67467205D01*
X109859774Y-67353937D01*
X110003937Y-67209774D01*
X110117205Y-67040256D01*
X110176104Y-66898061D01*
X136465000Y-66898061D01*
X136465000Y-67101939D01*
X136504774Y-67301898D01*
X136582795Y-67490256D01*
X136696063Y-67659774D01*
X136840226Y-67803937D01*
X137009744Y-67917205D01*
X137198102Y-67995226D01*
X137398061Y-68035000D01*
X137601939Y-68035000D01*
X137801898Y-67995226D01*
X137990256Y-67917205D01*
X138159774Y-67803937D01*
X138303937Y-67659774D01*
X138417205Y-67490256D01*
X138495226Y-67301898D01*
X138535000Y-67101939D01*
X138535000Y-66898061D01*
X138495226Y-66698102D01*
X138417205Y-66509744D01*
X138303937Y-66340226D01*
X138159774Y-66196063D01*
X137990256Y-66082795D01*
X137801898Y-66004774D01*
X137768150Y-65998061D01*
X144165000Y-65998061D01*
X144165000Y-66201939D01*
X144204774Y-66401898D01*
X144282795Y-66590256D01*
X144396063Y-66759774D01*
X144540226Y-66903937D01*
X144709744Y-67017205D01*
X144898102Y-67095226D01*
X145098061Y-67135000D01*
X145301939Y-67135000D01*
X145501898Y-67095226D01*
X145690256Y-67017205D01*
X145859774Y-66903937D01*
X146003937Y-66759774D01*
X146117205Y-66590256D01*
X146195226Y-66401898D01*
X146235000Y-66201939D01*
X146235000Y-65998061D01*
X146195226Y-65798102D01*
X146117205Y-65609744D01*
X146003937Y-65440226D01*
X145859774Y-65296063D01*
X145690256Y-65182795D01*
X145501898Y-65104774D01*
X145301939Y-65065000D01*
X145098061Y-65065000D01*
X144898102Y-65104774D01*
X144709744Y-65182795D01*
X144540226Y-65296063D01*
X144396063Y-65440226D01*
X144282795Y-65609744D01*
X144204774Y-65798102D01*
X144165000Y-65998061D01*
X137768150Y-65998061D01*
X137601939Y-65965000D01*
X137398061Y-65965000D01*
X137198102Y-66004774D01*
X137009744Y-66082795D01*
X136840226Y-66196063D01*
X136696063Y-66340226D01*
X136582795Y-66509744D01*
X136504774Y-66698102D01*
X136465000Y-66898061D01*
X110176104Y-66898061D01*
X110195226Y-66851898D01*
X110235000Y-66651939D01*
X110235000Y-66448061D01*
X110195226Y-66248102D01*
X110117205Y-66059744D01*
X110003937Y-65890226D01*
X109859774Y-65746063D01*
X109690256Y-65632795D01*
X109501898Y-65554774D01*
X109301939Y-65515000D01*
X109098061Y-65515000D01*
X108898102Y-65554774D01*
X108709744Y-65632795D01*
X108602756Y-65704282D01*
X108603912Y-65098061D01*
X132365000Y-65098061D01*
X132365000Y-65301939D01*
X132404774Y-65501898D01*
X132482795Y-65690256D01*
X132596063Y-65859774D01*
X132740226Y-66003937D01*
X132909744Y-66117205D01*
X133098102Y-66195226D01*
X133298061Y-66235000D01*
X133501939Y-66235000D01*
X133701898Y-66195226D01*
X133890256Y-66117205D01*
X134059774Y-66003937D01*
X134203937Y-65859774D01*
X134317205Y-65690256D01*
X134395226Y-65501898D01*
X134435000Y-65301939D01*
X134435000Y-65098061D01*
X134395226Y-64898102D01*
X134317205Y-64709744D01*
X134203937Y-64540226D01*
X134059774Y-64396063D01*
X133890256Y-64282795D01*
X133701898Y-64204774D01*
X133501939Y-64165000D01*
X133298061Y-64165000D01*
X133098102Y-64204774D01*
X132909744Y-64282795D01*
X132740226Y-64396063D01*
X132596063Y-64540226D01*
X132482795Y-64709744D01*
X132404774Y-64898102D01*
X132365000Y-65098061D01*
X108603912Y-65098061D01*
X108607729Y-63098061D01*
X129165000Y-63098061D01*
X129165000Y-63301939D01*
X129204774Y-63501898D01*
X129282795Y-63690256D01*
X129396063Y-63859774D01*
X129540226Y-64003937D01*
X129709744Y-64117205D01*
X129898102Y-64195226D01*
X130098061Y-64235000D01*
X130301939Y-64235000D01*
X130501898Y-64195226D01*
X130690256Y-64117205D01*
X130859774Y-64003937D01*
X131003937Y-63859774D01*
X131117205Y-63690256D01*
X131195226Y-63501898D01*
X131235000Y-63301939D01*
X131235000Y-63098061D01*
X131195226Y-62898102D01*
X131145629Y-62778363D01*
X137165000Y-62778363D01*
X137165000Y-63021637D01*
X137212460Y-63260236D01*
X137305557Y-63484992D01*
X137440713Y-63687267D01*
X137612733Y-63859287D01*
X137815008Y-63994443D01*
X138039764Y-64087540D01*
X138278363Y-64135000D01*
X138521637Y-64135000D01*
X138760236Y-64087540D01*
X138984992Y-63994443D01*
X139187267Y-63859287D01*
X139359287Y-63687267D01*
X139494443Y-63484992D01*
X139509740Y-63448061D01*
X142715000Y-63448061D01*
X142715000Y-63651939D01*
X142754774Y-63851898D01*
X142832795Y-64040256D01*
X142946063Y-64209774D01*
X143090226Y-64353937D01*
X143259744Y-64467205D01*
X143448102Y-64545226D01*
X143648061Y-64585000D01*
X143851939Y-64585000D01*
X144051898Y-64545226D01*
X144240256Y-64467205D01*
X144409774Y-64353937D01*
X144553937Y-64209774D01*
X144667205Y-64040256D01*
X144745226Y-63851898D01*
X144775825Y-63698061D01*
X153565000Y-63698061D01*
X153565000Y-63901939D01*
X153604774Y-64101898D01*
X153682795Y-64290256D01*
X153796063Y-64459774D01*
X153940226Y-64603937D01*
X154109744Y-64717205D01*
X154298102Y-64795226D01*
X154498061Y-64835000D01*
X154701939Y-64835000D01*
X154901898Y-64795226D01*
X155090256Y-64717205D01*
X155259774Y-64603937D01*
X155403937Y-64459774D01*
X155517205Y-64290256D01*
X155595226Y-64101898D01*
X155635000Y-63901939D01*
X155635000Y-63698061D01*
X155595226Y-63498102D01*
X155517205Y-63309744D01*
X155403937Y-63140226D01*
X155259774Y-62996063D01*
X155090256Y-62882795D01*
X154901898Y-62804774D01*
X154701939Y-62765000D01*
X154498061Y-62765000D01*
X154298102Y-62804774D01*
X154109744Y-62882795D01*
X153940226Y-62996063D01*
X153796063Y-63140226D01*
X153682795Y-63309744D01*
X153604774Y-63498102D01*
X153565000Y-63698061D01*
X144775825Y-63698061D01*
X144785000Y-63651939D01*
X144785000Y-63448061D01*
X144745226Y-63248102D01*
X144667205Y-63059744D01*
X144553937Y-62890226D01*
X144409774Y-62746063D01*
X144240256Y-62632795D01*
X144051898Y-62554774D01*
X143851939Y-62515000D01*
X143648061Y-62515000D01*
X143448102Y-62554774D01*
X143259744Y-62632795D01*
X143090226Y-62746063D01*
X142946063Y-62890226D01*
X142832795Y-63059744D01*
X142754774Y-63248102D01*
X142715000Y-63448061D01*
X139509740Y-63448061D01*
X139587540Y-63260236D01*
X139635000Y-63021637D01*
X139635000Y-62778363D01*
X139587540Y-62539764D01*
X139494443Y-62315008D01*
X139359287Y-62112733D01*
X139187267Y-61940713D01*
X138984992Y-61805557D01*
X138760236Y-61712460D01*
X138521637Y-61665000D01*
X138278363Y-61665000D01*
X138039764Y-61712460D01*
X137815008Y-61805557D01*
X137612733Y-61940713D01*
X137440713Y-62112733D01*
X137305557Y-62315008D01*
X137212460Y-62539764D01*
X137165000Y-62778363D01*
X131145629Y-62778363D01*
X131117205Y-62709744D01*
X131003937Y-62540226D01*
X130859774Y-62396063D01*
X130690256Y-62282795D01*
X130501898Y-62204774D01*
X130301939Y-62165000D01*
X130098061Y-62165000D01*
X129898102Y-62204774D01*
X129709744Y-62282795D01*
X129540226Y-62396063D01*
X129396063Y-62540226D01*
X129282795Y-62709744D01*
X129204774Y-62898102D01*
X129165000Y-63098061D01*
X108607729Y-63098061D01*
X108619752Y-56798061D01*
X111865000Y-56798061D01*
X111865000Y-57001939D01*
X111904774Y-57201898D01*
X111982795Y-57390256D01*
X112096063Y-57559774D01*
X112240226Y-57703937D01*
X112409744Y-57817205D01*
X112598102Y-57895226D01*
X112798061Y-57935000D01*
X113001939Y-57935000D01*
X113201898Y-57895226D01*
X113390256Y-57817205D01*
X113559774Y-57703937D01*
X113703937Y-57559774D01*
X113817205Y-57390256D01*
X113895226Y-57201898D01*
X113935000Y-57001939D01*
X113935000Y-56798061D01*
X113931082Y-56778363D01*
X120365000Y-56778363D01*
X120365000Y-57021637D01*
X120412460Y-57260236D01*
X120505557Y-57484992D01*
X120640713Y-57687267D01*
X120778446Y-57825000D01*
X120640713Y-57962733D01*
X120505557Y-58165008D01*
X120412460Y-58389764D01*
X120365000Y-58628363D01*
X120365000Y-58871637D01*
X120412460Y-59110236D01*
X120505557Y-59334992D01*
X120640713Y-59537267D01*
X120812733Y-59709287D01*
X121015008Y-59844443D01*
X121239764Y-59937540D01*
X121478363Y-59985000D01*
X121721637Y-59985000D01*
X121960236Y-59937540D01*
X122184992Y-59844443D01*
X122387267Y-59709287D01*
X122559287Y-59537267D01*
X122694443Y-59334992D01*
X122787540Y-59110236D01*
X122835000Y-58871637D01*
X122835000Y-58628363D01*
X122787540Y-58389764D01*
X122694443Y-58165008D01*
X122559287Y-57962733D01*
X122421554Y-57825000D01*
X122559287Y-57687267D01*
X122694443Y-57484992D01*
X122787540Y-57260236D01*
X122835000Y-57021637D01*
X122835000Y-56778363D01*
X123465000Y-56778363D01*
X123465000Y-57021637D01*
X123512460Y-57260236D01*
X123605557Y-57484992D01*
X123740713Y-57687267D01*
X123878446Y-57825000D01*
X123740713Y-57962733D01*
X123605557Y-58165008D01*
X123512460Y-58389764D01*
X123465000Y-58628363D01*
X123465000Y-58871637D01*
X123512460Y-59110236D01*
X123605557Y-59334992D01*
X123740713Y-59537267D01*
X123912733Y-59709287D01*
X124115008Y-59844443D01*
X124339764Y-59937540D01*
X124578363Y-59985000D01*
X124821637Y-59985000D01*
X125060236Y-59937540D01*
X125284992Y-59844443D01*
X125487267Y-59709287D01*
X125659287Y-59537267D01*
X125794443Y-59334992D01*
X125887540Y-59110236D01*
X125935000Y-58871637D01*
X125935000Y-58628363D01*
X125887540Y-58389764D01*
X125794443Y-58165008D01*
X125659287Y-57962733D01*
X125521554Y-57825000D01*
X125659287Y-57687267D01*
X125794443Y-57484992D01*
X125887540Y-57260236D01*
X125935000Y-57021637D01*
X125935000Y-56778363D01*
X126365000Y-56778363D01*
X126365000Y-57021637D01*
X126412460Y-57260236D01*
X126505557Y-57484992D01*
X126640713Y-57687267D01*
X126778446Y-57825000D01*
X126640713Y-57962733D01*
X126505557Y-58165008D01*
X126412460Y-58389764D01*
X126365000Y-58628363D01*
X126365000Y-58871637D01*
X126412460Y-59110236D01*
X126505557Y-59334992D01*
X126640713Y-59537267D01*
X126812733Y-59709287D01*
X127015008Y-59844443D01*
X127239764Y-59937540D01*
X127478363Y-59985000D01*
X127721637Y-59985000D01*
X127960236Y-59937540D01*
X128184992Y-59844443D01*
X128387267Y-59709287D01*
X128559287Y-59537267D01*
X128694443Y-59334992D01*
X128751161Y-59198061D01*
X144515000Y-59198061D01*
X144515000Y-59401939D01*
X144554774Y-59601898D01*
X144632795Y-59790256D01*
X144746063Y-59959774D01*
X144890226Y-60103937D01*
X145059744Y-60217205D01*
X145248102Y-60295226D01*
X145448061Y-60335000D01*
X145651939Y-60335000D01*
X145851898Y-60295226D01*
X146040256Y-60217205D01*
X146209774Y-60103937D01*
X146353937Y-59959774D01*
X146467205Y-59790256D01*
X146545226Y-59601898D01*
X146585000Y-59401939D01*
X146585000Y-59198061D01*
X146545226Y-58998102D01*
X146467205Y-58809744D01*
X146353937Y-58640226D01*
X146209774Y-58496063D01*
X146040256Y-58382795D01*
X145851898Y-58304774D01*
X145651939Y-58265000D01*
X145448061Y-58265000D01*
X145248102Y-58304774D01*
X145059744Y-58382795D01*
X144890226Y-58496063D01*
X144746063Y-58640226D01*
X144632795Y-58809744D01*
X144554774Y-58998102D01*
X144515000Y-59198061D01*
X128751161Y-59198061D01*
X128787540Y-59110236D01*
X128835000Y-58871637D01*
X128835000Y-58628363D01*
X128787540Y-58389764D01*
X128694443Y-58165008D01*
X128559287Y-57962733D01*
X128421554Y-57825000D01*
X128559287Y-57687267D01*
X128694443Y-57484992D01*
X128787540Y-57260236D01*
X128835000Y-57021637D01*
X128835000Y-56778363D01*
X128819413Y-56700000D01*
X149483662Y-56700000D01*
X149508955Y-56956805D01*
X149583862Y-57203741D01*
X149705505Y-57431318D01*
X149762631Y-57500926D01*
X149673815Y-57573815D01*
X149594463Y-57670506D01*
X149535498Y-57780820D01*
X149499188Y-57900518D01*
X149486928Y-58025000D01*
X149486928Y-59375000D01*
X149499188Y-59499482D01*
X149535498Y-59619180D01*
X149594463Y-59729494D01*
X149673815Y-59826185D01*
X149770506Y-59905537D01*
X149880820Y-59964502D01*
X150000518Y-60000812D01*
X150125000Y-60013072D01*
X151475000Y-60013072D01*
X151599482Y-60000812D01*
X151719180Y-59964502D01*
X151829494Y-59905537D01*
X151926185Y-59826185D01*
X151999074Y-59737369D01*
X152068682Y-59794495D01*
X152116327Y-59819962D01*
X152096063Y-59840226D01*
X151982795Y-60009744D01*
X151904774Y-60198102D01*
X151865000Y-60398061D01*
X151865000Y-60601939D01*
X151904774Y-60801898D01*
X151982795Y-60990256D01*
X152096063Y-61159774D01*
X152240226Y-61303937D01*
X152409744Y-61417205D01*
X152598102Y-61495226D01*
X152798061Y-61535000D01*
X153001939Y-61535000D01*
X153201898Y-61495226D01*
X153390256Y-61417205D01*
X153559774Y-61303937D01*
X153703937Y-61159774D01*
X153817205Y-60990256D01*
X153895226Y-60801898D01*
X153935000Y-60601939D01*
X153935000Y-60398061D01*
X153895226Y-60198102D01*
X153895210Y-60198061D01*
X164265000Y-60198061D01*
X164265000Y-60401939D01*
X164304774Y-60601898D01*
X164382795Y-60790256D01*
X164496063Y-60959774D01*
X164640226Y-61103937D01*
X164809744Y-61217205D01*
X164998102Y-61295226D01*
X165198061Y-61335000D01*
X165401939Y-61335000D01*
X165601898Y-61295226D01*
X165790256Y-61217205D01*
X165959774Y-61103937D01*
X166103937Y-60959774D01*
X166217205Y-60790256D01*
X166295226Y-60601898D01*
X166335000Y-60401939D01*
X166335000Y-60198061D01*
X166295226Y-59998102D01*
X166217205Y-59809744D01*
X166103937Y-59640226D01*
X165959774Y-59496063D01*
X165790256Y-59382795D01*
X165601898Y-59304774D01*
X165401939Y-59265000D01*
X165198061Y-59265000D01*
X164998102Y-59304774D01*
X164809744Y-59382795D01*
X164640226Y-59496063D01*
X164496063Y-59640226D01*
X164382795Y-59809744D01*
X164304774Y-59998102D01*
X164265000Y-60198061D01*
X153895210Y-60198061D01*
X153817205Y-60009744D01*
X153703937Y-59840226D01*
X153601011Y-59737300D01*
X153730792Y-59630792D01*
X153800000Y-59546461D01*
X153869208Y-59630792D01*
X154068682Y-59794495D01*
X154296259Y-59916138D01*
X154543195Y-59991045D01*
X154735649Y-60010000D01*
X154864351Y-60010000D01*
X155056805Y-59991045D01*
X155303741Y-59916138D01*
X155531318Y-59794495D01*
X155730792Y-59630792D01*
X155800000Y-59546461D01*
X155869208Y-59630792D01*
X156068682Y-59794495D01*
X156296259Y-59916138D01*
X156543195Y-59991045D01*
X156735649Y-60010000D01*
X156864351Y-60010000D01*
X157056805Y-59991045D01*
X157303741Y-59916138D01*
X157531318Y-59794495D01*
X157730792Y-59630792D01*
X157800000Y-59546461D01*
X157869208Y-59630792D01*
X158068682Y-59794495D01*
X158296259Y-59916138D01*
X158543195Y-59991045D01*
X158735649Y-60010000D01*
X158864351Y-60010000D01*
X159056805Y-59991045D01*
X159303741Y-59916138D01*
X159531318Y-59794495D01*
X159730792Y-59630792D01*
X159894495Y-59431318D01*
X160016138Y-59203741D01*
X160091045Y-58956805D01*
X160116338Y-58700000D01*
X160091045Y-58443195D01*
X160016138Y-58196259D01*
X159894495Y-57968682D01*
X159730792Y-57769208D01*
X159644096Y-57698059D01*
X159671227Y-57678303D01*
X159845344Y-57489537D01*
X159979289Y-57270430D01*
X160067915Y-57029401D01*
X159945085Y-56827000D01*
X158927000Y-56827000D01*
X158927000Y-56847000D01*
X158673000Y-56847000D01*
X158673000Y-56827000D01*
X158653000Y-56827000D01*
X158653000Y-56573000D01*
X158673000Y-56573000D01*
X158673000Y-55555776D01*
X158927000Y-55555776D01*
X158927000Y-56573000D01*
X159945085Y-56573000D01*
X160067915Y-56370599D01*
X159979289Y-56129570D01*
X159845344Y-55910463D01*
X159671227Y-55721697D01*
X159463629Y-55570527D01*
X159230528Y-55462762D01*
X159129400Y-55432090D01*
X158927000Y-55555776D01*
X158673000Y-55555776D01*
X158470600Y-55432090D01*
X158369472Y-55462762D01*
X158136371Y-55570527D01*
X157928773Y-55721697D01*
X157803372Y-55857648D01*
X157730792Y-55769208D01*
X157531318Y-55605505D01*
X157303741Y-55483862D01*
X157056805Y-55408955D01*
X156864351Y-55390000D01*
X156735649Y-55390000D01*
X156543195Y-55408955D01*
X156296259Y-55483862D01*
X156068682Y-55605505D01*
X155869208Y-55769208D01*
X155796628Y-55857648D01*
X155671227Y-55721697D01*
X155463629Y-55570527D01*
X155230528Y-55462762D01*
X155129400Y-55432090D01*
X154927000Y-55555776D01*
X154927000Y-56573000D01*
X154947000Y-56573000D01*
X154947000Y-56827000D01*
X154927000Y-56827000D01*
X154927000Y-56847000D01*
X154673000Y-56847000D01*
X154673000Y-56827000D01*
X154653000Y-56827000D01*
X154653000Y-56573000D01*
X154673000Y-56573000D01*
X154673000Y-55555776D01*
X154470600Y-55432090D01*
X154369472Y-55462762D01*
X154136371Y-55570527D01*
X153928773Y-55721697D01*
X153803372Y-55857648D01*
X153730792Y-55769208D01*
X153531318Y-55605505D01*
X153303741Y-55483862D01*
X153056805Y-55408955D01*
X152864351Y-55390000D01*
X152735649Y-55390000D01*
X152543195Y-55408955D01*
X152296259Y-55483862D01*
X152068682Y-55605505D01*
X151869208Y-55769208D01*
X151800000Y-55853539D01*
X151730792Y-55769208D01*
X151531318Y-55605505D01*
X151303741Y-55483862D01*
X151056805Y-55408955D01*
X150864351Y-55390000D01*
X150735649Y-55390000D01*
X150543195Y-55408955D01*
X150296259Y-55483862D01*
X150068682Y-55605505D01*
X149869208Y-55769208D01*
X149705505Y-55968682D01*
X149583862Y-56196259D01*
X149508955Y-56443195D01*
X149483662Y-56700000D01*
X128819413Y-56700000D01*
X128787540Y-56539764D01*
X128694443Y-56315008D01*
X128559287Y-56112733D01*
X128387267Y-55940713D01*
X128184992Y-55805557D01*
X127960236Y-55712460D01*
X127721637Y-55665000D01*
X127478363Y-55665000D01*
X127239764Y-55712460D01*
X127015008Y-55805557D01*
X126812733Y-55940713D01*
X126640713Y-56112733D01*
X126505557Y-56315008D01*
X126412460Y-56539764D01*
X126365000Y-56778363D01*
X125935000Y-56778363D01*
X125887540Y-56539764D01*
X125794443Y-56315008D01*
X125659287Y-56112733D01*
X125487267Y-55940713D01*
X125284992Y-55805557D01*
X125060236Y-55712460D01*
X124821637Y-55665000D01*
X124578363Y-55665000D01*
X124339764Y-55712460D01*
X124115008Y-55805557D01*
X123912733Y-55940713D01*
X123740713Y-56112733D01*
X123605557Y-56315008D01*
X123512460Y-56539764D01*
X123465000Y-56778363D01*
X122835000Y-56778363D01*
X122787540Y-56539764D01*
X122694443Y-56315008D01*
X122559287Y-56112733D01*
X122387267Y-55940713D01*
X122184992Y-55805557D01*
X121960236Y-55712460D01*
X121721637Y-55665000D01*
X121478363Y-55665000D01*
X121239764Y-55712460D01*
X121015008Y-55805557D01*
X120812733Y-55940713D01*
X120640713Y-56112733D01*
X120505557Y-56315008D01*
X120412460Y-56539764D01*
X120365000Y-56778363D01*
X113931082Y-56778363D01*
X113895226Y-56598102D01*
X113817205Y-56409744D01*
X113703937Y-56240226D01*
X113559774Y-56096063D01*
X113390256Y-55982795D01*
X113201898Y-55904774D01*
X113001939Y-55865000D01*
X112798061Y-55865000D01*
X112598102Y-55904774D01*
X112409744Y-55982795D01*
X112240226Y-56096063D01*
X112096063Y-56240226D01*
X111982795Y-56409744D01*
X111904774Y-56598102D01*
X111865000Y-56798061D01*
X108619752Y-56798061D01*
X108626758Y-53127000D01*
X112074164Y-53127000D01*
X112096063Y-53159774D01*
X112096063Y-53159774D01*
G37*
X112096063Y-53159774D02*
X112240226Y-53303937D01*
X112409744Y-53417205D01*
X112598102Y-53495226D01*
X112798061Y-53535000D01*
X113001939Y-53535000D01*
X113201898Y-53495226D01*
X113390256Y-53417205D01*
X113559774Y-53303937D01*
X113703937Y-53159774D01*
X113725836Y-53127000D01*
X146983256Y-53127000D01*
X146962733Y-53140713D01*
X146790713Y-53312733D01*
X146655557Y-53515008D01*
X146562460Y-53739764D01*
X146515000Y-53978363D01*
X146515000Y-54221637D01*
X146562460Y-54460236D01*
X146655557Y-54684992D01*
X146790713Y-54887267D01*
X146962733Y-55059287D01*
X147165008Y-55194443D01*
X147389764Y-55287540D01*
X147628363Y-55335000D01*
X147871637Y-55335000D01*
X148110236Y-55287540D01*
X148334992Y-55194443D01*
X148537267Y-55059287D01*
X148709287Y-54887267D01*
X148844443Y-54684992D01*
X148937540Y-54460236D01*
X148985000Y-54221637D01*
X148985000Y-53978363D01*
X148937540Y-53739764D01*
X148844443Y-53515008D01*
X148709287Y-53312733D01*
X148537267Y-53140713D01*
X148516744Y-53127000D01*
X172973000Y-53127000D01*
X172973000Y-55329910D01*
X172736038Y-54975271D01*
X172424729Y-54663962D01*
X172058669Y-54419369D01*
X171651925Y-54250890D01*
X171220128Y-54165000D01*
X170779872Y-54165000D01*
X170348075Y-54250890D01*
X169941331Y-54419369D01*
X169575271Y-54663962D01*
X169263962Y-54975271D01*
X169019369Y-55341331D01*
X168850890Y-55748075D01*
X168765000Y-56179872D01*
X168765000Y-56620128D01*
X168850890Y-57051925D01*
X169019369Y-57458669D01*
X169263962Y-57824729D01*
X169575271Y-58136038D01*
X169941331Y-58380631D01*
X170348075Y-58549110D01*
X170779872Y-58635000D01*
X171220128Y-58635000D01*
X171651925Y-58549110D01*
X172058669Y-58380631D01*
X172424729Y-58136038D01*
X172736038Y-57824729D01*
X172973000Y-57470090D01*
X172973000Y-68209289D01*
X172859774Y-68096063D01*
X172690256Y-67982795D01*
X172501898Y-67904774D01*
X172301939Y-67865000D01*
X172098061Y-67865000D01*
X171898102Y-67904774D01*
X171709744Y-67982795D01*
X171540226Y-68096063D01*
X171396063Y-68240226D01*
X171282795Y-68409744D01*
X171204774Y-68598102D01*
X171165000Y-68798061D01*
X171165000Y-69001939D01*
X171204774Y-69201898D01*
X171282795Y-69390256D01*
X171396063Y-69559774D01*
X171540226Y-69703937D01*
X171709744Y-69817205D01*
X171898102Y-69895226D01*
X172098061Y-69935000D01*
X172301939Y-69935000D01*
X172501898Y-69895226D01*
X172690256Y-69817205D01*
X172859774Y-69703937D01*
X172973000Y-69590711D01*
X172973000Y-74038083D01*
X172890256Y-73982795D01*
X172701898Y-73904774D01*
X172501939Y-73865000D01*
X172298061Y-73865000D01*
X172098102Y-73904774D01*
X171909744Y-73982795D01*
X171740226Y-74096063D01*
X171596063Y-74240226D01*
X171482795Y-74409744D01*
X171404774Y-74598102D01*
X171365000Y-74798061D01*
X171365000Y-75001939D01*
X171404774Y-75201898D01*
X171482795Y-75390256D01*
X171537458Y-75472065D01*
X171501939Y-75465000D01*
X171298061Y-75465000D01*
X171098102Y-75504774D01*
X170909744Y-75582795D01*
X170740226Y-75696063D01*
X170596063Y-75840226D01*
X170482795Y-76009744D01*
X170404774Y-76198102D01*
X170365000Y-76398061D01*
X170365000Y-76601939D01*
X170404774Y-76801898D01*
X170482795Y-76990256D01*
X170596063Y-77159774D01*
X170740226Y-77303937D01*
X170909744Y-77417205D01*
X171098102Y-77495226D01*
X171298061Y-77535000D01*
X171501939Y-77535000D01*
X171701898Y-77495226D01*
X171890256Y-77417205D01*
X172059774Y-77303937D01*
X172203937Y-77159774D01*
X172317205Y-76990256D01*
X172395226Y-76801898D01*
X172435000Y-76601939D01*
X172435000Y-76398061D01*
X172395226Y-76198102D01*
X172317205Y-76009744D01*
X172262542Y-75927935D01*
X172298061Y-75935000D01*
X172501939Y-75935000D01*
X172701898Y-75895226D01*
X172890256Y-75817205D01*
X172973000Y-75761917D01*
X172973000Y-100329910D01*
X172736038Y-99975271D01*
X172424729Y-99663962D01*
X172058669Y-99419369D01*
X171651925Y-99250890D01*
X171220128Y-99165000D01*
X170779872Y-99165000D01*
X170348075Y-99250890D01*
X169941331Y-99419369D01*
X169575271Y-99663962D01*
X169263962Y-99975271D01*
X169019369Y-100341331D01*
X168850890Y-100748075D01*
X168765000Y-101179872D01*
X168765000Y-101620128D01*
X168850890Y-102051925D01*
X169019369Y-102458669D01*
X169263962Y-102824729D01*
X169575271Y-103136038D01*
X169941331Y-103380631D01*
X170348075Y-103549110D01*
X170779872Y-103635000D01*
X171220128Y-103635000D01*
X171651925Y-103549110D01*
X172058669Y-103380631D01*
X172424729Y-103136038D01*
X172736038Y-102824729D01*
X172973000Y-102470090D01*
X172973000Y-105273000D01*
X152935236Y-105273000D01*
X152997205Y-105180256D01*
X153075226Y-104991898D01*
X153115000Y-104791939D01*
X153115000Y-104588061D01*
X153075226Y-104388102D01*
X152997205Y-104199744D01*
X152883937Y-104030226D01*
X152739774Y-103886063D01*
X152570256Y-103772795D01*
X152381898Y-103694774D01*
X152181939Y-103655000D01*
X151978061Y-103655000D01*
X151778102Y-103694774D01*
X151589744Y-103772795D01*
X151420226Y-103886063D01*
X151276063Y-104030226D01*
X151162795Y-104199744D01*
X151084774Y-104388102D01*
X151045000Y-104588061D01*
X151045000Y-104791939D01*
X151084774Y-104991898D01*
X151162795Y-105180256D01*
X151224764Y-105273000D01*
X149315000Y-105273000D01*
X149315000Y-105188061D01*
X149275226Y-104988102D01*
X149197205Y-104799744D01*
X149083937Y-104630226D01*
X148939774Y-104486063D01*
X148770256Y-104372795D01*
X148581898Y-104294774D01*
X148381939Y-104255000D01*
X148178061Y-104255000D01*
X147978102Y-104294774D01*
X147789744Y-104372795D01*
X147620226Y-104486063D01*
X147476063Y-104630226D01*
X147362795Y-104799744D01*
X147284774Y-104988102D01*
X147245000Y-105188061D01*
X147245000Y-105273000D01*
X108527243Y-105273000D01*
X108532461Y-102538061D01*
X145695000Y-102538061D01*
X145695000Y-102741939D01*
X145734774Y-102941898D01*
X145812795Y-103130256D01*
X145926063Y-103299774D01*
X146070226Y-103443937D01*
X146239744Y-103557205D01*
X146428102Y-103635226D01*
X146628061Y-103675000D01*
X146831939Y-103675000D01*
X147031898Y-103635226D01*
X147220256Y-103557205D01*
X147389774Y-103443937D01*
X147533937Y-103299774D01*
X147647205Y-103130256D01*
X147725226Y-102941898D01*
X147765000Y-102741939D01*
X147765000Y-102538061D01*
X147725226Y-102338102D01*
X147647205Y-102149744D01*
X147533937Y-101980226D01*
X147389774Y-101836063D01*
X147220256Y-101722795D01*
X147031898Y-101644774D01*
X146831939Y-101605000D01*
X146628061Y-101605000D01*
X146428102Y-101644774D01*
X146239744Y-101722795D01*
X146070226Y-101836063D01*
X145926063Y-101980226D01*
X145812795Y-102149744D01*
X145734774Y-102338102D01*
X145695000Y-102538061D01*
X108532461Y-102538061D01*
X108534828Y-101298061D01*
X121165000Y-101298061D01*
X121165000Y-101501939D01*
X121204774Y-101701898D01*
X121282795Y-101890256D01*
X121396063Y-102059774D01*
X121540226Y-102203937D01*
X121709744Y-102317205D01*
X121898102Y-102395226D01*
X122098061Y-102435000D01*
X122301939Y-102435000D01*
X122501898Y-102395226D01*
X122690256Y-102317205D01*
X122859774Y-102203937D01*
X123003937Y-102059774D01*
X123117205Y-101890256D01*
X123195226Y-101701898D01*
X123235000Y-101501939D01*
X123235000Y-101298061D01*
X123215109Y-101198061D01*
X144065000Y-101198061D01*
X144065000Y-101401939D01*
X144104774Y-101601898D01*
X144182795Y-101790256D01*
X144296063Y-101959774D01*
X144440226Y-102103937D01*
X144609744Y-102217205D01*
X144798102Y-102295226D01*
X144998061Y-102335000D01*
X145201939Y-102335000D01*
X145401898Y-102295226D01*
X145590256Y-102217205D01*
X145759774Y-102103937D01*
X145903937Y-101959774D01*
X146017205Y-101790256D01*
X146095226Y-101601898D01*
X146135000Y-101401939D01*
X146135000Y-101198061D01*
X146095226Y-100998102D01*
X146017205Y-100809744D01*
X145903937Y-100640226D01*
X145759774Y-100496063D01*
X145590256Y-100382795D01*
X145401898Y-100304774D01*
X145201939Y-100265000D01*
X144998061Y-100265000D01*
X144798102Y-100304774D01*
X144609744Y-100382795D01*
X144440226Y-100496063D01*
X144296063Y-100640226D01*
X144182795Y-100809744D01*
X144104774Y-100998102D01*
X144065000Y-101198061D01*
X123215109Y-101198061D01*
X123195226Y-101098102D01*
X123117205Y-100909744D01*
X123003937Y-100740226D01*
X122859774Y-100596063D01*
X122690256Y-100482795D01*
X122501898Y-100404774D01*
X122301939Y-100365000D01*
X122098061Y-100365000D01*
X121898102Y-100404774D01*
X121709744Y-100482795D01*
X121540226Y-100596063D01*
X121396063Y-100740226D01*
X121282795Y-100909744D01*
X121204774Y-101098102D01*
X121165000Y-101298061D01*
X108534828Y-101298061D01*
X108537976Y-99648061D01*
X134065000Y-99648061D01*
X134065000Y-99851939D01*
X134104774Y-100051898D01*
X134182795Y-100240256D01*
X134296063Y-100409774D01*
X134440226Y-100553937D01*
X134609744Y-100667205D01*
X134798102Y-100745226D01*
X134998061Y-100785000D01*
X135201939Y-100785000D01*
X135401898Y-100745226D01*
X135590256Y-100667205D01*
X135759774Y-100553937D01*
X135903937Y-100409774D01*
X136017205Y-100240256D01*
X136095226Y-100051898D01*
X136135000Y-99851939D01*
X136135000Y-99648061D01*
X136095226Y-99448102D01*
X136017205Y-99259744D01*
X135903937Y-99090226D01*
X135759774Y-98946063D01*
X135590256Y-98832795D01*
X135401898Y-98754774D01*
X135201939Y-98715000D01*
X134998061Y-98715000D01*
X134798102Y-98754774D01*
X134609744Y-98832795D01*
X134440226Y-98946063D01*
X134296063Y-99090226D01*
X134182795Y-99259744D01*
X134104774Y-99448102D01*
X134065000Y-99648061D01*
X108537976Y-99648061D01*
X108541889Y-97598061D01*
X127765000Y-97598061D01*
X127765000Y-97801939D01*
X127804774Y-98001898D01*
X127882795Y-98190256D01*
X127996063Y-98359774D01*
X128140226Y-98503937D01*
X128309744Y-98617205D01*
X128498102Y-98695226D01*
X128698061Y-98735000D01*
X128901939Y-98735000D01*
X129101898Y-98695226D01*
X129290256Y-98617205D01*
X129459774Y-98503937D01*
X129603937Y-98359774D01*
X129717205Y-98190256D01*
X129795226Y-98001898D01*
X129835000Y-97801939D01*
X129835000Y-97598061D01*
X129795226Y-97398102D01*
X129717205Y-97209744D01*
X129603937Y-97040226D01*
X129459774Y-96896063D01*
X129290256Y-96782795D01*
X129101898Y-96704774D01*
X128901939Y-96665000D01*
X128698061Y-96665000D01*
X128498102Y-96704774D01*
X128309744Y-96782795D01*
X128140226Y-96896063D01*
X127996063Y-97040226D01*
X127882795Y-97209744D01*
X127804774Y-97398102D01*
X127765000Y-97598061D01*
X108541889Y-97598061D01*
X108545514Y-95698061D01*
X144365000Y-95698061D01*
X144365000Y-95901939D01*
X144404774Y-96101898D01*
X144482795Y-96290256D01*
X144596063Y-96459774D01*
X144740226Y-96603937D01*
X144789232Y-96636682D01*
X144760226Y-96656063D01*
X144616063Y-96800226D01*
X144502795Y-96969744D01*
X144424774Y-97158102D01*
X144385000Y-97358061D01*
X144385000Y-97561939D01*
X144424774Y-97761898D01*
X144502795Y-97950256D01*
X144616063Y-98119774D01*
X144760226Y-98263937D01*
X144929744Y-98377205D01*
X145118102Y-98455226D01*
X145318061Y-98495000D01*
X145521939Y-98495000D01*
X145721898Y-98455226D01*
X145910256Y-98377205D01*
X146079774Y-98263937D01*
X146145650Y-98198061D01*
X153665000Y-98198061D01*
X153665000Y-98401939D01*
X153704774Y-98601898D01*
X153782795Y-98790256D01*
X153896063Y-98959774D01*
X154040226Y-99103937D01*
X154209744Y-99217205D01*
X154398102Y-99295226D01*
X154598061Y-99335000D01*
X154801939Y-99335000D01*
X155001898Y-99295226D01*
X155190256Y-99217205D01*
X155359774Y-99103937D01*
X155503937Y-98959774D01*
X155617205Y-98790256D01*
X155695226Y-98601898D01*
X155735000Y-98401939D01*
X155735000Y-98198061D01*
X155695226Y-97998102D01*
X155617205Y-97809744D01*
X155503937Y-97640226D01*
X155359774Y-97496063D01*
X155190256Y-97382795D01*
X155001898Y-97304774D01*
X154801939Y-97265000D01*
X154598061Y-97265000D01*
X154398102Y-97304774D01*
X154209744Y-97382795D01*
X154040226Y-97496063D01*
X153896063Y-97640226D01*
X153782795Y-97809744D01*
X153704774Y-97998102D01*
X153665000Y-98198061D01*
X146145650Y-98198061D01*
X146223937Y-98119774D01*
X146337205Y-97950256D01*
X146415226Y-97761898D01*
X146455000Y-97561939D01*
X146455000Y-97358061D01*
X146415226Y-97158102D01*
X146337205Y-96969744D01*
X146223937Y-96800226D01*
X146079774Y-96656063D01*
X146030768Y-96623318D01*
X146059774Y-96603937D01*
X146203937Y-96459774D01*
X146317205Y-96290256D01*
X146395226Y-96101898D01*
X146435000Y-95901939D01*
X146435000Y-95698061D01*
X146409037Y-95567536D01*
X146473399Y-95580338D01*
X146677277Y-95580338D01*
X146877236Y-95540564D01*
X147065594Y-95462543D01*
X147162098Y-95398061D01*
X169565000Y-95398061D01*
X169565000Y-95601939D01*
X169604774Y-95801898D01*
X169682795Y-95990256D01*
X169796063Y-96159774D01*
X169940226Y-96303937D01*
X170109744Y-96417205D01*
X170298102Y-96495226D01*
X170498061Y-96535000D01*
X170701939Y-96535000D01*
X170901898Y-96495226D01*
X171090256Y-96417205D01*
X171259774Y-96303937D01*
X171403937Y-96159774D01*
X171517205Y-95990256D01*
X171595226Y-95801898D01*
X171635000Y-95601939D01*
X171635000Y-95398061D01*
X171595226Y-95198102D01*
X171517205Y-95009744D01*
X171403937Y-94840226D01*
X171259774Y-94696063D01*
X171090256Y-94582795D01*
X170901898Y-94504774D01*
X170701939Y-94465000D01*
X170498061Y-94465000D01*
X170298102Y-94504774D01*
X170109744Y-94582795D01*
X169940226Y-94696063D01*
X169796063Y-94840226D01*
X169682795Y-95009744D01*
X169604774Y-95198102D01*
X169565000Y-95398061D01*
X147162098Y-95398061D01*
X147235112Y-95349275D01*
X147379275Y-95205112D01*
X147492543Y-95035594D01*
X147570564Y-94847236D01*
X147610338Y-94647277D01*
X147610338Y-94443399D01*
X147570564Y-94243440D01*
X147492543Y-94055082D01*
X147379275Y-93885564D01*
X147235112Y-93741401D01*
X147065594Y-93628133D01*
X146877236Y-93550112D01*
X146677277Y-93510338D01*
X146473399Y-93510338D01*
X146273440Y-93550112D01*
X146085082Y-93628133D01*
X145915564Y-93741401D01*
X145771401Y-93885564D01*
X145658133Y-94055082D01*
X145580112Y-94243440D01*
X145540338Y-94443399D01*
X145540338Y-94647277D01*
X145566301Y-94777802D01*
X145501939Y-94765000D01*
X145298061Y-94765000D01*
X145098102Y-94804774D01*
X144909744Y-94882795D01*
X144740226Y-94996063D01*
X144596063Y-95140226D01*
X144482795Y-95309744D01*
X144404774Y-95498102D01*
X144365000Y-95698061D01*
X108545514Y-95698061D01*
X108552576Y-91998061D01*
X126665000Y-91998061D01*
X126665000Y-92201939D01*
X126704774Y-92401898D01*
X126782795Y-92590256D01*
X126896063Y-92759774D01*
X127040226Y-92903937D01*
X127209744Y-93017205D01*
X127398102Y-93095226D01*
X127598061Y-93135000D01*
X127801939Y-93135000D01*
X128001898Y-93095226D01*
X128190256Y-93017205D01*
X128359774Y-92903937D01*
X128475650Y-92788061D01*
X151705000Y-92788061D01*
X151705000Y-92991939D01*
X151744774Y-93191898D01*
X151822795Y-93380256D01*
X151936063Y-93549774D01*
X152080226Y-93693937D01*
X152249744Y-93807205D01*
X152438102Y-93885226D01*
X152638061Y-93925000D01*
X152841939Y-93925000D01*
X153041898Y-93885226D01*
X153230256Y-93807205D01*
X153318771Y-93748061D01*
X156615000Y-93748061D01*
X156615000Y-93951939D01*
X156654774Y-94151898D01*
X156732795Y-94340256D01*
X156846063Y-94509774D01*
X156990226Y-94653937D01*
X157159744Y-94767205D01*
X157348102Y-94845226D01*
X157548061Y-94885000D01*
X157751939Y-94885000D01*
X157951898Y-94845226D01*
X158140256Y-94767205D01*
X158309774Y-94653937D01*
X158453937Y-94509774D01*
X158567205Y-94340256D01*
X158645226Y-94151898D01*
X158685000Y-93951939D01*
X158685000Y-93748061D01*
X158645226Y-93548102D01*
X158567205Y-93359744D01*
X158453937Y-93190226D01*
X158309774Y-93046063D01*
X158140256Y-92932795D01*
X157951898Y-92854774D01*
X157751939Y-92815000D01*
X157548061Y-92815000D01*
X157348102Y-92854774D01*
X157159744Y-92932795D01*
X156990226Y-93046063D01*
X156846063Y-93190226D01*
X156732795Y-93359744D01*
X156654774Y-93548102D01*
X156615000Y-93748061D01*
X153318771Y-93748061D01*
X153399774Y-93693937D01*
X153543937Y-93549774D01*
X153657205Y-93380256D01*
X153735226Y-93191898D01*
X153775000Y-92991939D01*
X153775000Y-92788061D01*
X153735226Y-92588102D01*
X153657205Y-92399744D01*
X153543937Y-92230226D01*
X153399774Y-92086063D01*
X153230256Y-91972795D01*
X153041898Y-91894774D01*
X152841939Y-91855000D01*
X152638061Y-91855000D01*
X152438102Y-91894774D01*
X152249744Y-91972795D01*
X152080226Y-92086063D01*
X151936063Y-92230226D01*
X151822795Y-92399744D01*
X151744774Y-92588102D01*
X151705000Y-92788061D01*
X128475650Y-92788061D01*
X128503937Y-92759774D01*
X128617205Y-92590256D01*
X128695226Y-92401898D01*
X128735000Y-92201939D01*
X128735000Y-91998061D01*
X128695226Y-91798102D01*
X128617205Y-91609744D01*
X128503937Y-91440226D01*
X128359774Y-91296063D01*
X128190256Y-91182795D01*
X128001898Y-91104774D01*
X127801939Y-91065000D01*
X127598061Y-91065000D01*
X127398102Y-91104774D01*
X127209744Y-91182795D01*
X127040226Y-91296063D01*
X126896063Y-91440226D01*
X126782795Y-91609744D01*
X126704774Y-91798102D01*
X126665000Y-91998061D01*
X108552576Y-91998061D01*
X108554675Y-90898061D01*
X144165000Y-90898061D01*
X144165000Y-91101939D01*
X144204774Y-91301898D01*
X144282795Y-91490256D01*
X144396063Y-91659774D01*
X144540226Y-91803937D01*
X144709744Y-91917205D01*
X144898102Y-91995226D01*
X145098061Y-92035000D01*
X145301939Y-92035000D01*
X145501898Y-91995226D01*
X145690256Y-91917205D01*
X145859774Y-91803937D01*
X146003937Y-91659774D01*
X146117205Y-91490256D01*
X146195226Y-91301898D01*
X146235000Y-91101939D01*
X146235000Y-90898061D01*
X146195226Y-90698102D01*
X146174499Y-90648061D01*
X161015000Y-90648061D01*
X161015000Y-90851939D01*
X161054774Y-91051898D01*
X161132795Y-91240256D01*
X161246063Y-91409774D01*
X161390226Y-91553937D01*
X161559744Y-91667205D01*
X161748102Y-91745226D01*
X161948061Y-91785000D01*
X162151939Y-91785000D01*
X162351898Y-91745226D01*
X162540256Y-91667205D01*
X162709774Y-91553937D01*
X162853937Y-91409774D01*
X162967205Y-91240256D01*
X163045226Y-91051898D01*
X163085000Y-90851939D01*
X163085000Y-90648061D01*
X163045226Y-90448102D01*
X162967205Y-90259744D01*
X162853937Y-90090226D01*
X162709774Y-89946063D01*
X162540256Y-89832795D01*
X162351898Y-89754774D01*
X162151939Y-89715000D01*
X161948061Y-89715000D01*
X161748102Y-89754774D01*
X161559744Y-89832795D01*
X161390226Y-89946063D01*
X161246063Y-90090226D01*
X161132795Y-90259744D01*
X161054774Y-90448102D01*
X161015000Y-90648061D01*
X146174499Y-90648061D01*
X146117205Y-90509744D01*
X146003937Y-90340226D01*
X145859774Y-90196063D01*
X145690256Y-90082795D01*
X145501898Y-90004774D01*
X145301939Y-89965000D01*
X145098061Y-89965000D01*
X144898102Y-90004774D01*
X144709744Y-90082795D01*
X144540226Y-90196063D01*
X144396063Y-90340226D01*
X144282795Y-90509744D01*
X144204774Y-90698102D01*
X144165000Y-90898061D01*
X108554675Y-90898061D01*
X108596609Y-68925000D01*
X109686928Y-68925000D01*
X109686928Y-70875000D01*
X109699188Y-70999482D01*
X109735498Y-71119180D01*
X109794463Y-71229494D01*
X109873815Y-71326185D01*
X109970506Y-71405537D01*
X110080820Y-71464502D01*
X110200518Y-71500812D01*
X110325000Y-71513072D01*
X110477761Y-71513072D01*
X110273685Y-71649431D01*
X110049431Y-71873685D01*
X109873237Y-72137379D01*
X109751871Y-72430380D01*
X109690000Y-72741429D01*
X109690000Y-73058571D01*
X109751871Y-73369620D01*
X109873237Y-73662621D01*
X110049431Y-73926315D01*
X110273685Y-74150569D01*
X110537379Y-74326763D01*
X110714187Y-74400000D01*
X110537379Y-74473237D01*
X110273685Y-74649431D01*
X110049431Y-74873685D01*
X109873237Y-75137379D01*
X109751871Y-75430380D01*
X109690000Y-75741429D01*
X109690000Y-76058571D01*
X109751871Y-76369620D01*
X109873237Y-76662621D01*
X110049431Y-76926315D01*
X110273685Y-77150569D01*
X110537379Y-77326763D01*
X110714187Y-77400000D01*
X110537379Y-77473237D01*
X110273685Y-77649431D01*
X110049431Y-77873685D01*
X109873237Y-78137379D01*
X109751871Y-78430380D01*
X109690000Y-78741429D01*
X109690000Y-79058571D01*
X109751871Y-79369620D01*
X109873237Y-79662621D01*
X110049431Y-79926315D01*
X110273685Y-80150569D01*
X110537379Y-80326763D01*
X110714187Y-80400000D01*
X110537379Y-80473237D01*
X110273685Y-80649431D01*
X110049431Y-80873685D01*
X109873237Y-81137379D01*
X109751871Y-81430380D01*
X109690000Y-81741429D01*
X109690000Y-82058571D01*
X109751871Y-82369620D01*
X109873237Y-82662621D01*
X110049431Y-82926315D01*
X110273685Y-83150569D01*
X110537379Y-83326763D01*
X110714187Y-83400000D01*
X110537379Y-83473237D01*
X110273685Y-83649431D01*
X110049431Y-83873685D01*
X109873237Y-84137379D01*
X109751871Y-84430380D01*
X109690000Y-84741429D01*
X109690000Y-85058571D01*
X109751871Y-85369620D01*
X109873237Y-85662621D01*
X110049431Y-85926315D01*
X110273685Y-86150569D01*
X110537379Y-86326763D01*
X110714187Y-86400000D01*
X110537379Y-86473237D01*
X110273685Y-86649431D01*
X110049431Y-86873685D01*
X109873237Y-87137379D01*
X109751871Y-87430380D01*
X109690000Y-87741429D01*
X109690000Y-88058571D01*
X109751871Y-88369620D01*
X109873237Y-88662621D01*
X110049431Y-88926315D01*
X110273685Y-89150569D01*
X110537379Y-89326763D01*
X110830380Y-89448129D01*
X111141429Y-89510000D01*
X111458571Y-89510000D01*
X111769620Y-89448129D01*
X112062621Y-89326763D01*
X112326315Y-89150569D01*
X112550569Y-88926315D01*
X112726763Y-88662621D01*
X112848129Y-88369620D01*
X112910000Y-88058571D01*
X112910000Y-87741651D01*
X113037379Y-87826763D01*
X113330380Y-87948129D01*
X113641429Y-88010000D01*
X113958571Y-88010000D01*
X114269620Y-87948129D01*
X114562621Y-87826763D01*
X114826315Y-87650569D01*
X115050569Y-87426315D01*
X115226763Y-87162621D01*
X115300000Y-86985813D01*
X115373237Y-87162621D01*
X115549431Y-87426315D01*
X115773685Y-87650569D01*
X116037379Y-87826763D01*
X116330380Y-87948129D01*
X116641429Y-88010000D01*
X116958571Y-88010000D01*
X117269620Y-87948129D01*
X117562621Y-87826763D01*
X117690000Y-87741651D01*
X117690000Y-88058571D01*
X117751871Y-88369620D01*
X117873237Y-88662621D01*
X118049431Y-88926315D01*
X118273685Y-89150569D01*
X118537379Y-89326763D01*
X118830380Y-89448129D01*
X119141429Y-89510000D01*
X119458571Y-89510000D01*
X119769620Y-89448129D01*
X120062621Y-89326763D01*
X120326315Y-89150569D01*
X120550569Y-88926315D01*
X120726763Y-88662621D01*
X120848129Y-88369620D01*
X120910000Y-88058571D01*
X120910000Y-87741429D01*
X120891429Y-87648061D01*
X134115000Y-87648061D01*
X134115000Y-87851939D01*
X134154774Y-88051898D01*
X134232795Y-88240256D01*
X134346063Y-88409774D01*
X134490226Y-88553937D01*
X134659744Y-88667205D01*
X134848102Y-88745226D01*
X135048061Y-88785000D01*
X135251939Y-88785000D01*
X135286823Y-88778061D01*
X148395000Y-88778061D01*
X148395000Y-88981939D01*
X148434774Y-89181898D01*
X148512795Y-89370256D01*
X148626063Y-89539774D01*
X148770226Y-89683937D01*
X148939744Y-89797205D01*
X149128102Y-89875226D01*
X149328061Y-89915000D01*
X149531939Y-89915000D01*
X149731898Y-89875226D01*
X149920256Y-89797205D01*
X150089774Y-89683937D01*
X150233937Y-89539774D01*
X150347205Y-89370256D01*
X150425226Y-89181898D01*
X150451847Y-89048061D01*
X152365000Y-89048061D01*
X152365000Y-89251939D01*
X152404774Y-89451898D01*
X152482795Y-89640256D01*
X152596063Y-89809774D01*
X152740226Y-89953937D01*
X152909744Y-90067205D01*
X153098102Y-90145226D01*
X153298061Y-90185000D01*
X153501939Y-90185000D01*
X153701898Y-90145226D01*
X153890256Y-90067205D01*
X154059774Y-89953937D01*
X154203937Y-89809774D01*
X154317205Y-89640256D01*
X154395226Y-89451898D01*
X154435000Y-89251939D01*
X154435000Y-89048061D01*
X154395226Y-88848102D01*
X154317205Y-88659744D01*
X154203937Y-88490226D01*
X154059774Y-88346063D01*
X153890256Y-88232795D01*
X153701898Y-88154774D01*
X153501939Y-88115000D01*
X153298061Y-88115000D01*
X153098102Y-88154774D01*
X152909744Y-88232795D01*
X152740226Y-88346063D01*
X152596063Y-88490226D01*
X152482795Y-88659744D01*
X152404774Y-88848102D01*
X152365000Y-89048061D01*
X150451847Y-89048061D01*
X150465000Y-88981939D01*
X150465000Y-88778061D01*
X150425226Y-88578102D01*
X150347205Y-88389744D01*
X150233937Y-88220226D01*
X150089774Y-88076063D01*
X149920256Y-87962795D01*
X149731898Y-87884774D01*
X149531939Y-87845000D01*
X149328061Y-87845000D01*
X149128102Y-87884774D01*
X148939744Y-87962795D01*
X148770226Y-88076063D01*
X148626063Y-88220226D01*
X148512795Y-88389744D01*
X148434774Y-88578102D01*
X148395000Y-88778061D01*
X135286823Y-88778061D01*
X135451898Y-88745226D01*
X135640256Y-88667205D01*
X135809774Y-88553937D01*
X135953937Y-88409774D01*
X136067205Y-88240256D01*
X136145226Y-88051898D01*
X136185000Y-87851939D01*
X136185000Y-87648061D01*
X136145226Y-87448102D01*
X136067205Y-87259744D01*
X135953937Y-87090226D01*
X135809774Y-86946063D01*
X135640256Y-86832795D01*
X135451898Y-86754774D01*
X135251939Y-86715000D01*
X135048061Y-86715000D01*
X134848102Y-86754774D01*
X134659744Y-86832795D01*
X134490226Y-86946063D01*
X134346063Y-87090226D01*
X134232795Y-87259744D01*
X134154774Y-87448102D01*
X134115000Y-87648061D01*
X120891429Y-87648061D01*
X120848129Y-87430380D01*
X120726763Y-87137379D01*
X120550569Y-86873685D01*
X120326315Y-86649431D01*
X120062621Y-86473237D01*
X119885813Y-86400000D01*
X120062621Y-86326763D01*
X120326315Y-86150569D01*
X120550569Y-85926315D01*
X120569447Y-85898061D01*
X144265000Y-85898061D01*
X144265000Y-86101939D01*
X144304774Y-86301898D01*
X144382795Y-86490256D01*
X144496063Y-86659774D01*
X144640226Y-86803937D01*
X144809744Y-86917205D01*
X144998102Y-86995226D01*
X145198061Y-87035000D01*
X145401939Y-87035000D01*
X145601898Y-86995226D01*
X145790256Y-86917205D01*
X145959774Y-86803937D01*
X146103937Y-86659774D01*
X146145172Y-86598061D01*
X150965000Y-86598061D01*
X150965000Y-86801939D01*
X151004774Y-87001898D01*
X151082795Y-87190256D01*
X151196063Y-87359774D01*
X151340226Y-87503937D01*
X151509744Y-87617205D01*
X151698102Y-87695226D01*
X151898061Y-87735000D01*
X152101939Y-87735000D01*
X152301898Y-87695226D01*
X152490256Y-87617205D01*
X152659774Y-87503937D01*
X152803937Y-87359774D01*
X152917205Y-87190256D01*
X152995226Y-87001898D01*
X153035000Y-86801939D01*
X153035000Y-86598061D01*
X153013120Y-86488061D01*
X169005000Y-86488061D01*
X169005000Y-86691939D01*
X169044774Y-86891898D01*
X169122795Y-87080256D01*
X169236063Y-87249774D01*
X169380226Y-87393937D01*
X169549744Y-87507205D01*
X169738102Y-87585226D01*
X169938061Y-87625000D01*
X170141939Y-87625000D01*
X170341898Y-87585226D01*
X170530256Y-87507205D01*
X170699774Y-87393937D01*
X170843937Y-87249774D01*
X170957205Y-87080256D01*
X171035226Y-86891898D01*
X171075000Y-86691939D01*
X171075000Y-86488061D01*
X171035226Y-86288102D01*
X170957205Y-86099744D01*
X170843937Y-85930226D01*
X170699774Y-85786063D01*
X170530256Y-85672795D01*
X170341898Y-85594774D01*
X170141939Y-85555000D01*
X169938061Y-85555000D01*
X169738102Y-85594774D01*
X169549744Y-85672795D01*
X169380226Y-85786063D01*
X169236063Y-85930226D01*
X169122795Y-86099744D01*
X169044774Y-86288102D01*
X169005000Y-86488061D01*
X153013120Y-86488061D01*
X152995226Y-86398102D01*
X152917205Y-86209744D01*
X152803937Y-86040226D01*
X152659774Y-85896063D01*
X152490256Y-85782795D01*
X152301898Y-85704774D01*
X152101939Y-85665000D01*
X151898061Y-85665000D01*
X151698102Y-85704774D01*
X151509744Y-85782795D01*
X151340226Y-85896063D01*
X151196063Y-86040226D01*
X151082795Y-86209744D01*
X151004774Y-86398102D01*
X150965000Y-86598061D01*
X146145172Y-86598061D01*
X146217205Y-86490256D01*
X146295226Y-86301898D01*
X146335000Y-86101939D01*
X146335000Y-85898061D01*
X146295226Y-85698102D01*
X146217205Y-85509744D01*
X146103937Y-85340226D01*
X145959774Y-85196063D01*
X145790256Y-85082795D01*
X145601898Y-85004774D01*
X145401939Y-84965000D01*
X145198061Y-84965000D01*
X144998102Y-85004774D01*
X144809744Y-85082795D01*
X144640226Y-85196063D01*
X144496063Y-85340226D01*
X144382795Y-85509744D01*
X144304774Y-85698102D01*
X144265000Y-85898061D01*
X120569447Y-85898061D01*
X120726763Y-85662621D01*
X120848129Y-85369620D01*
X120910000Y-85058571D01*
X120910000Y-84898061D01*
X170765000Y-84898061D01*
X170765000Y-85101939D01*
X170804774Y-85301898D01*
X170882795Y-85490256D01*
X170996063Y-85659774D01*
X171140226Y-85803937D01*
X171309744Y-85917205D01*
X171498102Y-85995226D01*
X171698061Y-86035000D01*
X171901939Y-86035000D01*
X172101898Y-85995226D01*
X172290256Y-85917205D01*
X172459774Y-85803937D01*
X172603937Y-85659774D01*
X172717205Y-85490256D01*
X172795226Y-85301898D01*
X172835000Y-85101939D01*
X172835000Y-84898061D01*
X172795226Y-84698102D01*
X172717205Y-84509744D01*
X172603937Y-84340226D01*
X172459774Y-84196063D01*
X172290256Y-84082795D01*
X172101898Y-84004774D01*
X171901939Y-83965000D01*
X171698061Y-83965000D01*
X171498102Y-84004774D01*
X171309744Y-84082795D01*
X171140226Y-84196063D01*
X170996063Y-84340226D01*
X170882795Y-84509744D01*
X170804774Y-84698102D01*
X170765000Y-84898061D01*
X120910000Y-84898061D01*
X120910000Y-84741429D01*
X120848129Y-84430380D01*
X120726763Y-84137379D01*
X120550569Y-83873685D01*
X120326315Y-83649431D01*
X120062621Y-83473237D01*
X119885813Y-83400000D01*
X120062621Y-83326763D01*
X120326315Y-83150569D01*
X120550569Y-82926315D01*
X120726763Y-82662621D01*
X120836348Y-82398061D01*
X138465000Y-82398061D01*
X138465000Y-82601939D01*
X138504774Y-82801898D01*
X138582795Y-82990256D01*
X138696063Y-83159774D01*
X138840226Y-83303937D01*
X139009744Y-83417205D01*
X139198102Y-83495226D01*
X139398061Y-83535000D01*
X139601939Y-83535000D01*
X139801898Y-83495226D01*
X139990256Y-83417205D01*
X140159774Y-83303937D01*
X140303937Y-83159774D01*
X140365217Y-83068061D01*
X152975000Y-83068061D01*
X152975000Y-83271939D01*
X153014774Y-83471898D01*
X153092795Y-83660256D01*
X153206063Y-83829774D01*
X153350226Y-83973937D01*
X153519744Y-84087205D01*
X153708102Y-84165226D01*
X153908061Y-84205000D01*
X154111939Y-84205000D01*
X154311898Y-84165226D01*
X154500256Y-84087205D01*
X154669774Y-83973937D01*
X154813937Y-83829774D01*
X154927205Y-83660256D01*
X154973678Y-83548061D01*
X161765000Y-83548061D01*
X161765000Y-83751939D01*
X161804774Y-83951898D01*
X161882795Y-84140256D01*
X161996063Y-84309774D01*
X162140226Y-84453937D01*
X162309744Y-84567205D01*
X162498102Y-84645226D01*
X162698061Y-84685000D01*
X162901939Y-84685000D01*
X163101898Y-84645226D01*
X163290256Y-84567205D01*
X163459774Y-84453937D01*
X163603937Y-84309774D01*
X163717205Y-84140256D01*
X163795226Y-83951898D01*
X163835000Y-83751939D01*
X163835000Y-83548061D01*
X163795226Y-83348102D01*
X163717205Y-83159744D01*
X163603937Y-82990226D01*
X163459774Y-82846063D01*
X163290256Y-82732795D01*
X163101898Y-82654774D01*
X162901939Y-82615000D01*
X162698061Y-82615000D01*
X162498102Y-82654774D01*
X162309744Y-82732795D01*
X162140226Y-82846063D01*
X161996063Y-82990226D01*
X161882795Y-83159744D01*
X161804774Y-83348102D01*
X161765000Y-83548061D01*
X154973678Y-83548061D01*
X155005226Y-83471898D01*
X155045000Y-83271939D01*
X155045000Y-83068061D01*
X155005226Y-82868102D01*
X154927205Y-82679744D01*
X154813937Y-82510226D01*
X154669774Y-82366063D01*
X154500256Y-82252795D01*
X154311898Y-82174774D01*
X154111939Y-82135000D01*
X153908061Y-82135000D01*
X153708102Y-82174774D01*
X153519744Y-82252795D01*
X153350226Y-82366063D01*
X153206063Y-82510226D01*
X153092795Y-82679744D01*
X153014774Y-82868102D01*
X152975000Y-83068061D01*
X140365217Y-83068061D01*
X140417205Y-82990256D01*
X140495226Y-82801898D01*
X140535000Y-82601939D01*
X140535000Y-82398061D01*
X140495226Y-82198102D01*
X140417205Y-82009744D01*
X140303937Y-81840226D01*
X140159774Y-81696063D01*
X139990256Y-81582795D01*
X139801898Y-81504774D01*
X139601939Y-81465000D01*
X139398061Y-81465000D01*
X139198102Y-81504774D01*
X139009744Y-81582795D01*
X138840226Y-81696063D01*
X138696063Y-81840226D01*
X138582795Y-82009744D01*
X138504774Y-82198102D01*
X138465000Y-82398061D01*
X120836348Y-82398061D01*
X120848129Y-82369620D01*
X120910000Y-82058571D01*
X120910000Y-81741429D01*
X120848129Y-81430380D01*
X120772610Y-81248061D01*
X129315000Y-81248061D01*
X129315000Y-81451939D01*
X129354774Y-81651898D01*
X129432795Y-81840256D01*
X129546063Y-82009774D01*
X129690226Y-82153937D01*
X129859744Y-82267205D01*
X130048102Y-82345226D01*
X130248061Y-82385000D01*
X130451939Y-82385000D01*
X130651898Y-82345226D01*
X130840256Y-82267205D01*
X131009774Y-82153937D01*
X131153937Y-82009774D01*
X131267205Y-81840256D01*
X131345226Y-81651898D01*
X131385000Y-81451939D01*
X131385000Y-81398061D01*
X165765000Y-81398061D01*
X165765000Y-81601939D01*
X165804774Y-81801898D01*
X165882795Y-81990256D01*
X165996063Y-82159774D01*
X166140226Y-82303937D01*
X166309744Y-82417205D01*
X166498102Y-82495226D01*
X166698061Y-82535000D01*
X166901939Y-82535000D01*
X167101898Y-82495226D01*
X167290256Y-82417205D01*
X167459774Y-82303937D01*
X167603937Y-82159774D01*
X167717205Y-81990256D01*
X167795226Y-81801898D01*
X167835000Y-81601939D01*
X167835000Y-81398061D01*
X167795226Y-81198102D01*
X167717205Y-81009744D01*
X167603937Y-80840226D01*
X167459774Y-80696063D01*
X167290256Y-80582795D01*
X167101898Y-80504774D01*
X166901939Y-80465000D01*
X166698061Y-80465000D01*
X166498102Y-80504774D01*
X166309744Y-80582795D01*
X166140226Y-80696063D01*
X165996063Y-80840226D01*
X165882795Y-81009744D01*
X165804774Y-81198102D01*
X165765000Y-81398061D01*
X131385000Y-81398061D01*
X131385000Y-81248061D01*
X131345226Y-81048102D01*
X131267205Y-80859744D01*
X131153937Y-80690226D01*
X131009774Y-80546063D01*
X130840256Y-80432795D01*
X130651898Y-80354774D01*
X130451939Y-80315000D01*
X130248061Y-80315000D01*
X130048102Y-80354774D01*
X129859744Y-80432795D01*
X129690226Y-80546063D01*
X129546063Y-80690226D01*
X129432795Y-80859744D01*
X129354774Y-81048102D01*
X129315000Y-81248061D01*
X120772610Y-81248061D01*
X120726763Y-81137379D01*
X120550569Y-80873685D01*
X120326315Y-80649431D01*
X120062621Y-80473237D01*
X119885813Y-80400000D01*
X120062621Y-80326763D01*
X120326315Y-80150569D01*
X120550569Y-79926315D01*
X120726763Y-79662621D01*
X120848129Y-79369620D01*
X120902145Y-79098061D01*
X131765000Y-79098061D01*
X131765000Y-79301939D01*
X131804774Y-79501898D01*
X131882795Y-79690256D01*
X131996063Y-79859774D01*
X132140226Y-80003937D01*
X132309744Y-80117205D01*
X132498102Y-80195226D01*
X132698061Y-80235000D01*
X132901939Y-80235000D01*
X133101898Y-80195226D01*
X133290256Y-80117205D01*
X133459774Y-80003937D01*
X133603937Y-79859774D01*
X133717205Y-79690256D01*
X133795226Y-79501898D01*
X133835000Y-79301939D01*
X133835000Y-79098061D01*
X133795226Y-78898102D01*
X133733077Y-78748061D01*
X137215000Y-78748061D01*
X137215000Y-78951939D01*
X137254774Y-79151898D01*
X137332795Y-79340256D01*
X137446063Y-79509774D01*
X137590226Y-79653937D01*
X137759744Y-79767205D01*
X137948102Y-79845226D01*
X138148061Y-79885000D01*
X138351939Y-79885000D01*
X138551898Y-79845226D01*
X138740256Y-79767205D01*
X138909774Y-79653937D01*
X139053937Y-79509774D01*
X139167205Y-79340256D01*
X139245226Y-79151898D01*
X139285000Y-78951939D01*
X139285000Y-78748061D01*
X139245226Y-78548102D01*
X139167205Y-78359744D01*
X139053937Y-78190226D01*
X138991772Y-78128061D01*
X153545000Y-78128061D01*
X153545000Y-78331939D01*
X153584774Y-78531898D01*
X153662795Y-78720256D01*
X153776063Y-78889774D01*
X153920226Y-79033937D01*
X154089744Y-79147205D01*
X154278102Y-79225226D01*
X154478061Y-79265000D01*
X154681939Y-79265000D01*
X154881898Y-79225226D01*
X155070256Y-79147205D01*
X155239774Y-79033937D01*
X155383937Y-78889774D01*
X155497205Y-78720256D01*
X155575226Y-78531898D01*
X155615000Y-78331939D01*
X155615000Y-78128061D01*
X155575226Y-77928102D01*
X155555724Y-77881019D01*
X155669744Y-77957205D01*
X155858102Y-78035226D01*
X156058061Y-78075000D01*
X156261939Y-78075000D01*
X156344743Y-78058529D01*
X156315000Y-78208061D01*
X156315000Y-78411939D01*
X156354774Y-78611898D01*
X156432795Y-78800256D01*
X156546063Y-78969774D01*
X156690226Y-79113937D01*
X156859744Y-79227205D01*
X157048102Y-79305226D01*
X157248061Y-79345000D01*
X157451939Y-79345000D01*
X157651898Y-79305226D01*
X157840256Y-79227205D01*
X157943737Y-79158061D01*
X162335000Y-79158061D01*
X162335000Y-79361939D01*
X162374774Y-79561898D01*
X162452795Y-79750256D01*
X162566063Y-79919774D01*
X162710226Y-80063937D01*
X162879744Y-80177205D01*
X163068102Y-80255226D01*
X163268061Y-80295000D01*
X163471939Y-80295000D01*
X163671898Y-80255226D01*
X163860256Y-80177205D01*
X164029774Y-80063937D01*
X164173937Y-79919774D01*
X164287205Y-79750256D01*
X164365226Y-79561898D01*
X164405000Y-79361939D01*
X164405000Y-79158061D01*
X164365226Y-78958102D01*
X164287205Y-78769744D01*
X164173937Y-78600226D01*
X164113711Y-78540000D01*
X164253937Y-78399774D01*
X164367205Y-78230256D01*
X164445226Y-78041898D01*
X164485000Y-77841939D01*
X164485000Y-77638061D01*
X164445226Y-77438102D01*
X164367205Y-77249744D01*
X164253937Y-77080226D01*
X164109774Y-76936063D01*
X163940256Y-76822795D01*
X163751898Y-76744774D01*
X163551939Y-76705000D01*
X163348061Y-76705000D01*
X163148102Y-76744774D01*
X162959744Y-76822795D01*
X162790226Y-76936063D01*
X162646063Y-77080226D01*
X162532795Y-77249744D01*
X162454774Y-77438102D01*
X162415000Y-77638061D01*
X162415000Y-77841939D01*
X162454774Y-78041898D01*
X162532795Y-78230256D01*
X162646063Y-78399774D01*
X162706289Y-78460000D01*
X162566063Y-78600226D01*
X162452795Y-78769744D01*
X162374774Y-78958102D01*
X162335000Y-79158061D01*
X157943737Y-79158061D01*
X158009774Y-79113937D01*
X158153937Y-78969774D01*
X158267205Y-78800256D01*
X158345226Y-78611898D01*
X158385000Y-78411939D01*
X158385000Y-78208061D01*
X158345226Y-78008102D01*
X158267205Y-77819744D01*
X158153937Y-77650226D01*
X158009774Y-77506063D01*
X157840256Y-77392795D01*
X157651898Y-77314774D01*
X157451939Y-77275000D01*
X157248061Y-77275000D01*
X157165257Y-77291471D01*
X157195000Y-77141939D01*
X157195000Y-76938061D01*
X157155226Y-76738102D01*
X157077205Y-76549744D01*
X156963937Y-76380226D01*
X156819774Y-76236063D01*
X156658138Y-76128061D01*
X167945000Y-76128061D01*
X167945000Y-76331939D01*
X167984774Y-76531898D01*
X168062795Y-76720256D01*
X168176063Y-76889774D01*
X168320226Y-77033937D01*
X168489744Y-77147205D01*
X168678102Y-77225226D01*
X168878061Y-77265000D01*
X169081939Y-77265000D01*
X169281898Y-77225226D01*
X169470256Y-77147205D01*
X169639774Y-77033937D01*
X169783937Y-76889774D01*
X169897205Y-76720256D01*
X169975226Y-76531898D01*
X170015000Y-76331939D01*
X170015000Y-76128061D01*
X169975226Y-75928102D01*
X169903721Y-75755476D01*
X170020256Y-75707205D01*
X170189774Y-75593937D01*
X170333937Y-75449774D01*
X170447205Y-75280256D01*
X170525226Y-75091898D01*
X170565000Y-74891939D01*
X170565000Y-74688061D01*
X170525226Y-74488102D01*
X170447205Y-74299744D01*
X170333937Y-74130226D01*
X170189774Y-73986063D01*
X170020256Y-73872795D01*
X169831898Y-73794774D01*
X169631939Y-73755000D01*
X169428061Y-73755000D01*
X169228102Y-73794774D01*
X169039744Y-73872795D01*
X168870226Y-73986063D01*
X168726063Y-74130226D01*
X168612795Y-74299744D01*
X168534774Y-74488102D01*
X168495000Y-74688061D01*
X168495000Y-74891939D01*
X168534774Y-75091898D01*
X168606279Y-75264524D01*
X168489744Y-75312795D01*
X168320226Y-75426063D01*
X168176063Y-75570226D01*
X168062795Y-75739744D01*
X167984774Y-75928102D01*
X167945000Y-76128061D01*
X156658138Y-76128061D01*
X156650256Y-76122795D01*
X156461898Y-76044774D01*
X156261939Y-76005000D01*
X156058061Y-76005000D01*
X155858102Y-76044774D01*
X155669744Y-76122795D01*
X155500226Y-76236063D01*
X155356063Y-76380226D01*
X155242795Y-76549744D01*
X155164774Y-76738102D01*
X155125000Y-76938061D01*
X155125000Y-77141939D01*
X155164774Y-77341898D01*
X155184276Y-77388981D01*
X155070256Y-77312795D01*
X154881898Y-77234774D01*
X154681939Y-77195000D01*
X154478061Y-77195000D01*
X154278102Y-77234774D01*
X154089744Y-77312795D01*
X153920226Y-77426063D01*
X153776063Y-77570226D01*
X153662795Y-77739744D01*
X153584774Y-77928102D01*
X153545000Y-78128061D01*
X138991772Y-78128061D01*
X138909774Y-78046063D01*
X138740256Y-77932795D01*
X138551898Y-77854774D01*
X138351939Y-77815000D01*
X138148061Y-77815000D01*
X137948102Y-77854774D01*
X137759744Y-77932795D01*
X137590226Y-78046063D01*
X137446063Y-78190226D01*
X137332795Y-78359744D01*
X137254774Y-78548102D01*
X137215000Y-78748061D01*
X133733077Y-78748061D01*
X133717205Y-78709744D01*
X133603937Y-78540226D01*
X133459774Y-78396063D01*
X133290256Y-78282795D01*
X133101898Y-78204774D01*
X132901939Y-78165000D01*
X132698061Y-78165000D01*
X132498102Y-78204774D01*
X132309744Y-78282795D01*
X132140226Y-78396063D01*
X131996063Y-78540226D01*
X131882795Y-78709744D01*
X131804774Y-78898102D01*
X131765000Y-79098061D01*
X120902145Y-79098061D01*
X120910000Y-79058571D01*
X120910000Y-78741429D01*
X120848129Y-78430380D01*
X120726763Y-78137379D01*
X120550569Y-77873685D01*
X120326315Y-77649431D01*
X120062621Y-77473237D01*
X119885813Y-77400000D01*
X120062621Y-77326763D01*
X120326315Y-77150569D01*
X120550569Y-76926315D01*
X120726763Y-76662621D01*
X120836348Y-76398061D01*
X132365000Y-76398061D01*
X132365000Y-76601939D01*
X132404774Y-76801898D01*
X132482795Y-76990256D01*
X132596063Y-77159774D01*
X132740226Y-77303937D01*
X132909744Y-77417205D01*
X133098102Y-77495226D01*
X133298061Y-77535000D01*
X133501939Y-77535000D01*
X133701898Y-77495226D01*
X133890256Y-77417205D01*
X134059774Y-77303937D01*
X134203937Y-77159774D01*
X134317205Y-76990256D01*
X134395226Y-76801898D01*
X134415878Y-76698070D01*
X145663300Y-76698070D01*
X145663300Y-76901948D01*
X145703074Y-77101907D01*
X145781095Y-77290265D01*
X145894363Y-77459783D01*
X146038526Y-77603946D01*
X146208044Y-77717214D01*
X146396402Y-77795235D01*
X146596361Y-77835009D01*
X146800239Y-77835009D01*
X147000198Y-77795235D01*
X147188556Y-77717214D01*
X147358074Y-77603946D01*
X147411961Y-77550059D01*
X147513896Y-77702616D01*
X147658059Y-77846779D01*
X147827577Y-77960047D01*
X148015935Y-78038068D01*
X148215894Y-78077842D01*
X148419772Y-78077842D01*
X148619731Y-78038068D01*
X148808089Y-77960047D01*
X148977607Y-77846779D01*
X149121770Y-77702616D01*
X149235038Y-77533098D01*
X149313059Y-77344740D01*
X149352833Y-77144781D01*
X149352833Y-76940903D01*
X149313059Y-76740944D01*
X149235038Y-76552586D01*
X149121770Y-76383068D01*
X148977607Y-76238905D01*
X148808089Y-76125637D01*
X148619731Y-76047616D01*
X148419772Y-76007842D01*
X148215894Y-76007842D01*
X148015935Y-76047616D01*
X147827577Y-76125637D01*
X147658059Y-76238905D01*
X147604172Y-76292792D01*
X147502237Y-76140235D01*
X147358074Y-75996072D01*
X147188556Y-75882804D01*
X147000198Y-75804783D01*
X146800239Y-75765009D01*
X146596361Y-75765009D01*
X146396402Y-75804783D01*
X146208044Y-75882804D01*
X146038526Y-75996072D01*
X145894363Y-76140235D01*
X145781095Y-76309753D01*
X145703074Y-76498111D01*
X145663300Y-76698070D01*
X134415878Y-76698070D01*
X134435000Y-76601939D01*
X134435000Y-76398061D01*
X134395226Y-76198102D01*
X134317205Y-76009744D01*
X134203937Y-75840226D01*
X134059774Y-75696063D01*
X133890256Y-75582795D01*
X133701898Y-75504774D01*
X133501939Y-75465000D01*
X133298061Y-75465000D01*
X133098102Y-75504774D01*
X132909744Y-75582795D01*
X132740226Y-75696063D01*
X132596063Y-75840226D01*
X132482795Y-76009744D01*
X132404774Y-76198102D01*
X132365000Y-76398061D01*
X120836348Y-76398061D01*
X120848129Y-76369620D01*
X120910000Y-76058571D01*
X120910000Y-75741429D01*
X120848129Y-75430380D01*
X120726763Y-75137379D01*
X120550569Y-74873685D01*
X120326315Y-74649431D01*
X120062621Y-74473237D01*
X119885813Y-74400000D01*
X120062621Y-74326763D01*
X120326315Y-74150569D01*
X120478823Y-73998061D01*
X136865000Y-73998061D01*
X136865000Y-74201939D01*
X136904774Y-74401898D01*
X136982795Y-74590256D01*
X137096063Y-74759774D01*
X137240226Y-74903937D01*
X137409744Y-75017205D01*
X137598102Y-75095226D01*
X137798061Y-75135000D01*
X138001939Y-75135000D01*
X138201898Y-75095226D01*
X138390256Y-75017205D01*
X138559774Y-74903937D01*
X138703937Y-74759774D01*
X138817205Y-74590256D01*
X138895226Y-74401898D01*
X138935000Y-74201939D01*
X138935000Y-73998061D01*
X138895226Y-73798102D01*
X138817205Y-73609744D01*
X138703937Y-73440226D01*
X138559774Y-73296063D01*
X138390256Y-73182795D01*
X138201898Y-73104774D01*
X138001939Y-73065000D01*
X137798061Y-73065000D01*
X137598102Y-73104774D01*
X137409744Y-73182795D01*
X137240226Y-73296063D01*
X137096063Y-73440226D01*
X136982795Y-73609744D01*
X136904774Y-73798102D01*
X136865000Y-73998061D01*
X120478823Y-73998061D01*
X120550569Y-73926315D01*
X120726763Y-73662621D01*
X120848129Y-73369620D01*
X120910000Y-73058571D01*
X120910000Y-72741429D01*
X120861592Y-72498061D01*
X143415000Y-72498061D01*
X143415000Y-72701939D01*
X143454774Y-72901898D01*
X143532795Y-73090256D01*
X143646063Y-73259774D01*
X143790226Y-73403937D01*
X143959744Y-73517205D01*
X144148102Y-73595226D01*
X144348061Y-73635000D01*
X144551939Y-73635000D01*
X144751898Y-73595226D01*
X144940256Y-73517205D01*
X145109774Y-73403937D01*
X145253937Y-73259774D01*
X145367205Y-73090256D01*
X145438531Y-72918061D01*
X156265000Y-72918061D01*
X156265000Y-73121939D01*
X156304774Y-73321898D01*
X156382795Y-73510256D01*
X156496063Y-73679774D01*
X156640226Y-73823937D01*
X156809744Y-73937205D01*
X156998102Y-74015226D01*
X157198061Y-74055000D01*
X157401939Y-74055000D01*
X157601898Y-74015226D01*
X157790256Y-73937205D01*
X157959774Y-73823937D01*
X158103937Y-73679774D01*
X158138490Y-73628061D01*
X159165000Y-73628061D01*
X159165000Y-73831939D01*
X159204774Y-74031898D01*
X159282795Y-74220256D01*
X159396063Y-74389774D01*
X159540226Y-74533937D01*
X159709744Y-74647205D01*
X159898102Y-74725226D01*
X160098061Y-74765000D01*
X160301939Y-74765000D01*
X160501898Y-74725226D01*
X160690256Y-74647205D01*
X160859774Y-74533937D01*
X161003937Y-74389774D01*
X161117205Y-74220256D01*
X161195226Y-74031898D01*
X161235000Y-73831939D01*
X161235000Y-73628061D01*
X161195226Y-73428102D01*
X161117205Y-73239744D01*
X161003937Y-73070226D01*
X160859774Y-72926063D01*
X160690256Y-72812795D01*
X160501898Y-72734774D01*
X160301939Y-72695000D01*
X160098061Y-72695000D01*
X159898102Y-72734774D01*
X159709744Y-72812795D01*
X159540226Y-72926063D01*
X159396063Y-73070226D01*
X159282795Y-73239744D01*
X159204774Y-73428102D01*
X159165000Y-73628061D01*
X158138490Y-73628061D01*
X158217205Y-73510256D01*
X158295226Y-73321898D01*
X158335000Y-73121939D01*
X158335000Y-73019088D01*
X158398102Y-73045226D01*
X158598061Y-73085000D01*
X158801939Y-73085000D01*
X159001898Y-73045226D01*
X159190256Y-72967205D01*
X159359774Y-72853937D01*
X159503937Y-72709774D01*
X159617205Y-72540256D01*
X159695226Y-72351898D01*
X159735000Y-72151939D01*
X159735000Y-71948061D01*
X159695226Y-71748102D01*
X159617205Y-71559744D01*
X159503937Y-71390226D01*
X159359774Y-71246063D01*
X159190256Y-71132795D01*
X159001898Y-71054774D01*
X158801939Y-71015000D01*
X158598061Y-71015000D01*
X158398102Y-71054774D01*
X158209744Y-71132795D01*
X158040226Y-71246063D01*
X157896063Y-71390226D01*
X157782795Y-71559744D01*
X157704774Y-71748102D01*
X157665000Y-71948061D01*
X157665000Y-72050912D01*
X157601898Y-72024774D01*
X157401939Y-71985000D01*
X157198061Y-71985000D01*
X156998102Y-72024774D01*
X156809744Y-72102795D01*
X156640226Y-72216063D01*
X156496063Y-72360226D01*
X156382795Y-72529744D01*
X156304774Y-72718102D01*
X156265000Y-72918061D01*
X145438531Y-72918061D01*
X145445226Y-72901898D01*
X145485000Y-72701939D01*
X145485000Y-72498061D01*
X145445226Y-72298102D01*
X145367205Y-72109744D01*
X145253937Y-71940226D01*
X145109774Y-71796063D01*
X145037934Y-71748061D01*
X152065000Y-71748061D01*
X152065000Y-71951939D01*
X152104774Y-72151898D01*
X152182795Y-72340256D01*
X152296063Y-72509774D01*
X152440226Y-72653937D01*
X152609744Y-72767205D01*
X152798102Y-72845226D01*
X152998061Y-72885000D01*
X153201939Y-72885000D01*
X153401898Y-72845226D01*
X153590256Y-72767205D01*
X153759774Y-72653937D01*
X153903937Y-72509774D01*
X154017205Y-72340256D01*
X154095226Y-72151898D01*
X154135000Y-71951939D01*
X154135000Y-71748061D01*
X154095226Y-71548102D01*
X154017205Y-71359744D01*
X153903937Y-71190226D01*
X153759774Y-71046063D01*
X153590256Y-70932795D01*
X153401898Y-70854774D01*
X153201939Y-70815000D01*
X152998061Y-70815000D01*
X152798102Y-70854774D01*
X152609744Y-70932795D01*
X152440226Y-71046063D01*
X152296063Y-71190226D01*
X152182795Y-71359744D01*
X152104774Y-71548102D01*
X152065000Y-71748061D01*
X145037934Y-71748061D01*
X144940256Y-71682795D01*
X144751898Y-71604774D01*
X144551939Y-71565000D01*
X144348061Y-71565000D01*
X144148102Y-71604774D01*
X143959744Y-71682795D01*
X143790226Y-71796063D01*
X143646063Y-71940226D01*
X143532795Y-72109744D01*
X143454774Y-72298102D01*
X143415000Y-72498061D01*
X120861592Y-72498061D01*
X120848129Y-72430380D01*
X120726763Y-72137379D01*
X120550569Y-71873685D01*
X120326315Y-71649431D01*
X120062621Y-71473237D01*
X119885813Y-71400000D01*
X120062621Y-71326763D01*
X120326315Y-71150569D01*
X120550569Y-70926315D01*
X120726763Y-70662621D01*
X120794926Y-70498061D01*
X130565000Y-70498061D01*
X130565000Y-70701939D01*
X130604774Y-70901898D01*
X130682795Y-71090256D01*
X130796063Y-71259774D01*
X130940226Y-71403937D01*
X131109744Y-71517205D01*
X131298102Y-71595226D01*
X131498061Y-71635000D01*
X131701939Y-71635000D01*
X131901898Y-71595226D01*
X132090256Y-71517205D01*
X132259774Y-71403937D01*
X132403937Y-71259774D01*
X132517205Y-71090256D01*
X132595226Y-70901898D01*
X132635000Y-70701939D01*
X132635000Y-70498061D01*
X132595226Y-70298102D01*
X132517205Y-70109744D01*
X132403937Y-69940226D01*
X132259774Y-69796063D01*
X132090256Y-69682795D01*
X131901898Y-69604774D01*
X131701939Y-69565000D01*
X131498061Y-69565000D01*
X131298102Y-69604774D01*
X131109744Y-69682795D01*
X130940226Y-69796063D01*
X130796063Y-69940226D01*
X130682795Y-70109744D01*
X130604774Y-70298102D01*
X130565000Y-70498061D01*
X120794926Y-70498061D01*
X120848129Y-70369620D01*
X120910000Y-70058571D01*
X120910000Y-69741429D01*
X120848129Y-69430380D01*
X120756041Y-69208061D01*
X163575000Y-69208061D01*
X163575000Y-69411939D01*
X163614774Y-69611898D01*
X163692795Y-69800256D01*
X163806063Y-69969774D01*
X163950226Y-70113937D01*
X164119744Y-70227205D01*
X164308102Y-70305226D01*
X164508061Y-70345000D01*
X164711939Y-70345000D01*
X164911898Y-70305226D01*
X165100256Y-70227205D01*
X165269774Y-70113937D01*
X165413937Y-69969774D01*
X165527205Y-69800256D01*
X165605226Y-69611898D01*
X165645000Y-69411939D01*
X165645000Y-69208061D01*
X165605226Y-69008102D01*
X165527205Y-68819744D01*
X165413937Y-68650226D01*
X165269774Y-68506063D01*
X165100256Y-68392795D01*
X164911898Y-68314774D01*
X164711939Y-68275000D01*
X164508061Y-68275000D01*
X164308102Y-68314774D01*
X164119744Y-68392795D01*
X163950226Y-68506063D01*
X163806063Y-68650226D01*
X163692795Y-68819744D01*
X163614774Y-69008102D01*
X163575000Y-69208061D01*
X120756041Y-69208061D01*
X120726763Y-69137379D01*
X120550569Y-68873685D01*
X120326315Y-68649431D01*
X120062621Y-68473237D01*
X119769620Y-68351871D01*
X119458571Y-68290000D01*
X119141429Y-68290000D01*
X118830380Y-68351871D01*
X118537379Y-68473237D01*
X118273685Y-68649431D01*
X118049431Y-68873685D01*
X117873237Y-69137379D01*
X117751871Y-69430380D01*
X117690000Y-69741429D01*
X117690000Y-70058349D01*
X117562621Y-69973237D01*
X117269620Y-69851871D01*
X116958571Y-69790000D01*
X116641429Y-69790000D01*
X116330380Y-69851871D01*
X116037379Y-69973237D01*
X115773685Y-70149431D01*
X115549431Y-70373685D01*
X115373237Y-70637379D01*
X115300000Y-70814187D01*
X115226763Y-70637379D01*
X115050569Y-70373685D01*
X114826315Y-70149431D01*
X114562621Y-69973237D01*
X114269620Y-69851871D01*
X113958571Y-69790000D01*
X113641429Y-69790000D01*
X113330380Y-69851871D01*
X113037379Y-69973237D01*
X112913072Y-70056296D01*
X112913072Y-68925000D01*
X112900812Y-68800518D01*
X112864502Y-68680820D01*
X112805537Y-68570506D01*
X112726185Y-68473815D01*
X112629494Y-68394463D01*
X112519180Y-68335498D01*
X112399482Y-68299188D01*
X112275000Y-68286928D01*
X110325000Y-68286928D01*
X110200518Y-68299188D01*
X110080820Y-68335498D01*
X109970506Y-68394463D01*
X109873815Y-68473815D01*
X109794463Y-68570506D01*
X109735498Y-68680820D01*
X109699188Y-68800518D01*
X109686928Y-68925000D01*
X108596609Y-68925000D01*
X108598224Y-68078363D01*
X115015000Y-68078363D01*
X115015000Y-68321637D01*
X115062460Y-68560236D01*
X115155557Y-68784992D01*
X115290713Y-68987267D01*
X115462733Y-69159287D01*
X115665008Y-69294443D01*
X115889764Y-69387540D01*
X116128363Y-69435000D01*
X116371637Y-69435000D01*
X116610236Y-69387540D01*
X116834992Y-69294443D01*
X117037267Y-69159287D01*
X117209287Y-68987267D01*
X117344443Y-68784992D01*
X117437540Y-68560236D01*
X117485000Y-68321637D01*
X117485000Y-68078363D01*
X117437540Y-67839764D01*
X117344443Y-67615008D01*
X117209287Y-67412733D01*
X117037267Y-67240713D01*
X116834992Y-67105557D01*
X116610236Y-67012460D01*
X116371637Y-66965000D01*
X116128363Y-66965000D01*
X115889764Y-67012460D01*
X115665008Y-67105557D01*
X115462733Y-67240713D01*
X115290713Y-67412733D01*
X115155557Y-67615008D01*
X115062460Y-67839764D01*
X115015000Y-68078363D01*
X108598224Y-68078363D01*
X108599532Y-67393564D01*
X108709744Y-67467205D01*
X108898102Y-67545226D01*
X109098061Y-67585000D01*
X109301939Y-67585000D01*
X109501898Y-67545226D01*
X109690256Y-67467205D01*
X109859774Y-67353937D01*
X110003937Y-67209774D01*
X110117205Y-67040256D01*
X110176104Y-66898061D01*
X136465000Y-66898061D01*
X136465000Y-67101939D01*
X136504774Y-67301898D01*
X136582795Y-67490256D01*
X136696063Y-67659774D01*
X136840226Y-67803937D01*
X137009744Y-67917205D01*
X137198102Y-67995226D01*
X137398061Y-68035000D01*
X137601939Y-68035000D01*
X137801898Y-67995226D01*
X137990256Y-67917205D01*
X138159774Y-67803937D01*
X138303937Y-67659774D01*
X138417205Y-67490256D01*
X138495226Y-67301898D01*
X138535000Y-67101939D01*
X138535000Y-66898061D01*
X138495226Y-66698102D01*
X138417205Y-66509744D01*
X138303937Y-66340226D01*
X138159774Y-66196063D01*
X137990256Y-66082795D01*
X137801898Y-66004774D01*
X137768150Y-65998061D01*
X144165000Y-65998061D01*
X144165000Y-66201939D01*
X144204774Y-66401898D01*
X144282795Y-66590256D01*
X144396063Y-66759774D01*
X144540226Y-66903937D01*
X144709744Y-67017205D01*
X144898102Y-67095226D01*
X145098061Y-67135000D01*
X145301939Y-67135000D01*
X145501898Y-67095226D01*
X145690256Y-67017205D01*
X145859774Y-66903937D01*
X146003937Y-66759774D01*
X146117205Y-66590256D01*
X146195226Y-66401898D01*
X146235000Y-66201939D01*
X146235000Y-65998061D01*
X146195226Y-65798102D01*
X146117205Y-65609744D01*
X146003937Y-65440226D01*
X145859774Y-65296063D01*
X145690256Y-65182795D01*
X145501898Y-65104774D01*
X145301939Y-65065000D01*
X145098061Y-65065000D01*
X144898102Y-65104774D01*
X144709744Y-65182795D01*
X144540226Y-65296063D01*
X144396063Y-65440226D01*
X144282795Y-65609744D01*
X144204774Y-65798102D01*
X144165000Y-65998061D01*
X137768150Y-65998061D01*
X137601939Y-65965000D01*
X137398061Y-65965000D01*
X137198102Y-66004774D01*
X137009744Y-66082795D01*
X136840226Y-66196063D01*
X136696063Y-66340226D01*
X136582795Y-66509744D01*
X136504774Y-66698102D01*
X136465000Y-66898061D01*
X110176104Y-66898061D01*
X110195226Y-66851898D01*
X110235000Y-66651939D01*
X110235000Y-66448061D01*
X110195226Y-66248102D01*
X110117205Y-66059744D01*
X110003937Y-65890226D01*
X109859774Y-65746063D01*
X109690256Y-65632795D01*
X109501898Y-65554774D01*
X109301939Y-65515000D01*
X109098061Y-65515000D01*
X108898102Y-65554774D01*
X108709744Y-65632795D01*
X108602756Y-65704282D01*
X108603912Y-65098061D01*
X132365000Y-65098061D01*
X132365000Y-65301939D01*
X132404774Y-65501898D01*
X132482795Y-65690256D01*
X132596063Y-65859774D01*
X132740226Y-66003937D01*
X132909744Y-66117205D01*
X133098102Y-66195226D01*
X133298061Y-66235000D01*
X133501939Y-66235000D01*
X133701898Y-66195226D01*
X133890256Y-66117205D01*
X134059774Y-66003937D01*
X134203937Y-65859774D01*
X134317205Y-65690256D01*
X134395226Y-65501898D01*
X134435000Y-65301939D01*
X134435000Y-65098061D01*
X134395226Y-64898102D01*
X134317205Y-64709744D01*
X134203937Y-64540226D01*
X134059774Y-64396063D01*
X133890256Y-64282795D01*
X133701898Y-64204774D01*
X133501939Y-64165000D01*
X133298061Y-64165000D01*
X133098102Y-64204774D01*
X132909744Y-64282795D01*
X132740226Y-64396063D01*
X132596063Y-64540226D01*
X132482795Y-64709744D01*
X132404774Y-64898102D01*
X132365000Y-65098061D01*
X108603912Y-65098061D01*
X108607729Y-63098061D01*
X129165000Y-63098061D01*
X129165000Y-63301939D01*
X129204774Y-63501898D01*
X129282795Y-63690256D01*
X129396063Y-63859774D01*
X129540226Y-64003937D01*
X129709744Y-64117205D01*
X129898102Y-64195226D01*
X130098061Y-64235000D01*
X130301939Y-64235000D01*
X130501898Y-64195226D01*
X130690256Y-64117205D01*
X130859774Y-64003937D01*
X131003937Y-63859774D01*
X131117205Y-63690256D01*
X131195226Y-63501898D01*
X131235000Y-63301939D01*
X131235000Y-63098061D01*
X131195226Y-62898102D01*
X131145629Y-62778363D01*
X137165000Y-62778363D01*
X137165000Y-63021637D01*
X137212460Y-63260236D01*
X137305557Y-63484992D01*
X137440713Y-63687267D01*
X137612733Y-63859287D01*
X137815008Y-63994443D01*
X138039764Y-64087540D01*
X138278363Y-64135000D01*
X138521637Y-64135000D01*
X138760236Y-64087540D01*
X138984992Y-63994443D01*
X139187267Y-63859287D01*
X139359287Y-63687267D01*
X139494443Y-63484992D01*
X139509740Y-63448061D01*
X142715000Y-63448061D01*
X142715000Y-63651939D01*
X142754774Y-63851898D01*
X142832795Y-64040256D01*
X142946063Y-64209774D01*
X143090226Y-64353937D01*
X143259744Y-64467205D01*
X143448102Y-64545226D01*
X143648061Y-64585000D01*
X143851939Y-64585000D01*
X144051898Y-64545226D01*
X144240256Y-64467205D01*
X144409774Y-64353937D01*
X144553937Y-64209774D01*
X144667205Y-64040256D01*
X144745226Y-63851898D01*
X144775825Y-63698061D01*
X153565000Y-63698061D01*
X153565000Y-63901939D01*
X153604774Y-64101898D01*
X153682795Y-64290256D01*
X153796063Y-64459774D01*
X153940226Y-64603937D01*
X154109744Y-64717205D01*
X154298102Y-64795226D01*
X154498061Y-64835000D01*
X154701939Y-64835000D01*
X154901898Y-64795226D01*
X155090256Y-64717205D01*
X155259774Y-64603937D01*
X155403937Y-64459774D01*
X155517205Y-64290256D01*
X155595226Y-64101898D01*
X155635000Y-63901939D01*
X155635000Y-63698061D01*
X155595226Y-63498102D01*
X155517205Y-63309744D01*
X155403937Y-63140226D01*
X155259774Y-62996063D01*
X155090256Y-62882795D01*
X154901898Y-62804774D01*
X154701939Y-62765000D01*
X154498061Y-62765000D01*
X154298102Y-62804774D01*
X154109744Y-62882795D01*
X153940226Y-62996063D01*
X153796063Y-63140226D01*
X153682795Y-63309744D01*
X153604774Y-63498102D01*
X153565000Y-63698061D01*
X144775825Y-63698061D01*
X144785000Y-63651939D01*
X144785000Y-63448061D01*
X144745226Y-63248102D01*
X144667205Y-63059744D01*
X144553937Y-62890226D01*
X144409774Y-62746063D01*
X144240256Y-62632795D01*
X144051898Y-62554774D01*
X143851939Y-62515000D01*
X143648061Y-62515000D01*
X143448102Y-62554774D01*
X143259744Y-62632795D01*
X143090226Y-62746063D01*
X142946063Y-62890226D01*
X142832795Y-63059744D01*
X142754774Y-63248102D01*
X142715000Y-63448061D01*
X139509740Y-63448061D01*
X139587540Y-63260236D01*
X139635000Y-63021637D01*
X139635000Y-62778363D01*
X139587540Y-62539764D01*
X139494443Y-62315008D01*
X139359287Y-62112733D01*
X139187267Y-61940713D01*
X138984992Y-61805557D01*
X138760236Y-61712460D01*
X138521637Y-61665000D01*
X138278363Y-61665000D01*
X138039764Y-61712460D01*
X137815008Y-61805557D01*
X137612733Y-61940713D01*
X137440713Y-62112733D01*
X137305557Y-62315008D01*
X137212460Y-62539764D01*
X137165000Y-62778363D01*
X131145629Y-62778363D01*
X131117205Y-62709744D01*
X131003937Y-62540226D01*
X130859774Y-62396063D01*
X130690256Y-62282795D01*
X130501898Y-62204774D01*
X130301939Y-62165000D01*
X130098061Y-62165000D01*
X129898102Y-62204774D01*
X129709744Y-62282795D01*
X129540226Y-62396063D01*
X129396063Y-62540226D01*
X129282795Y-62709744D01*
X129204774Y-62898102D01*
X129165000Y-63098061D01*
X108607729Y-63098061D01*
X108619752Y-56798061D01*
X111865000Y-56798061D01*
X111865000Y-57001939D01*
X111904774Y-57201898D01*
X111982795Y-57390256D01*
X112096063Y-57559774D01*
X112240226Y-57703937D01*
X112409744Y-57817205D01*
X112598102Y-57895226D01*
X112798061Y-57935000D01*
X113001939Y-57935000D01*
X113201898Y-57895226D01*
X113390256Y-57817205D01*
X113559774Y-57703937D01*
X113703937Y-57559774D01*
X113817205Y-57390256D01*
X113895226Y-57201898D01*
X113935000Y-57001939D01*
X113935000Y-56798061D01*
X113931082Y-56778363D01*
X120365000Y-56778363D01*
X120365000Y-57021637D01*
X120412460Y-57260236D01*
X120505557Y-57484992D01*
X120640713Y-57687267D01*
X120778446Y-57825000D01*
X120640713Y-57962733D01*
X120505557Y-58165008D01*
X120412460Y-58389764D01*
X120365000Y-58628363D01*
X120365000Y-58871637D01*
X120412460Y-59110236D01*
X120505557Y-59334992D01*
X120640713Y-59537267D01*
X120812733Y-59709287D01*
X121015008Y-59844443D01*
X121239764Y-59937540D01*
X121478363Y-59985000D01*
X121721637Y-59985000D01*
X121960236Y-59937540D01*
X122184992Y-59844443D01*
X122387267Y-59709287D01*
X122559287Y-59537267D01*
X122694443Y-59334992D01*
X122787540Y-59110236D01*
X122835000Y-58871637D01*
X122835000Y-58628363D01*
X122787540Y-58389764D01*
X122694443Y-58165008D01*
X122559287Y-57962733D01*
X122421554Y-57825000D01*
X122559287Y-57687267D01*
X122694443Y-57484992D01*
X122787540Y-57260236D01*
X122835000Y-57021637D01*
X122835000Y-56778363D01*
X123465000Y-56778363D01*
X123465000Y-57021637D01*
X123512460Y-57260236D01*
X123605557Y-57484992D01*
X123740713Y-57687267D01*
X123878446Y-57825000D01*
X123740713Y-57962733D01*
X123605557Y-58165008D01*
X123512460Y-58389764D01*
X123465000Y-58628363D01*
X123465000Y-58871637D01*
X123512460Y-59110236D01*
X123605557Y-59334992D01*
X123740713Y-59537267D01*
X123912733Y-59709287D01*
X124115008Y-59844443D01*
X124339764Y-59937540D01*
X124578363Y-59985000D01*
X124821637Y-59985000D01*
X125060236Y-59937540D01*
X125284992Y-59844443D01*
X125487267Y-59709287D01*
X125659287Y-59537267D01*
X125794443Y-59334992D01*
X125887540Y-59110236D01*
X125935000Y-58871637D01*
X125935000Y-58628363D01*
X125887540Y-58389764D01*
X125794443Y-58165008D01*
X125659287Y-57962733D01*
X125521554Y-57825000D01*
X125659287Y-57687267D01*
X125794443Y-57484992D01*
X125887540Y-57260236D01*
X125935000Y-57021637D01*
X125935000Y-56778363D01*
X126365000Y-56778363D01*
X126365000Y-57021637D01*
X126412460Y-57260236D01*
X126505557Y-57484992D01*
X126640713Y-57687267D01*
X126778446Y-57825000D01*
X126640713Y-57962733D01*
X126505557Y-58165008D01*
X126412460Y-58389764D01*
X126365000Y-58628363D01*
X126365000Y-58871637D01*
X126412460Y-59110236D01*
X126505557Y-59334992D01*
X126640713Y-59537267D01*
X126812733Y-59709287D01*
X127015008Y-59844443D01*
X127239764Y-59937540D01*
X127478363Y-59985000D01*
X127721637Y-59985000D01*
X127960236Y-59937540D01*
X128184992Y-59844443D01*
X128387267Y-59709287D01*
X128559287Y-59537267D01*
X128694443Y-59334992D01*
X128751161Y-59198061D01*
X144515000Y-59198061D01*
X144515000Y-59401939D01*
X144554774Y-59601898D01*
X144632795Y-59790256D01*
X144746063Y-59959774D01*
X144890226Y-60103937D01*
X145059744Y-60217205D01*
X145248102Y-60295226D01*
X145448061Y-60335000D01*
X145651939Y-60335000D01*
X145851898Y-60295226D01*
X146040256Y-60217205D01*
X146209774Y-60103937D01*
X146353937Y-59959774D01*
X146467205Y-59790256D01*
X146545226Y-59601898D01*
X146585000Y-59401939D01*
X146585000Y-59198061D01*
X146545226Y-58998102D01*
X146467205Y-58809744D01*
X146353937Y-58640226D01*
X146209774Y-58496063D01*
X146040256Y-58382795D01*
X145851898Y-58304774D01*
X145651939Y-58265000D01*
X145448061Y-58265000D01*
X145248102Y-58304774D01*
X145059744Y-58382795D01*
X144890226Y-58496063D01*
X144746063Y-58640226D01*
X144632795Y-58809744D01*
X144554774Y-58998102D01*
X144515000Y-59198061D01*
X128751161Y-59198061D01*
X128787540Y-59110236D01*
X128835000Y-58871637D01*
X128835000Y-58628363D01*
X128787540Y-58389764D01*
X128694443Y-58165008D01*
X128559287Y-57962733D01*
X128421554Y-57825000D01*
X128559287Y-57687267D01*
X128694443Y-57484992D01*
X128787540Y-57260236D01*
X128835000Y-57021637D01*
X128835000Y-56778363D01*
X128819413Y-56700000D01*
X149483662Y-56700000D01*
X149508955Y-56956805D01*
X149583862Y-57203741D01*
X149705505Y-57431318D01*
X149762631Y-57500926D01*
X149673815Y-57573815D01*
X149594463Y-57670506D01*
X149535498Y-57780820D01*
X149499188Y-57900518D01*
X149486928Y-58025000D01*
X149486928Y-59375000D01*
X149499188Y-59499482D01*
X149535498Y-59619180D01*
X149594463Y-59729494D01*
X149673815Y-59826185D01*
X149770506Y-59905537D01*
X149880820Y-59964502D01*
X150000518Y-60000812D01*
X150125000Y-60013072D01*
X151475000Y-60013072D01*
X151599482Y-60000812D01*
X151719180Y-59964502D01*
X151829494Y-59905537D01*
X151926185Y-59826185D01*
X151999074Y-59737369D01*
X152068682Y-59794495D01*
X152116327Y-59819962D01*
X152096063Y-59840226D01*
X151982795Y-60009744D01*
X151904774Y-60198102D01*
X151865000Y-60398061D01*
X151865000Y-60601939D01*
X151904774Y-60801898D01*
X151982795Y-60990256D01*
X152096063Y-61159774D01*
X152240226Y-61303937D01*
X152409744Y-61417205D01*
X152598102Y-61495226D01*
X152798061Y-61535000D01*
X153001939Y-61535000D01*
X153201898Y-61495226D01*
X153390256Y-61417205D01*
X153559774Y-61303937D01*
X153703937Y-61159774D01*
X153817205Y-60990256D01*
X153895226Y-60801898D01*
X153935000Y-60601939D01*
X153935000Y-60398061D01*
X153895226Y-60198102D01*
X153895210Y-60198061D01*
X164265000Y-60198061D01*
X164265000Y-60401939D01*
X164304774Y-60601898D01*
X164382795Y-60790256D01*
X164496063Y-60959774D01*
X164640226Y-61103937D01*
X164809744Y-61217205D01*
X164998102Y-61295226D01*
X165198061Y-61335000D01*
X165401939Y-61335000D01*
X165601898Y-61295226D01*
X165790256Y-61217205D01*
X165959774Y-61103937D01*
X166103937Y-60959774D01*
X166217205Y-60790256D01*
X166295226Y-60601898D01*
X166335000Y-60401939D01*
X166335000Y-60198061D01*
X166295226Y-59998102D01*
X166217205Y-59809744D01*
X166103937Y-59640226D01*
X165959774Y-59496063D01*
X165790256Y-59382795D01*
X165601898Y-59304774D01*
X165401939Y-59265000D01*
X165198061Y-59265000D01*
X164998102Y-59304774D01*
X164809744Y-59382795D01*
X164640226Y-59496063D01*
X164496063Y-59640226D01*
X164382795Y-59809744D01*
X164304774Y-59998102D01*
X164265000Y-60198061D01*
X153895210Y-60198061D01*
X153817205Y-60009744D01*
X153703937Y-59840226D01*
X153601011Y-59737300D01*
X153730792Y-59630792D01*
X153800000Y-59546461D01*
X153869208Y-59630792D01*
X154068682Y-59794495D01*
X154296259Y-59916138D01*
X154543195Y-59991045D01*
X154735649Y-60010000D01*
X154864351Y-60010000D01*
X155056805Y-59991045D01*
X155303741Y-59916138D01*
X155531318Y-59794495D01*
X155730792Y-59630792D01*
X155800000Y-59546461D01*
X155869208Y-59630792D01*
X156068682Y-59794495D01*
X156296259Y-59916138D01*
X156543195Y-59991045D01*
X156735649Y-60010000D01*
X156864351Y-60010000D01*
X157056805Y-59991045D01*
X157303741Y-59916138D01*
X157531318Y-59794495D01*
X157730792Y-59630792D01*
X157800000Y-59546461D01*
X157869208Y-59630792D01*
X158068682Y-59794495D01*
X158296259Y-59916138D01*
X158543195Y-59991045D01*
X158735649Y-60010000D01*
X158864351Y-60010000D01*
X159056805Y-59991045D01*
X159303741Y-59916138D01*
X159531318Y-59794495D01*
X159730792Y-59630792D01*
X159894495Y-59431318D01*
X160016138Y-59203741D01*
X160091045Y-58956805D01*
X160116338Y-58700000D01*
X160091045Y-58443195D01*
X160016138Y-58196259D01*
X159894495Y-57968682D01*
X159730792Y-57769208D01*
X159644096Y-57698059D01*
X159671227Y-57678303D01*
X159845344Y-57489537D01*
X159979289Y-57270430D01*
X160067915Y-57029401D01*
X159945085Y-56827000D01*
X158927000Y-56827000D01*
X158927000Y-56847000D01*
X158673000Y-56847000D01*
X158673000Y-56827000D01*
X158653000Y-56827000D01*
X158653000Y-56573000D01*
X158673000Y-56573000D01*
X158673000Y-55555776D01*
X158927000Y-55555776D01*
X158927000Y-56573000D01*
X159945085Y-56573000D01*
X160067915Y-56370599D01*
X159979289Y-56129570D01*
X159845344Y-55910463D01*
X159671227Y-55721697D01*
X159463629Y-55570527D01*
X159230528Y-55462762D01*
X159129400Y-55432090D01*
X158927000Y-55555776D01*
X158673000Y-55555776D01*
X158470600Y-55432090D01*
X158369472Y-55462762D01*
X158136371Y-55570527D01*
X157928773Y-55721697D01*
X157803372Y-55857648D01*
X157730792Y-55769208D01*
X157531318Y-55605505D01*
X157303741Y-55483862D01*
X157056805Y-55408955D01*
X156864351Y-55390000D01*
X156735649Y-55390000D01*
X156543195Y-55408955D01*
X156296259Y-55483862D01*
X156068682Y-55605505D01*
X155869208Y-55769208D01*
X155796628Y-55857648D01*
X155671227Y-55721697D01*
X155463629Y-55570527D01*
X155230528Y-55462762D01*
X155129400Y-55432090D01*
X154927000Y-55555776D01*
X154927000Y-56573000D01*
X154947000Y-56573000D01*
X154947000Y-56827000D01*
X154927000Y-56827000D01*
X154927000Y-56847000D01*
X154673000Y-56847000D01*
X154673000Y-56827000D01*
X154653000Y-56827000D01*
X154653000Y-56573000D01*
X154673000Y-56573000D01*
X154673000Y-55555776D01*
X154470600Y-55432090D01*
X154369472Y-55462762D01*
X154136371Y-55570527D01*
X153928773Y-55721697D01*
X153803372Y-55857648D01*
X153730792Y-55769208D01*
X153531318Y-55605505D01*
X153303741Y-55483862D01*
X153056805Y-55408955D01*
X152864351Y-55390000D01*
X152735649Y-55390000D01*
X152543195Y-55408955D01*
X152296259Y-55483862D01*
X152068682Y-55605505D01*
X151869208Y-55769208D01*
X151800000Y-55853539D01*
X151730792Y-55769208D01*
X151531318Y-55605505D01*
X151303741Y-55483862D01*
X151056805Y-55408955D01*
X150864351Y-55390000D01*
X150735649Y-55390000D01*
X150543195Y-55408955D01*
X150296259Y-55483862D01*
X150068682Y-55605505D01*
X149869208Y-55769208D01*
X149705505Y-55968682D01*
X149583862Y-56196259D01*
X149508955Y-56443195D01*
X149483662Y-56700000D01*
X128819413Y-56700000D01*
X128787540Y-56539764D01*
X128694443Y-56315008D01*
X128559287Y-56112733D01*
X128387267Y-55940713D01*
X128184992Y-55805557D01*
X127960236Y-55712460D01*
X127721637Y-55665000D01*
X127478363Y-55665000D01*
X127239764Y-55712460D01*
X127015008Y-55805557D01*
X126812733Y-55940713D01*
X126640713Y-56112733D01*
X126505557Y-56315008D01*
X126412460Y-56539764D01*
X126365000Y-56778363D01*
X125935000Y-56778363D01*
X125887540Y-56539764D01*
X125794443Y-56315008D01*
X125659287Y-56112733D01*
X125487267Y-55940713D01*
X125284992Y-55805557D01*
X125060236Y-55712460D01*
X124821637Y-55665000D01*
X124578363Y-55665000D01*
X124339764Y-55712460D01*
X124115008Y-55805557D01*
X123912733Y-55940713D01*
X123740713Y-56112733D01*
X123605557Y-56315008D01*
X123512460Y-56539764D01*
X123465000Y-56778363D01*
X122835000Y-56778363D01*
X122787540Y-56539764D01*
X122694443Y-56315008D01*
X122559287Y-56112733D01*
X122387267Y-55940713D01*
X122184992Y-55805557D01*
X121960236Y-55712460D01*
X121721637Y-55665000D01*
X121478363Y-55665000D01*
X121239764Y-55712460D01*
X121015008Y-55805557D01*
X120812733Y-55940713D01*
X120640713Y-56112733D01*
X120505557Y-56315008D01*
X120412460Y-56539764D01*
X120365000Y-56778363D01*
X113931082Y-56778363D01*
X113895226Y-56598102D01*
X113817205Y-56409744D01*
X113703937Y-56240226D01*
X113559774Y-56096063D01*
X113390256Y-55982795D01*
X113201898Y-55904774D01*
X113001939Y-55865000D01*
X112798061Y-55865000D01*
X112598102Y-55904774D01*
X112409744Y-55982795D01*
X112240226Y-56096063D01*
X112096063Y-56240226D01*
X111982795Y-56409744D01*
X111904774Y-56598102D01*
X111865000Y-56798061D01*
X108619752Y-56798061D01*
X108626758Y-53127000D01*
X112074164Y-53127000D01*
X112096063Y-53159774D01*
M02*
