G04 #@! TF.GenerationSoftware,KiCad,Pcbnew,(5.1.2-1)-1*
G04 #@! TF.CreationDate,2019-06-03T10:07:55+02:00*
G04 #@! TF.ProjectId,Dash,44617368-2e6b-4696-9361-645f70636258,rev?*
G04 #@! TF.SameCoordinates,Original*
G04 #@! TF.FileFunction,Soldermask,Bot*
G04 #@! TF.FilePolarity,Negative*
%FSLAX46Y46*%
G04 Gerber Fmt 4.6, Leading zero omitted, Abs format (unit mm)*
G04 Created by KiCad (PCBNEW (5.1.2-1)-1) date 2019-06-03 10:07:55*
%MOMM*%
%LPD*%
G04 APERTURE LIST*
%ADD10C,0.100000*%
G04 APERTURE END LIST*
D10*
G36*
X171375256Y-99791298D02*
G01*
X171481579Y-99812447D01*
X171782042Y-99936903D01*
X172052451Y-100117585D01*
X172282415Y-100347549D01*
X172463097Y-100617958D01*
X172587553Y-100918421D01*
X172651000Y-101237391D01*
X172651000Y-101562609D01*
X172587553Y-101881579D01*
X172463097Y-102182042D01*
X172282415Y-102452451D01*
X172052451Y-102682415D01*
X171782042Y-102863097D01*
X171481579Y-102987553D01*
X171375256Y-103008702D01*
X171162611Y-103051000D01*
X170837389Y-103051000D01*
X170624744Y-103008702D01*
X170518421Y-102987553D01*
X170217958Y-102863097D01*
X169947549Y-102682415D01*
X169717585Y-102452451D01*
X169536903Y-102182042D01*
X169412447Y-101881579D01*
X169349000Y-101562609D01*
X169349000Y-101237391D01*
X169412447Y-100918421D01*
X169536903Y-100617958D01*
X169717585Y-100347549D01*
X169947549Y-100117585D01*
X170217958Y-99936903D01*
X170518421Y-99812447D01*
X170624744Y-99791298D01*
X170837389Y-99749000D01*
X171162611Y-99749000D01*
X171375256Y-99791298D01*
X171375256Y-99791298D01*
G37*
G36*
X105296162Y-93514368D02*
G01*
X105605724Y-93642593D01*
X105605725Y-93642594D01*
X105884324Y-93828747D01*
X106121253Y-94065676D01*
X106245637Y-94251830D01*
X106307407Y-94344276D01*
X106435632Y-94653838D01*
X106501000Y-94982465D01*
X106501000Y-95317535D01*
X106435632Y-95646162D01*
X106307407Y-95955724D01*
X106307406Y-95955725D01*
X106121253Y-96234324D01*
X105884324Y-96471253D01*
X105698170Y-96595637D01*
X105605724Y-96657407D01*
X105296162Y-96785632D01*
X104967535Y-96851000D01*
X104632465Y-96851000D01*
X104303838Y-96785632D01*
X103994276Y-96657407D01*
X103901830Y-96595637D01*
X103715676Y-96471253D01*
X103478747Y-96234324D01*
X103292594Y-95955725D01*
X103292593Y-95955724D01*
X103164368Y-95646162D01*
X103099000Y-95317535D01*
X103099000Y-94982465D01*
X103164368Y-94653838D01*
X103292593Y-94344276D01*
X103354363Y-94251830D01*
X103478747Y-94065676D01*
X103715676Y-93828747D01*
X103994275Y-93642594D01*
X103994276Y-93642593D01*
X104303838Y-93514368D01*
X104632465Y-93449000D01*
X104967535Y-93449000D01*
X105296162Y-93514368D01*
X105296162Y-93514368D01*
G37*
G36*
X119599272Y-86913428D02*
G01*
X119785991Y-86990770D01*
X119785993Y-86990771D01*
X119954037Y-87103054D01*
X120096946Y-87245963D01*
X120209229Y-87414007D01*
X120209230Y-87414009D01*
X120286572Y-87600728D01*
X120326000Y-87798947D01*
X120326000Y-88001053D01*
X120286572Y-88199272D01*
X120209230Y-88385991D01*
X120209229Y-88385993D01*
X120096946Y-88554037D01*
X119954037Y-88696946D01*
X119785993Y-88809229D01*
X119785992Y-88809230D01*
X119785991Y-88809230D01*
X119599272Y-88886572D01*
X119401053Y-88926000D01*
X119198947Y-88926000D01*
X119000728Y-88886572D01*
X118814009Y-88809230D01*
X118814008Y-88809230D01*
X118814007Y-88809229D01*
X118645963Y-88696946D01*
X118503054Y-88554037D01*
X118390771Y-88385993D01*
X118390770Y-88385991D01*
X118313428Y-88199272D01*
X118274000Y-88001053D01*
X118274000Y-87798947D01*
X118313428Y-87600728D01*
X118390770Y-87414009D01*
X118390771Y-87414007D01*
X118503054Y-87245963D01*
X118645963Y-87103054D01*
X118814007Y-86990771D01*
X118814009Y-86990770D01*
X119000728Y-86913428D01*
X119198947Y-86874000D01*
X119401053Y-86874000D01*
X119599272Y-86913428D01*
X119599272Y-86913428D01*
G37*
G36*
X111599272Y-86913428D02*
G01*
X111785991Y-86990770D01*
X111785993Y-86990771D01*
X111954037Y-87103054D01*
X112096946Y-87245963D01*
X112209229Y-87414007D01*
X112209230Y-87414009D01*
X112286572Y-87600728D01*
X112326000Y-87798947D01*
X112326000Y-88001053D01*
X112286572Y-88199272D01*
X112209230Y-88385991D01*
X112209229Y-88385993D01*
X112096946Y-88554037D01*
X111954037Y-88696946D01*
X111785993Y-88809229D01*
X111785992Y-88809230D01*
X111785991Y-88809230D01*
X111599272Y-88886572D01*
X111401053Y-88926000D01*
X111198947Y-88926000D01*
X111000728Y-88886572D01*
X110814009Y-88809230D01*
X110814008Y-88809230D01*
X110814007Y-88809229D01*
X110645963Y-88696946D01*
X110503054Y-88554037D01*
X110390771Y-88385993D01*
X110390770Y-88385991D01*
X110313428Y-88199272D01*
X110274000Y-88001053D01*
X110274000Y-87798947D01*
X110313428Y-87600728D01*
X110390770Y-87414009D01*
X110390771Y-87414007D01*
X110503054Y-87245963D01*
X110645963Y-87103054D01*
X110814007Y-86990771D01*
X110814009Y-86990770D01*
X111000728Y-86913428D01*
X111198947Y-86874000D01*
X111401053Y-86874000D01*
X111599272Y-86913428D01*
X111599272Y-86913428D01*
G37*
G36*
X117099272Y-85413428D02*
G01*
X117285991Y-85490770D01*
X117285993Y-85490771D01*
X117454037Y-85603054D01*
X117596946Y-85745963D01*
X117709229Y-85914007D01*
X117709230Y-85914009D01*
X117786572Y-86100728D01*
X117826000Y-86298947D01*
X117826000Y-86501053D01*
X117786572Y-86699272D01*
X117714197Y-86874000D01*
X117709229Y-86885993D01*
X117596946Y-87054037D01*
X117454037Y-87196946D01*
X117285993Y-87309229D01*
X117285992Y-87309230D01*
X117285991Y-87309230D01*
X117099272Y-87386572D01*
X116901053Y-87426000D01*
X116698947Y-87426000D01*
X116500728Y-87386572D01*
X116314009Y-87309230D01*
X116314008Y-87309230D01*
X116314007Y-87309229D01*
X116145963Y-87196946D01*
X116003054Y-87054037D01*
X115890771Y-86885993D01*
X115885803Y-86874000D01*
X115813428Y-86699272D01*
X115774000Y-86501053D01*
X115774000Y-86298947D01*
X115813428Y-86100728D01*
X115890770Y-85914009D01*
X115890771Y-85914007D01*
X116003054Y-85745963D01*
X116145963Y-85603054D01*
X116314007Y-85490771D01*
X116314009Y-85490770D01*
X116500728Y-85413428D01*
X116698947Y-85374000D01*
X116901053Y-85374000D01*
X117099272Y-85413428D01*
X117099272Y-85413428D01*
G37*
G36*
X114099272Y-85413428D02*
G01*
X114285991Y-85490770D01*
X114285993Y-85490771D01*
X114454037Y-85603054D01*
X114596946Y-85745963D01*
X114709229Y-85914007D01*
X114709230Y-85914009D01*
X114786572Y-86100728D01*
X114826000Y-86298947D01*
X114826000Y-86501053D01*
X114786572Y-86699272D01*
X114714197Y-86874000D01*
X114709229Y-86885993D01*
X114596946Y-87054037D01*
X114454037Y-87196946D01*
X114285993Y-87309229D01*
X114285992Y-87309230D01*
X114285991Y-87309230D01*
X114099272Y-87386572D01*
X113901053Y-87426000D01*
X113698947Y-87426000D01*
X113500728Y-87386572D01*
X113314009Y-87309230D01*
X113314008Y-87309230D01*
X113314007Y-87309229D01*
X113145963Y-87196946D01*
X113003054Y-87054037D01*
X112890771Y-86885993D01*
X112885803Y-86874000D01*
X112813428Y-86699272D01*
X112774000Y-86501053D01*
X112774000Y-86298947D01*
X112813428Y-86100728D01*
X112890770Y-85914009D01*
X112890771Y-85914007D01*
X113003054Y-85745963D01*
X113145963Y-85603054D01*
X113314007Y-85490771D01*
X113314009Y-85490770D01*
X113500728Y-85413428D01*
X113698947Y-85374000D01*
X113901053Y-85374000D01*
X114099272Y-85413428D01*
X114099272Y-85413428D01*
G37*
G36*
X119599272Y-83913428D02*
G01*
X119785991Y-83990770D01*
X119785993Y-83990771D01*
X119954037Y-84103054D01*
X120096946Y-84245963D01*
X120209229Y-84414007D01*
X120209230Y-84414009D01*
X120286572Y-84600728D01*
X120326000Y-84798947D01*
X120326000Y-85001053D01*
X120286572Y-85199272D01*
X120214197Y-85374000D01*
X120209229Y-85385993D01*
X120096946Y-85554037D01*
X119954037Y-85696946D01*
X119785993Y-85809229D01*
X119785992Y-85809230D01*
X119785991Y-85809230D01*
X119599272Y-85886572D01*
X119401053Y-85926000D01*
X119198947Y-85926000D01*
X119000728Y-85886572D01*
X118814009Y-85809230D01*
X118814008Y-85809230D01*
X118814007Y-85809229D01*
X118645963Y-85696946D01*
X118503054Y-85554037D01*
X118390771Y-85385993D01*
X118385803Y-85374000D01*
X118313428Y-85199272D01*
X118274000Y-85001053D01*
X118274000Y-84798947D01*
X118313428Y-84600728D01*
X118390770Y-84414009D01*
X118390771Y-84414007D01*
X118503054Y-84245963D01*
X118645963Y-84103054D01*
X118814007Y-83990771D01*
X118814009Y-83990770D01*
X119000728Y-83913428D01*
X119198947Y-83874000D01*
X119401053Y-83874000D01*
X119599272Y-83913428D01*
X119599272Y-83913428D01*
G37*
G36*
X111599272Y-83913428D02*
G01*
X111785991Y-83990770D01*
X111785993Y-83990771D01*
X111954037Y-84103054D01*
X112096946Y-84245963D01*
X112209229Y-84414007D01*
X112209230Y-84414009D01*
X112286572Y-84600728D01*
X112326000Y-84798947D01*
X112326000Y-85001053D01*
X112286572Y-85199272D01*
X112214197Y-85374000D01*
X112209229Y-85385993D01*
X112096946Y-85554037D01*
X111954037Y-85696946D01*
X111785993Y-85809229D01*
X111785992Y-85809230D01*
X111785991Y-85809230D01*
X111599272Y-85886572D01*
X111401053Y-85926000D01*
X111198947Y-85926000D01*
X111000728Y-85886572D01*
X110814009Y-85809230D01*
X110814008Y-85809230D01*
X110814007Y-85809229D01*
X110645963Y-85696946D01*
X110503054Y-85554037D01*
X110390771Y-85385993D01*
X110385803Y-85374000D01*
X110313428Y-85199272D01*
X110274000Y-85001053D01*
X110274000Y-84798947D01*
X110313428Y-84600728D01*
X110390770Y-84414009D01*
X110390771Y-84414007D01*
X110503054Y-84245963D01*
X110645963Y-84103054D01*
X110814007Y-83990771D01*
X110814009Y-83990770D01*
X111000728Y-83913428D01*
X111198947Y-83874000D01*
X111401053Y-83874000D01*
X111599272Y-83913428D01*
X111599272Y-83913428D01*
G37*
G36*
X117099272Y-82413428D02*
G01*
X117276889Y-82487000D01*
X117285993Y-82490771D01*
X117454037Y-82603054D01*
X117596946Y-82745963D01*
X117709229Y-82914007D01*
X117709230Y-82914009D01*
X117786572Y-83100728D01*
X117826000Y-83298947D01*
X117826000Y-83501053D01*
X117786572Y-83699272D01*
X117714197Y-83874000D01*
X117709229Y-83885993D01*
X117596946Y-84054037D01*
X117454037Y-84196946D01*
X117285993Y-84309229D01*
X117285992Y-84309230D01*
X117285991Y-84309230D01*
X117099272Y-84386572D01*
X116901053Y-84426000D01*
X116698947Y-84426000D01*
X116500728Y-84386572D01*
X116314009Y-84309230D01*
X116314008Y-84309230D01*
X116314007Y-84309229D01*
X116145963Y-84196946D01*
X116003054Y-84054037D01*
X115890771Y-83885993D01*
X115885803Y-83874000D01*
X115813428Y-83699272D01*
X115774000Y-83501053D01*
X115774000Y-83298947D01*
X115813428Y-83100728D01*
X115890770Y-82914009D01*
X115890771Y-82914007D01*
X116003054Y-82745963D01*
X116145963Y-82603054D01*
X116314007Y-82490771D01*
X116323111Y-82487000D01*
X116500728Y-82413428D01*
X116698947Y-82374000D01*
X116901053Y-82374000D01*
X117099272Y-82413428D01*
X117099272Y-82413428D01*
G37*
G36*
X114099272Y-82413428D02*
G01*
X114276889Y-82487000D01*
X114285993Y-82490771D01*
X114454037Y-82603054D01*
X114596946Y-82745963D01*
X114709229Y-82914007D01*
X114709230Y-82914009D01*
X114786572Y-83100728D01*
X114826000Y-83298947D01*
X114826000Y-83501053D01*
X114786572Y-83699272D01*
X114714197Y-83874000D01*
X114709229Y-83885993D01*
X114596946Y-84054037D01*
X114454037Y-84196946D01*
X114285993Y-84309229D01*
X114285992Y-84309230D01*
X114285991Y-84309230D01*
X114099272Y-84386572D01*
X113901053Y-84426000D01*
X113698947Y-84426000D01*
X113500728Y-84386572D01*
X113314009Y-84309230D01*
X113314008Y-84309230D01*
X113314007Y-84309229D01*
X113145963Y-84196946D01*
X113003054Y-84054037D01*
X112890771Y-83885993D01*
X112885803Y-83874000D01*
X112813428Y-83699272D01*
X112774000Y-83501053D01*
X112774000Y-83298947D01*
X112813428Y-83100728D01*
X112890770Y-82914009D01*
X112890771Y-82914007D01*
X113003054Y-82745963D01*
X113145963Y-82603054D01*
X113314007Y-82490771D01*
X113323111Y-82487000D01*
X113500728Y-82413428D01*
X113698947Y-82374000D01*
X113901053Y-82374000D01*
X114099272Y-82413428D01*
X114099272Y-82413428D01*
G37*
G36*
X171301000Y-83401000D02*
G01*
X170299000Y-83401000D01*
X170299000Y-82499000D01*
X171301000Y-82499000D01*
X171301000Y-83401000D01*
X171301000Y-83401000D01*
G37*
G36*
X173364499Y-82228445D02*
G01*
X173401995Y-82239820D01*
X173436554Y-82258292D01*
X173466847Y-82283153D01*
X173491708Y-82313446D01*
X173510180Y-82348005D01*
X173521555Y-82385501D01*
X173526000Y-82430638D01*
X173526000Y-83169362D01*
X173521555Y-83214499D01*
X173510180Y-83251995D01*
X173491708Y-83286554D01*
X173466847Y-83316847D01*
X173436554Y-83341708D01*
X173401995Y-83360180D01*
X173364499Y-83371555D01*
X173319362Y-83376000D01*
X172680638Y-83376000D01*
X172635501Y-83371555D01*
X172598005Y-83360180D01*
X172563446Y-83341708D01*
X172533153Y-83316847D01*
X172508292Y-83286554D01*
X172489820Y-83251995D01*
X172478445Y-83214499D01*
X172474000Y-83169362D01*
X172474000Y-82430638D01*
X172478445Y-82385501D01*
X172489820Y-82348005D01*
X172508292Y-82313446D01*
X172533153Y-82283153D01*
X172563446Y-82258292D01*
X172598005Y-82239820D01*
X172635501Y-82228445D01*
X172680638Y-82224000D01*
X173319362Y-82224000D01*
X173364499Y-82228445D01*
X173364499Y-82228445D01*
G37*
G36*
X119599272Y-80913428D02*
G01*
X119785991Y-80990770D01*
X119785993Y-80990771D01*
X119954037Y-81103054D01*
X120096946Y-81245963D01*
X120209229Y-81414007D01*
X120209230Y-81414009D01*
X120286572Y-81600728D01*
X120326000Y-81798947D01*
X120326000Y-82001053D01*
X120286572Y-82199272D01*
X120224964Y-82348005D01*
X120209229Y-82385993D01*
X120096946Y-82554037D01*
X119954037Y-82696946D01*
X119785993Y-82809229D01*
X119785992Y-82809230D01*
X119785991Y-82809230D01*
X119599272Y-82886572D01*
X119401053Y-82926000D01*
X119198947Y-82926000D01*
X119000728Y-82886572D01*
X118814009Y-82809230D01*
X118814008Y-82809230D01*
X118814007Y-82809229D01*
X118645963Y-82696946D01*
X118503054Y-82554037D01*
X118390771Y-82385993D01*
X118375036Y-82348005D01*
X118313428Y-82199272D01*
X118274000Y-82001053D01*
X118274000Y-81798947D01*
X118313428Y-81600728D01*
X118390770Y-81414009D01*
X118390771Y-81414007D01*
X118503054Y-81245963D01*
X118645963Y-81103054D01*
X118814007Y-80990771D01*
X118814009Y-80990770D01*
X119000728Y-80913428D01*
X119198947Y-80874000D01*
X119401053Y-80874000D01*
X119599272Y-80913428D01*
X119599272Y-80913428D01*
G37*
G36*
X111599272Y-80913428D02*
G01*
X111785991Y-80990770D01*
X111785993Y-80990771D01*
X111954037Y-81103054D01*
X112096946Y-81245963D01*
X112209229Y-81414007D01*
X112209230Y-81414009D01*
X112286572Y-81600728D01*
X112326000Y-81798947D01*
X112326000Y-82001053D01*
X112286572Y-82199272D01*
X112224964Y-82348005D01*
X112209229Y-82385993D01*
X112096946Y-82554037D01*
X111954037Y-82696946D01*
X111785993Y-82809229D01*
X111785992Y-82809230D01*
X111785991Y-82809230D01*
X111599272Y-82886572D01*
X111401053Y-82926000D01*
X111198947Y-82926000D01*
X111000728Y-82886572D01*
X110814009Y-82809230D01*
X110814008Y-82809230D01*
X110814007Y-82809229D01*
X110645963Y-82696946D01*
X110503054Y-82554037D01*
X110390771Y-82385993D01*
X110375036Y-82348005D01*
X110313428Y-82199272D01*
X110274000Y-82001053D01*
X110274000Y-81798947D01*
X110313428Y-81600728D01*
X110390770Y-81414009D01*
X110390771Y-81414007D01*
X110503054Y-81245963D01*
X110645963Y-81103054D01*
X110814007Y-80990771D01*
X110814009Y-80990770D01*
X111000728Y-80913428D01*
X111198947Y-80874000D01*
X111401053Y-80874000D01*
X111599272Y-80913428D01*
X111599272Y-80913428D01*
G37*
G36*
X169301000Y-82451000D02*
G01*
X168299000Y-82451000D01*
X168299000Y-81549000D01*
X169301000Y-81549000D01*
X169301000Y-82451000D01*
X169301000Y-82451000D01*
G37*
G36*
X173364499Y-80478445D02*
G01*
X173401995Y-80489820D01*
X173436554Y-80508292D01*
X173466847Y-80533153D01*
X173491708Y-80563446D01*
X173510180Y-80598005D01*
X173521555Y-80635501D01*
X173526000Y-80680638D01*
X173526000Y-81419362D01*
X173521555Y-81464499D01*
X173510180Y-81501995D01*
X173491708Y-81536554D01*
X173466847Y-81566847D01*
X173436554Y-81591708D01*
X173401995Y-81610180D01*
X173364499Y-81621555D01*
X173319362Y-81626000D01*
X172680638Y-81626000D01*
X172635501Y-81621555D01*
X172598005Y-81610180D01*
X172563446Y-81591708D01*
X172533153Y-81566847D01*
X172508292Y-81536554D01*
X172489820Y-81501995D01*
X172478445Y-81464499D01*
X172474000Y-81419362D01*
X172474000Y-80680638D01*
X172478445Y-80635501D01*
X172489820Y-80598005D01*
X172508292Y-80563446D01*
X172533153Y-80533153D01*
X172563446Y-80508292D01*
X172598005Y-80489820D01*
X172635501Y-80478445D01*
X172680638Y-80474000D01*
X173319362Y-80474000D01*
X173364499Y-80478445D01*
X173364499Y-80478445D01*
G37*
G36*
X171301000Y-81501000D02*
G01*
X170299000Y-81501000D01*
X170299000Y-80599000D01*
X171301000Y-80599000D01*
X171301000Y-81501000D01*
X171301000Y-81501000D01*
G37*
G36*
X114099272Y-79413428D02*
G01*
X114272015Y-79484981D01*
X114285993Y-79490771D01*
X114454037Y-79603054D01*
X114596946Y-79745963D01*
X114709229Y-79914007D01*
X114709230Y-79914009D01*
X114786572Y-80100728D01*
X114826000Y-80298947D01*
X114826000Y-80501053D01*
X114786572Y-80699272D01*
X114770944Y-80737000D01*
X114709229Y-80885993D01*
X114596946Y-81054037D01*
X114454037Y-81196946D01*
X114285993Y-81309229D01*
X114285992Y-81309230D01*
X114285991Y-81309230D01*
X114099272Y-81386572D01*
X113901053Y-81426000D01*
X113698947Y-81426000D01*
X113500728Y-81386572D01*
X113314009Y-81309230D01*
X113314008Y-81309230D01*
X113314007Y-81309229D01*
X113145963Y-81196946D01*
X113003054Y-81054037D01*
X112890771Y-80885993D01*
X112829056Y-80737000D01*
X112813428Y-80699272D01*
X112774000Y-80501053D01*
X112774000Y-80298947D01*
X112813428Y-80100728D01*
X112890770Y-79914009D01*
X112890771Y-79914007D01*
X113003054Y-79745963D01*
X113145963Y-79603054D01*
X113314007Y-79490771D01*
X113327985Y-79484981D01*
X113500728Y-79413428D01*
X113698947Y-79374000D01*
X113901053Y-79374000D01*
X114099272Y-79413428D01*
X114099272Y-79413428D01*
G37*
G36*
X117099272Y-79413428D02*
G01*
X117272015Y-79484981D01*
X117285993Y-79490771D01*
X117454037Y-79603054D01*
X117596946Y-79745963D01*
X117709229Y-79914007D01*
X117709230Y-79914009D01*
X117786572Y-80100728D01*
X117826000Y-80298947D01*
X117826000Y-80501053D01*
X117786572Y-80699272D01*
X117770944Y-80737000D01*
X117709229Y-80885993D01*
X117596946Y-81054037D01*
X117454037Y-81196946D01*
X117285993Y-81309229D01*
X117285992Y-81309230D01*
X117285991Y-81309230D01*
X117099272Y-81386572D01*
X116901053Y-81426000D01*
X116698947Y-81426000D01*
X116500728Y-81386572D01*
X116314009Y-81309230D01*
X116314008Y-81309230D01*
X116314007Y-81309229D01*
X116145963Y-81196946D01*
X116003054Y-81054037D01*
X115890771Y-80885993D01*
X115829056Y-80737000D01*
X115813428Y-80699272D01*
X115774000Y-80501053D01*
X115774000Y-80298947D01*
X115813428Y-80100728D01*
X115890770Y-79914009D01*
X115890771Y-79914007D01*
X116003054Y-79745963D01*
X116145963Y-79603054D01*
X116314007Y-79490771D01*
X116327985Y-79484981D01*
X116500728Y-79413428D01*
X116698947Y-79374000D01*
X116901053Y-79374000D01*
X117099272Y-79413428D01*
X117099272Y-79413428D01*
G37*
G36*
X150124499Y-79523445D02*
G01*
X150161995Y-79534820D01*
X150196554Y-79553292D01*
X150226847Y-79578153D01*
X150251708Y-79608446D01*
X150270180Y-79643005D01*
X150281555Y-79680501D01*
X150286000Y-79725638D01*
X150286000Y-80464362D01*
X150281555Y-80509499D01*
X150270180Y-80546995D01*
X150251708Y-80581554D01*
X150226847Y-80611847D01*
X150196554Y-80636708D01*
X150161995Y-80655180D01*
X150124499Y-80666555D01*
X150079362Y-80671000D01*
X149440638Y-80671000D01*
X149395501Y-80666555D01*
X149358005Y-80655180D01*
X149323446Y-80636708D01*
X149293153Y-80611847D01*
X149268292Y-80581554D01*
X149249820Y-80546995D01*
X149238445Y-80509499D01*
X149234000Y-80464362D01*
X149234000Y-79725638D01*
X149238445Y-79680501D01*
X149249820Y-79643005D01*
X149268292Y-79608446D01*
X149293153Y-79578153D01*
X149323446Y-79553292D01*
X149358005Y-79534820D01*
X149395501Y-79523445D01*
X149440638Y-79519000D01*
X150079362Y-79519000D01*
X150124499Y-79523445D01*
X150124499Y-79523445D01*
G37*
G36*
X152334499Y-79483445D02*
G01*
X152371995Y-79494820D01*
X152406554Y-79513292D01*
X152436847Y-79538153D01*
X152461708Y-79568446D01*
X152480180Y-79603005D01*
X152491555Y-79640501D01*
X152496000Y-79685638D01*
X152496000Y-80424362D01*
X152491555Y-80469499D01*
X152480180Y-80506995D01*
X152461708Y-80541554D01*
X152436847Y-80571847D01*
X152406554Y-80596708D01*
X152371995Y-80615180D01*
X152334499Y-80626555D01*
X152289362Y-80631000D01*
X151650638Y-80631000D01*
X151605501Y-80626555D01*
X151568005Y-80615180D01*
X151533446Y-80596708D01*
X151503153Y-80571847D01*
X151478292Y-80541554D01*
X151459820Y-80506995D01*
X151448445Y-80469499D01*
X151444000Y-80424362D01*
X151444000Y-79685638D01*
X151448445Y-79640501D01*
X151459820Y-79603005D01*
X151478292Y-79568446D01*
X151503153Y-79538153D01*
X151533446Y-79513292D01*
X151568005Y-79494820D01*
X151605501Y-79483445D01*
X151650638Y-79479000D01*
X152289362Y-79479000D01*
X152334499Y-79483445D01*
X152334499Y-79483445D01*
G37*
G36*
X111599272Y-77913428D02*
G01*
X111749459Y-77975638D01*
X111785993Y-77990771D01*
X111954037Y-78103054D01*
X112096946Y-78245963D01*
X112191195Y-78387017D01*
X112209230Y-78414009D01*
X112286572Y-78600728D01*
X112326000Y-78798947D01*
X112326000Y-79001053D01*
X112286572Y-79199272D01*
X112214197Y-79374000D01*
X112209229Y-79385993D01*
X112096946Y-79554037D01*
X111954037Y-79696946D01*
X111785993Y-79809229D01*
X111785992Y-79809230D01*
X111785991Y-79809230D01*
X111599272Y-79886572D01*
X111401053Y-79926000D01*
X111198947Y-79926000D01*
X111000728Y-79886572D01*
X110814009Y-79809230D01*
X110814008Y-79809230D01*
X110814007Y-79809229D01*
X110645963Y-79696946D01*
X110503054Y-79554037D01*
X110390771Y-79385993D01*
X110385803Y-79374000D01*
X110313428Y-79199272D01*
X110274000Y-79001053D01*
X110274000Y-78798947D01*
X110313428Y-78600728D01*
X110390770Y-78414009D01*
X110408805Y-78387017D01*
X110503054Y-78245963D01*
X110645963Y-78103054D01*
X110814007Y-77990771D01*
X110850541Y-77975638D01*
X111000728Y-77913428D01*
X111198947Y-77874000D01*
X111401053Y-77874000D01*
X111599272Y-77913428D01*
X111599272Y-77913428D01*
G37*
G36*
X119599272Y-77913428D02*
G01*
X119749459Y-77975638D01*
X119785993Y-77990771D01*
X119954037Y-78103054D01*
X120096946Y-78245963D01*
X120191195Y-78387017D01*
X120209230Y-78414009D01*
X120286572Y-78600728D01*
X120326000Y-78798947D01*
X120326000Y-79001053D01*
X120286572Y-79199272D01*
X120214197Y-79374000D01*
X120209229Y-79385993D01*
X120096946Y-79554037D01*
X119954037Y-79696946D01*
X119785993Y-79809229D01*
X119785992Y-79809230D01*
X119785991Y-79809230D01*
X119599272Y-79886572D01*
X119401053Y-79926000D01*
X119198947Y-79926000D01*
X119000728Y-79886572D01*
X118814009Y-79809230D01*
X118814008Y-79809230D01*
X118814007Y-79809229D01*
X118645963Y-79696946D01*
X118503054Y-79554037D01*
X118390771Y-79385993D01*
X118385803Y-79374000D01*
X118313428Y-79199272D01*
X118274000Y-79001053D01*
X118274000Y-78798947D01*
X118313428Y-78600728D01*
X118390770Y-78414009D01*
X118408805Y-78387017D01*
X118503054Y-78245963D01*
X118645963Y-78103054D01*
X118814007Y-77990771D01*
X118850541Y-77975638D01*
X119000728Y-77913428D01*
X119198947Y-77874000D01*
X119401053Y-77874000D01*
X119599272Y-77913428D01*
X119599272Y-77913428D01*
G37*
G36*
X167355150Y-78259619D02*
G01*
X167392843Y-78271053D01*
X167427579Y-78289620D01*
X167458024Y-78314606D01*
X167483010Y-78345051D01*
X167501577Y-78379787D01*
X167513011Y-78417480D01*
X167517476Y-78462815D01*
X167517476Y-79549493D01*
X167513011Y-79594828D01*
X167501577Y-79632521D01*
X167483010Y-79667257D01*
X167458024Y-79697702D01*
X167427579Y-79722688D01*
X167392843Y-79741255D01*
X167355150Y-79752689D01*
X167309815Y-79757154D01*
X166473137Y-79757154D01*
X166427802Y-79752689D01*
X166390109Y-79741255D01*
X166355373Y-79722688D01*
X166324928Y-79697702D01*
X166299942Y-79667257D01*
X166281375Y-79632521D01*
X166269941Y-79594828D01*
X166265476Y-79549493D01*
X166265476Y-78462815D01*
X166269941Y-78417480D01*
X166281375Y-78379787D01*
X166299942Y-78345051D01*
X166324928Y-78314606D01*
X166355373Y-78289620D01*
X166390109Y-78271053D01*
X166427802Y-78259619D01*
X166473137Y-78255154D01*
X167309815Y-78255154D01*
X167355150Y-78259619D01*
X167355150Y-78259619D01*
G37*
G36*
X165305150Y-78259619D02*
G01*
X165342843Y-78271053D01*
X165377579Y-78289620D01*
X165408024Y-78314606D01*
X165433010Y-78345051D01*
X165451577Y-78379787D01*
X165463011Y-78417480D01*
X165467476Y-78462815D01*
X165467476Y-79549493D01*
X165463011Y-79594828D01*
X165451577Y-79632521D01*
X165433010Y-79667257D01*
X165408024Y-79697702D01*
X165377579Y-79722688D01*
X165342843Y-79741255D01*
X165305150Y-79752689D01*
X165259815Y-79757154D01*
X164423137Y-79757154D01*
X164377802Y-79752689D01*
X164340109Y-79741255D01*
X164305373Y-79722688D01*
X164274928Y-79697702D01*
X164249942Y-79667257D01*
X164231375Y-79632521D01*
X164219941Y-79594828D01*
X164215476Y-79549493D01*
X164215476Y-78462815D01*
X164219941Y-78417480D01*
X164231375Y-78379787D01*
X164249942Y-78345051D01*
X164274928Y-78314606D01*
X164305373Y-78289620D01*
X164340109Y-78271053D01*
X164377802Y-78259619D01*
X164423137Y-78255154D01*
X165259815Y-78255154D01*
X165305150Y-78259619D01*
X165305150Y-78259619D01*
G37*
G36*
X160388674Y-78223465D02*
G01*
X160426367Y-78234899D01*
X160461103Y-78253466D01*
X160491548Y-78278452D01*
X160516534Y-78308897D01*
X160535101Y-78343633D01*
X160546535Y-78381326D01*
X160551000Y-78426661D01*
X160551000Y-79513339D01*
X160546535Y-79558674D01*
X160535101Y-79596367D01*
X160516534Y-79631103D01*
X160491548Y-79661548D01*
X160461103Y-79686534D01*
X160426367Y-79705101D01*
X160388674Y-79716535D01*
X160343339Y-79721000D01*
X159506661Y-79721000D01*
X159461326Y-79716535D01*
X159423633Y-79705101D01*
X159388897Y-79686534D01*
X159358452Y-79661548D01*
X159333466Y-79631103D01*
X159314899Y-79596367D01*
X159303465Y-79558674D01*
X159299000Y-79513339D01*
X159299000Y-78426661D01*
X159303465Y-78381326D01*
X159314899Y-78343633D01*
X159333466Y-78308897D01*
X159358452Y-78278452D01*
X159388897Y-78253466D01*
X159423633Y-78234899D01*
X159461326Y-78223465D01*
X159506661Y-78219000D01*
X160343339Y-78219000D01*
X160388674Y-78223465D01*
X160388674Y-78223465D01*
G37*
G36*
X162438674Y-78223465D02*
G01*
X162476367Y-78234899D01*
X162511103Y-78253466D01*
X162541548Y-78278452D01*
X162566534Y-78308897D01*
X162585101Y-78343633D01*
X162596535Y-78381326D01*
X162601000Y-78426661D01*
X162601000Y-79513339D01*
X162596535Y-79558674D01*
X162585101Y-79596367D01*
X162566534Y-79631103D01*
X162541548Y-79661548D01*
X162511103Y-79686534D01*
X162476367Y-79705101D01*
X162438674Y-79716535D01*
X162393339Y-79721000D01*
X161556661Y-79721000D01*
X161511326Y-79716535D01*
X161473633Y-79705101D01*
X161438897Y-79686534D01*
X161408452Y-79661548D01*
X161383466Y-79631103D01*
X161364899Y-79596367D01*
X161353465Y-79558674D01*
X161349000Y-79513339D01*
X161349000Y-78426661D01*
X161353465Y-78381326D01*
X161364899Y-78343633D01*
X161383466Y-78308897D01*
X161408452Y-78278452D01*
X161438897Y-78253466D01*
X161473633Y-78234899D01*
X161511326Y-78223465D01*
X161556661Y-78219000D01*
X162393339Y-78219000D01*
X162438674Y-78223465D01*
X162438674Y-78223465D01*
G37*
G36*
X150124499Y-77773445D02*
G01*
X150161995Y-77784820D01*
X150196554Y-77803292D01*
X150226847Y-77828153D01*
X150251708Y-77858446D01*
X150270180Y-77893005D01*
X150281555Y-77930501D01*
X150286000Y-77975638D01*
X150286000Y-78714362D01*
X150281555Y-78759499D01*
X150270180Y-78796995D01*
X150251708Y-78831554D01*
X150226847Y-78861847D01*
X150196554Y-78886708D01*
X150161995Y-78905180D01*
X150124499Y-78916555D01*
X150079362Y-78921000D01*
X149440638Y-78921000D01*
X149395501Y-78916555D01*
X149358005Y-78905180D01*
X149323446Y-78886708D01*
X149293153Y-78861847D01*
X149268292Y-78831554D01*
X149249820Y-78796995D01*
X149238445Y-78759499D01*
X149234000Y-78714362D01*
X149234000Y-77975638D01*
X149238445Y-77930501D01*
X149249820Y-77893005D01*
X149268292Y-77858446D01*
X149293153Y-77828153D01*
X149323446Y-77803292D01*
X149358005Y-77784820D01*
X149395501Y-77773445D01*
X149440638Y-77769000D01*
X150079362Y-77769000D01*
X150124499Y-77773445D01*
X150124499Y-77773445D01*
G37*
G36*
X152334499Y-77733445D02*
G01*
X152371995Y-77744820D01*
X152406554Y-77763292D01*
X152436847Y-77788153D01*
X152461708Y-77818446D01*
X152480180Y-77853005D01*
X152491555Y-77890501D01*
X152496000Y-77935638D01*
X152496000Y-78674362D01*
X152491555Y-78719499D01*
X152480180Y-78756995D01*
X152461708Y-78791554D01*
X152436847Y-78821847D01*
X152406554Y-78846708D01*
X152371995Y-78865180D01*
X152334499Y-78876555D01*
X152289362Y-78881000D01*
X151650638Y-78881000D01*
X151605501Y-78876555D01*
X151568005Y-78865180D01*
X151533446Y-78846708D01*
X151503153Y-78821847D01*
X151478292Y-78791554D01*
X151459820Y-78756995D01*
X151448445Y-78719499D01*
X151444000Y-78674362D01*
X151444000Y-77935638D01*
X151448445Y-77890501D01*
X151459820Y-77853005D01*
X151478292Y-77818446D01*
X151503153Y-77788153D01*
X151533446Y-77763292D01*
X151568005Y-77744820D01*
X151605501Y-77733445D01*
X151650638Y-77729000D01*
X152289362Y-77729000D01*
X152334499Y-77733445D01*
X152334499Y-77733445D01*
G37*
G36*
X117099272Y-76413428D02*
G01*
X117285991Y-76490770D01*
X117285993Y-76490771D01*
X117454037Y-76603054D01*
X117596946Y-76745963D01*
X117693213Y-76890038D01*
X117709230Y-76914009D01*
X117786572Y-77100728D01*
X117826000Y-77298947D01*
X117826000Y-77501053D01*
X117786572Y-77699272D01*
X117714197Y-77874000D01*
X117709229Y-77885993D01*
X117596946Y-78054037D01*
X117454037Y-78196946D01*
X117285993Y-78309229D01*
X117285992Y-78309230D01*
X117285991Y-78309230D01*
X117099272Y-78386572D01*
X116901053Y-78426000D01*
X116698947Y-78426000D01*
X116500728Y-78386572D01*
X116314009Y-78309230D01*
X116314008Y-78309230D01*
X116314007Y-78309229D01*
X116145963Y-78196946D01*
X116003054Y-78054037D01*
X115890771Y-77885993D01*
X115885803Y-77874000D01*
X115813428Y-77699272D01*
X115774000Y-77501053D01*
X115774000Y-77298947D01*
X115813428Y-77100728D01*
X115890770Y-76914009D01*
X115906787Y-76890038D01*
X116003054Y-76745963D01*
X116145963Y-76603054D01*
X116314007Y-76490771D01*
X116314009Y-76490770D01*
X116500728Y-76413428D01*
X116698947Y-76374000D01*
X116901053Y-76374000D01*
X117099272Y-76413428D01*
X117099272Y-76413428D01*
G37*
G36*
X114099272Y-76413428D02*
G01*
X114285991Y-76490770D01*
X114285993Y-76490771D01*
X114454037Y-76603054D01*
X114596946Y-76745963D01*
X114693213Y-76890038D01*
X114709230Y-76914009D01*
X114786572Y-77100728D01*
X114826000Y-77298947D01*
X114826000Y-77501053D01*
X114786572Y-77699272D01*
X114714197Y-77874000D01*
X114709229Y-77885993D01*
X114596946Y-78054037D01*
X114454037Y-78196946D01*
X114285993Y-78309229D01*
X114285992Y-78309230D01*
X114285991Y-78309230D01*
X114099272Y-78386572D01*
X113901053Y-78426000D01*
X113698947Y-78426000D01*
X113500728Y-78386572D01*
X113314009Y-78309230D01*
X113314008Y-78309230D01*
X113314007Y-78309229D01*
X113145963Y-78196946D01*
X113003054Y-78054037D01*
X112890771Y-77885993D01*
X112885803Y-77874000D01*
X112813428Y-77699272D01*
X112774000Y-77501053D01*
X112774000Y-77298947D01*
X112813428Y-77100728D01*
X112890770Y-76914009D01*
X112906787Y-76890038D01*
X113003054Y-76745963D01*
X113145963Y-76603054D01*
X113314007Y-76490771D01*
X113314009Y-76490770D01*
X113500728Y-76413428D01*
X113698947Y-76374000D01*
X113901053Y-76374000D01*
X114099272Y-76413428D01*
X114099272Y-76413428D01*
G37*
G36*
X165293674Y-75513465D02*
G01*
X165331367Y-75524899D01*
X165366103Y-75543466D01*
X165396548Y-75568452D01*
X165421534Y-75598897D01*
X165440101Y-75633633D01*
X165451535Y-75671326D01*
X165456000Y-75716661D01*
X165456000Y-76803339D01*
X165451535Y-76848674D01*
X165440101Y-76886367D01*
X165421534Y-76921103D01*
X165396548Y-76951548D01*
X165366103Y-76976534D01*
X165331367Y-76995101D01*
X165293674Y-77006535D01*
X165248339Y-77011000D01*
X164411661Y-77011000D01*
X164366326Y-77006535D01*
X164328633Y-76995101D01*
X164293897Y-76976534D01*
X164263452Y-76951548D01*
X164238466Y-76921103D01*
X164219899Y-76886367D01*
X164208465Y-76848674D01*
X164204000Y-76803339D01*
X164204000Y-75716661D01*
X164208465Y-75671326D01*
X164219899Y-75633633D01*
X164238466Y-75598897D01*
X164263452Y-75568452D01*
X164293897Y-75543466D01*
X164328633Y-75524899D01*
X164366326Y-75513465D01*
X164411661Y-75509000D01*
X165248339Y-75509000D01*
X165293674Y-75513465D01*
X165293674Y-75513465D01*
G37*
G36*
X167343674Y-75513465D02*
G01*
X167381367Y-75524899D01*
X167416103Y-75543466D01*
X167446548Y-75568452D01*
X167471534Y-75598897D01*
X167490101Y-75633633D01*
X167501535Y-75671326D01*
X167506000Y-75716661D01*
X167506000Y-76803339D01*
X167501535Y-76848674D01*
X167490101Y-76886367D01*
X167471534Y-76921103D01*
X167446548Y-76951548D01*
X167416103Y-76976534D01*
X167381367Y-76995101D01*
X167343674Y-77006535D01*
X167298339Y-77011000D01*
X166461661Y-77011000D01*
X166416326Y-77006535D01*
X166378633Y-76995101D01*
X166343897Y-76976534D01*
X166313452Y-76951548D01*
X166288466Y-76921103D01*
X166269899Y-76886367D01*
X166258465Y-76848674D01*
X166254000Y-76803339D01*
X166254000Y-75716661D01*
X166258465Y-75671326D01*
X166269899Y-75633633D01*
X166288466Y-75598897D01*
X166313452Y-75568452D01*
X166343897Y-75543466D01*
X166378633Y-75524899D01*
X166416326Y-75513465D01*
X166461661Y-75509000D01*
X167298339Y-75509000D01*
X167343674Y-75513465D01*
X167343674Y-75513465D01*
G37*
G36*
X160378674Y-75433465D02*
G01*
X160416367Y-75444899D01*
X160451103Y-75463466D01*
X160481548Y-75488452D01*
X160506534Y-75518897D01*
X160525101Y-75553633D01*
X160536535Y-75591326D01*
X160541000Y-75636661D01*
X160541000Y-76723339D01*
X160536535Y-76768674D01*
X160525101Y-76806367D01*
X160506534Y-76841103D01*
X160481548Y-76871548D01*
X160451103Y-76896534D01*
X160416367Y-76915101D01*
X160378674Y-76926535D01*
X160333339Y-76931000D01*
X159496661Y-76931000D01*
X159451326Y-76926535D01*
X159413633Y-76915101D01*
X159378897Y-76896534D01*
X159348452Y-76871548D01*
X159323466Y-76841103D01*
X159304899Y-76806367D01*
X159293465Y-76768674D01*
X159289000Y-76723339D01*
X159289000Y-75636661D01*
X159293465Y-75591326D01*
X159304899Y-75553633D01*
X159323466Y-75518897D01*
X159348452Y-75488452D01*
X159378897Y-75463466D01*
X159413633Y-75444899D01*
X159451326Y-75433465D01*
X159496661Y-75429000D01*
X160333339Y-75429000D01*
X160378674Y-75433465D01*
X160378674Y-75433465D01*
G37*
G36*
X162428674Y-75433465D02*
G01*
X162466367Y-75444899D01*
X162501103Y-75463466D01*
X162531548Y-75488452D01*
X162556534Y-75518897D01*
X162575101Y-75553633D01*
X162586535Y-75591326D01*
X162591000Y-75636661D01*
X162591000Y-76723339D01*
X162586535Y-76768674D01*
X162575101Y-76806367D01*
X162556534Y-76841103D01*
X162531548Y-76871548D01*
X162501103Y-76896534D01*
X162466367Y-76915101D01*
X162428674Y-76926535D01*
X162383339Y-76931000D01*
X161546661Y-76931000D01*
X161501326Y-76926535D01*
X161463633Y-76915101D01*
X161428897Y-76896534D01*
X161398452Y-76871548D01*
X161373466Y-76841103D01*
X161354899Y-76806367D01*
X161343465Y-76768674D01*
X161339000Y-76723339D01*
X161339000Y-75636661D01*
X161343465Y-75591326D01*
X161354899Y-75553633D01*
X161373466Y-75518897D01*
X161398452Y-75488452D01*
X161428897Y-75463466D01*
X161463633Y-75444899D01*
X161501326Y-75433465D01*
X161546661Y-75429000D01*
X162383339Y-75429000D01*
X162428674Y-75433465D01*
X162428674Y-75433465D01*
G37*
G36*
X111599272Y-74913428D02*
G01*
X111785991Y-74990770D01*
X111785993Y-74990771D01*
X111954037Y-75103054D01*
X112096946Y-75245963D01*
X112209229Y-75414007D01*
X112209230Y-75414009D01*
X112286572Y-75600728D01*
X112326000Y-75798947D01*
X112326000Y-76001053D01*
X112286572Y-76199272D01*
X112214197Y-76374000D01*
X112209229Y-76385993D01*
X112096946Y-76554037D01*
X111954037Y-76696946D01*
X111785993Y-76809229D01*
X111785992Y-76809230D01*
X111785991Y-76809230D01*
X111599272Y-76886572D01*
X111401053Y-76926000D01*
X111198947Y-76926000D01*
X111000728Y-76886572D01*
X110814009Y-76809230D01*
X110814008Y-76809230D01*
X110814007Y-76809229D01*
X110645963Y-76696946D01*
X110503054Y-76554037D01*
X110390771Y-76385993D01*
X110385803Y-76374000D01*
X110313428Y-76199272D01*
X110274000Y-76001053D01*
X110274000Y-75798947D01*
X110313428Y-75600728D01*
X110390770Y-75414009D01*
X110390771Y-75414007D01*
X110503054Y-75245963D01*
X110645963Y-75103054D01*
X110814007Y-74990771D01*
X110814009Y-74990770D01*
X111000728Y-74913428D01*
X111198947Y-74874000D01*
X111401053Y-74874000D01*
X111599272Y-74913428D01*
X111599272Y-74913428D01*
G37*
G36*
X119599272Y-74913428D02*
G01*
X119785991Y-74990770D01*
X119785993Y-74990771D01*
X119954037Y-75103054D01*
X120096946Y-75245963D01*
X120209229Y-75414007D01*
X120209230Y-75414009D01*
X120286572Y-75600728D01*
X120326000Y-75798947D01*
X120326000Y-76001053D01*
X120286572Y-76199272D01*
X120214197Y-76374000D01*
X120209229Y-76385993D01*
X120096946Y-76554037D01*
X119954037Y-76696946D01*
X119785993Y-76809229D01*
X119785992Y-76809230D01*
X119785991Y-76809230D01*
X119599272Y-76886572D01*
X119401053Y-76926000D01*
X119198947Y-76926000D01*
X119000728Y-76886572D01*
X118814009Y-76809230D01*
X118814008Y-76809230D01*
X118814007Y-76809229D01*
X118645963Y-76696946D01*
X118503054Y-76554037D01*
X118390771Y-76385993D01*
X118385803Y-76374000D01*
X118313428Y-76199272D01*
X118274000Y-76001053D01*
X118274000Y-75798947D01*
X118313428Y-75600728D01*
X118390770Y-75414009D01*
X118390771Y-75414007D01*
X118503054Y-75245963D01*
X118645963Y-75103054D01*
X118814007Y-74990771D01*
X118814009Y-74990770D01*
X119000728Y-74913428D01*
X119198947Y-74874000D01*
X119401053Y-74874000D01*
X119599272Y-74913428D01*
X119599272Y-74913428D01*
G37*
G36*
X114099272Y-73413428D02*
G01*
X114274347Y-73485947D01*
X114285993Y-73490771D01*
X114454037Y-73603054D01*
X114596946Y-73745963D01*
X114709229Y-73914007D01*
X114709230Y-73914009D01*
X114786572Y-74100728D01*
X114826000Y-74298947D01*
X114826000Y-74501053D01*
X114786572Y-74699272D01*
X114714197Y-74874000D01*
X114709229Y-74885993D01*
X114596946Y-75054037D01*
X114454037Y-75196946D01*
X114285993Y-75309229D01*
X114285992Y-75309230D01*
X114285991Y-75309230D01*
X114099272Y-75386572D01*
X113901053Y-75426000D01*
X113698947Y-75426000D01*
X113500728Y-75386572D01*
X113314009Y-75309230D01*
X113314008Y-75309230D01*
X113314007Y-75309229D01*
X113145963Y-75196946D01*
X113003054Y-75054037D01*
X112890771Y-74885993D01*
X112885803Y-74874000D01*
X112813428Y-74699272D01*
X112774000Y-74501053D01*
X112774000Y-74298947D01*
X112813428Y-74100728D01*
X112890770Y-73914009D01*
X112890771Y-73914007D01*
X113003054Y-73745963D01*
X113145963Y-73603054D01*
X113314007Y-73490771D01*
X113325653Y-73485947D01*
X113500728Y-73413428D01*
X113698947Y-73374000D01*
X113901053Y-73374000D01*
X114099272Y-73413428D01*
X114099272Y-73413428D01*
G37*
G36*
X117099272Y-73413428D02*
G01*
X117274347Y-73485947D01*
X117285993Y-73490771D01*
X117454037Y-73603054D01*
X117596946Y-73745963D01*
X117709229Y-73914007D01*
X117709230Y-73914009D01*
X117786572Y-74100728D01*
X117826000Y-74298947D01*
X117826000Y-74501053D01*
X117786572Y-74699272D01*
X117714197Y-74874000D01*
X117709229Y-74885993D01*
X117596946Y-75054037D01*
X117454037Y-75196946D01*
X117285993Y-75309229D01*
X117285992Y-75309230D01*
X117285991Y-75309230D01*
X117099272Y-75386572D01*
X116901053Y-75426000D01*
X116698947Y-75426000D01*
X116500728Y-75386572D01*
X116314009Y-75309230D01*
X116314008Y-75309230D01*
X116314007Y-75309229D01*
X116145963Y-75196946D01*
X116003054Y-75054037D01*
X115890771Y-74885993D01*
X115885803Y-74874000D01*
X115813428Y-74699272D01*
X115774000Y-74501053D01*
X115774000Y-74298947D01*
X115813428Y-74100728D01*
X115890770Y-73914009D01*
X115890771Y-73914007D01*
X116003054Y-73745963D01*
X116145963Y-73603054D01*
X116314007Y-73490771D01*
X116325653Y-73485947D01*
X116500728Y-73413428D01*
X116698947Y-73374000D01*
X116901053Y-73374000D01*
X117099272Y-73413428D01*
X117099272Y-73413428D01*
G37*
G36*
X119599272Y-71913428D02*
G01*
X119785991Y-71990770D01*
X119785993Y-71990771D01*
X119954037Y-72103054D01*
X120096946Y-72245963D01*
X120202578Y-72404053D01*
X120209230Y-72414009D01*
X120286572Y-72600728D01*
X120326000Y-72798947D01*
X120326000Y-73001053D01*
X120286572Y-73199272D01*
X120274672Y-73228000D01*
X120209229Y-73385993D01*
X120096946Y-73554037D01*
X119954037Y-73696946D01*
X119785993Y-73809229D01*
X119785992Y-73809230D01*
X119785991Y-73809230D01*
X119599272Y-73886572D01*
X119401053Y-73926000D01*
X119198947Y-73926000D01*
X119000728Y-73886572D01*
X118814009Y-73809230D01*
X118814008Y-73809230D01*
X118814007Y-73809229D01*
X118645963Y-73696946D01*
X118503054Y-73554037D01*
X118390771Y-73385993D01*
X118325328Y-73228000D01*
X118313428Y-73199272D01*
X118274000Y-73001053D01*
X118274000Y-72798947D01*
X118313428Y-72600728D01*
X118390770Y-72414009D01*
X118397422Y-72404053D01*
X118503054Y-72245963D01*
X118645963Y-72103054D01*
X118814007Y-71990771D01*
X118814009Y-71990770D01*
X119000728Y-71913428D01*
X119198947Y-71874000D01*
X119401053Y-71874000D01*
X119599272Y-71913428D01*
X119599272Y-71913428D01*
G37*
G36*
X111599272Y-71913428D02*
G01*
X111785991Y-71990770D01*
X111785993Y-71990771D01*
X111954037Y-72103054D01*
X112096946Y-72245963D01*
X112202578Y-72404053D01*
X112209230Y-72414009D01*
X112286572Y-72600728D01*
X112326000Y-72798947D01*
X112326000Y-73001053D01*
X112286572Y-73199272D01*
X112274672Y-73228000D01*
X112209229Y-73385993D01*
X112096946Y-73554037D01*
X111954037Y-73696946D01*
X111785993Y-73809229D01*
X111785992Y-73809230D01*
X111785991Y-73809230D01*
X111599272Y-73886572D01*
X111401053Y-73926000D01*
X111198947Y-73926000D01*
X111000728Y-73886572D01*
X110814009Y-73809230D01*
X110814008Y-73809230D01*
X110814007Y-73809229D01*
X110645963Y-73696946D01*
X110503054Y-73554037D01*
X110390771Y-73385993D01*
X110325328Y-73228000D01*
X110313428Y-73199272D01*
X110274000Y-73001053D01*
X110274000Y-72798947D01*
X110313428Y-72600728D01*
X110390770Y-72414009D01*
X110397422Y-72404053D01*
X110503054Y-72245963D01*
X110645963Y-72103054D01*
X110814007Y-71990771D01*
X110814009Y-71990770D01*
X111000728Y-71913428D01*
X111198947Y-71874000D01*
X111401053Y-71874000D01*
X111599272Y-71913428D01*
X111599272Y-71913428D01*
G37*
G36*
X168701000Y-73601000D02*
G01*
X167699000Y-73601000D01*
X167699000Y-72699000D01*
X168701000Y-72699000D01*
X168701000Y-73601000D01*
X168701000Y-73601000D01*
G37*
G36*
X170764499Y-72403445D02*
G01*
X170801995Y-72414820D01*
X170836554Y-72433292D01*
X170866847Y-72458153D01*
X170891708Y-72488446D01*
X170910180Y-72523005D01*
X170921555Y-72560501D01*
X170926000Y-72605638D01*
X170926000Y-73344362D01*
X170921555Y-73389499D01*
X170910180Y-73426995D01*
X170891708Y-73461554D01*
X170866847Y-73491847D01*
X170836554Y-73516708D01*
X170801995Y-73535180D01*
X170764499Y-73546555D01*
X170719362Y-73551000D01*
X170080638Y-73551000D01*
X170035501Y-73546555D01*
X169998005Y-73535180D01*
X169963446Y-73516708D01*
X169933153Y-73491847D01*
X169908292Y-73461554D01*
X169889820Y-73426995D01*
X169878445Y-73389499D01*
X169874000Y-73344362D01*
X169874000Y-72605638D01*
X169878445Y-72560501D01*
X169889820Y-72523005D01*
X169908292Y-72488446D01*
X169933153Y-72458153D01*
X169963446Y-72433292D01*
X169998005Y-72414820D01*
X170035501Y-72403445D01*
X170080638Y-72399000D01*
X170719362Y-72399000D01*
X170764499Y-72403445D01*
X170764499Y-72403445D01*
G37*
G36*
X163764499Y-72343445D02*
G01*
X163801995Y-72354820D01*
X163836554Y-72373292D01*
X163866847Y-72398153D01*
X163891708Y-72428446D01*
X163910180Y-72463005D01*
X163921555Y-72500501D01*
X163926000Y-72545638D01*
X163926000Y-73284362D01*
X163921555Y-73329499D01*
X163910180Y-73366995D01*
X163891708Y-73401554D01*
X163866847Y-73431847D01*
X163836554Y-73456708D01*
X163801995Y-73475180D01*
X163764499Y-73486555D01*
X163719362Y-73491000D01*
X163080638Y-73491000D01*
X163035501Y-73486555D01*
X162998005Y-73475180D01*
X162963446Y-73456708D01*
X162933153Y-73431847D01*
X162908292Y-73401554D01*
X162889820Y-73366995D01*
X162878445Y-73329499D01*
X162874000Y-73284362D01*
X162874000Y-72545638D01*
X162878445Y-72500501D01*
X162889820Y-72463005D01*
X162908292Y-72428446D01*
X162933153Y-72398153D01*
X162963446Y-72373292D01*
X162998005Y-72354820D01*
X163035501Y-72343445D01*
X163080638Y-72339000D01*
X163719362Y-72339000D01*
X163764499Y-72343445D01*
X163764499Y-72343445D01*
G37*
G36*
X166701000Y-72651000D02*
G01*
X165699000Y-72651000D01*
X165699000Y-71749000D01*
X166701000Y-71749000D01*
X166701000Y-72651000D01*
X166701000Y-72651000D01*
G37*
G36*
X140164499Y-71478445D02*
G01*
X140201995Y-71489820D01*
X140236554Y-71508292D01*
X140266847Y-71533153D01*
X140291708Y-71563446D01*
X140310180Y-71598005D01*
X140321555Y-71635501D01*
X140326000Y-71680638D01*
X140326000Y-72319362D01*
X140321555Y-72364499D01*
X140310180Y-72401995D01*
X140291708Y-72436554D01*
X140266847Y-72466847D01*
X140236554Y-72491708D01*
X140201995Y-72510180D01*
X140164499Y-72521555D01*
X140119362Y-72526000D01*
X139380638Y-72526000D01*
X139335501Y-72521555D01*
X139298005Y-72510180D01*
X139263446Y-72491708D01*
X139233153Y-72466847D01*
X139208292Y-72436554D01*
X139189820Y-72401995D01*
X139178445Y-72364499D01*
X139174000Y-72319362D01*
X139174000Y-71680638D01*
X139178445Y-71635501D01*
X139189820Y-71598005D01*
X139208292Y-71563446D01*
X139233153Y-71533153D01*
X139263446Y-71508292D01*
X139298005Y-71489820D01*
X139335501Y-71478445D01*
X139380638Y-71474000D01*
X140119362Y-71474000D01*
X140164499Y-71478445D01*
X140164499Y-71478445D01*
G37*
G36*
X138414499Y-71478445D02*
G01*
X138451995Y-71489820D01*
X138486554Y-71508292D01*
X138516847Y-71533153D01*
X138541708Y-71563446D01*
X138560180Y-71598005D01*
X138571555Y-71635501D01*
X138576000Y-71680638D01*
X138576000Y-72319362D01*
X138571555Y-72364499D01*
X138560180Y-72401995D01*
X138541708Y-72436554D01*
X138516847Y-72466847D01*
X138486554Y-72491708D01*
X138451995Y-72510180D01*
X138414499Y-72521555D01*
X138369362Y-72526000D01*
X137630638Y-72526000D01*
X137585501Y-72521555D01*
X137548005Y-72510180D01*
X137513446Y-72491708D01*
X137483153Y-72466847D01*
X137458292Y-72436554D01*
X137439820Y-72401995D01*
X137428445Y-72364499D01*
X137424000Y-72319362D01*
X137424000Y-71680638D01*
X137428445Y-71635501D01*
X137439820Y-71598005D01*
X137458292Y-71563446D01*
X137483153Y-71533153D01*
X137513446Y-71508292D01*
X137548005Y-71489820D01*
X137585501Y-71478445D01*
X137630638Y-71474000D01*
X138369362Y-71474000D01*
X138414499Y-71478445D01*
X138414499Y-71478445D01*
G37*
G36*
X117099272Y-70413428D02*
G01*
X117285991Y-70490770D01*
X117285993Y-70490771D01*
X117454037Y-70603054D01*
X117596946Y-70745963D01*
X117707888Y-70912000D01*
X117709230Y-70914009D01*
X117786572Y-71100728D01*
X117826000Y-71298947D01*
X117826000Y-71501053D01*
X117786572Y-71699272D01*
X117714197Y-71874000D01*
X117709229Y-71885993D01*
X117596946Y-72054037D01*
X117454037Y-72196946D01*
X117285993Y-72309229D01*
X117285992Y-72309230D01*
X117285991Y-72309230D01*
X117099272Y-72386572D01*
X116901053Y-72426000D01*
X116698947Y-72426000D01*
X116500728Y-72386572D01*
X116314009Y-72309230D01*
X116314008Y-72309230D01*
X116314007Y-72309229D01*
X116145963Y-72196946D01*
X116003054Y-72054037D01*
X115890771Y-71885993D01*
X115885803Y-71874000D01*
X115813428Y-71699272D01*
X115774000Y-71501053D01*
X115774000Y-71298947D01*
X115813428Y-71100728D01*
X115890770Y-70914009D01*
X115892112Y-70912000D01*
X116003054Y-70745963D01*
X116145963Y-70603054D01*
X116314007Y-70490771D01*
X116314009Y-70490770D01*
X116500728Y-70413428D01*
X116698947Y-70374000D01*
X116901053Y-70374000D01*
X117099272Y-70413428D01*
X117099272Y-70413428D01*
G37*
G36*
X114099272Y-70413428D02*
G01*
X114285991Y-70490770D01*
X114285993Y-70490771D01*
X114454037Y-70603054D01*
X114596946Y-70745963D01*
X114707888Y-70912000D01*
X114709230Y-70914009D01*
X114786572Y-71100728D01*
X114826000Y-71298947D01*
X114826000Y-71501053D01*
X114786572Y-71699272D01*
X114714197Y-71874000D01*
X114709229Y-71885993D01*
X114596946Y-72054037D01*
X114454037Y-72196946D01*
X114285993Y-72309229D01*
X114285992Y-72309230D01*
X114285991Y-72309230D01*
X114099272Y-72386572D01*
X113901053Y-72426000D01*
X113698947Y-72426000D01*
X113500728Y-72386572D01*
X113314009Y-72309230D01*
X113314008Y-72309230D01*
X113314007Y-72309229D01*
X113145963Y-72196946D01*
X113003054Y-72054037D01*
X112890771Y-71885993D01*
X112885803Y-71874000D01*
X112813428Y-71699272D01*
X112774000Y-71501053D01*
X112774000Y-71298947D01*
X112813428Y-71100728D01*
X112890770Y-70914009D01*
X112892112Y-70912000D01*
X113003054Y-70745963D01*
X113145963Y-70603054D01*
X113314007Y-70490771D01*
X113314009Y-70490770D01*
X113500728Y-70413428D01*
X113698947Y-70374000D01*
X113901053Y-70374000D01*
X114099272Y-70413428D01*
X114099272Y-70413428D01*
G37*
G36*
X135901000Y-72001000D02*
G01*
X134899000Y-72001000D01*
X134899000Y-71099000D01*
X135901000Y-71099000D01*
X135901000Y-72001000D01*
X135901000Y-72001000D01*
G37*
G36*
X170764499Y-70653445D02*
G01*
X170801995Y-70664820D01*
X170836554Y-70683292D01*
X170866847Y-70708153D01*
X170891708Y-70738446D01*
X170910180Y-70773005D01*
X170921555Y-70810501D01*
X170926000Y-70855638D01*
X170926000Y-71594362D01*
X170921555Y-71639499D01*
X170910180Y-71676995D01*
X170891708Y-71711554D01*
X170866847Y-71741847D01*
X170836554Y-71766708D01*
X170801995Y-71785180D01*
X170764499Y-71796555D01*
X170719362Y-71801000D01*
X170080638Y-71801000D01*
X170035501Y-71796555D01*
X169998005Y-71785180D01*
X169963446Y-71766708D01*
X169933153Y-71741847D01*
X169908292Y-71711554D01*
X169889820Y-71676995D01*
X169878445Y-71639499D01*
X169874000Y-71594362D01*
X169874000Y-70855638D01*
X169878445Y-70810501D01*
X169889820Y-70773005D01*
X169908292Y-70738446D01*
X169933153Y-70708153D01*
X169963446Y-70683292D01*
X169998005Y-70664820D01*
X170035501Y-70653445D01*
X170080638Y-70649000D01*
X170719362Y-70649000D01*
X170764499Y-70653445D01*
X170764499Y-70653445D01*
G37*
G36*
X125688674Y-70503465D02*
G01*
X125726367Y-70514899D01*
X125761103Y-70533466D01*
X125791548Y-70558452D01*
X125816534Y-70588897D01*
X125835101Y-70623633D01*
X125846535Y-70661326D01*
X125851000Y-70706661D01*
X125851000Y-71543339D01*
X125846535Y-71588674D01*
X125835101Y-71626367D01*
X125816534Y-71661103D01*
X125791548Y-71691548D01*
X125761103Y-71716534D01*
X125726367Y-71735101D01*
X125688674Y-71746535D01*
X125643339Y-71751000D01*
X124556661Y-71751000D01*
X124511326Y-71746535D01*
X124473633Y-71735101D01*
X124438897Y-71716534D01*
X124408452Y-71691548D01*
X124383466Y-71661103D01*
X124364899Y-71626367D01*
X124353465Y-71588674D01*
X124349000Y-71543339D01*
X124349000Y-70706661D01*
X124353465Y-70661326D01*
X124364899Y-70623633D01*
X124383466Y-70588897D01*
X124408452Y-70558452D01*
X124438897Y-70533466D01*
X124473633Y-70514899D01*
X124511326Y-70503465D01*
X124556661Y-70499000D01*
X125643339Y-70499000D01*
X125688674Y-70503465D01*
X125688674Y-70503465D01*
G37*
G36*
X163764499Y-70593445D02*
G01*
X163801995Y-70604820D01*
X163836554Y-70623292D01*
X163866847Y-70648153D01*
X163891708Y-70678446D01*
X163910180Y-70713005D01*
X163921555Y-70750501D01*
X163926000Y-70795638D01*
X163926000Y-71534362D01*
X163921555Y-71579499D01*
X163910180Y-71616995D01*
X163891708Y-71651554D01*
X163866847Y-71681847D01*
X163836554Y-71706708D01*
X163801995Y-71725180D01*
X163764499Y-71736555D01*
X163719362Y-71741000D01*
X163080638Y-71741000D01*
X163035501Y-71736555D01*
X162998005Y-71725180D01*
X162963446Y-71706708D01*
X162933153Y-71681847D01*
X162908292Y-71651554D01*
X162889820Y-71616995D01*
X162878445Y-71579499D01*
X162874000Y-71534362D01*
X162874000Y-70795638D01*
X162878445Y-70750501D01*
X162889820Y-70713005D01*
X162908292Y-70678446D01*
X162933153Y-70648153D01*
X162963446Y-70623292D01*
X162998005Y-70604820D01*
X163035501Y-70593445D01*
X163080638Y-70589000D01*
X163719362Y-70589000D01*
X163764499Y-70593445D01*
X163764499Y-70593445D01*
G37*
G36*
X168701000Y-71701000D02*
G01*
X167699000Y-71701000D01*
X167699000Y-70799000D01*
X168701000Y-70799000D01*
X168701000Y-71701000D01*
X168701000Y-71701000D01*
G37*
G36*
X142838674Y-70003465D02*
G01*
X142876367Y-70014899D01*
X142911103Y-70033466D01*
X142941548Y-70058452D01*
X142966534Y-70088897D01*
X142985101Y-70123633D01*
X142996535Y-70161326D01*
X143001000Y-70206661D01*
X143001000Y-71293339D01*
X142996535Y-71338674D01*
X142985101Y-71376367D01*
X142966534Y-71411103D01*
X142941548Y-71441548D01*
X142911103Y-71466534D01*
X142876367Y-71485101D01*
X142838674Y-71496535D01*
X142793339Y-71501000D01*
X141956661Y-71501000D01*
X141911326Y-71496535D01*
X141873633Y-71485101D01*
X141838897Y-71466534D01*
X141808452Y-71441548D01*
X141783466Y-71411103D01*
X141764899Y-71376367D01*
X141753465Y-71338674D01*
X141749000Y-71293339D01*
X141749000Y-70206661D01*
X141753465Y-70161326D01*
X141764899Y-70123633D01*
X141783466Y-70088897D01*
X141808452Y-70058452D01*
X141838897Y-70033466D01*
X141873633Y-70014899D01*
X141911326Y-70003465D01*
X141956661Y-69999000D01*
X142793339Y-69999000D01*
X142838674Y-70003465D01*
X142838674Y-70003465D01*
G37*
G36*
X144888674Y-70003465D02*
G01*
X144926367Y-70014899D01*
X144961103Y-70033466D01*
X144991548Y-70058452D01*
X145016534Y-70088897D01*
X145035101Y-70123633D01*
X145046535Y-70161326D01*
X145051000Y-70206661D01*
X145051000Y-71293339D01*
X145046535Y-71338674D01*
X145035101Y-71376367D01*
X145016534Y-71411103D01*
X144991548Y-71441548D01*
X144961103Y-71466534D01*
X144926367Y-71485101D01*
X144888674Y-71496535D01*
X144843339Y-71501000D01*
X144006661Y-71501000D01*
X143961326Y-71496535D01*
X143923633Y-71485101D01*
X143888897Y-71466534D01*
X143858452Y-71441548D01*
X143833466Y-71411103D01*
X143814899Y-71376367D01*
X143803465Y-71338674D01*
X143799000Y-71293339D01*
X143799000Y-70206661D01*
X143803465Y-70161326D01*
X143814899Y-70123633D01*
X143833466Y-70088897D01*
X143858452Y-70058452D01*
X143888897Y-70033466D01*
X143923633Y-70014899D01*
X143961326Y-70003465D01*
X144006661Y-69999000D01*
X144843339Y-69999000D01*
X144888674Y-70003465D01*
X144888674Y-70003465D01*
G37*
G36*
X133901000Y-71051000D02*
G01*
X132899000Y-71051000D01*
X132899000Y-70149000D01*
X133901000Y-70149000D01*
X133901000Y-71051000D01*
X133901000Y-71051000D01*
G37*
G36*
X119599272Y-68913428D02*
G01*
X119761530Y-68980638D01*
X119785993Y-68990771D01*
X119954037Y-69103054D01*
X120096946Y-69245963D01*
X120209229Y-69414007D01*
X120209230Y-69414009D01*
X120286572Y-69600728D01*
X120326000Y-69798947D01*
X120326000Y-70001053D01*
X120286572Y-70199272D01*
X120283511Y-70206661D01*
X120209229Y-70385993D01*
X120096946Y-70554037D01*
X119954037Y-70696946D01*
X119785993Y-70809229D01*
X119785992Y-70809230D01*
X119785991Y-70809230D01*
X119599272Y-70886572D01*
X119401053Y-70926000D01*
X119198947Y-70926000D01*
X119000728Y-70886572D01*
X118814009Y-70809230D01*
X118814008Y-70809230D01*
X118814007Y-70809229D01*
X118645963Y-70696946D01*
X118503054Y-70554037D01*
X118390771Y-70385993D01*
X118316489Y-70206661D01*
X118313428Y-70199272D01*
X118274000Y-70001053D01*
X118274000Y-69798947D01*
X118313428Y-69600728D01*
X118390770Y-69414009D01*
X118390771Y-69414007D01*
X118503054Y-69245963D01*
X118645963Y-69103054D01*
X118814007Y-68990771D01*
X118838470Y-68980638D01*
X119000728Y-68913428D01*
X119198947Y-68874000D01*
X119401053Y-68874000D01*
X119599272Y-68913428D01*
X119599272Y-68913428D01*
G37*
G36*
X112326000Y-70926000D02*
G01*
X110274000Y-70926000D01*
X110274000Y-68874000D01*
X112326000Y-68874000D01*
X112326000Y-70926000D01*
X112326000Y-70926000D01*
G37*
G36*
X135901000Y-70101000D02*
G01*
X134899000Y-70101000D01*
X134899000Y-69199000D01*
X135901000Y-69199000D01*
X135901000Y-70101000D01*
X135901000Y-70101000D01*
G37*
G36*
X140114499Y-68778445D02*
G01*
X140151995Y-68789820D01*
X140186554Y-68808292D01*
X140216847Y-68833153D01*
X140241708Y-68863446D01*
X140260180Y-68898005D01*
X140271555Y-68935501D01*
X140276000Y-68980638D01*
X140276000Y-69619362D01*
X140271555Y-69664499D01*
X140260180Y-69701995D01*
X140241708Y-69736554D01*
X140216847Y-69766847D01*
X140186554Y-69791708D01*
X140151995Y-69810180D01*
X140114499Y-69821555D01*
X140069362Y-69826000D01*
X139330638Y-69826000D01*
X139285501Y-69821555D01*
X139248005Y-69810180D01*
X139213446Y-69791708D01*
X139183153Y-69766847D01*
X139158292Y-69736554D01*
X139139820Y-69701995D01*
X139128445Y-69664499D01*
X139124000Y-69619362D01*
X139124000Y-68980638D01*
X139128445Y-68935501D01*
X139139820Y-68898005D01*
X139158292Y-68863446D01*
X139183153Y-68833153D01*
X139213446Y-68808292D01*
X139248005Y-68789820D01*
X139285501Y-68778445D01*
X139330638Y-68774000D01*
X140069362Y-68774000D01*
X140114499Y-68778445D01*
X140114499Y-68778445D01*
G37*
G36*
X138364499Y-68778445D02*
G01*
X138401995Y-68789820D01*
X138436554Y-68808292D01*
X138466847Y-68833153D01*
X138491708Y-68863446D01*
X138510180Y-68898005D01*
X138521555Y-68935501D01*
X138526000Y-68980638D01*
X138526000Y-69619362D01*
X138521555Y-69664499D01*
X138510180Y-69701995D01*
X138491708Y-69736554D01*
X138466847Y-69766847D01*
X138436554Y-69791708D01*
X138401995Y-69810180D01*
X138364499Y-69821555D01*
X138319362Y-69826000D01*
X137580638Y-69826000D01*
X137535501Y-69821555D01*
X137498005Y-69810180D01*
X137463446Y-69791708D01*
X137433153Y-69766847D01*
X137408292Y-69736554D01*
X137389820Y-69701995D01*
X137378445Y-69664499D01*
X137374000Y-69619362D01*
X137374000Y-68980638D01*
X137378445Y-68935501D01*
X137389820Y-68898005D01*
X137408292Y-68863446D01*
X137433153Y-68833153D01*
X137463446Y-68808292D01*
X137498005Y-68789820D01*
X137535501Y-68778445D01*
X137580638Y-68774000D01*
X138319362Y-68774000D01*
X138364499Y-68778445D01*
X138364499Y-68778445D01*
G37*
G36*
X125688674Y-68453465D02*
G01*
X125726367Y-68464899D01*
X125761103Y-68483466D01*
X125791548Y-68508452D01*
X125816534Y-68538897D01*
X125835101Y-68573633D01*
X125846535Y-68611326D01*
X125851000Y-68656661D01*
X125851000Y-69493339D01*
X125846535Y-69538674D01*
X125835101Y-69576367D01*
X125816534Y-69611103D01*
X125791548Y-69641548D01*
X125761103Y-69666534D01*
X125726367Y-69685101D01*
X125688674Y-69696535D01*
X125643339Y-69701000D01*
X124556661Y-69701000D01*
X124511326Y-69696535D01*
X124473633Y-69685101D01*
X124438897Y-69666534D01*
X124408452Y-69641548D01*
X124383466Y-69611103D01*
X124364899Y-69576367D01*
X124353465Y-69538674D01*
X124349000Y-69493339D01*
X124349000Y-68656661D01*
X124353465Y-68611326D01*
X124364899Y-68573633D01*
X124383466Y-68538897D01*
X124408452Y-68508452D01*
X124438897Y-68483466D01*
X124473633Y-68464899D01*
X124511326Y-68453465D01*
X124556661Y-68449000D01*
X125643339Y-68449000D01*
X125688674Y-68453465D01*
X125688674Y-68453465D01*
G37*
G36*
X119275562Y-65828181D02*
G01*
X119310481Y-65838774D01*
X119342663Y-65855976D01*
X119370873Y-65879127D01*
X119394024Y-65907337D01*
X119411226Y-65939519D01*
X119421819Y-65974438D01*
X119426000Y-66016895D01*
X119426000Y-67158105D01*
X119421819Y-67200562D01*
X119411226Y-67235481D01*
X119394024Y-67267663D01*
X119370873Y-67295873D01*
X119342663Y-67319024D01*
X119310481Y-67336226D01*
X119275562Y-67346819D01*
X119233105Y-67351000D01*
X117766895Y-67351000D01*
X117724438Y-67346819D01*
X117689519Y-67336226D01*
X117657337Y-67319024D01*
X117629127Y-67295873D01*
X117605976Y-67267663D01*
X117588774Y-67235481D01*
X117578181Y-67200562D01*
X117574000Y-67158105D01*
X117574000Y-66016895D01*
X117578181Y-65974438D01*
X117588774Y-65939519D01*
X117605976Y-65907337D01*
X117629127Y-65879127D01*
X117657337Y-65855976D01*
X117689519Y-65838774D01*
X117724438Y-65828181D01*
X117766895Y-65824000D01*
X119233105Y-65824000D01*
X119275562Y-65828181D01*
X119275562Y-65828181D01*
G37*
G36*
X125688674Y-65503465D02*
G01*
X125726367Y-65514899D01*
X125761103Y-65533466D01*
X125791548Y-65558452D01*
X125816534Y-65588897D01*
X125835101Y-65623633D01*
X125846535Y-65661326D01*
X125851000Y-65706661D01*
X125851000Y-66543339D01*
X125846535Y-66588674D01*
X125835101Y-66626367D01*
X125816534Y-66661103D01*
X125791548Y-66691548D01*
X125761103Y-66716534D01*
X125726367Y-66735101D01*
X125688674Y-66746535D01*
X125643339Y-66751000D01*
X124556661Y-66751000D01*
X124511326Y-66746535D01*
X124473633Y-66735101D01*
X124438897Y-66716534D01*
X124408452Y-66691548D01*
X124383466Y-66661103D01*
X124364899Y-66626367D01*
X124353465Y-66588674D01*
X124349000Y-66543339D01*
X124349000Y-65706661D01*
X124353465Y-65661326D01*
X124364899Y-65623633D01*
X124383466Y-65588897D01*
X124408452Y-65558452D01*
X124438897Y-65533466D01*
X124473633Y-65514899D01*
X124511326Y-65503465D01*
X124556661Y-65499000D01*
X125643339Y-65499000D01*
X125688674Y-65503465D01*
X125688674Y-65503465D01*
G37*
G36*
X122288674Y-65503465D02*
G01*
X122326367Y-65514899D01*
X122361103Y-65533466D01*
X122391548Y-65558452D01*
X122416534Y-65588897D01*
X122435101Y-65623633D01*
X122446535Y-65661326D01*
X122451000Y-65706661D01*
X122451000Y-66543339D01*
X122446535Y-66588674D01*
X122435101Y-66626367D01*
X122416534Y-66661103D01*
X122391548Y-66691548D01*
X122361103Y-66716534D01*
X122326367Y-66735101D01*
X122288674Y-66746535D01*
X122243339Y-66751000D01*
X121156661Y-66751000D01*
X121111326Y-66746535D01*
X121073633Y-66735101D01*
X121038897Y-66716534D01*
X121008452Y-66691548D01*
X120983466Y-66661103D01*
X120964899Y-66626367D01*
X120953465Y-66588674D01*
X120949000Y-66543339D01*
X120949000Y-65706661D01*
X120953465Y-65661326D01*
X120964899Y-65623633D01*
X120983466Y-65588897D01*
X121008452Y-65558452D01*
X121038897Y-65533466D01*
X121073633Y-65514899D01*
X121111326Y-65503465D01*
X121156661Y-65499000D01*
X122243339Y-65499000D01*
X122288674Y-65503465D01*
X122288674Y-65503465D01*
G37*
G36*
X128664499Y-65503445D02*
G01*
X128701995Y-65514820D01*
X128736554Y-65533292D01*
X128766847Y-65558153D01*
X128791708Y-65588446D01*
X128810180Y-65623005D01*
X128821555Y-65660501D01*
X128826000Y-65705638D01*
X128826000Y-66444362D01*
X128821555Y-66489499D01*
X128810180Y-66526995D01*
X128791708Y-66561554D01*
X128766847Y-66591847D01*
X128736554Y-66616708D01*
X128701995Y-66635180D01*
X128664499Y-66646555D01*
X128619362Y-66651000D01*
X127980638Y-66651000D01*
X127935501Y-66646555D01*
X127898005Y-66635180D01*
X127863446Y-66616708D01*
X127833153Y-66591847D01*
X127808292Y-66561554D01*
X127789820Y-66526995D01*
X127778445Y-66489499D01*
X127774000Y-66444362D01*
X127774000Y-65705638D01*
X127778445Y-65660501D01*
X127789820Y-65623005D01*
X127808292Y-65588446D01*
X127833153Y-65558153D01*
X127863446Y-65533292D01*
X127898005Y-65514820D01*
X127935501Y-65503445D01*
X127980638Y-65499000D01*
X128619362Y-65499000D01*
X128664499Y-65503445D01*
X128664499Y-65503445D01*
G37*
G36*
X128664499Y-63753445D02*
G01*
X128701995Y-63764820D01*
X128736554Y-63783292D01*
X128766847Y-63808153D01*
X128791708Y-63838446D01*
X128810180Y-63873005D01*
X128821555Y-63910501D01*
X128826000Y-63955638D01*
X128826000Y-64694362D01*
X128821555Y-64739499D01*
X128810180Y-64776995D01*
X128791708Y-64811554D01*
X128766847Y-64841847D01*
X128736554Y-64866708D01*
X128701995Y-64885180D01*
X128664499Y-64896555D01*
X128619362Y-64901000D01*
X127980638Y-64901000D01*
X127935501Y-64896555D01*
X127898005Y-64885180D01*
X127863446Y-64866708D01*
X127833153Y-64841847D01*
X127808292Y-64811554D01*
X127789820Y-64776995D01*
X127778445Y-64739499D01*
X127774000Y-64694362D01*
X127774000Y-63955638D01*
X127778445Y-63910501D01*
X127789820Y-63873005D01*
X127808292Y-63838446D01*
X127833153Y-63808153D01*
X127863446Y-63783292D01*
X127898005Y-63764820D01*
X127935501Y-63753445D01*
X127980638Y-63749000D01*
X128619362Y-63749000D01*
X128664499Y-63753445D01*
X128664499Y-63753445D01*
G37*
G36*
X125688674Y-63453465D02*
G01*
X125726367Y-63464899D01*
X125761103Y-63483466D01*
X125791548Y-63508452D01*
X125816534Y-63538897D01*
X125835101Y-63573633D01*
X125846535Y-63611326D01*
X125851000Y-63656661D01*
X125851000Y-64493339D01*
X125846535Y-64538674D01*
X125835101Y-64576367D01*
X125816534Y-64611103D01*
X125791548Y-64641548D01*
X125761103Y-64666534D01*
X125726367Y-64685101D01*
X125688674Y-64696535D01*
X125643339Y-64701000D01*
X124556661Y-64701000D01*
X124511326Y-64696535D01*
X124473633Y-64685101D01*
X124438897Y-64666534D01*
X124408452Y-64641548D01*
X124383466Y-64611103D01*
X124364899Y-64576367D01*
X124353465Y-64538674D01*
X124349000Y-64493339D01*
X124349000Y-63656661D01*
X124353465Y-63611326D01*
X124364899Y-63573633D01*
X124383466Y-63538897D01*
X124408452Y-63508452D01*
X124438897Y-63483466D01*
X124473633Y-63464899D01*
X124511326Y-63453465D01*
X124556661Y-63449000D01*
X125643339Y-63449000D01*
X125688674Y-63453465D01*
X125688674Y-63453465D01*
G37*
G36*
X122288674Y-63453465D02*
G01*
X122326367Y-63464899D01*
X122361103Y-63483466D01*
X122391548Y-63508452D01*
X122416534Y-63538897D01*
X122435101Y-63573633D01*
X122446535Y-63611326D01*
X122451000Y-63656661D01*
X122451000Y-64493339D01*
X122446535Y-64538674D01*
X122435101Y-64576367D01*
X122416534Y-64611103D01*
X122391548Y-64641548D01*
X122361103Y-64666534D01*
X122326367Y-64685101D01*
X122288674Y-64696535D01*
X122243339Y-64701000D01*
X121156661Y-64701000D01*
X121111326Y-64696535D01*
X121073633Y-64685101D01*
X121038897Y-64666534D01*
X121008452Y-64641548D01*
X120983466Y-64611103D01*
X120964899Y-64576367D01*
X120953465Y-64538674D01*
X120949000Y-64493339D01*
X120949000Y-63656661D01*
X120953465Y-63611326D01*
X120964899Y-63573633D01*
X120983466Y-63538897D01*
X121008452Y-63508452D01*
X121038897Y-63483466D01*
X121073633Y-63464899D01*
X121111326Y-63453465D01*
X121156661Y-63449000D01*
X122243339Y-63449000D01*
X122288674Y-63453465D01*
X122288674Y-63453465D01*
G37*
G36*
X119275562Y-62853181D02*
G01*
X119310481Y-62863774D01*
X119342663Y-62880976D01*
X119370873Y-62904127D01*
X119394024Y-62932337D01*
X119411226Y-62964519D01*
X119421819Y-62999438D01*
X119426000Y-63041895D01*
X119426000Y-64183105D01*
X119421819Y-64225562D01*
X119411226Y-64260481D01*
X119394024Y-64292663D01*
X119370873Y-64320873D01*
X119342663Y-64344024D01*
X119310481Y-64361226D01*
X119275562Y-64371819D01*
X119233105Y-64376000D01*
X117766895Y-64376000D01*
X117724438Y-64371819D01*
X117689519Y-64361226D01*
X117657337Y-64344024D01*
X117629127Y-64320873D01*
X117605976Y-64292663D01*
X117588774Y-64260481D01*
X117578181Y-64225562D01*
X117574000Y-64183105D01*
X117574000Y-63041895D01*
X117578181Y-62999438D01*
X117588774Y-62964519D01*
X117605976Y-62932337D01*
X117629127Y-62904127D01*
X117657337Y-62880976D01*
X117689519Y-62863774D01*
X117724438Y-62853181D01*
X117766895Y-62849000D01*
X119233105Y-62849000D01*
X119275562Y-62853181D01*
X119275562Y-62853181D01*
G37*
G36*
X105296162Y-61014368D02*
G01*
X105605724Y-61142593D01*
X105605725Y-61142594D01*
X105884324Y-61328747D01*
X106121253Y-61565676D01*
X106245637Y-61751830D01*
X106307407Y-61844276D01*
X106435632Y-62153838D01*
X106501000Y-62482465D01*
X106501000Y-62817535D01*
X106435632Y-63146162D01*
X106307407Y-63455724D01*
X106288870Y-63483466D01*
X106121253Y-63734324D01*
X105884324Y-63971253D01*
X105698170Y-64095637D01*
X105605724Y-64157407D01*
X105296162Y-64285632D01*
X104967535Y-64351000D01*
X104632465Y-64351000D01*
X104303838Y-64285632D01*
X103994276Y-64157407D01*
X103901830Y-64095637D01*
X103715676Y-63971253D01*
X103478747Y-63734324D01*
X103311130Y-63483466D01*
X103292593Y-63455724D01*
X103164368Y-63146162D01*
X103099000Y-62817535D01*
X103099000Y-62482465D01*
X103164368Y-62153838D01*
X103292593Y-61844276D01*
X103354363Y-61751830D01*
X103478747Y-61565676D01*
X103715676Y-61328747D01*
X103994275Y-61142594D01*
X103994276Y-61142593D01*
X104303838Y-61014368D01*
X104632465Y-60949000D01*
X104967535Y-60949000D01*
X105296162Y-61014368D01*
X105296162Y-61014368D01*
G37*
G36*
X112051000Y-64051000D02*
G01*
X110749000Y-64051000D01*
X110749000Y-63049000D01*
X112051000Y-63049000D01*
X112051000Y-64051000D01*
X112051000Y-64051000D01*
G37*
G36*
X112051000Y-60751000D02*
G01*
X110749000Y-60751000D01*
X110749000Y-59749000D01*
X112051000Y-59749000D01*
X112051000Y-60751000D01*
X112051000Y-60751000D01*
G37*
G36*
X151526000Y-59426000D02*
G01*
X150074000Y-59426000D01*
X150074000Y-57974000D01*
X151526000Y-57974000D01*
X151526000Y-59426000D01*
X151526000Y-59426000D01*
G37*
G36*
X152871213Y-57977502D02*
G01*
X152942321Y-57984505D01*
X153079172Y-58026019D01*
X153079175Y-58026020D01*
X153205294Y-58093432D01*
X153315843Y-58184157D01*
X153406568Y-58294706D01*
X153473980Y-58420825D01*
X153473981Y-58420828D01*
X153515495Y-58557679D01*
X153529512Y-58700000D01*
X153515495Y-58842321D01*
X153473981Y-58979172D01*
X153473980Y-58979175D01*
X153406568Y-59105294D01*
X153315843Y-59215843D01*
X153205294Y-59306568D01*
X153079175Y-59373980D01*
X153079172Y-59373981D01*
X152942321Y-59415495D01*
X152871213Y-59422498D01*
X152835660Y-59426000D01*
X152764340Y-59426000D01*
X152728787Y-59422498D01*
X152657679Y-59415495D01*
X152520828Y-59373981D01*
X152520825Y-59373980D01*
X152394706Y-59306568D01*
X152284157Y-59215843D01*
X152193432Y-59105294D01*
X152126020Y-58979175D01*
X152126019Y-58979172D01*
X152084505Y-58842321D01*
X152070488Y-58700000D01*
X152084505Y-58557679D01*
X152126019Y-58420828D01*
X152126020Y-58420825D01*
X152193432Y-58294706D01*
X152284157Y-58184157D01*
X152394706Y-58093432D01*
X152520825Y-58026020D01*
X152520828Y-58026019D01*
X152657679Y-57984505D01*
X152728787Y-57977502D01*
X152764340Y-57974000D01*
X152835660Y-57974000D01*
X152871213Y-57977502D01*
X152871213Y-57977502D01*
G37*
G36*
X156871213Y-57977502D02*
G01*
X156942321Y-57984505D01*
X157079172Y-58026019D01*
X157079175Y-58026020D01*
X157205294Y-58093432D01*
X157315843Y-58184157D01*
X157406568Y-58294706D01*
X157473980Y-58420825D01*
X157473981Y-58420828D01*
X157515495Y-58557679D01*
X157529512Y-58700000D01*
X157515495Y-58842321D01*
X157473981Y-58979172D01*
X157473980Y-58979175D01*
X157406568Y-59105294D01*
X157315843Y-59215843D01*
X157205294Y-59306568D01*
X157079175Y-59373980D01*
X157079172Y-59373981D01*
X156942321Y-59415495D01*
X156871213Y-59422498D01*
X156835660Y-59426000D01*
X156764340Y-59426000D01*
X156728787Y-59422498D01*
X156657679Y-59415495D01*
X156520828Y-59373981D01*
X156520825Y-59373980D01*
X156394706Y-59306568D01*
X156284157Y-59215843D01*
X156193432Y-59105294D01*
X156126020Y-58979175D01*
X156126019Y-58979172D01*
X156084505Y-58842321D01*
X156070488Y-58700000D01*
X156084505Y-58557679D01*
X156126019Y-58420828D01*
X156126020Y-58420825D01*
X156193432Y-58294706D01*
X156284157Y-58184157D01*
X156394706Y-58093432D01*
X156520825Y-58026020D01*
X156520828Y-58026019D01*
X156657679Y-57984505D01*
X156728787Y-57977502D01*
X156764340Y-57974000D01*
X156835660Y-57974000D01*
X156871213Y-57977502D01*
X156871213Y-57977502D01*
G37*
G36*
X158871213Y-57977502D02*
G01*
X158942321Y-57984505D01*
X159079172Y-58026019D01*
X159079175Y-58026020D01*
X159205294Y-58093432D01*
X159315843Y-58184157D01*
X159406568Y-58294706D01*
X159473980Y-58420825D01*
X159473981Y-58420828D01*
X159515495Y-58557679D01*
X159529512Y-58700000D01*
X159515495Y-58842321D01*
X159473981Y-58979172D01*
X159473980Y-58979175D01*
X159406568Y-59105294D01*
X159315843Y-59215843D01*
X159205294Y-59306568D01*
X159079175Y-59373980D01*
X159079172Y-59373981D01*
X158942321Y-59415495D01*
X158871213Y-59422498D01*
X158835660Y-59426000D01*
X158764340Y-59426000D01*
X158728787Y-59422498D01*
X158657679Y-59415495D01*
X158520828Y-59373981D01*
X158520825Y-59373980D01*
X158394706Y-59306568D01*
X158284157Y-59215843D01*
X158193432Y-59105294D01*
X158126020Y-58979175D01*
X158126019Y-58979172D01*
X158084505Y-58842321D01*
X158070488Y-58700000D01*
X158084505Y-58557679D01*
X158126019Y-58420828D01*
X158126020Y-58420825D01*
X158193432Y-58294706D01*
X158284157Y-58184157D01*
X158394706Y-58093432D01*
X158520825Y-58026020D01*
X158520828Y-58026019D01*
X158657679Y-57984505D01*
X158728787Y-57977502D01*
X158764340Y-57974000D01*
X158835660Y-57974000D01*
X158871213Y-57977502D01*
X158871213Y-57977502D01*
G37*
G36*
X154871213Y-57977502D02*
G01*
X154942321Y-57984505D01*
X155079172Y-58026019D01*
X155079175Y-58026020D01*
X155205294Y-58093432D01*
X155315843Y-58184157D01*
X155406568Y-58294706D01*
X155473980Y-58420825D01*
X155473981Y-58420828D01*
X155515495Y-58557679D01*
X155529512Y-58700000D01*
X155515495Y-58842321D01*
X155473981Y-58979172D01*
X155473980Y-58979175D01*
X155406568Y-59105294D01*
X155315843Y-59215843D01*
X155205294Y-59306568D01*
X155079175Y-59373980D01*
X155079172Y-59373981D01*
X154942321Y-59415495D01*
X154871213Y-59422498D01*
X154835660Y-59426000D01*
X154764340Y-59426000D01*
X154728787Y-59422498D01*
X154657679Y-59415495D01*
X154520828Y-59373981D01*
X154520825Y-59373980D01*
X154394706Y-59306568D01*
X154284157Y-59215843D01*
X154193432Y-59105294D01*
X154126020Y-58979175D01*
X154126019Y-58979172D01*
X154084505Y-58842321D01*
X154070488Y-58700000D01*
X154084505Y-58557679D01*
X154126019Y-58420828D01*
X154126020Y-58420825D01*
X154193432Y-58294706D01*
X154284157Y-58184157D01*
X154394706Y-58093432D01*
X154520825Y-58026020D01*
X154520828Y-58026019D01*
X154657679Y-57984505D01*
X154728787Y-57977502D01*
X154764340Y-57974000D01*
X154835660Y-57974000D01*
X154871213Y-57977502D01*
X154871213Y-57977502D01*
G37*
G36*
X171375256Y-54791298D02*
G01*
X171481579Y-54812447D01*
X171782042Y-54936903D01*
X172052451Y-55117585D01*
X172282415Y-55347549D01*
X172463097Y-55617958D01*
X172585850Y-55914309D01*
X172587553Y-55918422D01*
X172651000Y-56237389D01*
X172651000Y-56562611D01*
X172620286Y-56717017D01*
X172587553Y-56881579D01*
X172463097Y-57182042D01*
X172282415Y-57452451D01*
X172052451Y-57682415D01*
X171782042Y-57863097D01*
X171782041Y-57863098D01*
X171782040Y-57863098D01*
X171734033Y-57882983D01*
X171481579Y-57987553D01*
X171393208Y-58005131D01*
X171162611Y-58051000D01*
X170837389Y-58051000D01*
X170606792Y-58005131D01*
X170518421Y-57987553D01*
X170265967Y-57882983D01*
X170217960Y-57863098D01*
X170217959Y-57863098D01*
X170217958Y-57863097D01*
X169947549Y-57682415D01*
X169717585Y-57452451D01*
X169536903Y-57182042D01*
X169412447Y-56881579D01*
X169379714Y-56717017D01*
X169349000Y-56562611D01*
X169349000Y-56237389D01*
X169412447Y-55918422D01*
X169414151Y-55914309D01*
X169536903Y-55617958D01*
X169717585Y-55347549D01*
X169947549Y-55117585D01*
X170217958Y-54936903D01*
X170518421Y-54812447D01*
X170624744Y-54791298D01*
X170837389Y-54749000D01*
X171162611Y-54749000D01*
X171375256Y-54791298D01*
X171375256Y-54791298D01*
G37*
G36*
X111963674Y-56553465D02*
G01*
X112001367Y-56564899D01*
X112036103Y-56583466D01*
X112066548Y-56608452D01*
X112091534Y-56638897D01*
X112110101Y-56673633D01*
X112121535Y-56711326D01*
X112126000Y-56756661D01*
X112126000Y-57843339D01*
X112121535Y-57888674D01*
X112110101Y-57926367D01*
X112091534Y-57961103D01*
X112066548Y-57991548D01*
X112036103Y-58016534D01*
X112001367Y-58035101D01*
X111963674Y-58046535D01*
X111918339Y-58051000D01*
X111081661Y-58051000D01*
X111036326Y-58046535D01*
X110998633Y-58035101D01*
X110963897Y-58016534D01*
X110933452Y-57991548D01*
X110908466Y-57961103D01*
X110889899Y-57926367D01*
X110878465Y-57888674D01*
X110874000Y-57843339D01*
X110874000Y-56756661D01*
X110878465Y-56711326D01*
X110889899Y-56673633D01*
X110908466Y-56638897D01*
X110933452Y-56608452D01*
X110963897Y-56583466D01*
X110998633Y-56564899D01*
X111036326Y-56553465D01*
X111081661Y-56549000D01*
X111918339Y-56549000D01*
X111963674Y-56553465D01*
X111963674Y-56553465D01*
G37*
G36*
X109913674Y-56553465D02*
G01*
X109951367Y-56564899D01*
X109986103Y-56583466D01*
X110016548Y-56608452D01*
X110041534Y-56638897D01*
X110060101Y-56673633D01*
X110071535Y-56711326D01*
X110076000Y-56756661D01*
X110076000Y-57843339D01*
X110071535Y-57888674D01*
X110060101Y-57926367D01*
X110041534Y-57961103D01*
X110016548Y-57991548D01*
X109986103Y-58016534D01*
X109951367Y-58035101D01*
X109913674Y-58046535D01*
X109868339Y-58051000D01*
X109031661Y-58051000D01*
X108986326Y-58046535D01*
X108948633Y-58035101D01*
X108913897Y-58016534D01*
X108883452Y-57991548D01*
X108858466Y-57961103D01*
X108839899Y-57926367D01*
X108828465Y-57888674D01*
X108824000Y-57843339D01*
X108824000Y-56756661D01*
X108828465Y-56711326D01*
X108839899Y-56673633D01*
X108858466Y-56638897D01*
X108883452Y-56608452D01*
X108913897Y-56583466D01*
X108948633Y-56564899D01*
X108986326Y-56553465D01*
X109031661Y-56549000D01*
X109868339Y-56549000D01*
X109913674Y-56553465D01*
X109913674Y-56553465D01*
G37*
G36*
X118964499Y-56728445D02*
G01*
X119001995Y-56739820D01*
X119036554Y-56758292D01*
X119066847Y-56783153D01*
X119091708Y-56813446D01*
X119110180Y-56848005D01*
X119121555Y-56885501D01*
X119126000Y-56930638D01*
X119126000Y-57669362D01*
X119121555Y-57714499D01*
X119110180Y-57751995D01*
X119091708Y-57786554D01*
X119066847Y-57816847D01*
X119036554Y-57841708D01*
X119001995Y-57860180D01*
X118964499Y-57871555D01*
X118919362Y-57876000D01*
X118280638Y-57876000D01*
X118235501Y-57871555D01*
X118198005Y-57860180D01*
X118163446Y-57841708D01*
X118133153Y-57816847D01*
X118108292Y-57786554D01*
X118089820Y-57751995D01*
X118078445Y-57714499D01*
X118074000Y-57669362D01*
X118074000Y-56930638D01*
X118078445Y-56885501D01*
X118089820Y-56848005D01*
X118108292Y-56813446D01*
X118133153Y-56783153D01*
X118163446Y-56758292D01*
X118198005Y-56739820D01*
X118235501Y-56728445D01*
X118280638Y-56724000D01*
X118919362Y-56724000D01*
X118964499Y-56728445D01*
X118964499Y-56728445D01*
G37*
G36*
X114614499Y-56778445D02*
G01*
X114651995Y-56789820D01*
X114686554Y-56808292D01*
X114716847Y-56833153D01*
X114741708Y-56863446D01*
X114760180Y-56898005D01*
X114771555Y-56935501D01*
X114776000Y-56980638D01*
X114776000Y-57619362D01*
X114771555Y-57664499D01*
X114760180Y-57701995D01*
X114741708Y-57736554D01*
X114716847Y-57766847D01*
X114686554Y-57791708D01*
X114651995Y-57810180D01*
X114614499Y-57821555D01*
X114569362Y-57826000D01*
X113830638Y-57826000D01*
X113785501Y-57821555D01*
X113748005Y-57810180D01*
X113713446Y-57791708D01*
X113683153Y-57766847D01*
X113658292Y-57736554D01*
X113639820Y-57701995D01*
X113628445Y-57664499D01*
X113624000Y-57619362D01*
X113624000Y-56980638D01*
X113628445Y-56935501D01*
X113639820Y-56898005D01*
X113658292Y-56863446D01*
X113683153Y-56833153D01*
X113713446Y-56808292D01*
X113748005Y-56789820D01*
X113785501Y-56778445D01*
X113830638Y-56774000D01*
X114569362Y-56774000D01*
X114614499Y-56778445D01*
X114614499Y-56778445D01*
G37*
G36*
X116364499Y-56778445D02*
G01*
X116401995Y-56789820D01*
X116436554Y-56808292D01*
X116466847Y-56833153D01*
X116491708Y-56863446D01*
X116510180Y-56898005D01*
X116521555Y-56935501D01*
X116526000Y-56980638D01*
X116526000Y-57619362D01*
X116521555Y-57664499D01*
X116510180Y-57701995D01*
X116491708Y-57736554D01*
X116466847Y-57766847D01*
X116436554Y-57791708D01*
X116401995Y-57810180D01*
X116364499Y-57821555D01*
X116319362Y-57826000D01*
X115580638Y-57826000D01*
X115535501Y-57821555D01*
X115498005Y-57810180D01*
X115463446Y-57791708D01*
X115433153Y-57766847D01*
X115408292Y-57736554D01*
X115389820Y-57701995D01*
X115378445Y-57664499D01*
X115374000Y-57619362D01*
X115374000Y-56980638D01*
X115378445Y-56935501D01*
X115389820Y-56898005D01*
X115408292Y-56863446D01*
X115433153Y-56833153D01*
X115463446Y-56808292D01*
X115498005Y-56789820D01*
X115535501Y-56778445D01*
X115580638Y-56774000D01*
X116319362Y-56774000D01*
X116364499Y-56778445D01*
X116364499Y-56778445D01*
G37*
G36*
X144539499Y-56528445D02*
G01*
X144576995Y-56539820D01*
X144611554Y-56558292D01*
X144641847Y-56583153D01*
X144666708Y-56613446D01*
X144685180Y-56648005D01*
X144696555Y-56685501D01*
X144701000Y-56730638D01*
X144701000Y-57369362D01*
X144696555Y-57414499D01*
X144685180Y-57451995D01*
X144666708Y-57486554D01*
X144641847Y-57516847D01*
X144611554Y-57541708D01*
X144576995Y-57560180D01*
X144539499Y-57571555D01*
X144494362Y-57576000D01*
X143755638Y-57576000D01*
X143710501Y-57571555D01*
X143673005Y-57560180D01*
X143638446Y-57541708D01*
X143608153Y-57516847D01*
X143583292Y-57486554D01*
X143564820Y-57451995D01*
X143553445Y-57414499D01*
X143549000Y-57369362D01*
X143549000Y-56730638D01*
X143553445Y-56685501D01*
X143564820Y-56648005D01*
X143583292Y-56613446D01*
X143608153Y-56583153D01*
X143638446Y-56558292D01*
X143673005Y-56539820D01*
X143710501Y-56528445D01*
X143755638Y-56524000D01*
X144494362Y-56524000D01*
X144539499Y-56528445D01*
X144539499Y-56528445D01*
G37*
G36*
X142789499Y-56528445D02*
G01*
X142826995Y-56539820D01*
X142861554Y-56558292D01*
X142891847Y-56583153D01*
X142916708Y-56613446D01*
X142935180Y-56648005D01*
X142946555Y-56685501D01*
X142951000Y-56730638D01*
X142951000Y-57369362D01*
X142946555Y-57414499D01*
X142935180Y-57451995D01*
X142916708Y-57486554D01*
X142891847Y-57516847D01*
X142861554Y-57541708D01*
X142826995Y-57560180D01*
X142789499Y-57571555D01*
X142744362Y-57576000D01*
X142005638Y-57576000D01*
X141960501Y-57571555D01*
X141923005Y-57560180D01*
X141888446Y-57541708D01*
X141858153Y-57516847D01*
X141833292Y-57486554D01*
X141814820Y-57451995D01*
X141803445Y-57414499D01*
X141799000Y-57369362D01*
X141799000Y-56730638D01*
X141803445Y-56685501D01*
X141814820Y-56648005D01*
X141833292Y-56613446D01*
X141858153Y-56583153D01*
X141888446Y-56558292D01*
X141923005Y-56539820D01*
X141960501Y-56528445D01*
X142005638Y-56524000D01*
X142744362Y-56524000D01*
X142789499Y-56528445D01*
X142789499Y-56528445D01*
G37*
G36*
X158871213Y-55977502D02*
G01*
X158942321Y-55984505D01*
X159079172Y-56026019D01*
X159079175Y-56026020D01*
X159205294Y-56093432D01*
X159315843Y-56184157D01*
X159406568Y-56294706D01*
X159473980Y-56420825D01*
X159473981Y-56420828D01*
X159515495Y-56557679D01*
X159529512Y-56700000D01*
X159515495Y-56842321D01*
X159487171Y-56935691D01*
X159473980Y-56979175D01*
X159406568Y-57105294D01*
X159315843Y-57215843D01*
X159205294Y-57306568D01*
X159079175Y-57373980D01*
X159079172Y-57373981D01*
X158942321Y-57415495D01*
X158871213Y-57422498D01*
X158835660Y-57426000D01*
X158764340Y-57426000D01*
X158728787Y-57422498D01*
X158657679Y-57415495D01*
X158520828Y-57373981D01*
X158520825Y-57373980D01*
X158394706Y-57306568D01*
X158284157Y-57215843D01*
X158193432Y-57105294D01*
X158126020Y-56979175D01*
X158112829Y-56935691D01*
X158084505Y-56842321D01*
X158070488Y-56700000D01*
X158084505Y-56557679D01*
X158126019Y-56420828D01*
X158126020Y-56420825D01*
X158193432Y-56294706D01*
X158284157Y-56184157D01*
X158394706Y-56093432D01*
X158520825Y-56026020D01*
X158520828Y-56026019D01*
X158657679Y-55984505D01*
X158728787Y-55977502D01*
X158764340Y-55974000D01*
X158835660Y-55974000D01*
X158871213Y-55977502D01*
X158871213Y-55977502D01*
G37*
G36*
X156871213Y-55977502D02*
G01*
X156942321Y-55984505D01*
X157079172Y-56026019D01*
X157079175Y-56026020D01*
X157205294Y-56093432D01*
X157315843Y-56184157D01*
X157406568Y-56294706D01*
X157473980Y-56420825D01*
X157473981Y-56420828D01*
X157515495Y-56557679D01*
X157529512Y-56700000D01*
X157515495Y-56842321D01*
X157487171Y-56935691D01*
X157473980Y-56979175D01*
X157406568Y-57105294D01*
X157315843Y-57215843D01*
X157205294Y-57306568D01*
X157079175Y-57373980D01*
X157079172Y-57373981D01*
X156942321Y-57415495D01*
X156871213Y-57422498D01*
X156835660Y-57426000D01*
X156764340Y-57426000D01*
X156728787Y-57422498D01*
X156657679Y-57415495D01*
X156520828Y-57373981D01*
X156520825Y-57373980D01*
X156394706Y-57306568D01*
X156284157Y-57215843D01*
X156193432Y-57105294D01*
X156126020Y-56979175D01*
X156112829Y-56935691D01*
X156084505Y-56842321D01*
X156070488Y-56700000D01*
X156084505Y-56557679D01*
X156126019Y-56420828D01*
X156126020Y-56420825D01*
X156193432Y-56294706D01*
X156284157Y-56184157D01*
X156394706Y-56093432D01*
X156520825Y-56026020D01*
X156520828Y-56026019D01*
X156657679Y-55984505D01*
X156728787Y-55977502D01*
X156764340Y-55974000D01*
X156835660Y-55974000D01*
X156871213Y-55977502D01*
X156871213Y-55977502D01*
G37*
G36*
X154871213Y-55977502D02*
G01*
X154942321Y-55984505D01*
X155079172Y-56026019D01*
X155079175Y-56026020D01*
X155205294Y-56093432D01*
X155315843Y-56184157D01*
X155406568Y-56294706D01*
X155473980Y-56420825D01*
X155473981Y-56420828D01*
X155515495Y-56557679D01*
X155529512Y-56700000D01*
X155515495Y-56842321D01*
X155487171Y-56935691D01*
X155473980Y-56979175D01*
X155406568Y-57105294D01*
X155315843Y-57215843D01*
X155205294Y-57306568D01*
X155079175Y-57373980D01*
X155079172Y-57373981D01*
X154942321Y-57415495D01*
X154871213Y-57422498D01*
X154835660Y-57426000D01*
X154764340Y-57426000D01*
X154728787Y-57422498D01*
X154657679Y-57415495D01*
X154520828Y-57373981D01*
X154520825Y-57373980D01*
X154394706Y-57306568D01*
X154284157Y-57215843D01*
X154193432Y-57105294D01*
X154126020Y-56979175D01*
X154112829Y-56935691D01*
X154084505Y-56842321D01*
X154070488Y-56700000D01*
X154084505Y-56557679D01*
X154126019Y-56420828D01*
X154126020Y-56420825D01*
X154193432Y-56294706D01*
X154284157Y-56184157D01*
X154394706Y-56093432D01*
X154520825Y-56026020D01*
X154520828Y-56026019D01*
X154657679Y-55984505D01*
X154728787Y-55977502D01*
X154764340Y-55974000D01*
X154835660Y-55974000D01*
X154871213Y-55977502D01*
X154871213Y-55977502D01*
G37*
G36*
X152871213Y-55977502D02*
G01*
X152942321Y-55984505D01*
X153079172Y-56026019D01*
X153079175Y-56026020D01*
X153205294Y-56093432D01*
X153315843Y-56184157D01*
X153406568Y-56294706D01*
X153473980Y-56420825D01*
X153473981Y-56420828D01*
X153515495Y-56557679D01*
X153529512Y-56700000D01*
X153515495Y-56842321D01*
X153487171Y-56935691D01*
X153473980Y-56979175D01*
X153406568Y-57105294D01*
X153315843Y-57215843D01*
X153205294Y-57306568D01*
X153079175Y-57373980D01*
X153079172Y-57373981D01*
X152942321Y-57415495D01*
X152871213Y-57422498D01*
X152835660Y-57426000D01*
X152764340Y-57426000D01*
X152728787Y-57422498D01*
X152657679Y-57415495D01*
X152520828Y-57373981D01*
X152520825Y-57373980D01*
X152394706Y-57306568D01*
X152284157Y-57215843D01*
X152193432Y-57105294D01*
X152126020Y-56979175D01*
X152112829Y-56935691D01*
X152084505Y-56842321D01*
X152070488Y-56700000D01*
X152084505Y-56557679D01*
X152126019Y-56420828D01*
X152126020Y-56420825D01*
X152193432Y-56294706D01*
X152284157Y-56184157D01*
X152394706Y-56093432D01*
X152520825Y-56026020D01*
X152520828Y-56026019D01*
X152657679Y-55984505D01*
X152728787Y-55977502D01*
X152764340Y-55974000D01*
X152835660Y-55974000D01*
X152871213Y-55977502D01*
X152871213Y-55977502D01*
G37*
G36*
X150871213Y-55977502D02*
G01*
X150942321Y-55984505D01*
X151079172Y-56026019D01*
X151079175Y-56026020D01*
X151205294Y-56093432D01*
X151315843Y-56184157D01*
X151406568Y-56294706D01*
X151473980Y-56420825D01*
X151473981Y-56420828D01*
X151515495Y-56557679D01*
X151529512Y-56700000D01*
X151515495Y-56842321D01*
X151487171Y-56935691D01*
X151473980Y-56979175D01*
X151406568Y-57105294D01*
X151315843Y-57215843D01*
X151205294Y-57306568D01*
X151079175Y-57373980D01*
X151079172Y-57373981D01*
X150942321Y-57415495D01*
X150871213Y-57422498D01*
X150835660Y-57426000D01*
X150764340Y-57426000D01*
X150728787Y-57422498D01*
X150657679Y-57415495D01*
X150520828Y-57373981D01*
X150520825Y-57373980D01*
X150394706Y-57306568D01*
X150284157Y-57215843D01*
X150193432Y-57105294D01*
X150126020Y-56979175D01*
X150112829Y-56935691D01*
X150084505Y-56842321D01*
X150070488Y-56700000D01*
X150084505Y-56557679D01*
X150126019Y-56420828D01*
X150126020Y-56420825D01*
X150193432Y-56294706D01*
X150284157Y-56184157D01*
X150394706Y-56093432D01*
X150520825Y-56026020D01*
X150520828Y-56026019D01*
X150657679Y-55984505D01*
X150728787Y-55977502D01*
X150764340Y-55974000D01*
X150835660Y-55974000D01*
X150871213Y-55977502D01*
X150871213Y-55977502D01*
G37*
G36*
X118964499Y-54978445D02*
G01*
X119001995Y-54989820D01*
X119036554Y-55008292D01*
X119066847Y-55033153D01*
X119091708Y-55063446D01*
X119110180Y-55098005D01*
X119121555Y-55135501D01*
X119126000Y-55180638D01*
X119126000Y-55919362D01*
X119121555Y-55964499D01*
X119110180Y-56001995D01*
X119091708Y-56036554D01*
X119066847Y-56066847D01*
X119036554Y-56091708D01*
X119001995Y-56110180D01*
X118964499Y-56121555D01*
X118919362Y-56126000D01*
X118280638Y-56126000D01*
X118235501Y-56121555D01*
X118198005Y-56110180D01*
X118163446Y-56091708D01*
X118133153Y-56066847D01*
X118108292Y-56036554D01*
X118089820Y-56001995D01*
X118078445Y-55964499D01*
X118074000Y-55919362D01*
X118074000Y-55180638D01*
X118078445Y-55135501D01*
X118089820Y-55098005D01*
X118108292Y-55063446D01*
X118133153Y-55033153D01*
X118163446Y-55008292D01*
X118198005Y-54989820D01*
X118235501Y-54978445D01*
X118280638Y-54974000D01*
X118919362Y-54974000D01*
X118964499Y-54978445D01*
X118964499Y-54978445D01*
G37*
G36*
X116289499Y-54278445D02*
G01*
X116326995Y-54289820D01*
X116361554Y-54308292D01*
X116391847Y-54333153D01*
X116416708Y-54363446D01*
X116435180Y-54398005D01*
X116446555Y-54435501D01*
X116451000Y-54480638D01*
X116451000Y-55119362D01*
X116446555Y-55164499D01*
X116435180Y-55201995D01*
X116416708Y-55236554D01*
X116391847Y-55266847D01*
X116361554Y-55291708D01*
X116326995Y-55310180D01*
X116289499Y-55321555D01*
X116244362Y-55326000D01*
X115505638Y-55326000D01*
X115460501Y-55321555D01*
X115423005Y-55310180D01*
X115388446Y-55291708D01*
X115358153Y-55266847D01*
X115333292Y-55236554D01*
X115314820Y-55201995D01*
X115303445Y-55164499D01*
X115299000Y-55119362D01*
X115299000Y-54480638D01*
X115303445Y-54435501D01*
X115314820Y-54398005D01*
X115333292Y-54363446D01*
X115358153Y-54333153D01*
X115388446Y-54308292D01*
X115423005Y-54289820D01*
X115460501Y-54278445D01*
X115505638Y-54274000D01*
X116244362Y-54274000D01*
X116289499Y-54278445D01*
X116289499Y-54278445D01*
G37*
G36*
X114539499Y-54278445D02*
G01*
X114576995Y-54289820D01*
X114611554Y-54308292D01*
X114641847Y-54333153D01*
X114666708Y-54363446D01*
X114685180Y-54398005D01*
X114696555Y-54435501D01*
X114701000Y-54480638D01*
X114701000Y-55119362D01*
X114696555Y-55164499D01*
X114685180Y-55201995D01*
X114666708Y-55236554D01*
X114641847Y-55266847D01*
X114611554Y-55291708D01*
X114576995Y-55310180D01*
X114539499Y-55321555D01*
X114494362Y-55326000D01*
X113755638Y-55326000D01*
X113710501Y-55321555D01*
X113673005Y-55310180D01*
X113638446Y-55291708D01*
X113608153Y-55266847D01*
X113583292Y-55236554D01*
X113564820Y-55201995D01*
X113553445Y-55164499D01*
X113549000Y-55119362D01*
X113549000Y-54480638D01*
X113553445Y-54435501D01*
X113564820Y-54398005D01*
X113583292Y-54363446D01*
X113608153Y-54333153D01*
X113638446Y-54308292D01*
X113673005Y-54289820D01*
X113710501Y-54278445D01*
X113755638Y-54274000D01*
X114494362Y-54274000D01*
X114539499Y-54278445D01*
X114539499Y-54278445D01*
G37*
G36*
X111700562Y-53278181D02*
G01*
X111735481Y-53288774D01*
X111767663Y-53305976D01*
X111795873Y-53329127D01*
X111819024Y-53357337D01*
X111836226Y-53389519D01*
X111846819Y-53424438D01*
X111851000Y-53466895D01*
X111851000Y-54933105D01*
X111846819Y-54975562D01*
X111836226Y-55010481D01*
X111819024Y-55042663D01*
X111795873Y-55070873D01*
X111767663Y-55094024D01*
X111735481Y-55111226D01*
X111700562Y-55121819D01*
X111658105Y-55126000D01*
X110516895Y-55126000D01*
X110474438Y-55121819D01*
X110439519Y-55111226D01*
X110407337Y-55094024D01*
X110379127Y-55070873D01*
X110355976Y-55042663D01*
X110338774Y-55010481D01*
X110328181Y-54975562D01*
X110324000Y-54933105D01*
X110324000Y-53466895D01*
X110328181Y-53424438D01*
X110338774Y-53389519D01*
X110355976Y-53357337D01*
X110379127Y-53329127D01*
X110407337Y-53305976D01*
X110439519Y-53288774D01*
X110474438Y-53278181D01*
X110516895Y-53274000D01*
X111658105Y-53274000D01*
X111700562Y-53278181D01*
X111700562Y-53278181D01*
G37*
G36*
X108725562Y-53278181D02*
G01*
X108760481Y-53288774D01*
X108792663Y-53305976D01*
X108820873Y-53329127D01*
X108844024Y-53357337D01*
X108861226Y-53389519D01*
X108871819Y-53424438D01*
X108876000Y-53466895D01*
X108876000Y-54933105D01*
X108871819Y-54975562D01*
X108861226Y-55010481D01*
X108844024Y-55042663D01*
X108820873Y-55070873D01*
X108792663Y-55094024D01*
X108760481Y-55111226D01*
X108725562Y-55121819D01*
X108683105Y-55126000D01*
X107541895Y-55126000D01*
X107499438Y-55121819D01*
X107464519Y-55111226D01*
X107432337Y-55094024D01*
X107404127Y-55070873D01*
X107380976Y-55042663D01*
X107363774Y-55010481D01*
X107353181Y-54975562D01*
X107349000Y-54933105D01*
X107349000Y-53466895D01*
X107353181Y-53424438D01*
X107363774Y-53389519D01*
X107380976Y-53357337D01*
X107404127Y-53329127D01*
X107432337Y-53305976D01*
X107464519Y-53288774D01*
X107499438Y-53278181D01*
X107541895Y-53274000D01*
X108683105Y-53274000D01*
X108725562Y-53278181D01*
X108725562Y-53278181D01*
G37*
M02*
