G04 #@! TF.GenerationSoftware,KiCad,Pcbnew,(5.1.2-1)-1*
G04 #@! TF.CreationDate,2019-06-03T10:07:55+02:00*
G04 #@! TF.ProjectId,Dash,44617368-2e6b-4696-9361-645f70636258,rev?*
G04 #@! TF.SameCoordinates,Original*
G04 #@! TF.FileFunction,Soldermask,Top*
G04 #@! TF.FilePolarity,Negative*
%FSLAX46Y46*%
G04 Gerber Fmt 4.6, Leading zero omitted, Abs format (unit mm)*
G04 Created by KiCad (PCBNEW (5.1.2-1)-1) date 2019-06-03 10:07:55*
%MOMM*%
%LPD*%
G04 APERTURE LIST*
%ADD10C,0.100000*%
G04 APERTURE END LIST*
D10*
G36*
X159069499Y-103768445D02*
G01*
X159106995Y-103779820D01*
X159141554Y-103798292D01*
X159171847Y-103823153D01*
X159196708Y-103853446D01*
X159215180Y-103888005D01*
X159226555Y-103925501D01*
X159231000Y-103970638D01*
X159231000Y-104609362D01*
X159226555Y-104654499D01*
X159215180Y-104691995D01*
X159196708Y-104726554D01*
X159171847Y-104756847D01*
X159141554Y-104781708D01*
X159106995Y-104800180D01*
X159069499Y-104811555D01*
X159024362Y-104816000D01*
X158285638Y-104816000D01*
X158240501Y-104811555D01*
X158203005Y-104800180D01*
X158168446Y-104781708D01*
X158138153Y-104756847D01*
X158113292Y-104726554D01*
X158094820Y-104691995D01*
X158083445Y-104654499D01*
X158079000Y-104609362D01*
X158079000Y-103970638D01*
X158083445Y-103925501D01*
X158094820Y-103888005D01*
X158113292Y-103853446D01*
X158138153Y-103823153D01*
X158168446Y-103798292D01*
X158203005Y-103779820D01*
X158240501Y-103768445D01*
X158285638Y-103764000D01*
X159024362Y-103764000D01*
X159069499Y-103768445D01*
X159069499Y-103768445D01*
G37*
G36*
X157319499Y-103768445D02*
G01*
X157356995Y-103779820D01*
X157391554Y-103798292D01*
X157421847Y-103823153D01*
X157446708Y-103853446D01*
X157465180Y-103888005D01*
X157476555Y-103925501D01*
X157481000Y-103970638D01*
X157481000Y-104609362D01*
X157476555Y-104654499D01*
X157465180Y-104691995D01*
X157446708Y-104726554D01*
X157421847Y-104756847D01*
X157391554Y-104781708D01*
X157356995Y-104800180D01*
X157319499Y-104811555D01*
X157274362Y-104816000D01*
X156535638Y-104816000D01*
X156490501Y-104811555D01*
X156453005Y-104800180D01*
X156418446Y-104781708D01*
X156388153Y-104756847D01*
X156363292Y-104726554D01*
X156344820Y-104691995D01*
X156333445Y-104654499D01*
X156329000Y-104609362D01*
X156329000Y-103970638D01*
X156333445Y-103925501D01*
X156344820Y-103888005D01*
X156363292Y-103853446D01*
X156388153Y-103823153D01*
X156418446Y-103798292D01*
X156453005Y-103779820D01*
X156490501Y-103768445D01*
X156535638Y-103764000D01*
X157274362Y-103764000D01*
X157319499Y-103768445D01*
X157319499Y-103768445D01*
G37*
G36*
X136664499Y-102303445D02*
G01*
X136701995Y-102314820D01*
X136736554Y-102333292D01*
X136766847Y-102358153D01*
X136791708Y-102388446D01*
X136810180Y-102423005D01*
X136821555Y-102460501D01*
X136826000Y-102505638D01*
X136826000Y-103244362D01*
X136821555Y-103289499D01*
X136810180Y-103326995D01*
X136791708Y-103361554D01*
X136766847Y-103391847D01*
X136736554Y-103416708D01*
X136701995Y-103435180D01*
X136664499Y-103446555D01*
X136619362Y-103451000D01*
X135980638Y-103451000D01*
X135935501Y-103446555D01*
X135898005Y-103435180D01*
X135863446Y-103416708D01*
X135833153Y-103391847D01*
X135808292Y-103361554D01*
X135789820Y-103326995D01*
X135778445Y-103289499D01*
X135774000Y-103244362D01*
X135774000Y-102505638D01*
X135778445Y-102460501D01*
X135789820Y-102423005D01*
X135808292Y-102388446D01*
X135833153Y-102358153D01*
X135863446Y-102333292D01*
X135898005Y-102314820D01*
X135935501Y-102303445D01*
X135980638Y-102299000D01*
X136619362Y-102299000D01*
X136664499Y-102303445D01*
X136664499Y-102303445D01*
G37*
G36*
X143464499Y-102103445D02*
G01*
X143501995Y-102114820D01*
X143536554Y-102133292D01*
X143566847Y-102158153D01*
X143591708Y-102188446D01*
X143610180Y-102223005D01*
X143621555Y-102260501D01*
X143626000Y-102305638D01*
X143626000Y-103044362D01*
X143621555Y-103089499D01*
X143610180Y-103126995D01*
X143591708Y-103161554D01*
X143566847Y-103191847D01*
X143536554Y-103216708D01*
X143501995Y-103235180D01*
X143464499Y-103246555D01*
X143419362Y-103251000D01*
X142780638Y-103251000D01*
X142735501Y-103246555D01*
X142698005Y-103235180D01*
X142663446Y-103216708D01*
X142633153Y-103191847D01*
X142608292Y-103161554D01*
X142589820Y-103126995D01*
X142578445Y-103089499D01*
X142574000Y-103044362D01*
X142574000Y-102305638D01*
X142578445Y-102260501D01*
X142589820Y-102223005D01*
X142608292Y-102188446D01*
X142633153Y-102158153D01*
X142663446Y-102133292D01*
X142698005Y-102114820D01*
X142735501Y-102103445D01*
X142780638Y-102099000D01*
X143419362Y-102099000D01*
X143464499Y-102103445D01*
X143464499Y-102103445D01*
G37*
G36*
X141201000Y-103101000D02*
G01*
X140199000Y-103101000D01*
X140199000Y-102199000D01*
X141201000Y-102199000D01*
X141201000Y-103101000D01*
X141201000Y-103101000D01*
G37*
G36*
X171335163Y-99783323D02*
G01*
X171481579Y-99812447D01*
X171782042Y-99936903D01*
X172052451Y-100117585D01*
X172282415Y-100347549D01*
X172439934Y-100583292D01*
X172463098Y-100617960D01*
X172493352Y-100691000D01*
X172587553Y-100918421D01*
X172600896Y-100985501D01*
X172651000Y-101237389D01*
X172651000Y-101562611D01*
X172619004Y-101723466D01*
X172587553Y-101881579D01*
X172463097Y-102182042D01*
X172282415Y-102452451D01*
X172052451Y-102682415D01*
X171782042Y-102863097D01*
X171782041Y-102863098D01*
X171782040Y-102863098D01*
X171704705Y-102895131D01*
X171481579Y-102987553D01*
X171375256Y-103008702D01*
X171162611Y-103051000D01*
X170837389Y-103051000D01*
X170624744Y-103008702D01*
X170518421Y-102987553D01*
X170295295Y-102895131D01*
X170217960Y-102863098D01*
X170217959Y-102863098D01*
X170217958Y-102863097D01*
X169947549Y-102682415D01*
X169717585Y-102452451D01*
X169536903Y-102182042D01*
X169412447Y-101881579D01*
X169380996Y-101723466D01*
X169349000Y-101562611D01*
X169349000Y-101237389D01*
X169399104Y-100985501D01*
X169412447Y-100918421D01*
X169506648Y-100691000D01*
X169536902Y-100617960D01*
X169560066Y-100583292D01*
X169717585Y-100347549D01*
X169947549Y-100117585D01*
X170217958Y-99936903D01*
X170518421Y-99812447D01*
X170664837Y-99783323D01*
X170837389Y-99749000D01*
X171162611Y-99749000D01*
X171335163Y-99783323D01*
X171335163Y-99783323D01*
G37*
G36*
X154368674Y-101693465D02*
G01*
X154406367Y-101704899D01*
X154441103Y-101723466D01*
X154471548Y-101748452D01*
X154496534Y-101778897D01*
X154515101Y-101813633D01*
X154526535Y-101851326D01*
X154531000Y-101896661D01*
X154531000Y-102733339D01*
X154526535Y-102778674D01*
X154515101Y-102816367D01*
X154496534Y-102851103D01*
X154471548Y-102881548D01*
X154441103Y-102906534D01*
X154406367Y-102925101D01*
X154368674Y-102936535D01*
X154323339Y-102941000D01*
X153236661Y-102941000D01*
X153191326Y-102936535D01*
X153153633Y-102925101D01*
X153118897Y-102906534D01*
X153088452Y-102881548D01*
X153063466Y-102851103D01*
X153044899Y-102816367D01*
X153033465Y-102778674D01*
X153029000Y-102733339D01*
X153029000Y-101896661D01*
X153033465Y-101851326D01*
X153044899Y-101813633D01*
X153063466Y-101778897D01*
X153088452Y-101748452D01*
X153118897Y-101723466D01*
X153153633Y-101704899D01*
X153191326Y-101693465D01*
X153236661Y-101689000D01*
X154323339Y-101689000D01*
X154368674Y-101693465D01*
X154368674Y-101693465D01*
G37*
G36*
X151444499Y-101493445D02*
G01*
X151481995Y-101504820D01*
X151516554Y-101523292D01*
X151546847Y-101548153D01*
X151571708Y-101578446D01*
X151590180Y-101613005D01*
X151601555Y-101650501D01*
X151606000Y-101695638D01*
X151606000Y-102434362D01*
X151601555Y-102479499D01*
X151590180Y-102516995D01*
X151571708Y-102551554D01*
X151546847Y-102581847D01*
X151516554Y-102606708D01*
X151481995Y-102625180D01*
X151444499Y-102636555D01*
X151399362Y-102641000D01*
X150760638Y-102641000D01*
X150715501Y-102636555D01*
X150678005Y-102625180D01*
X150643446Y-102606708D01*
X150613153Y-102581847D01*
X150588292Y-102551554D01*
X150569820Y-102516995D01*
X150558445Y-102479499D01*
X150554000Y-102434362D01*
X150554000Y-101695638D01*
X150558445Y-101650501D01*
X150569820Y-101613005D01*
X150588292Y-101578446D01*
X150613153Y-101548153D01*
X150643446Y-101523292D01*
X150678005Y-101504820D01*
X150715501Y-101493445D01*
X150760638Y-101489000D01*
X151399362Y-101489000D01*
X151444499Y-101493445D01*
X151444499Y-101493445D01*
G37*
G36*
X149244499Y-101493445D02*
G01*
X149281995Y-101504820D01*
X149316554Y-101523292D01*
X149346847Y-101548153D01*
X149371708Y-101578446D01*
X149390180Y-101613005D01*
X149401555Y-101650501D01*
X149406000Y-101695638D01*
X149406000Y-102434362D01*
X149401555Y-102479499D01*
X149390180Y-102516995D01*
X149371708Y-102551554D01*
X149346847Y-102581847D01*
X149316554Y-102606708D01*
X149281995Y-102625180D01*
X149244499Y-102636555D01*
X149199362Y-102641000D01*
X148560638Y-102641000D01*
X148515501Y-102636555D01*
X148478005Y-102625180D01*
X148443446Y-102606708D01*
X148413153Y-102581847D01*
X148388292Y-102551554D01*
X148369820Y-102516995D01*
X148358445Y-102479499D01*
X148354000Y-102434362D01*
X148354000Y-101695638D01*
X148358445Y-101650501D01*
X148369820Y-101613005D01*
X148388292Y-101578446D01*
X148413153Y-101548153D01*
X148443446Y-101523292D01*
X148478005Y-101504820D01*
X148515501Y-101493445D01*
X148560638Y-101489000D01*
X149199362Y-101489000D01*
X149244499Y-101493445D01*
X149244499Y-101493445D01*
G37*
G36*
X157181000Y-102591000D02*
G01*
X156179000Y-102591000D01*
X156179000Y-101689000D01*
X157181000Y-101689000D01*
X157181000Y-102591000D01*
X157181000Y-102591000D01*
G37*
G36*
X139201000Y-102151000D02*
G01*
X138199000Y-102151000D01*
X138199000Y-101249000D01*
X139201000Y-101249000D01*
X139201000Y-102151000D01*
X139201000Y-102151000D01*
G37*
G36*
X125964499Y-100828445D02*
G01*
X126001995Y-100839820D01*
X126036554Y-100858292D01*
X126066847Y-100883153D01*
X126091708Y-100913446D01*
X126110180Y-100948005D01*
X126121555Y-100985501D01*
X126126000Y-101030638D01*
X126126000Y-101769362D01*
X126121555Y-101814499D01*
X126110180Y-101851995D01*
X126091708Y-101886554D01*
X126066847Y-101916847D01*
X126036554Y-101941708D01*
X126001995Y-101960180D01*
X125964499Y-101971555D01*
X125919362Y-101976000D01*
X125280638Y-101976000D01*
X125235501Y-101971555D01*
X125198005Y-101960180D01*
X125163446Y-101941708D01*
X125133153Y-101916847D01*
X125108292Y-101886554D01*
X125089820Y-101851995D01*
X125078445Y-101814499D01*
X125074000Y-101769362D01*
X125074000Y-101030638D01*
X125078445Y-100985501D01*
X125089820Y-100948005D01*
X125108292Y-100913446D01*
X125133153Y-100883153D01*
X125163446Y-100858292D01*
X125198005Y-100839820D01*
X125235501Y-100828445D01*
X125280638Y-100824000D01*
X125919362Y-100824000D01*
X125964499Y-100828445D01*
X125964499Y-100828445D01*
G37*
G36*
X136664499Y-100553445D02*
G01*
X136701995Y-100564820D01*
X136736554Y-100583292D01*
X136766847Y-100608153D01*
X136791708Y-100638446D01*
X136810180Y-100673005D01*
X136821555Y-100710501D01*
X136826000Y-100755638D01*
X136826000Y-101494362D01*
X136821555Y-101539499D01*
X136810180Y-101576995D01*
X136791708Y-101611554D01*
X136766847Y-101641847D01*
X136736554Y-101666708D01*
X136701995Y-101685180D01*
X136664499Y-101696555D01*
X136619362Y-101701000D01*
X135980638Y-101701000D01*
X135935501Y-101696555D01*
X135898005Y-101685180D01*
X135863446Y-101666708D01*
X135833153Y-101641847D01*
X135808292Y-101611554D01*
X135789820Y-101576995D01*
X135778445Y-101539499D01*
X135774000Y-101494362D01*
X135774000Y-100755638D01*
X135778445Y-100710501D01*
X135789820Y-100673005D01*
X135808292Y-100638446D01*
X135833153Y-100608153D01*
X135863446Y-100583292D01*
X135898005Y-100564820D01*
X135935501Y-100553445D01*
X135980638Y-100549000D01*
X136619362Y-100549000D01*
X136664499Y-100553445D01*
X136664499Y-100553445D01*
G37*
G36*
X159181000Y-101641000D02*
G01*
X158179000Y-101641000D01*
X158179000Y-100739000D01*
X159181000Y-100739000D01*
X159181000Y-101641000D01*
X159181000Y-101641000D01*
G37*
G36*
X143464499Y-100353445D02*
G01*
X143501995Y-100364820D01*
X143536554Y-100383292D01*
X143566847Y-100408153D01*
X143591708Y-100438446D01*
X143610180Y-100473005D01*
X143621555Y-100510501D01*
X143626000Y-100555638D01*
X143626000Y-101294362D01*
X143621555Y-101339499D01*
X143610180Y-101376995D01*
X143591708Y-101411554D01*
X143566847Y-101441847D01*
X143536554Y-101466708D01*
X143501995Y-101485180D01*
X143464499Y-101496555D01*
X143419362Y-101501000D01*
X142780638Y-101501000D01*
X142735501Y-101496555D01*
X142698005Y-101485180D01*
X142663446Y-101466708D01*
X142633153Y-101441847D01*
X142608292Y-101411554D01*
X142589820Y-101376995D01*
X142578445Y-101339499D01*
X142574000Y-101294362D01*
X142574000Y-100555638D01*
X142578445Y-100510501D01*
X142589820Y-100473005D01*
X142608292Y-100438446D01*
X142633153Y-100408153D01*
X142663446Y-100383292D01*
X142698005Y-100364820D01*
X142735501Y-100353445D01*
X142780638Y-100349000D01*
X143419362Y-100349000D01*
X143464499Y-100353445D01*
X143464499Y-100353445D01*
G37*
G36*
X133764499Y-100103445D02*
G01*
X133801995Y-100114820D01*
X133836554Y-100133292D01*
X133866847Y-100158153D01*
X133891708Y-100188446D01*
X133910180Y-100223005D01*
X133921555Y-100260501D01*
X133926000Y-100305638D01*
X133926000Y-101044362D01*
X133921555Y-101089499D01*
X133910180Y-101126995D01*
X133891708Y-101161554D01*
X133866847Y-101191847D01*
X133836554Y-101216708D01*
X133801995Y-101235180D01*
X133764499Y-101246555D01*
X133719362Y-101251000D01*
X133080638Y-101251000D01*
X133035501Y-101246555D01*
X132998005Y-101235180D01*
X132963446Y-101216708D01*
X132933153Y-101191847D01*
X132908292Y-101161554D01*
X132889820Y-101126995D01*
X132878445Y-101089499D01*
X132874000Y-101044362D01*
X132874000Y-100305638D01*
X132878445Y-100260501D01*
X132889820Y-100223005D01*
X132908292Y-100188446D01*
X132933153Y-100158153D01*
X132963446Y-100133292D01*
X132998005Y-100114820D01*
X133035501Y-100103445D01*
X133080638Y-100099000D01*
X133719362Y-100099000D01*
X133764499Y-100103445D01*
X133764499Y-100103445D01*
G37*
G36*
X141201000Y-101201000D02*
G01*
X140199000Y-101201000D01*
X140199000Y-100299000D01*
X141201000Y-100299000D01*
X141201000Y-101201000D01*
X141201000Y-101201000D01*
G37*
G36*
X130901000Y-101101000D02*
G01*
X129899000Y-101101000D01*
X129899000Y-100199000D01*
X130901000Y-100199000D01*
X130901000Y-101101000D01*
X130901000Y-101101000D01*
G37*
G36*
X154368674Y-99643465D02*
G01*
X154406367Y-99654899D01*
X154441103Y-99673466D01*
X154471548Y-99698452D01*
X154496534Y-99728897D01*
X154515101Y-99763633D01*
X154526535Y-99801326D01*
X154531000Y-99846661D01*
X154531000Y-100683339D01*
X154526535Y-100728674D01*
X154515101Y-100766367D01*
X154496534Y-100801103D01*
X154471548Y-100831548D01*
X154441103Y-100856534D01*
X154406367Y-100875101D01*
X154368674Y-100886535D01*
X154323339Y-100891000D01*
X153236661Y-100891000D01*
X153191326Y-100886535D01*
X153153633Y-100875101D01*
X153118897Y-100856534D01*
X153088452Y-100831548D01*
X153063466Y-100801103D01*
X153044899Y-100766367D01*
X153033465Y-100728674D01*
X153029000Y-100683339D01*
X153029000Y-99846661D01*
X153033465Y-99801326D01*
X153044899Y-99763633D01*
X153063466Y-99728897D01*
X153088452Y-99698452D01*
X153118897Y-99673466D01*
X153153633Y-99654899D01*
X153191326Y-99643465D01*
X153236661Y-99639000D01*
X154323339Y-99639000D01*
X154368674Y-99643465D01*
X154368674Y-99643465D01*
G37*
G36*
X151444499Y-99743445D02*
G01*
X151481995Y-99754820D01*
X151516554Y-99773292D01*
X151546847Y-99798153D01*
X151571708Y-99828446D01*
X151590180Y-99863005D01*
X151601555Y-99900501D01*
X151606000Y-99945638D01*
X151606000Y-100684362D01*
X151601555Y-100729499D01*
X151590180Y-100766995D01*
X151571708Y-100801554D01*
X151546847Y-100831847D01*
X151516554Y-100856708D01*
X151481995Y-100875180D01*
X151444499Y-100886555D01*
X151399362Y-100891000D01*
X150760638Y-100891000D01*
X150715501Y-100886555D01*
X150678005Y-100875180D01*
X150643446Y-100856708D01*
X150613153Y-100831847D01*
X150588292Y-100801554D01*
X150569820Y-100766995D01*
X150558445Y-100729499D01*
X150554000Y-100684362D01*
X150554000Y-99945638D01*
X150558445Y-99900501D01*
X150569820Y-99863005D01*
X150588292Y-99828446D01*
X150613153Y-99798153D01*
X150643446Y-99773292D01*
X150678005Y-99754820D01*
X150715501Y-99743445D01*
X150760638Y-99739000D01*
X151399362Y-99739000D01*
X151444499Y-99743445D01*
X151444499Y-99743445D01*
G37*
G36*
X149244499Y-99743445D02*
G01*
X149281995Y-99754820D01*
X149316554Y-99773292D01*
X149346847Y-99798153D01*
X149371708Y-99828446D01*
X149390180Y-99863005D01*
X149401555Y-99900501D01*
X149406000Y-99945638D01*
X149406000Y-100684362D01*
X149401555Y-100729499D01*
X149390180Y-100766995D01*
X149371708Y-100801554D01*
X149346847Y-100831847D01*
X149316554Y-100856708D01*
X149281995Y-100875180D01*
X149244499Y-100886555D01*
X149199362Y-100891000D01*
X148560638Y-100891000D01*
X148515501Y-100886555D01*
X148478005Y-100875180D01*
X148443446Y-100856708D01*
X148413153Y-100831847D01*
X148388292Y-100801554D01*
X148369820Y-100766995D01*
X148358445Y-100729499D01*
X148354000Y-100684362D01*
X148354000Y-99945638D01*
X148358445Y-99900501D01*
X148369820Y-99863005D01*
X148388292Y-99828446D01*
X148413153Y-99798153D01*
X148443446Y-99773292D01*
X148478005Y-99754820D01*
X148515501Y-99743445D01*
X148560638Y-99739000D01*
X149199362Y-99739000D01*
X149244499Y-99743445D01*
X149244499Y-99743445D01*
G37*
G36*
X157181000Y-100691000D02*
G01*
X156179000Y-100691000D01*
X156179000Y-99789000D01*
X157181000Y-99789000D01*
X157181000Y-100691000D01*
X157181000Y-100691000D01*
G37*
G36*
X125964499Y-99078445D02*
G01*
X126001995Y-99089820D01*
X126036554Y-99108292D01*
X126066847Y-99133153D01*
X126091708Y-99163446D01*
X126110180Y-99198005D01*
X126121555Y-99235501D01*
X126126000Y-99280638D01*
X126126000Y-100019362D01*
X126121555Y-100064499D01*
X126110180Y-100101995D01*
X126091708Y-100136554D01*
X126066847Y-100166847D01*
X126036554Y-100191708D01*
X126001995Y-100210180D01*
X125964499Y-100221555D01*
X125919362Y-100226000D01*
X125280638Y-100226000D01*
X125235501Y-100221555D01*
X125198005Y-100210180D01*
X125163446Y-100191708D01*
X125133153Y-100166847D01*
X125108292Y-100136554D01*
X125089820Y-100101995D01*
X125078445Y-100064499D01*
X125074000Y-100019362D01*
X125074000Y-99280638D01*
X125078445Y-99235501D01*
X125089820Y-99198005D01*
X125108292Y-99163446D01*
X125133153Y-99133153D01*
X125163446Y-99108292D01*
X125198005Y-99089820D01*
X125235501Y-99078445D01*
X125280638Y-99074000D01*
X125919362Y-99074000D01*
X125964499Y-99078445D01*
X125964499Y-99078445D01*
G37*
G36*
X128901000Y-100151000D02*
G01*
X127899000Y-100151000D01*
X127899000Y-99249000D01*
X128901000Y-99249000D01*
X128901000Y-100151000D01*
X128901000Y-100151000D01*
G37*
G36*
X133764499Y-98353445D02*
G01*
X133801995Y-98364820D01*
X133836554Y-98383292D01*
X133866847Y-98408153D01*
X133891708Y-98438446D01*
X133910180Y-98473005D01*
X133921555Y-98510501D01*
X133926000Y-98555638D01*
X133926000Y-99294362D01*
X133921555Y-99339499D01*
X133910180Y-99376995D01*
X133891708Y-99411554D01*
X133866847Y-99441847D01*
X133836554Y-99466708D01*
X133801995Y-99485180D01*
X133764499Y-99496555D01*
X133719362Y-99501000D01*
X133080638Y-99501000D01*
X133035501Y-99496555D01*
X132998005Y-99485180D01*
X132963446Y-99466708D01*
X132933153Y-99441847D01*
X132908292Y-99411554D01*
X132889820Y-99376995D01*
X132878445Y-99339499D01*
X132874000Y-99294362D01*
X132874000Y-98555638D01*
X132878445Y-98510501D01*
X132889820Y-98473005D01*
X132908292Y-98438446D01*
X132933153Y-98408153D01*
X132963446Y-98383292D01*
X132998005Y-98364820D01*
X133035501Y-98353445D01*
X133080638Y-98349000D01*
X133719362Y-98349000D01*
X133764499Y-98353445D01*
X133764499Y-98353445D01*
G37*
G36*
X130901000Y-99201000D02*
G01*
X129899000Y-99201000D01*
X129899000Y-98299000D01*
X130901000Y-98299000D01*
X130901000Y-99201000D01*
X130901000Y-99201000D01*
G37*
G36*
X136664499Y-97903445D02*
G01*
X136701995Y-97914820D01*
X136736554Y-97933292D01*
X136766847Y-97958153D01*
X136791708Y-97988446D01*
X136810180Y-98023005D01*
X136821555Y-98060501D01*
X136826000Y-98105638D01*
X136826000Y-98844362D01*
X136821555Y-98889499D01*
X136810180Y-98926995D01*
X136791708Y-98961554D01*
X136766847Y-98991847D01*
X136736554Y-99016708D01*
X136701995Y-99035180D01*
X136664499Y-99046555D01*
X136619362Y-99051000D01*
X135980638Y-99051000D01*
X135935501Y-99046555D01*
X135898005Y-99035180D01*
X135863446Y-99016708D01*
X135833153Y-98991847D01*
X135808292Y-98961554D01*
X135789820Y-98926995D01*
X135778445Y-98889499D01*
X135774000Y-98844362D01*
X135774000Y-98105638D01*
X135778445Y-98060501D01*
X135789820Y-98023005D01*
X135808292Y-97988446D01*
X135833153Y-97958153D01*
X135863446Y-97933292D01*
X135898005Y-97914820D01*
X135935501Y-97903445D01*
X135980638Y-97899000D01*
X136619362Y-97899000D01*
X136664499Y-97903445D01*
X136664499Y-97903445D01*
G37*
G36*
X141301000Y-98101000D02*
G01*
X140299000Y-98101000D01*
X140299000Y-97199000D01*
X141301000Y-97199000D01*
X141301000Y-98101000D01*
X141301000Y-98101000D01*
G37*
G36*
X143464499Y-96903445D02*
G01*
X143501995Y-96914820D01*
X143536554Y-96933292D01*
X143566847Y-96958153D01*
X143591708Y-96988446D01*
X143610180Y-97023005D01*
X143621555Y-97060501D01*
X143626000Y-97105638D01*
X143626000Y-97844362D01*
X143621555Y-97889499D01*
X143610180Y-97926995D01*
X143591708Y-97961554D01*
X143566847Y-97991847D01*
X143536554Y-98016708D01*
X143501995Y-98035180D01*
X143464499Y-98046555D01*
X143419362Y-98051000D01*
X142780638Y-98051000D01*
X142735501Y-98046555D01*
X142698005Y-98035180D01*
X142663446Y-98016708D01*
X142633153Y-97991847D01*
X142608292Y-97961554D01*
X142589820Y-97926995D01*
X142578445Y-97889499D01*
X142574000Y-97844362D01*
X142574000Y-97105638D01*
X142578445Y-97060501D01*
X142589820Y-97023005D01*
X142608292Y-96988446D01*
X142633153Y-96958153D01*
X142663446Y-96933292D01*
X142698005Y-96914820D01*
X142735501Y-96903445D01*
X142780638Y-96899000D01*
X143419362Y-96899000D01*
X143464499Y-96903445D01*
X143464499Y-96903445D01*
G37*
G36*
X172364499Y-96578445D02*
G01*
X172401995Y-96589820D01*
X172436554Y-96608292D01*
X172466847Y-96633153D01*
X172491708Y-96663446D01*
X172510180Y-96698005D01*
X172521555Y-96735501D01*
X172526000Y-96780638D01*
X172526000Y-97419362D01*
X172521555Y-97464499D01*
X172510180Y-97501995D01*
X172491708Y-97536554D01*
X172466847Y-97566847D01*
X172436554Y-97591708D01*
X172401995Y-97610180D01*
X172364499Y-97621555D01*
X172319362Y-97626000D01*
X171580638Y-97626000D01*
X171535501Y-97621555D01*
X171498005Y-97610180D01*
X171463446Y-97591708D01*
X171433153Y-97566847D01*
X171408292Y-97536554D01*
X171389820Y-97501995D01*
X171378445Y-97464499D01*
X171374000Y-97419362D01*
X171374000Y-96780638D01*
X171378445Y-96735501D01*
X171389820Y-96698005D01*
X171408292Y-96663446D01*
X171433153Y-96633153D01*
X171463446Y-96608292D01*
X171498005Y-96589820D01*
X171535501Y-96578445D01*
X171580638Y-96574000D01*
X172319362Y-96574000D01*
X172364499Y-96578445D01*
X172364499Y-96578445D01*
G37*
G36*
X170614499Y-96578445D02*
G01*
X170651995Y-96589820D01*
X170686554Y-96608292D01*
X170716847Y-96633153D01*
X170741708Y-96663446D01*
X170760180Y-96698005D01*
X170771555Y-96735501D01*
X170776000Y-96780638D01*
X170776000Y-97419362D01*
X170771555Y-97464499D01*
X170760180Y-97501995D01*
X170741708Y-97536554D01*
X170716847Y-97566847D01*
X170686554Y-97591708D01*
X170651995Y-97610180D01*
X170614499Y-97621555D01*
X170569362Y-97626000D01*
X169830638Y-97626000D01*
X169785501Y-97621555D01*
X169748005Y-97610180D01*
X169713446Y-97591708D01*
X169683153Y-97566847D01*
X169658292Y-97536554D01*
X169639820Y-97501995D01*
X169628445Y-97464499D01*
X169624000Y-97419362D01*
X169624000Y-96780638D01*
X169628445Y-96735501D01*
X169639820Y-96698005D01*
X169658292Y-96663446D01*
X169683153Y-96633153D01*
X169713446Y-96608292D01*
X169748005Y-96589820D01*
X169785501Y-96578445D01*
X169830638Y-96574000D01*
X170569362Y-96574000D01*
X170614499Y-96578445D01*
X170614499Y-96578445D01*
G37*
G36*
X136664499Y-96153445D02*
G01*
X136701995Y-96164820D01*
X136736554Y-96183292D01*
X136766847Y-96208153D01*
X136791708Y-96238446D01*
X136810180Y-96273005D01*
X136821555Y-96310501D01*
X136826000Y-96355638D01*
X136826000Y-97094362D01*
X136821555Y-97139499D01*
X136810180Y-97176995D01*
X136791708Y-97211554D01*
X136766847Y-97241847D01*
X136736554Y-97266708D01*
X136701995Y-97285180D01*
X136664499Y-97296555D01*
X136619362Y-97301000D01*
X135980638Y-97301000D01*
X135935501Y-97296555D01*
X135898005Y-97285180D01*
X135863446Y-97266708D01*
X135833153Y-97241847D01*
X135808292Y-97211554D01*
X135789820Y-97176995D01*
X135778445Y-97139499D01*
X135774000Y-97094362D01*
X135774000Y-96355638D01*
X135778445Y-96310501D01*
X135789820Y-96273005D01*
X135808292Y-96238446D01*
X135833153Y-96208153D01*
X135863446Y-96183292D01*
X135898005Y-96164820D01*
X135935501Y-96153445D01*
X135980638Y-96149000D01*
X136619362Y-96149000D01*
X136664499Y-96153445D01*
X136664499Y-96153445D01*
G37*
G36*
X154538674Y-96003465D02*
G01*
X154576367Y-96014899D01*
X154611103Y-96033466D01*
X154641548Y-96058452D01*
X154666534Y-96088897D01*
X154685101Y-96123633D01*
X154696535Y-96161326D01*
X154701000Y-96206661D01*
X154701000Y-97043339D01*
X154696535Y-97088674D01*
X154685101Y-97126367D01*
X154666534Y-97161103D01*
X154641548Y-97191548D01*
X154611103Y-97216534D01*
X154576367Y-97235101D01*
X154538674Y-97246535D01*
X154493339Y-97251000D01*
X153406661Y-97251000D01*
X153361326Y-97246535D01*
X153323633Y-97235101D01*
X153288897Y-97216534D01*
X153258452Y-97191548D01*
X153233466Y-97161103D01*
X153214899Y-97126367D01*
X153203465Y-97088674D01*
X153199000Y-97043339D01*
X153199000Y-96206661D01*
X153203465Y-96161326D01*
X153214899Y-96123633D01*
X153233466Y-96088897D01*
X153258452Y-96058452D01*
X153288897Y-96033466D01*
X153323633Y-96014899D01*
X153361326Y-96003465D01*
X153406661Y-95999000D01*
X154493339Y-95999000D01*
X154538674Y-96003465D01*
X154538674Y-96003465D01*
G37*
G36*
X139301000Y-97151000D02*
G01*
X138299000Y-97151000D01*
X138299000Y-96249000D01*
X139301000Y-96249000D01*
X139301000Y-97151000D01*
X139301000Y-97151000D01*
G37*
G36*
X148594499Y-95828445D02*
G01*
X148631995Y-95839820D01*
X148666554Y-95858292D01*
X148696847Y-95883153D01*
X148721708Y-95913446D01*
X148740180Y-95948005D01*
X148751555Y-95985501D01*
X148756000Y-96030638D01*
X148756000Y-96769362D01*
X148751555Y-96814499D01*
X148740180Y-96851995D01*
X148721708Y-96886554D01*
X148696847Y-96916847D01*
X148666554Y-96941708D01*
X148631995Y-96960180D01*
X148594499Y-96971555D01*
X148549362Y-96976000D01*
X147910638Y-96976000D01*
X147865501Y-96971555D01*
X147828005Y-96960180D01*
X147793446Y-96941708D01*
X147763153Y-96916847D01*
X147738292Y-96886554D01*
X147719820Y-96851995D01*
X147708445Y-96814499D01*
X147704000Y-96769362D01*
X147704000Y-96030638D01*
X147708445Y-95985501D01*
X147719820Y-95948005D01*
X147738292Y-95913446D01*
X147763153Y-95883153D01*
X147793446Y-95858292D01*
X147828005Y-95839820D01*
X147865501Y-95828445D01*
X147910638Y-95824000D01*
X148549362Y-95824000D01*
X148594499Y-95828445D01*
X148594499Y-95828445D01*
G37*
G36*
X162104499Y-95813445D02*
G01*
X162141995Y-95824820D01*
X162176554Y-95843292D01*
X162206847Y-95868153D01*
X162231708Y-95898446D01*
X162250180Y-95933005D01*
X162261555Y-95970501D01*
X162266000Y-96015638D01*
X162266000Y-96754362D01*
X162261555Y-96799499D01*
X162250180Y-96836995D01*
X162231708Y-96871554D01*
X162206847Y-96901847D01*
X162176554Y-96926708D01*
X162141995Y-96945180D01*
X162104499Y-96956555D01*
X162059362Y-96961000D01*
X161420638Y-96961000D01*
X161375501Y-96956555D01*
X161338005Y-96945180D01*
X161303446Y-96926708D01*
X161273153Y-96901847D01*
X161248292Y-96871554D01*
X161229820Y-96836995D01*
X161218445Y-96799499D01*
X161214000Y-96754362D01*
X161214000Y-96015638D01*
X161218445Y-95970501D01*
X161229820Y-95933005D01*
X161248292Y-95898446D01*
X161273153Y-95868153D01*
X161303446Y-95843292D01*
X161338005Y-95824820D01*
X161375501Y-95813445D01*
X161420638Y-95809000D01*
X162059362Y-95809000D01*
X162104499Y-95813445D01*
X162104499Y-95813445D01*
G37*
G36*
X151504499Y-95813445D02*
G01*
X151541995Y-95824820D01*
X151576554Y-95843292D01*
X151606847Y-95868153D01*
X151631708Y-95898446D01*
X151650180Y-95933005D01*
X151661555Y-95970501D01*
X151666000Y-96015638D01*
X151666000Y-96754362D01*
X151661555Y-96799499D01*
X151650180Y-96836995D01*
X151631708Y-96871554D01*
X151606847Y-96901847D01*
X151576554Y-96926708D01*
X151541995Y-96945180D01*
X151504499Y-96956555D01*
X151459362Y-96961000D01*
X150820638Y-96961000D01*
X150775501Y-96956555D01*
X150738005Y-96945180D01*
X150703446Y-96926708D01*
X150673153Y-96901847D01*
X150648292Y-96871554D01*
X150629820Y-96836995D01*
X150618445Y-96799499D01*
X150614000Y-96754362D01*
X150614000Y-96015638D01*
X150618445Y-95970501D01*
X150629820Y-95933005D01*
X150648292Y-95898446D01*
X150673153Y-95868153D01*
X150703446Y-95843292D01*
X150738005Y-95824820D01*
X150775501Y-95813445D01*
X150820638Y-95809000D01*
X151459362Y-95809000D01*
X151504499Y-95813445D01*
X151504499Y-95813445D01*
G37*
G36*
X159801000Y-96951000D02*
G01*
X158799000Y-96951000D01*
X158799000Y-96049000D01*
X159801000Y-96049000D01*
X159801000Y-96951000D01*
X159801000Y-96951000D01*
G37*
G36*
X105296162Y-93514368D02*
G01*
X105605724Y-93642593D01*
X105605725Y-93642594D01*
X105884324Y-93828747D01*
X106121253Y-94065676D01*
X106224703Y-94220501D01*
X106307407Y-94344276D01*
X106435632Y-94653838D01*
X106501000Y-94982465D01*
X106501000Y-95317535D01*
X106435632Y-95646162D01*
X106307407Y-95955724D01*
X106263997Y-96020691D01*
X106121253Y-96234324D01*
X105884324Y-96471253D01*
X105723899Y-96578445D01*
X105605724Y-96657407D01*
X105296162Y-96785632D01*
X104967535Y-96851000D01*
X104632465Y-96851000D01*
X104303838Y-96785632D01*
X103994276Y-96657407D01*
X103876101Y-96578445D01*
X103715676Y-96471253D01*
X103478747Y-96234324D01*
X103336003Y-96020691D01*
X103292593Y-95955724D01*
X103164368Y-95646162D01*
X103099000Y-95317535D01*
X103099000Y-94982465D01*
X103164368Y-94653838D01*
X103292593Y-94344276D01*
X103375297Y-94220501D01*
X103478747Y-94065676D01*
X103715676Y-93828747D01*
X103994275Y-93642594D01*
X103994276Y-93642593D01*
X104303838Y-93514368D01*
X104632465Y-93449000D01*
X104967535Y-93449000D01*
X105296162Y-93514368D01*
X105296162Y-93514368D01*
G37*
G36*
X143464499Y-95153445D02*
G01*
X143501995Y-95164820D01*
X143536554Y-95183292D01*
X143566847Y-95208153D01*
X143591708Y-95238446D01*
X143610180Y-95273005D01*
X143621555Y-95310501D01*
X143626000Y-95355638D01*
X143626000Y-96094362D01*
X143621555Y-96139499D01*
X143610180Y-96176995D01*
X143591708Y-96211554D01*
X143566847Y-96241847D01*
X143536554Y-96266708D01*
X143501995Y-96285180D01*
X143464499Y-96296555D01*
X143419362Y-96301000D01*
X142780638Y-96301000D01*
X142735501Y-96296555D01*
X142698005Y-96285180D01*
X142663446Y-96266708D01*
X142633153Y-96241847D01*
X142608292Y-96211554D01*
X142589820Y-96176995D01*
X142578445Y-96139499D01*
X142574000Y-96094362D01*
X142574000Y-95355638D01*
X142578445Y-95310501D01*
X142589820Y-95273005D01*
X142608292Y-95238446D01*
X142633153Y-95208153D01*
X142663446Y-95183292D01*
X142698005Y-95164820D01*
X142735501Y-95153445D01*
X142780638Y-95149000D01*
X143419362Y-95149000D01*
X143464499Y-95153445D01*
X143464499Y-95153445D01*
G37*
G36*
X141301000Y-96201000D02*
G01*
X140299000Y-96201000D01*
X140299000Y-95299000D01*
X141301000Y-95299000D01*
X141301000Y-96201000D01*
X141301000Y-96201000D01*
G37*
G36*
X157801000Y-96001000D02*
G01*
X156799000Y-96001000D01*
X156799000Y-95099000D01*
X157801000Y-95099000D01*
X157801000Y-96001000D01*
X157801000Y-96001000D01*
G37*
G36*
X174764499Y-94378445D02*
G01*
X174801995Y-94389820D01*
X174836554Y-94408292D01*
X174866847Y-94433153D01*
X174891708Y-94463446D01*
X174910180Y-94498005D01*
X174921555Y-94535501D01*
X174926000Y-94580638D01*
X174926000Y-95319362D01*
X174921555Y-95364499D01*
X174910180Y-95401995D01*
X174891708Y-95436554D01*
X174866847Y-95466847D01*
X174836554Y-95491708D01*
X174801995Y-95510180D01*
X174764499Y-95521555D01*
X174719362Y-95526000D01*
X174080638Y-95526000D01*
X174035501Y-95521555D01*
X173998005Y-95510180D01*
X173963446Y-95491708D01*
X173933153Y-95466847D01*
X173908292Y-95436554D01*
X173889820Y-95401995D01*
X173878445Y-95364499D01*
X173874000Y-95319362D01*
X173874000Y-94580638D01*
X173878445Y-94535501D01*
X173889820Y-94498005D01*
X173908292Y-94463446D01*
X173933153Y-94433153D01*
X173963446Y-94408292D01*
X173998005Y-94389820D01*
X174035501Y-94378445D01*
X174080638Y-94374000D01*
X174719362Y-94374000D01*
X174764499Y-94378445D01*
X174764499Y-94378445D01*
G37*
G36*
X130801000Y-95301000D02*
G01*
X129799000Y-95301000D01*
X129799000Y-94399000D01*
X130801000Y-94399000D01*
X130801000Y-95301000D01*
X130801000Y-95301000D01*
G37*
G36*
X133764499Y-94153445D02*
G01*
X133801995Y-94164820D01*
X133836554Y-94183292D01*
X133866847Y-94208153D01*
X133891708Y-94238446D01*
X133910180Y-94273005D01*
X133921555Y-94310501D01*
X133926000Y-94355638D01*
X133926000Y-95094362D01*
X133921555Y-95139499D01*
X133910180Y-95176995D01*
X133891708Y-95211554D01*
X133866847Y-95241847D01*
X133836554Y-95266708D01*
X133801995Y-95285180D01*
X133764499Y-95296555D01*
X133719362Y-95301000D01*
X133080638Y-95301000D01*
X133035501Y-95296555D01*
X132998005Y-95285180D01*
X132963446Y-95266708D01*
X132933153Y-95241847D01*
X132908292Y-95211554D01*
X132889820Y-95176995D01*
X132878445Y-95139499D01*
X132874000Y-95094362D01*
X132874000Y-94355638D01*
X132878445Y-94310501D01*
X132889820Y-94273005D01*
X132908292Y-94238446D01*
X132933153Y-94208153D01*
X132963446Y-94183292D01*
X132998005Y-94164820D01*
X133035501Y-94153445D01*
X133080638Y-94149000D01*
X133719362Y-94149000D01*
X133764499Y-94153445D01*
X133764499Y-94153445D01*
G37*
G36*
X148594499Y-94078445D02*
G01*
X148631995Y-94089820D01*
X148666554Y-94108292D01*
X148696847Y-94133153D01*
X148721708Y-94163446D01*
X148740180Y-94198005D01*
X148751555Y-94235501D01*
X148756000Y-94280638D01*
X148756000Y-95019362D01*
X148751555Y-95064499D01*
X148740180Y-95101995D01*
X148721708Y-95136554D01*
X148696847Y-95166847D01*
X148666554Y-95191708D01*
X148631995Y-95210180D01*
X148594499Y-95221555D01*
X148549362Y-95226000D01*
X147910638Y-95226000D01*
X147865501Y-95221555D01*
X147828005Y-95210180D01*
X147793446Y-95191708D01*
X147763153Y-95166847D01*
X147738292Y-95136554D01*
X147719820Y-95101995D01*
X147708445Y-95064499D01*
X147704000Y-95019362D01*
X147704000Y-94280638D01*
X147708445Y-94235501D01*
X147719820Y-94198005D01*
X147738292Y-94163446D01*
X147763153Y-94133153D01*
X147793446Y-94108292D01*
X147828005Y-94089820D01*
X147865501Y-94078445D01*
X147910638Y-94074000D01*
X148549362Y-94074000D01*
X148594499Y-94078445D01*
X148594499Y-94078445D01*
G37*
G36*
X162104499Y-94063445D02*
G01*
X162141995Y-94074820D01*
X162176554Y-94093292D01*
X162206847Y-94118153D01*
X162231708Y-94148446D01*
X162250180Y-94183005D01*
X162261555Y-94220501D01*
X162266000Y-94265638D01*
X162266000Y-95004362D01*
X162261555Y-95049499D01*
X162250180Y-95086995D01*
X162231708Y-95121554D01*
X162206847Y-95151847D01*
X162176554Y-95176708D01*
X162141995Y-95195180D01*
X162104499Y-95206555D01*
X162059362Y-95211000D01*
X161420638Y-95211000D01*
X161375501Y-95206555D01*
X161338005Y-95195180D01*
X161303446Y-95176708D01*
X161273153Y-95151847D01*
X161248292Y-95121554D01*
X161229820Y-95086995D01*
X161218445Y-95049499D01*
X161214000Y-95004362D01*
X161214000Y-94265638D01*
X161218445Y-94220501D01*
X161229820Y-94183005D01*
X161248292Y-94148446D01*
X161273153Y-94118153D01*
X161303446Y-94093292D01*
X161338005Y-94074820D01*
X161375501Y-94063445D01*
X161420638Y-94059000D01*
X162059362Y-94059000D01*
X162104499Y-94063445D01*
X162104499Y-94063445D01*
G37*
G36*
X151504499Y-94063445D02*
G01*
X151541995Y-94074820D01*
X151576554Y-94093292D01*
X151606847Y-94118153D01*
X151631708Y-94148446D01*
X151650180Y-94183005D01*
X151661555Y-94220501D01*
X151666000Y-94265638D01*
X151666000Y-95004362D01*
X151661555Y-95049499D01*
X151650180Y-95086995D01*
X151631708Y-95121554D01*
X151606847Y-95151847D01*
X151576554Y-95176708D01*
X151541995Y-95195180D01*
X151504499Y-95206555D01*
X151459362Y-95211000D01*
X150820638Y-95211000D01*
X150775501Y-95206555D01*
X150738005Y-95195180D01*
X150703446Y-95176708D01*
X150673153Y-95151847D01*
X150648292Y-95121554D01*
X150629820Y-95086995D01*
X150618445Y-95049499D01*
X150614000Y-95004362D01*
X150614000Y-94265638D01*
X150618445Y-94220501D01*
X150629820Y-94183005D01*
X150648292Y-94148446D01*
X150673153Y-94118153D01*
X150703446Y-94093292D01*
X150738005Y-94074820D01*
X150775501Y-94063445D01*
X150820638Y-94059000D01*
X151459362Y-94059000D01*
X151504499Y-94063445D01*
X151504499Y-94063445D01*
G37*
G36*
X154538674Y-93953465D02*
G01*
X154576367Y-93964899D01*
X154611103Y-93983466D01*
X154641548Y-94008452D01*
X154666534Y-94038897D01*
X154685101Y-94073633D01*
X154696535Y-94111326D01*
X154701000Y-94156661D01*
X154701000Y-94993339D01*
X154696535Y-95038674D01*
X154685101Y-95076367D01*
X154666534Y-95111103D01*
X154641548Y-95141548D01*
X154611103Y-95166534D01*
X154576367Y-95185101D01*
X154538674Y-95196535D01*
X154493339Y-95201000D01*
X153406661Y-95201000D01*
X153361326Y-95196535D01*
X153323633Y-95185101D01*
X153288897Y-95166534D01*
X153258452Y-95141548D01*
X153233466Y-95111103D01*
X153214899Y-95076367D01*
X153203465Y-95038674D01*
X153199000Y-94993339D01*
X153199000Y-94156661D01*
X153203465Y-94111326D01*
X153214899Y-94073633D01*
X153233466Y-94038897D01*
X153258452Y-94008452D01*
X153288897Y-93983466D01*
X153323633Y-93964899D01*
X153361326Y-93953465D01*
X153406661Y-93949000D01*
X154493339Y-93949000D01*
X154538674Y-93953465D01*
X154538674Y-93953465D01*
G37*
G36*
X169851000Y-95201000D02*
G01*
X168549000Y-95201000D01*
X168549000Y-94199000D01*
X169851000Y-94199000D01*
X169851000Y-95201000D01*
X169851000Y-95201000D01*
G37*
G36*
X172651000Y-95201000D02*
G01*
X171349000Y-95201000D01*
X171349000Y-94199000D01*
X172651000Y-94199000D01*
X172651000Y-95201000D01*
X172651000Y-95201000D01*
G37*
G36*
X159801000Y-95051000D02*
G01*
X158799000Y-95051000D01*
X158799000Y-94149000D01*
X159801000Y-94149000D01*
X159801000Y-95051000D01*
X159801000Y-95051000D01*
G37*
G36*
X128801000Y-94351000D02*
G01*
X127799000Y-94351000D01*
X127799000Y-93449000D01*
X128801000Y-93449000D01*
X128801000Y-94351000D01*
X128801000Y-94351000D01*
G37*
G36*
X174764499Y-92628445D02*
G01*
X174801995Y-92639820D01*
X174836554Y-92658292D01*
X174866847Y-92683153D01*
X174891708Y-92713446D01*
X174910180Y-92748005D01*
X174921555Y-92785501D01*
X174926000Y-92830638D01*
X174926000Y-93569362D01*
X174921555Y-93614499D01*
X174910180Y-93651995D01*
X174891708Y-93686554D01*
X174866847Y-93716847D01*
X174836554Y-93741708D01*
X174801995Y-93760180D01*
X174764499Y-93771555D01*
X174719362Y-93776000D01*
X174080638Y-93776000D01*
X174035501Y-93771555D01*
X173998005Y-93760180D01*
X173963446Y-93741708D01*
X173933153Y-93716847D01*
X173908292Y-93686554D01*
X173889820Y-93651995D01*
X173878445Y-93614499D01*
X173874000Y-93569362D01*
X173874000Y-92830638D01*
X173878445Y-92785501D01*
X173889820Y-92748005D01*
X173908292Y-92713446D01*
X173933153Y-92683153D01*
X173963446Y-92658292D01*
X173998005Y-92639820D01*
X174035501Y-92628445D01*
X174080638Y-92624000D01*
X174719362Y-92624000D01*
X174764499Y-92628445D01*
X174764499Y-92628445D01*
G37*
G36*
X169851000Y-93751000D02*
G01*
X168549000Y-93751000D01*
X168549000Y-92749000D01*
X169851000Y-92749000D01*
X169851000Y-93751000D01*
X169851000Y-93751000D01*
G37*
G36*
X172651000Y-93751000D02*
G01*
X171349000Y-93751000D01*
X171349000Y-92749000D01*
X172651000Y-92749000D01*
X172651000Y-93751000D01*
X172651000Y-93751000D01*
G37*
G36*
X133764499Y-92403445D02*
G01*
X133801995Y-92414820D01*
X133836554Y-92433292D01*
X133866847Y-92458153D01*
X133891708Y-92488446D01*
X133910180Y-92523005D01*
X133921555Y-92560501D01*
X133926000Y-92605638D01*
X133926000Y-93344362D01*
X133921555Y-93389499D01*
X133910180Y-93426995D01*
X133891708Y-93461554D01*
X133866847Y-93491847D01*
X133836554Y-93516708D01*
X133801995Y-93535180D01*
X133764499Y-93546555D01*
X133719362Y-93551000D01*
X133080638Y-93551000D01*
X133035501Y-93546555D01*
X132998005Y-93535180D01*
X132963446Y-93516708D01*
X132933153Y-93491847D01*
X132908292Y-93461554D01*
X132889820Y-93426995D01*
X132878445Y-93389499D01*
X132874000Y-93344362D01*
X132874000Y-92605638D01*
X132878445Y-92560501D01*
X132889820Y-92523005D01*
X132908292Y-92488446D01*
X132933153Y-92458153D01*
X132963446Y-92433292D01*
X132998005Y-92414820D01*
X133035501Y-92403445D01*
X133080638Y-92399000D01*
X133719362Y-92399000D01*
X133764499Y-92403445D01*
X133764499Y-92403445D01*
G37*
G36*
X130801000Y-93401000D02*
G01*
X129799000Y-93401000D01*
X129799000Y-92499000D01*
X130801000Y-92499000D01*
X130801000Y-93401000D01*
X130801000Y-93401000D01*
G37*
G36*
X143364499Y-92203445D02*
G01*
X143401995Y-92214820D01*
X143436554Y-92233292D01*
X143466847Y-92258153D01*
X143491708Y-92288446D01*
X143510180Y-92323005D01*
X143521555Y-92360501D01*
X143526000Y-92405638D01*
X143526000Y-93144362D01*
X143521555Y-93189499D01*
X143510180Y-93226995D01*
X143491708Y-93261554D01*
X143466847Y-93291847D01*
X143436554Y-93316708D01*
X143401995Y-93335180D01*
X143364499Y-93346555D01*
X143319362Y-93351000D01*
X142680638Y-93351000D01*
X142635501Y-93346555D01*
X142598005Y-93335180D01*
X142563446Y-93316708D01*
X142533153Y-93291847D01*
X142508292Y-93261554D01*
X142489820Y-93226995D01*
X142478445Y-93189499D01*
X142474000Y-93144362D01*
X142474000Y-92405638D01*
X142478445Y-92360501D01*
X142489820Y-92323005D01*
X142508292Y-92288446D01*
X142533153Y-92258153D01*
X142563446Y-92233292D01*
X142598005Y-92214820D01*
X142635501Y-92203445D01*
X142680638Y-92199000D01*
X143319362Y-92199000D01*
X143364499Y-92203445D01*
X143364499Y-92203445D01*
G37*
G36*
X141301000Y-93301000D02*
G01*
X140299000Y-93301000D01*
X140299000Y-92399000D01*
X141301000Y-92399000D01*
X141301000Y-93301000D01*
X141301000Y-93301000D01*
G37*
G36*
X139301000Y-92351000D02*
G01*
X138299000Y-92351000D01*
X138299000Y-91449000D01*
X139301000Y-91449000D01*
X139301000Y-92351000D01*
X139301000Y-92351000D01*
G37*
G36*
X161151000Y-91951000D02*
G01*
X158949000Y-91951000D01*
X158949000Y-90349000D01*
X161151000Y-90349000D01*
X161151000Y-91951000D01*
X161151000Y-91951000D01*
G37*
G36*
X156851000Y-91951000D02*
G01*
X154649000Y-91951000D01*
X154649000Y-90349000D01*
X156851000Y-90349000D01*
X156851000Y-91951000D01*
X156851000Y-91951000D01*
G37*
G36*
X153189499Y-90628445D02*
G01*
X153226995Y-90639820D01*
X153261554Y-90658292D01*
X153291847Y-90683153D01*
X153316708Y-90713446D01*
X153335180Y-90748005D01*
X153346555Y-90785501D01*
X153351000Y-90830638D01*
X153351000Y-91469362D01*
X153346555Y-91514499D01*
X153335180Y-91551995D01*
X153316708Y-91586554D01*
X153291847Y-91616847D01*
X153261554Y-91641708D01*
X153226995Y-91660180D01*
X153189499Y-91671555D01*
X153144362Y-91676000D01*
X152405638Y-91676000D01*
X152360501Y-91671555D01*
X152323005Y-91660180D01*
X152288446Y-91641708D01*
X152258153Y-91616847D01*
X152233292Y-91586554D01*
X152214820Y-91551995D01*
X152203445Y-91514499D01*
X152199000Y-91469362D01*
X152199000Y-90830638D01*
X152203445Y-90785501D01*
X152214820Y-90748005D01*
X152233292Y-90713446D01*
X152258153Y-90683153D01*
X152288446Y-90658292D01*
X152323005Y-90639820D01*
X152360501Y-90628445D01*
X152405638Y-90624000D01*
X153144362Y-90624000D01*
X153189499Y-90628445D01*
X153189499Y-90628445D01*
G37*
G36*
X151439499Y-90628445D02*
G01*
X151476995Y-90639820D01*
X151511554Y-90658292D01*
X151541847Y-90683153D01*
X151566708Y-90713446D01*
X151585180Y-90748005D01*
X151596555Y-90785501D01*
X151601000Y-90830638D01*
X151601000Y-91469362D01*
X151596555Y-91514499D01*
X151585180Y-91551995D01*
X151566708Y-91586554D01*
X151541847Y-91616847D01*
X151511554Y-91641708D01*
X151476995Y-91660180D01*
X151439499Y-91671555D01*
X151394362Y-91676000D01*
X150655638Y-91676000D01*
X150610501Y-91671555D01*
X150573005Y-91660180D01*
X150538446Y-91641708D01*
X150508153Y-91616847D01*
X150483292Y-91586554D01*
X150464820Y-91551995D01*
X150453445Y-91514499D01*
X150449000Y-91469362D01*
X150449000Y-90830638D01*
X150453445Y-90785501D01*
X150464820Y-90748005D01*
X150483292Y-90713446D01*
X150508153Y-90683153D01*
X150538446Y-90658292D01*
X150573005Y-90639820D01*
X150610501Y-90628445D01*
X150655638Y-90624000D01*
X151394362Y-90624000D01*
X151439499Y-90628445D01*
X151439499Y-90628445D01*
G37*
G36*
X143364499Y-90453445D02*
G01*
X143401995Y-90464820D01*
X143436554Y-90483292D01*
X143466847Y-90508153D01*
X143491708Y-90538446D01*
X143510180Y-90573005D01*
X143521555Y-90610501D01*
X143526000Y-90655638D01*
X143526000Y-91394362D01*
X143521555Y-91439499D01*
X143510180Y-91476995D01*
X143491708Y-91511554D01*
X143466847Y-91541847D01*
X143436554Y-91566708D01*
X143401995Y-91585180D01*
X143364499Y-91596555D01*
X143319362Y-91601000D01*
X142680638Y-91601000D01*
X142635501Y-91596555D01*
X142598005Y-91585180D01*
X142563446Y-91566708D01*
X142533153Y-91541847D01*
X142508292Y-91511554D01*
X142489820Y-91476995D01*
X142478445Y-91439499D01*
X142474000Y-91394362D01*
X142474000Y-90655638D01*
X142478445Y-90610501D01*
X142489820Y-90573005D01*
X142508292Y-90538446D01*
X142533153Y-90508153D01*
X142563446Y-90483292D01*
X142598005Y-90464820D01*
X142635501Y-90453445D01*
X142680638Y-90449000D01*
X143319362Y-90449000D01*
X143364499Y-90453445D01*
X143364499Y-90453445D01*
G37*
G36*
X141301000Y-91401000D02*
G01*
X140299000Y-91401000D01*
X140299000Y-90499000D01*
X141301000Y-90499000D01*
X141301000Y-91401000D01*
X141301000Y-91401000D01*
G37*
G36*
X130901000Y-90301000D02*
G01*
X129899000Y-90301000D01*
X129899000Y-89399000D01*
X130901000Y-89399000D01*
X130901000Y-90301000D01*
X130901000Y-90301000D01*
G37*
G36*
X133764499Y-89103445D02*
G01*
X133801995Y-89114820D01*
X133836554Y-89133292D01*
X133866847Y-89158153D01*
X133891708Y-89188446D01*
X133910180Y-89223005D01*
X133921555Y-89260501D01*
X133926000Y-89305638D01*
X133926000Y-90044362D01*
X133921555Y-90089499D01*
X133910180Y-90126995D01*
X133891708Y-90161554D01*
X133866847Y-90191847D01*
X133836554Y-90216708D01*
X133801995Y-90235180D01*
X133764499Y-90246555D01*
X133719362Y-90251000D01*
X133080638Y-90251000D01*
X133035501Y-90246555D01*
X132998005Y-90235180D01*
X132963446Y-90216708D01*
X132933153Y-90191847D01*
X132908292Y-90161554D01*
X132889820Y-90126995D01*
X132878445Y-90089499D01*
X132874000Y-90044362D01*
X132874000Y-89305638D01*
X132878445Y-89260501D01*
X132889820Y-89223005D01*
X132908292Y-89188446D01*
X132933153Y-89158153D01*
X132963446Y-89133292D01*
X132998005Y-89114820D01*
X133035501Y-89103445D01*
X133080638Y-89099000D01*
X133719362Y-89099000D01*
X133764499Y-89103445D01*
X133764499Y-89103445D01*
G37*
G36*
X173189499Y-89078445D02*
G01*
X173226995Y-89089820D01*
X173261554Y-89108292D01*
X173291847Y-89133153D01*
X173316708Y-89163446D01*
X173335180Y-89198005D01*
X173346555Y-89235501D01*
X173351000Y-89280638D01*
X173351000Y-89919362D01*
X173346555Y-89964499D01*
X173335180Y-90001995D01*
X173316708Y-90036554D01*
X173291847Y-90066847D01*
X173261554Y-90091708D01*
X173226995Y-90110180D01*
X173189499Y-90121555D01*
X173144362Y-90126000D01*
X172405638Y-90126000D01*
X172360501Y-90121555D01*
X172323005Y-90110180D01*
X172288446Y-90091708D01*
X172258153Y-90066847D01*
X172233292Y-90036554D01*
X172214820Y-90001995D01*
X172203445Y-89964499D01*
X172199000Y-89919362D01*
X172199000Y-89280638D01*
X172203445Y-89235501D01*
X172214820Y-89198005D01*
X172233292Y-89163446D01*
X172258153Y-89133153D01*
X172288446Y-89108292D01*
X172323005Y-89089820D01*
X172360501Y-89078445D01*
X172405638Y-89074000D01*
X173144362Y-89074000D01*
X173189499Y-89078445D01*
X173189499Y-89078445D01*
G37*
G36*
X171439499Y-89078445D02*
G01*
X171476995Y-89089820D01*
X171511554Y-89108292D01*
X171541847Y-89133153D01*
X171566708Y-89163446D01*
X171585180Y-89198005D01*
X171596555Y-89235501D01*
X171601000Y-89280638D01*
X171601000Y-89919362D01*
X171596555Y-89964499D01*
X171585180Y-90001995D01*
X171566708Y-90036554D01*
X171541847Y-90066847D01*
X171511554Y-90091708D01*
X171476995Y-90110180D01*
X171439499Y-90121555D01*
X171394362Y-90126000D01*
X170655638Y-90126000D01*
X170610501Y-90121555D01*
X170573005Y-90110180D01*
X170538446Y-90091708D01*
X170508153Y-90066847D01*
X170483292Y-90036554D01*
X170464820Y-90001995D01*
X170453445Y-89964499D01*
X170449000Y-89919362D01*
X170449000Y-89280638D01*
X170453445Y-89235501D01*
X170464820Y-89198005D01*
X170483292Y-89163446D01*
X170508153Y-89133153D01*
X170538446Y-89108292D01*
X170573005Y-89089820D01*
X170610501Y-89078445D01*
X170655638Y-89074000D01*
X171394362Y-89074000D01*
X171439499Y-89078445D01*
X171439499Y-89078445D01*
G37*
G36*
X128901000Y-89351000D02*
G01*
X127899000Y-89351000D01*
X127899000Y-88449000D01*
X128901000Y-88449000D01*
X128901000Y-89351000D01*
X128901000Y-89351000D01*
G37*
G36*
X161151000Y-89251000D02*
G01*
X158949000Y-89251000D01*
X158949000Y-87649000D01*
X161151000Y-87649000D01*
X161151000Y-89251000D01*
X161151000Y-89251000D01*
G37*
G36*
X156851000Y-89251000D02*
G01*
X154649000Y-89251000D01*
X154649000Y-87649000D01*
X156851000Y-87649000D01*
X156851000Y-89251000D01*
X156851000Y-89251000D01*
G37*
G36*
X163114499Y-88028445D02*
G01*
X163151995Y-88039820D01*
X163186554Y-88058292D01*
X163216847Y-88083153D01*
X163241708Y-88113446D01*
X163260180Y-88148005D01*
X163271555Y-88185501D01*
X163276000Y-88230638D01*
X163276000Y-88969362D01*
X163271555Y-89014499D01*
X163260180Y-89051995D01*
X163241708Y-89086554D01*
X163216847Y-89116847D01*
X163186554Y-89141708D01*
X163151995Y-89160180D01*
X163114499Y-89171555D01*
X163069362Y-89176000D01*
X162430638Y-89176000D01*
X162385501Y-89171555D01*
X162348005Y-89160180D01*
X162313446Y-89141708D01*
X162283153Y-89116847D01*
X162258292Y-89086554D01*
X162239820Y-89051995D01*
X162228445Y-89014499D01*
X162224000Y-88969362D01*
X162224000Y-88230638D01*
X162228445Y-88185501D01*
X162239820Y-88148005D01*
X162258292Y-88113446D01*
X162283153Y-88083153D01*
X162313446Y-88058292D01*
X162348005Y-88039820D01*
X162385501Y-88028445D01*
X162430638Y-88024000D01*
X163069362Y-88024000D01*
X163114499Y-88028445D01*
X163114499Y-88028445D01*
G37*
G36*
X111599272Y-86913428D02*
G01*
X111785991Y-86990770D01*
X111785993Y-86990771D01*
X111954037Y-87103054D01*
X112096946Y-87245963D01*
X112205317Y-87408153D01*
X112209230Y-87414009D01*
X112286572Y-87600728D01*
X112326000Y-87798947D01*
X112326000Y-88001053D01*
X112286572Y-88199272D01*
X112212956Y-88376995D01*
X112209229Y-88385993D01*
X112096946Y-88554037D01*
X111954037Y-88696946D01*
X111785993Y-88809229D01*
X111785992Y-88809230D01*
X111785991Y-88809230D01*
X111599272Y-88886572D01*
X111401053Y-88926000D01*
X111198947Y-88926000D01*
X111000728Y-88886572D01*
X110814009Y-88809230D01*
X110814008Y-88809230D01*
X110814007Y-88809229D01*
X110645963Y-88696946D01*
X110503054Y-88554037D01*
X110390771Y-88385993D01*
X110387044Y-88376995D01*
X110313428Y-88199272D01*
X110274000Y-88001053D01*
X110274000Y-87798947D01*
X110313428Y-87600728D01*
X110390770Y-87414009D01*
X110394683Y-87408153D01*
X110503054Y-87245963D01*
X110645963Y-87103054D01*
X110814007Y-86990771D01*
X110814009Y-86990770D01*
X111000728Y-86913428D01*
X111198947Y-86874000D01*
X111401053Y-86874000D01*
X111599272Y-86913428D01*
X111599272Y-86913428D01*
G37*
G36*
X119599272Y-86913428D02*
G01*
X119785991Y-86990770D01*
X119785993Y-86990771D01*
X119954037Y-87103054D01*
X120096946Y-87245963D01*
X120205317Y-87408153D01*
X120209230Y-87414009D01*
X120286572Y-87600728D01*
X120326000Y-87798947D01*
X120326000Y-88001053D01*
X120286572Y-88199272D01*
X120212956Y-88376995D01*
X120209229Y-88385993D01*
X120096946Y-88554037D01*
X119954037Y-88696946D01*
X119785993Y-88809229D01*
X119785992Y-88809230D01*
X119785991Y-88809230D01*
X119599272Y-88886572D01*
X119401053Y-88926000D01*
X119198947Y-88926000D01*
X119000728Y-88886572D01*
X118814009Y-88809230D01*
X118814008Y-88809230D01*
X118814007Y-88809229D01*
X118645963Y-88696946D01*
X118503054Y-88554037D01*
X118390771Y-88385993D01*
X118387044Y-88376995D01*
X118313428Y-88199272D01*
X118274000Y-88001053D01*
X118274000Y-87798947D01*
X118313428Y-87600728D01*
X118390770Y-87414009D01*
X118394683Y-87408153D01*
X118503054Y-87245963D01*
X118645963Y-87103054D01*
X118814007Y-86990771D01*
X118814009Y-86990770D01*
X119000728Y-86913428D01*
X119198947Y-86874000D01*
X119401053Y-86874000D01*
X119599272Y-86913428D01*
X119599272Y-86913428D01*
G37*
G36*
X133764499Y-87353445D02*
G01*
X133801995Y-87364820D01*
X133836554Y-87383292D01*
X133866847Y-87408153D01*
X133891708Y-87438446D01*
X133910180Y-87473005D01*
X133921555Y-87510501D01*
X133926000Y-87555638D01*
X133926000Y-88294362D01*
X133921555Y-88339499D01*
X133910180Y-88376995D01*
X133891708Y-88411554D01*
X133866847Y-88441847D01*
X133836554Y-88466708D01*
X133801995Y-88485180D01*
X133764499Y-88496555D01*
X133719362Y-88501000D01*
X133080638Y-88501000D01*
X133035501Y-88496555D01*
X132998005Y-88485180D01*
X132963446Y-88466708D01*
X132933153Y-88441847D01*
X132908292Y-88411554D01*
X132889820Y-88376995D01*
X132878445Y-88339499D01*
X132874000Y-88294362D01*
X132874000Y-87555638D01*
X132878445Y-87510501D01*
X132889820Y-87473005D01*
X132908292Y-87438446D01*
X132933153Y-87408153D01*
X132963446Y-87383292D01*
X132998005Y-87364820D01*
X133035501Y-87353445D01*
X133080638Y-87349000D01*
X133719362Y-87349000D01*
X133764499Y-87353445D01*
X133764499Y-87353445D01*
G37*
G36*
X130901000Y-88401000D02*
G01*
X129899000Y-88401000D01*
X129899000Y-87499000D01*
X130901000Y-87499000D01*
X130901000Y-88401000D01*
X130901000Y-88401000D01*
G37*
G36*
X141301000Y-88101000D02*
G01*
X140299000Y-88101000D01*
X140299000Y-87199000D01*
X141301000Y-87199000D01*
X141301000Y-88101000D01*
X141301000Y-88101000D01*
G37*
G36*
X143264499Y-86853445D02*
G01*
X143301995Y-86864820D01*
X143336554Y-86883292D01*
X143366847Y-86908153D01*
X143391708Y-86938446D01*
X143410180Y-86973005D01*
X143421555Y-87010501D01*
X143426000Y-87055638D01*
X143426000Y-87794362D01*
X143421555Y-87839499D01*
X143410180Y-87876995D01*
X143391708Y-87911554D01*
X143366847Y-87941847D01*
X143336554Y-87966708D01*
X143301995Y-87985180D01*
X143264499Y-87996555D01*
X143219362Y-88001000D01*
X142580638Y-88001000D01*
X142535501Y-87996555D01*
X142498005Y-87985180D01*
X142463446Y-87966708D01*
X142433153Y-87941847D01*
X142408292Y-87911554D01*
X142389820Y-87876995D01*
X142378445Y-87839499D01*
X142374000Y-87794362D01*
X142374000Y-87055638D01*
X142378445Y-87010501D01*
X142389820Y-86973005D01*
X142408292Y-86938446D01*
X142433153Y-86908153D01*
X142463446Y-86883292D01*
X142498005Y-86864820D01*
X142535501Y-86853445D01*
X142580638Y-86849000D01*
X143219362Y-86849000D01*
X143264499Y-86853445D01*
X143264499Y-86853445D01*
G37*
G36*
X114099272Y-85413428D02*
G01*
X114285991Y-85490770D01*
X114285993Y-85490771D01*
X114454037Y-85603054D01*
X114596946Y-85745963D01*
X114709229Y-85914007D01*
X114709230Y-85914009D01*
X114786572Y-86100728D01*
X114826000Y-86298947D01*
X114826000Y-86501053D01*
X114786572Y-86699272D01*
X114714197Y-86874000D01*
X114709229Y-86885993D01*
X114596946Y-87054037D01*
X114454037Y-87196946D01*
X114285993Y-87309229D01*
X114285992Y-87309230D01*
X114285991Y-87309230D01*
X114099272Y-87386572D01*
X113901053Y-87426000D01*
X113698947Y-87426000D01*
X113500728Y-87386572D01*
X113314009Y-87309230D01*
X113314008Y-87309230D01*
X113314007Y-87309229D01*
X113145963Y-87196946D01*
X113003054Y-87054037D01*
X112890771Y-86885993D01*
X112885803Y-86874000D01*
X112813428Y-86699272D01*
X112774000Y-86501053D01*
X112774000Y-86298947D01*
X112813428Y-86100728D01*
X112890770Y-85914009D01*
X112890771Y-85914007D01*
X113003054Y-85745963D01*
X113145963Y-85603054D01*
X113314007Y-85490771D01*
X113314009Y-85490770D01*
X113500728Y-85413428D01*
X113698947Y-85374000D01*
X113901053Y-85374000D01*
X114099272Y-85413428D01*
X114099272Y-85413428D01*
G37*
G36*
X163114499Y-86278445D02*
G01*
X163151995Y-86289820D01*
X163186554Y-86308292D01*
X163216847Y-86333153D01*
X163241708Y-86363446D01*
X163260180Y-86398005D01*
X163271555Y-86435501D01*
X163276000Y-86480638D01*
X163276000Y-87219362D01*
X163271555Y-87264499D01*
X163260180Y-87301995D01*
X163241708Y-87336554D01*
X163216847Y-87366847D01*
X163186554Y-87391708D01*
X163151995Y-87410180D01*
X163114499Y-87421555D01*
X163069362Y-87426000D01*
X162430638Y-87426000D01*
X162385501Y-87421555D01*
X162348005Y-87410180D01*
X162313446Y-87391708D01*
X162283153Y-87366847D01*
X162258292Y-87336554D01*
X162239820Y-87301995D01*
X162228445Y-87264499D01*
X162224000Y-87219362D01*
X162224000Y-86480638D01*
X162228445Y-86435501D01*
X162239820Y-86398005D01*
X162258292Y-86363446D01*
X162283153Y-86333153D01*
X162313446Y-86308292D01*
X162348005Y-86289820D01*
X162385501Y-86278445D01*
X162430638Y-86274000D01*
X163069362Y-86274000D01*
X163114499Y-86278445D01*
X163114499Y-86278445D01*
G37*
G36*
X117099272Y-85413428D02*
G01*
X117285991Y-85490770D01*
X117285993Y-85490771D01*
X117454037Y-85603054D01*
X117596946Y-85745963D01*
X117709229Y-85914007D01*
X117709230Y-85914009D01*
X117786572Y-86100728D01*
X117826000Y-86298947D01*
X117826000Y-86501053D01*
X117786572Y-86699272D01*
X117714197Y-86874000D01*
X117709229Y-86885993D01*
X117596946Y-87054037D01*
X117454037Y-87196946D01*
X117285993Y-87309229D01*
X117285992Y-87309230D01*
X117285991Y-87309230D01*
X117099272Y-87386572D01*
X116901053Y-87426000D01*
X116698947Y-87426000D01*
X116500728Y-87386572D01*
X116314009Y-87309230D01*
X116314008Y-87309230D01*
X116314007Y-87309229D01*
X116145963Y-87196946D01*
X116003054Y-87054037D01*
X115890771Y-86885993D01*
X115885803Y-86874000D01*
X115813428Y-86699272D01*
X115774000Y-86501053D01*
X115774000Y-86298947D01*
X115813428Y-86100728D01*
X115890770Y-85914009D01*
X115890771Y-85914007D01*
X116003054Y-85745963D01*
X116145963Y-85603054D01*
X116314007Y-85490771D01*
X116314009Y-85490770D01*
X116500728Y-85413428D01*
X116698947Y-85374000D01*
X116901053Y-85374000D01*
X117099272Y-85413428D01*
X117099272Y-85413428D01*
G37*
G36*
X139301000Y-87151000D02*
G01*
X138299000Y-87151000D01*
X138299000Y-86249000D01*
X139301000Y-86249000D01*
X139301000Y-87151000D01*
X139301000Y-87151000D01*
G37*
G36*
X143264499Y-85103445D02*
G01*
X143301995Y-85114820D01*
X143336554Y-85133292D01*
X143366847Y-85158153D01*
X143391708Y-85188446D01*
X143410180Y-85223005D01*
X143421555Y-85260501D01*
X143426000Y-85305638D01*
X143426000Y-86044362D01*
X143421555Y-86089499D01*
X143410180Y-86126995D01*
X143391708Y-86161554D01*
X143366847Y-86191847D01*
X143336554Y-86216708D01*
X143301995Y-86235180D01*
X143264499Y-86246555D01*
X143219362Y-86251000D01*
X142580638Y-86251000D01*
X142535501Y-86246555D01*
X142498005Y-86235180D01*
X142463446Y-86216708D01*
X142433153Y-86191847D01*
X142408292Y-86161554D01*
X142389820Y-86126995D01*
X142378445Y-86089499D01*
X142374000Y-86044362D01*
X142374000Y-85305638D01*
X142378445Y-85260501D01*
X142389820Y-85223005D01*
X142408292Y-85188446D01*
X142433153Y-85158153D01*
X142463446Y-85133292D01*
X142498005Y-85114820D01*
X142535501Y-85103445D01*
X142580638Y-85099000D01*
X143219362Y-85099000D01*
X143264499Y-85103445D01*
X143264499Y-85103445D01*
G37*
G36*
X141301000Y-86201000D02*
G01*
X140299000Y-86201000D01*
X140299000Y-85299000D01*
X141301000Y-85299000D01*
X141301000Y-86201000D01*
X141301000Y-86201000D01*
G37*
G36*
X119599272Y-83913428D02*
G01*
X119785991Y-83990770D01*
X119785993Y-83990771D01*
X119954037Y-84103054D01*
X120096946Y-84245963D01*
X120203637Y-84405638D01*
X120209230Y-84414009D01*
X120286572Y-84600728D01*
X120326000Y-84798947D01*
X120326000Y-85001053D01*
X120286572Y-85199272D01*
X120218132Y-85364499D01*
X120209229Y-85385993D01*
X120096946Y-85554037D01*
X119954037Y-85696946D01*
X119785993Y-85809229D01*
X119785992Y-85809230D01*
X119785991Y-85809230D01*
X119599272Y-85886572D01*
X119401053Y-85926000D01*
X119198947Y-85926000D01*
X119000728Y-85886572D01*
X118814009Y-85809230D01*
X118814008Y-85809230D01*
X118814007Y-85809229D01*
X118645963Y-85696946D01*
X118503054Y-85554037D01*
X118390771Y-85385993D01*
X118381868Y-85364499D01*
X118313428Y-85199272D01*
X118274000Y-85001053D01*
X118274000Y-84798947D01*
X118313428Y-84600728D01*
X118390770Y-84414009D01*
X118396363Y-84405638D01*
X118503054Y-84245963D01*
X118645963Y-84103054D01*
X118814007Y-83990771D01*
X118814009Y-83990770D01*
X119000728Y-83913428D01*
X119198947Y-83874000D01*
X119401053Y-83874000D01*
X119599272Y-83913428D01*
X119599272Y-83913428D01*
G37*
G36*
X111599272Y-83913428D02*
G01*
X111785991Y-83990770D01*
X111785993Y-83990771D01*
X111954037Y-84103054D01*
X112096946Y-84245963D01*
X112203637Y-84405638D01*
X112209230Y-84414009D01*
X112286572Y-84600728D01*
X112326000Y-84798947D01*
X112326000Y-85001053D01*
X112286572Y-85199272D01*
X112218132Y-85364499D01*
X112209229Y-85385993D01*
X112096946Y-85554037D01*
X111954037Y-85696946D01*
X111785993Y-85809229D01*
X111785992Y-85809230D01*
X111785991Y-85809230D01*
X111599272Y-85886572D01*
X111401053Y-85926000D01*
X111198947Y-85926000D01*
X111000728Y-85886572D01*
X110814009Y-85809230D01*
X110814008Y-85809230D01*
X110814007Y-85809229D01*
X110645963Y-85696946D01*
X110503054Y-85554037D01*
X110390771Y-85385993D01*
X110381868Y-85364499D01*
X110313428Y-85199272D01*
X110274000Y-85001053D01*
X110274000Y-84798947D01*
X110313428Y-84600728D01*
X110390770Y-84414009D01*
X110396363Y-84405638D01*
X110503054Y-84245963D01*
X110645963Y-84103054D01*
X110814007Y-83990771D01*
X110814009Y-83990770D01*
X111000728Y-83913428D01*
X111198947Y-83874000D01*
X111401053Y-83874000D01*
X111599272Y-83913428D01*
X111599272Y-83913428D01*
G37*
G36*
X155388674Y-84053465D02*
G01*
X155426367Y-84064899D01*
X155461103Y-84083466D01*
X155491548Y-84108452D01*
X155516534Y-84138897D01*
X155535101Y-84173633D01*
X155546535Y-84211326D01*
X155551000Y-84256661D01*
X155551000Y-85343339D01*
X155546535Y-85388674D01*
X155535101Y-85426367D01*
X155516534Y-85461103D01*
X155491548Y-85491548D01*
X155461103Y-85516534D01*
X155426367Y-85535101D01*
X155388674Y-85546535D01*
X155343339Y-85551000D01*
X154506661Y-85551000D01*
X154461326Y-85546535D01*
X154423633Y-85535101D01*
X154388897Y-85516534D01*
X154358452Y-85491548D01*
X154333466Y-85461103D01*
X154314899Y-85426367D01*
X154303465Y-85388674D01*
X154299000Y-85343339D01*
X154299000Y-84256661D01*
X154303465Y-84211326D01*
X154314899Y-84173633D01*
X154333466Y-84138897D01*
X154358452Y-84108452D01*
X154388897Y-84083466D01*
X154423633Y-84064899D01*
X154461326Y-84053465D01*
X154506661Y-84049000D01*
X155343339Y-84049000D01*
X155388674Y-84053465D01*
X155388674Y-84053465D01*
G37*
G36*
X153338674Y-84053465D02*
G01*
X153376367Y-84064899D01*
X153411103Y-84083466D01*
X153441548Y-84108452D01*
X153466534Y-84138897D01*
X153485101Y-84173633D01*
X153496535Y-84211326D01*
X153501000Y-84256661D01*
X153501000Y-85343339D01*
X153496535Y-85388674D01*
X153485101Y-85426367D01*
X153466534Y-85461103D01*
X153441548Y-85491548D01*
X153411103Y-85516534D01*
X153376367Y-85535101D01*
X153338674Y-85546535D01*
X153293339Y-85551000D01*
X152456661Y-85551000D01*
X152411326Y-85546535D01*
X152373633Y-85535101D01*
X152338897Y-85516534D01*
X152308452Y-85491548D01*
X152283466Y-85461103D01*
X152264899Y-85426367D01*
X152253465Y-85388674D01*
X152249000Y-85343339D01*
X152249000Y-84256661D01*
X152253465Y-84211326D01*
X152264899Y-84173633D01*
X152283466Y-84138897D01*
X152308452Y-84108452D01*
X152338897Y-84083466D01*
X152373633Y-84064899D01*
X152411326Y-84053465D01*
X152456661Y-84049000D01*
X153293339Y-84049000D01*
X153338674Y-84053465D01*
X153338674Y-84053465D01*
G37*
G36*
X160014499Y-84478445D02*
G01*
X160051995Y-84489820D01*
X160086554Y-84508292D01*
X160116847Y-84533153D01*
X160141708Y-84563446D01*
X160160180Y-84598005D01*
X160171555Y-84635501D01*
X160176000Y-84680638D01*
X160176000Y-85319362D01*
X160171555Y-85364499D01*
X160160180Y-85401995D01*
X160141708Y-85436554D01*
X160116847Y-85466847D01*
X160086554Y-85491708D01*
X160051995Y-85510180D01*
X160014499Y-85521555D01*
X159969362Y-85526000D01*
X159230638Y-85526000D01*
X159185501Y-85521555D01*
X159148005Y-85510180D01*
X159113446Y-85491708D01*
X159083153Y-85466847D01*
X159058292Y-85436554D01*
X159039820Y-85401995D01*
X159028445Y-85364499D01*
X159024000Y-85319362D01*
X159024000Y-84680638D01*
X159028445Y-84635501D01*
X159039820Y-84598005D01*
X159058292Y-84563446D01*
X159083153Y-84533153D01*
X159113446Y-84508292D01*
X159148005Y-84489820D01*
X159185501Y-84478445D01*
X159230638Y-84474000D01*
X159969362Y-84474000D01*
X160014499Y-84478445D01*
X160014499Y-84478445D01*
G37*
G36*
X161764499Y-84478445D02*
G01*
X161801995Y-84489820D01*
X161836554Y-84508292D01*
X161866847Y-84533153D01*
X161891708Y-84563446D01*
X161910180Y-84598005D01*
X161921555Y-84635501D01*
X161926000Y-84680638D01*
X161926000Y-85319362D01*
X161921555Y-85364499D01*
X161910180Y-85401995D01*
X161891708Y-85436554D01*
X161866847Y-85466847D01*
X161836554Y-85491708D01*
X161801995Y-85510180D01*
X161764499Y-85521555D01*
X161719362Y-85526000D01*
X160980638Y-85526000D01*
X160935501Y-85521555D01*
X160898005Y-85510180D01*
X160863446Y-85491708D01*
X160833153Y-85466847D01*
X160808292Y-85436554D01*
X160789820Y-85401995D01*
X160778445Y-85364499D01*
X160774000Y-85319362D01*
X160774000Y-84680638D01*
X160778445Y-84635501D01*
X160789820Y-84598005D01*
X160808292Y-84563446D01*
X160833153Y-84533153D01*
X160863446Y-84508292D01*
X160898005Y-84489820D01*
X160935501Y-84478445D01*
X160980638Y-84474000D01*
X161719362Y-84474000D01*
X161764499Y-84478445D01*
X161764499Y-84478445D01*
G37*
G36*
X130901000Y-85401000D02*
G01*
X129899000Y-85401000D01*
X129899000Y-84499000D01*
X130901000Y-84499000D01*
X130901000Y-85401000D01*
X130901000Y-85401000D01*
G37*
G36*
X133764499Y-84203445D02*
G01*
X133801995Y-84214820D01*
X133836554Y-84233292D01*
X133866847Y-84258153D01*
X133891708Y-84288446D01*
X133910180Y-84323005D01*
X133921555Y-84360501D01*
X133926000Y-84405638D01*
X133926000Y-85144362D01*
X133921555Y-85189499D01*
X133910180Y-85226995D01*
X133891708Y-85261554D01*
X133866847Y-85291847D01*
X133836554Y-85316708D01*
X133801995Y-85335180D01*
X133764499Y-85346555D01*
X133719362Y-85351000D01*
X133080638Y-85351000D01*
X133035501Y-85346555D01*
X132998005Y-85335180D01*
X132963446Y-85316708D01*
X132933153Y-85291847D01*
X132908292Y-85261554D01*
X132889820Y-85226995D01*
X132878445Y-85189499D01*
X132874000Y-85144362D01*
X132874000Y-84405638D01*
X132878445Y-84360501D01*
X132889820Y-84323005D01*
X132908292Y-84288446D01*
X132933153Y-84258153D01*
X132963446Y-84233292D01*
X132998005Y-84214820D01*
X133035501Y-84203445D01*
X133080638Y-84199000D01*
X133719362Y-84199000D01*
X133764499Y-84203445D01*
X133764499Y-84203445D01*
G37*
G36*
X128901000Y-84451000D02*
G01*
X127899000Y-84451000D01*
X127899000Y-83549000D01*
X128901000Y-83549000D01*
X128901000Y-84451000D01*
X128901000Y-84451000D01*
G37*
G36*
X117099272Y-82413428D02*
G01*
X117285991Y-82490770D01*
X117285993Y-82490771D01*
X117454037Y-82603054D01*
X117596946Y-82745963D01*
X117709229Y-82914007D01*
X117709230Y-82914009D01*
X117786572Y-83100728D01*
X117826000Y-83298947D01*
X117826000Y-83501053D01*
X117786572Y-83699272D01*
X117714197Y-83874000D01*
X117709229Y-83885993D01*
X117596946Y-84054037D01*
X117454037Y-84196946D01*
X117285993Y-84309229D01*
X117285992Y-84309230D01*
X117285991Y-84309230D01*
X117099272Y-84386572D01*
X116901053Y-84426000D01*
X116698947Y-84426000D01*
X116500728Y-84386572D01*
X116314009Y-84309230D01*
X116314008Y-84309230D01*
X116314007Y-84309229D01*
X116145963Y-84196946D01*
X116003054Y-84054037D01*
X115890771Y-83885993D01*
X115885803Y-83874000D01*
X115813428Y-83699272D01*
X115774000Y-83501053D01*
X115774000Y-83298947D01*
X115813428Y-83100728D01*
X115890770Y-82914009D01*
X115890771Y-82914007D01*
X116003054Y-82745963D01*
X116145963Y-82603054D01*
X116314007Y-82490771D01*
X116314009Y-82490770D01*
X116500728Y-82413428D01*
X116698947Y-82374000D01*
X116901053Y-82374000D01*
X117099272Y-82413428D01*
X117099272Y-82413428D01*
G37*
G36*
X114099272Y-82413428D02*
G01*
X114285991Y-82490770D01*
X114285993Y-82490771D01*
X114454037Y-82603054D01*
X114596946Y-82745963D01*
X114709229Y-82914007D01*
X114709230Y-82914009D01*
X114786572Y-83100728D01*
X114826000Y-83298947D01*
X114826000Y-83501053D01*
X114786572Y-83699272D01*
X114714197Y-83874000D01*
X114709229Y-83885993D01*
X114596946Y-84054037D01*
X114454037Y-84196946D01*
X114285993Y-84309229D01*
X114285992Y-84309230D01*
X114285991Y-84309230D01*
X114099272Y-84386572D01*
X113901053Y-84426000D01*
X113698947Y-84426000D01*
X113500728Y-84386572D01*
X113314009Y-84309230D01*
X113314008Y-84309230D01*
X113314007Y-84309229D01*
X113145963Y-84196946D01*
X113003054Y-84054037D01*
X112890771Y-83885993D01*
X112885803Y-83874000D01*
X112813428Y-83699272D01*
X112774000Y-83501053D01*
X112774000Y-83298947D01*
X112813428Y-83100728D01*
X112890770Y-82914009D01*
X112890771Y-82914007D01*
X113003054Y-82745963D01*
X113145963Y-82603054D01*
X113314007Y-82490771D01*
X113314009Y-82490770D01*
X113500728Y-82413428D01*
X113698947Y-82374000D01*
X113901053Y-82374000D01*
X114099272Y-82413428D01*
X114099272Y-82413428D01*
G37*
G36*
X133764499Y-82453445D02*
G01*
X133801995Y-82464820D01*
X133836554Y-82483292D01*
X133866847Y-82508153D01*
X133891708Y-82538446D01*
X133910180Y-82573005D01*
X133921555Y-82610501D01*
X133926000Y-82655638D01*
X133926000Y-83394362D01*
X133921555Y-83439499D01*
X133910180Y-83476995D01*
X133891708Y-83511554D01*
X133866847Y-83541847D01*
X133836554Y-83566708D01*
X133801995Y-83585180D01*
X133764499Y-83596555D01*
X133719362Y-83601000D01*
X133080638Y-83601000D01*
X133035501Y-83596555D01*
X132998005Y-83585180D01*
X132963446Y-83566708D01*
X132933153Y-83541847D01*
X132908292Y-83511554D01*
X132889820Y-83476995D01*
X132878445Y-83439499D01*
X132874000Y-83394362D01*
X132874000Y-82655638D01*
X132878445Y-82610501D01*
X132889820Y-82573005D01*
X132908292Y-82538446D01*
X132933153Y-82508153D01*
X132963446Y-82483292D01*
X132998005Y-82464820D01*
X133035501Y-82453445D01*
X133080638Y-82449000D01*
X133719362Y-82449000D01*
X133764499Y-82453445D01*
X133764499Y-82453445D01*
G37*
G36*
X130901000Y-83501000D02*
G01*
X129899000Y-83501000D01*
X129899000Y-82599000D01*
X130901000Y-82599000D01*
X130901000Y-83501000D01*
X130901000Y-83501000D01*
G37*
G36*
X119599272Y-80913428D02*
G01*
X119750333Y-80976000D01*
X119785993Y-80990771D01*
X119954037Y-81103054D01*
X120096946Y-81245963D01*
X120209229Y-81414007D01*
X120209230Y-81414009D01*
X120286572Y-81600728D01*
X120326000Y-81798947D01*
X120326000Y-82001053D01*
X120286572Y-82199272D01*
X120254790Y-82275999D01*
X120209229Y-82385993D01*
X120096946Y-82554037D01*
X119954037Y-82696946D01*
X119785993Y-82809229D01*
X119785992Y-82809230D01*
X119785991Y-82809230D01*
X119599272Y-82886572D01*
X119401053Y-82926000D01*
X119198947Y-82926000D01*
X119000728Y-82886572D01*
X118814009Y-82809230D01*
X118814008Y-82809230D01*
X118814007Y-82809229D01*
X118645963Y-82696946D01*
X118503054Y-82554037D01*
X118390771Y-82385993D01*
X118345210Y-82275999D01*
X118313428Y-82199272D01*
X118274000Y-82001053D01*
X118274000Y-81798947D01*
X118313428Y-81600728D01*
X118390770Y-81414009D01*
X118390771Y-81414007D01*
X118503054Y-81245963D01*
X118645963Y-81103054D01*
X118814007Y-80990771D01*
X118849667Y-80976000D01*
X119000728Y-80913428D01*
X119198947Y-80874000D01*
X119401053Y-80874000D01*
X119599272Y-80913428D01*
X119599272Y-80913428D01*
G37*
G36*
X111599272Y-80913428D02*
G01*
X111750333Y-80976000D01*
X111785993Y-80990771D01*
X111954037Y-81103054D01*
X112096946Y-81245963D01*
X112209229Y-81414007D01*
X112209230Y-81414009D01*
X112286572Y-81600728D01*
X112326000Y-81798947D01*
X112326000Y-82001053D01*
X112286572Y-82199272D01*
X112254790Y-82275999D01*
X112209229Y-82385993D01*
X112096946Y-82554037D01*
X111954037Y-82696946D01*
X111785993Y-82809229D01*
X111785992Y-82809230D01*
X111785991Y-82809230D01*
X111599272Y-82886572D01*
X111401053Y-82926000D01*
X111198947Y-82926000D01*
X111000728Y-82886572D01*
X110814009Y-82809230D01*
X110814008Y-82809230D01*
X110814007Y-82809229D01*
X110645963Y-82696946D01*
X110503054Y-82554037D01*
X110390771Y-82385993D01*
X110345210Y-82275999D01*
X110313428Y-82199272D01*
X110274000Y-82001053D01*
X110274000Y-81798947D01*
X110313428Y-81600728D01*
X110390770Y-81414009D01*
X110390771Y-81414007D01*
X110503054Y-81245963D01*
X110645963Y-81103054D01*
X110814007Y-80990771D01*
X110849667Y-80976000D01*
X111000728Y-80913428D01*
X111198947Y-80874000D01*
X111401053Y-80874000D01*
X111599272Y-80913428D01*
X111599272Y-80913428D01*
G37*
G36*
X143838674Y-81203465D02*
G01*
X143876367Y-81214899D01*
X143911103Y-81233466D01*
X143941548Y-81258452D01*
X143966534Y-81288897D01*
X143985101Y-81323633D01*
X143996535Y-81361326D01*
X144001000Y-81406661D01*
X144001000Y-82493339D01*
X143996535Y-82538674D01*
X143985101Y-82576367D01*
X143966534Y-82611103D01*
X143941548Y-82641548D01*
X143911103Y-82666534D01*
X143876367Y-82685101D01*
X143838674Y-82696535D01*
X143793339Y-82701000D01*
X142956661Y-82701000D01*
X142911326Y-82696535D01*
X142873633Y-82685101D01*
X142838897Y-82666534D01*
X142808452Y-82641548D01*
X142783466Y-82611103D01*
X142764899Y-82576367D01*
X142753465Y-82538674D01*
X142749000Y-82493339D01*
X142749000Y-81406661D01*
X142753465Y-81361326D01*
X142764899Y-81323633D01*
X142783466Y-81288897D01*
X142808452Y-81258452D01*
X142838897Y-81233466D01*
X142873633Y-81214899D01*
X142911326Y-81203465D01*
X142956661Y-81199000D01*
X143793339Y-81199000D01*
X143838674Y-81203465D01*
X143838674Y-81203465D01*
G37*
G36*
X141788674Y-81203465D02*
G01*
X141826367Y-81214899D01*
X141861103Y-81233466D01*
X141891548Y-81258452D01*
X141916534Y-81288897D01*
X141935101Y-81323633D01*
X141946535Y-81361326D01*
X141951000Y-81406661D01*
X141951000Y-82493339D01*
X141946535Y-82538674D01*
X141935101Y-82576367D01*
X141916534Y-82611103D01*
X141891548Y-82641548D01*
X141861103Y-82666534D01*
X141826367Y-82685101D01*
X141788674Y-82696535D01*
X141743339Y-82701000D01*
X140906661Y-82701000D01*
X140861326Y-82696535D01*
X140823633Y-82685101D01*
X140788897Y-82666534D01*
X140758452Y-82641548D01*
X140733466Y-82611103D01*
X140714899Y-82576367D01*
X140703465Y-82538674D01*
X140699000Y-82493339D01*
X140699000Y-81406661D01*
X140703465Y-81361326D01*
X140714899Y-81323633D01*
X140733466Y-81288897D01*
X140758452Y-81258452D01*
X140788897Y-81233466D01*
X140823633Y-81214899D01*
X140861326Y-81203465D01*
X140906661Y-81199000D01*
X141743339Y-81199000D01*
X141788674Y-81203465D01*
X141788674Y-81203465D01*
G37*
G36*
X164716001Y-82275999D02*
G01*
X152334001Y-82275999D01*
X152334001Y-80673999D01*
X164716001Y-80673999D01*
X164716001Y-82275999D01*
X164716001Y-82275999D01*
G37*
G36*
X117099272Y-79413428D02*
G01*
X117285991Y-79490770D01*
X117285993Y-79490771D01*
X117454037Y-79603054D01*
X117596946Y-79745963D01*
X117692451Y-79888897D01*
X117709230Y-79914009D01*
X117786572Y-80100728D01*
X117826000Y-80298947D01*
X117826000Y-80501053D01*
X117786572Y-80699272D01*
X117720362Y-80859115D01*
X117709229Y-80885993D01*
X117596946Y-81054037D01*
X117454037Y-81196946D01*
X117285993Y-81309229D01*
X117285992Y-81309230D01*
X117285991Y-81309230D01*
X117099272Y-81386572D01*
X116901053Y-81426000D01*
X116698947Y-81426000D01*
X116500728Y-81386572D01*
X116314009Y-81309230D01*
X116314008Y-81309230D01*
X116314007Y-81309229D01*
X116145963Y-81196946D01*
X116003054Y-81054037D01*
X115890771Y-80885993D01*
X115879638Y-80859115D01*
X115813428Y-80699272D01*
X115774000Y-80501053D01*
X115774000Y-80298947D01*
X115813428Y-80100728D01*
X115890770Y-79914009D01*
X115907549Y-79888897D01*
X116003054Y-79745963D01*
X116145963Y-79603054D01*
X116314007Y-79490771D01*
X116314009Y-79490770D01*
X116500728Y-79413428D01*
X116698947Y-79374000D01*
X116901053Y-79374000D01*
X117099272Y-79413428D01*
X117099272Y-79413428D01*
G37*
G36*
X114099272Y-79413428D02*
G01*
X114285991Y-79490770D01*
X114285993Y-79490771D01*
X114454037Y-79603054D01*
X114596946Y-79745963D01*
X114692451Y-79888897D01*
X114709230Y-79914009D01*
X114786572Y-80100728D01*
X114826000Y-80298947D01*
X114826000Y-80501053D01*
X114786572Y-80699272D01*
X114720362Y-80859115D01*
X114709229Y-80885993D01*
X114596946Y-81054037D01*
X114454037Y-81196946D01*
X114285993Y-81309229D01*
X114285992Y-81309230D01*
X114285991Y-81309230D01*
X114099272Y-81386572D01*
X113901053Y-81426000D01*
X113698947Y-81426000D01*
X113500728Y-81386572D01*
X113314009Y-81309230D01*
X113314008Y-81309230D01*
X113314007Y-81309229D01*
X113145963Y-81196946D01*
X113003054Y-81054037D01*
X112890771Y-80885993D01*
X112879638Y-80859115D01*
X112813428Y-80699272D01*
X112774000Y-80501053D01*
X112774000Y-80298947D01*
X112813428Y-80100728D01*
X112890770Y-79914009D01*
X112907549Y-79888897D01*
X113003054Y-79745963D01*
X113145963Y-79603054D01*
X113314007Y-79490771D01*
X113314009Y-79490770D01*
X113500728Y-79413428D01*
X113698947Y-79374000D01*
X113901053Y-79374000D01*
X114099272Y-79413428D01*
X114099272Y-79413428D01*
G37*
G36*
X147388674Y-79803465D02*
G01*
X147426367Y-79814899D01*
X147461103Y-79833466D01*
X147491548Y-79858452D01*
X147516534Y-79888897D01*
X147535101Y-79923633D01*
X147546535Y-79961326D01*
X147551000Y-80006661D01*
X147551000Y-80843339D01*
X147546535Y-80888674D01*
X147535102Y-80926364D01*
X147516534Y-80961103D01*
X147491548Y-80991548D01*
X147461103Y-81016534D01*
X147426367Y-81035101D01*
X147388674Y-81046535D01*
X147343339Y-81051000D01*
X146256661Y-81051000D01*
X146211326Y-81046535D01*
X146173633Y-81035101D01*
X146138897Y-81016534D01*
X146108452Y-80991548D01*
X146083466Y-80961103D01*
X146064898Y-80926364D01*
X146053465Y-80888674D01*
X146049000Y-80843339D01*
X146049000Y-80006661D01*
X146053465Y-79961326D01*
X146064899Y-79923633D01*
X146083466Y-79888897D01*
X146108452Y-79858452D01*
X146138897Y-79833466D01*
X146173633Y-79814899D01*
X146211326Y-79803465D01*
X146256661Y-79799000D01*
X147343339Y-79799000D01*
X147388674Y-79803465D01*
X147388674Y-79803465D01*
G37*
G36*
X136564499Y-79928445D02*
G01*
X136601995Y-79939820D01*
X136636554Y-79958292D01*
X136666847Y-79983153D01*
X136691708Y-80013446D01*
X136710180Y-80048005D01*
X136721555Y-80085501D01*
X136726000Y-80130638D01*
X136726000Y-80769362D01*
X136721555Y-80814499D01*
X136710180Y-80851995D01*
X136691708Y-80886554D01*
X136666847Y-80916847D01*
X136636554Y-80941708D01*
X136601995Y-80960180D01*
X136564499Y-80971555D01*
X136519362Y-80976000D01*
X135780638Y-80976000D01*
X135735501Y-80971555D01*
X135698005Y-80960180D01*
X135663446Y-80941708D01*
X135633153Y-80916847D01*
X135608292Y-80886554D01*
X135589820Y-80851995D01*
X135578445Y-80814499D01*
X135574000Y-80769362D01*
X135574000Y-80130638D01*
X135578445Y-80085501D01*
X135589820Y-80048005D01*
X135608292Y-80013446D01*
X135633153Y-79983153D01*
X135663446Y-79958292D01*
X135698005Y-79939820D01*
X135735501Y-79928445D01*
X135780638Y-79924000D01*
X136519362Y-79924000D01*
X136564499Y-79928445D01*
X136564499Y-79928445D01*
G37*
G36*
X138314499Y-79928445D02*
G01*
X138351995Y-79939820D01*
X138386554Y-79958292D01*
X138416847Y-79983153D01*
X138441708Y-80013446D01*
X138460180Y-80048005D01*
X138471555Y-80085501D01*
X138476000Y-80130638D01*
X138476000Y-80769362D01*
X138471555Y-80814499D01*
X138460180Y-80851995D01*
X138441708Y-80886554D01*
X138416847Y-80916847D01*
X138386554Y-80941708D01*
X138351995Y-80960180D01*
X138314499Y-80971555D01*
X138269362Y-80976000D01*
X137530638Y-80976000D01*
X137485501Y-80971555D01*
X137448005Y-80960180D01*
X137413446Y-80941708D01*
X137383153Y-80916847D01*
X137358292Y-80886554D01*
X137339820Y-80851995D01*
X137328445Y-80814499D01*
X137324000Y-80769362D01*
X137324000Y-80130638D01*
X137328445Y-80085501D01*
X137339820Y-80048005D01*
X137358292Y-80013446D01*
X137383153Y-79983153D01*
X137413446Y-79958292D01*
X137448005Y-79939820D01*
X137485501Y-79928445D01*
X137530638Y-79924000D01*
X138269362Y-79924000D01*
X138314499Y-79928445D01*
X138314499Y-79928445D01*
G37*
G36*
X119599272Y-77913428D02*
G01*
X119785991Y-77990770D01*
X119785993Y-77990771D01*
X119954037Y-78103054D01*
X120096946Y-78245963D01*
X120209229Y-78414007D01*
X120209230Y-78414009D01*
X120286572Y-78600728D01*
X120326000Y-78798947D01*
X120326000Y-79001053D01*
X120286572Y-79199272D01*
X120230309Y-79335101D01*
X120209229Y-79385993D01*
X120096946Y-79554037D01*
X119954037Y-79696946D01*
X119785993Y-79809229D01*
X119785992Y-79809230D01*
X119785991Y-79809230D01*
X119599272Y-79886572D01*
X119401053Y-79926000D01*
X119198947Y-79926000D01*
X119000728Y-79886572D01*
X118814009Y-79809230D01*
X118814008Y-79809230D01*
X118814007Y-79809229D01*
X118645963Y-79696946D01*
X118503054Y-79554037D01*
X118390771Y-79385993D01*
X118369691Y-79335101D01*
X118313428Y-79199272D01*
X118274000Y-79001053D01*
X118274000Y-78798947D01*
X118313428Y-78600728D01*
X118390770Y-78414009D01*
X118390771Y-78414007D01*
X118503054Y-78245963D01*
X118645963Y-78103054D01*
X118814007Y-77990771D01*
X118814009Y-77990770D01*
X119000728Y-77913428D01*
X119198947Y-77874000D01*
X119401053Y-77874000D01*
X119599272Y-77913428D01*
X119599272Y-77913428D01*
G37*
G36*
X111599272Y-77913428D02*
G01*
X111785991Y-77990770D01*
X111785993Y-77990771D01*
X111954037Y-78103054D01*
X112096946Y-78245963D01*
X112209229Y-78414007D01*
X112209230Y-78414009D01*
X112286572Y-78600728D01*
X112326000Y-78798947D01*
X112326000Y-79001053D01*
X112286572Y-79199272D01*
X112230309Y-79335101D01*
X112209229Y-79385993D01*
X112096946Y-79554037D01*
X111954037Y-79696946D01*
X111785993Y-79809229D01*
X111785992Y-79809230D01*
X111785991Y-79809230D01*
X111599272Y-79886572D01*
X111401053Y-79926000D01*
X111198947Y-79926000D01*
X111000728Y-79886572D01*
X110814009Y-79809230D01*
X110814008Y-79809230D01*
X110814007Y-79809229D01*
X110645963Y-79696946D01*
X110503054Y-79554037D01*
X110390771Y-79385993D01*
X110369691Y-79335101D01*
X110313428Y-79199272D01*
X110274000Y-79001053D01*
X110274000Y-78798947D01*
X110313428Y-78600728D01*
X110390770Y-78414009D01*
X110390771Y-78414007D01*
X110503054Y-78245963D01*
X110645963Y-78103054D01*
X110814007Y-77990771D01*
X110814009Y-77990770D01*
X111000728Y-77913428D01*
X111198947Y-77874000D01*
X111401053Y-77874000D01*
X111599272Y-77913428D01*
X111599272Y-77913428D01*
G37*
G36*
X167226001Y-79765999D02*
G01*
X165624001Y-79765999D01*
X165624001Y-67383999D01*
X167226001Y-67383999D01*
X167226001Y-79765999D01*
X167226001Y-79765999D01*
G37*
G36*
X151426001Y-79765999D02*
G01*
X149824001Y-79765999D01*
X149824001Y-67383999D01*
X151426001Y-67383999D01*
X151426001Y-79765999D01*
X151426001Y-79765999D01*
G37*
G36*
X144231000Y-79576000D02*
G01*
X142569000Y-79576000D01*
X142569000Y-78824000D01*
X144231000Y-78824000D01*
X144231000Y-79576000D01*
X144231000Y-79576000D01*
G37*
G36*
X141531000Y-79576000D02*
G01*
X139869000Y-79576000D01*
X139869000Y-76924000D01*
X141531000Y-76924000D01*
X141531000Y-79576000D01*
X141531000Y-79576000D01*
G37*
G36*
X171888674Y-77853465D02*
G01*
X171926367Y-77864899D01*
X171961103Y-77883466D01*
X171991548Y-77908452D01*
X172016534Y-77938897D01*
X172035101Y-77973633D01*
X172046535Y-78011326D01*
X172051000Y-78056661D01*
X172051000Y-79143339D01*
X172046535Y-79188674D01*
X172035101Y-79226367D01*
X172016534Y-79261103D01*
X171991548Y-79291548D01*
X171961103Y-79316534D01*
X171926367Y-79335101D01*
X171888674Y-79346535D01*
X171843339Y-79351000D01*
X171006661Y-79351000D01*
X170961326Y-79346535D01*
X170923633Y-79335101D01*
X170888897Y-79316534D01*
X170858452Y-79291548D01*
X170833466Y-79261103D01*
X170814899Y-79226367D01*
X170803465Y-79188674D01*
X170799000Y-79143339D01*
X170799000Y-78056661D01*
X170803465Y-78011326D01*
X170814899Y-77973633D01*
X170833466Y-77938897D01*
X170858452Y-77908452D01*
X170888897Y-77883466D01*
X170923633Y-77864899D01*
X170961326Y-77853465D01*
X171006661Y-77849000D01*
X171843339Y-77849000D01*
X171888674Y-77853465D01*
X171888674Y-77853465D01*
G37*
G36*
X169838674Y-77853465D02*
G01*
X169876367Y-77864899D01*
X169911103Y-77883466D01*
X169941548Y-77908452D01*
X169966534Y-77938897D01*
X169985101Y-77973633D01*
X169996535Y-78011326D01*
X170001000Y-78056661D01*
X170001000Y-79143339D01*
X169996535Y-79188674D01*
X169985101Y-79226367D01*
X169966534Y-79261103D01*
X169941548Y-79291548D01*
X169911103Y-79316534D01*
X169876367Y-79335101D01*
X169838674Y-79346535D01*
X169793339Y-79351000D01*
X168956661Y-79351000D01*
X168911326Y-79346535D01*
X168873633Y-79335101D01*
X168838897Y-79316534D01*
X168808452Y-79291548D01*
X168783466Y-79261103D01*
X168764899Y-79226367D01*
X168753465Y-79188674D01*
X168749000Y-79143339D01*
X168749000Y-78056661D01*
X168753465Y-78011326D01*
X168764899Y-77973633D01*
X168783466Y-77938897D01*
X168808452Y-77908452D01*
X168838897Y-77883466D01*
X168873633Y-77864899D01*
X168911326Y-77853465D01*
X168956661Y-77849000D01*
X169793339Y-77849000D01*
X169838674Y-77853465D01*
X169838674Y-77853465D01*
G37*
G36*
X147388674Y-77753465D02*
G01*
X147426367Y-77764899D01*
X147461103Y-77783466D01*
X147491548Y-77808452D01*
X147516534Y-77838897D01*
X147535101Y-77873633D01*
X147546535Y-77911326D01*
X147551000Y-77956661D01*
X147551000Y-78793339D01*
X147546535Y-78838674D01*
X147535101Y-78876367D01*
X147516534Y-78911103D01*
X147491548Y-78941548D01*
X147461103Y-78966534D01*
X147426367Y-78985101D01*
X147388674Y-78996535D01*
X147343339Y-79001000D01*
X146256661Y-79001000D01*
X146211326Y-78996535D01*
X146173633Y-78985101D01*
X146138897Y-78966534D01*
X146108452Y-78941548D01*
X146083466Y-78911103D01*
X146064899Y-78876367D01*
X146053465Y-78838674D01*
X146049000Y-78793339D01*
X146049000Y-77956661D01*
X146053465Y-77911326D01*
X146064899Y-77873633D01*
X146083466Y-77838897D01*
X146108452Y-77808452D01*
X146138897Y-77783466D01*
X146173633Y-77764899D01*
X146211326Y-77753465D01*
X146256661Y-77749000D01*
X147343339Y-77749000D01*
X147388674Y-77753465D01*
X147388674Y-77753465D01*
G37*
G36*
X114099272Y-76413428D02*
G01*
X114285991Y-76490770D01*
X114285993Y-76490771D01*
X114454037Y-76603054D01*
X114596946Y-76745963D01*
X114709229Y-76914007D01*
X114709230Y-76914009D01*
X114786572Y-77100728D01*
X114826000Y-77298947D01*
X114826000Y-77501053D01*
X114786572Y-77699272D01*
X114715869Y-77869962D01*
X114709229Y-77885993D01*
X114596946Y-78054037D01*
X114454037Y-78196946D01*
X114285993Y-78309229D01*
X114285992Y-78309230D01*
X114285991Y-78309230D01*
X114099272Y-78386572D01*
X113901053Y-78426000D01*
X113698947Y-78426000D01*
X113500728Y-78386572D01*
X113314009Y-78309230D01*
X113314008Y-78309230D01*
X113314007Y-78309229D01*
X113145963Y-78196946D01*
X113003054Y-78054037D01*
X112890771Y-77885993D01*
X112884131Y-77869962D01*
X112813428Y-77699272D01*
X112774000Y-77501053D01*
X112774000Y-77298947D01*
X112813428Y-77100728D01*
X112890770Y-76914009D01*
X112890771Y-76914007D01*
X113003054Y-76745963D01*
X113145963Y-76603054D01*
X113314007Y-76490771D01*
X113314009Y-76490770D01*
X113500728Y-76413428D01*
X113698947Y-76374000D01*
X113901053Y-76374000D01*
X114099272Y-76413428D01*
X114099272Y-76413428D01*
G37*
G36*
X117099272Y-76413428D02*
G01*
X117285991Y-76490770D01*
X117285993Y-76490771D01*
X117454037Y-76603054D01*
X117596946Y-76745963D01*
X117709229Y-76914007D01*
X117709230Y-76914009D01*
X117786572Y-77100728D01*
X117826000Y-77298947D01*
X117826000Y-77501053D01*
X117786572Y-77699272D01*
X117715869Y-77869962D01*
X117709229Y-77885993D01*
X117596946Y-78054037D01*
X117454037Y-78196946D01*
X117285993Y-78309229D01*
X117285992Y-78309230D01*
X117285991Y-78309230D01*
X117099272Y-78386572D01*
X116901053Y-78426000D01*
X116698947Y-78426000D01*
X116500728Y-78386572D01*
X116314009Y-78309230D01*
X116314008Y-78309230D01*
X116314007Y-78309229D01*
X116145963Y-78196946D01*
X116003054Y-78054037D01*
X115890771Y-77885993D01*
X115884131Y-77869962D01*
X115813428Y-77699272D01*
X115774000Y-77501053D01*
X115774000Y-77298947D01*
X115813428Y-77100728D01*
X115890770Y-76914009D01*
X115890771Y-76914007D01*
X116003054Y-76745963D01*
X116145963Y-76603054D01*
X116314007Y-76490771D01*
X116314009Y-76490770D01*
X116500728Y-76413428D01*
X116698947Y-76374000D01*
X116901053Y-76374000D01*
X117099272Y-76413428D01*
X117099272Y-76413428D01*
G37*
G36*
X136614499Y-76778445D02*
G01*
X136651995Y-76789820D01*
X136686554Y-76808292D01*
X136716847Y-76833153D01*
X136741708Y-76863446D01*
X136760180Y-76898005D01*
X136771555Y-76935501D01*
X136776000Y-76980638D01*
X136776000Y-77619362D01*
X136771555Y-77664499D01*
X136760180Y-77701995D01*
X136741708Y-77736554D01*
X136716847Y-77766847D01*
X136686554Y-77791708D01*
X136651995Y-77810180D01*
X136614499Y-77821555D01*
X136569362Y-77826000D01*
X135830638Y-77826000D01*
X135785501Y-77821555D01*
X135748005Y-77810180D01*
X135713446Y-77791708D01*
X135683153Y-77766847D01*
X135658292Y-77736554D01*
X135639820Y-77701995D01*
X135628445Y-77664499D01*
X135624000Y-77619362D01*
X135624000Y-76980638D01*
X135628445Y-76935501D01*
X135639820Y-76898005D01*
X135658292Y-76863446D01*
X135683153Y-76833153D01*
X135713446Y-76808292D01*
X135748005Y-76789820D01*
X135785501Y-76778445D01*
X135830638Y-76774000D01*
X136569362Y-76774000D01*
X136614499Y-76778445D01*
X136614499Y-76778445D01*
G37*
G36*
X138364499Y-76778445D02*
G01*
X138401995Y-76789820D01*
X138436554Y-76808292D01*
X138466847Y-76833153D01*
X138491708Y-76863446D01*
X138510180Y-76898005D01*
X138521555Y-76935501D01*
X138526000Y-76980638D01*
X138526000Y-77619362D01*
X138521555Y-77664499D01*
X138510180Y-77701995D01*
X138491708Y-77736554D01*
X138466847Y-77766847D01*
X138436554Y-77791708D01*
X138401995Y-77810180D01*
X138364499Y-77821555D01*
X138319362Y-77826000D01*
X137580638Y-77826000D01*
X137535501Y-77821555D01*
X137498005Y-77810180D01*
X137463446Y-77791708D01*
X137433153Y-77766847D01*
X137408292Y-77736554D01*
X137389820Y-77701995D01*
X137378445Y-77664499D01*
X137374000Y-77619362D01*
X137374000Y-76980638D01*
X137378445Y-76935501D01*
X137389820Y-76898005D01*
X137408292Y-76863446D01*
X137433153Y-76833153D01*
X137463446Y-76808292D01*
X137498005Y-76789820D01*
X137535501Y-76778445D01*
X137580638Y-76774000D01*
X138319362Y-76774000D01*
X138364499Y-76778445D01*
X138364499Y-76778445D01*
G37*
G36*
X144231000Y-77676000D02*
G01*
X142569000Y-77676000D01*
X142569000Y-76924000D01*
X144231000Y-76924000D01*
X144231000Y-77676000D01*
X144231000Y-77676000D01*
G37*
G36*
X119599272Y-74913428D02*
G01*
X119785991Y-74990770D01*
X119785993Y-74990771D01*
X119954037Y-75103054D01*
X120096946Y-75245963D01*
X120209229Y-75414007D01*
X120209230Y-75414009D01*
X120286572Y-75600728D01*
X120326000Y-75798947D01*
X120326000Y-76001053D01*
X120286572Y-76199272D01*
X120214197Y-76374000D01*
X120209229Y-76385993D01*
X120096946Y-76554037D01*
X119954037Y-76696946D01*
X119785993Y-76809229D01*
X119785992Y-76809230D01*
X119785991Y-76809230D01*
X119599272Y-76886572D01*
X119401053Y-76926000D01*
X119198947Y-76926000D01*
X119000728Y-76886572D01*
X118814009Y-76809230D01*
X118814008Y-76809230D01*
X118814007Y-76809229D01*
X118645963Y-76696946D01*
X118503054Y-76554037D01*
X118390771Y-76385993D01*
X118385803Y-76374000D01*
X118313428Y-76199272D01*
X118274000Y-76001053D01*
X118274000Y-75798947D01*
X118313428Y-75600728D01*
X118390770Y-75414009D01*
X118390771Y-75414007D01*
X118503054Y-75245963D01*
X118645963Y-75103054D01*
X118814007Y-74990771D01*
X118814009Y-74990770D01*
X119000728Y-74913428D01*
X119198947Y-74874000D01*
X119401053Y-74874000D01*
X119599272Y-74913428D01*
X119599272Y-74913428D01*
G37*
G36*
X111599272Y-74913428D02*
G01*
X111785991Y-74990770D01*
X111785993Y-74990771D01*
X111954037Y-75103054D01*
X112096946Y-75245963D01*
X112209229Y-75414007D01*
X112209230Y-75414009D01*
X112286572Y-75600728D01*
X112326000Y-75798947D01*
X112326000Y-76001053D01*
X112286572Y-76199272D01*
X112214197Y-76374000D01*
X112209229Y-76385993D01*
X112096946Y-76554037D01*
X111954037Y-76696946D01*
X111785993Y-76809229D01*
X111785992Y-76809230D01*
X111785991Y-76809230D01*
X111599272Y-76886572D01*
X111401053Y-76926000D01*
X111198947Y-76926000D01*
X111000728Y-76886572D01*
X110814009Y-76809230D01*
X110814008Y-76809230D01*
X110814007Y-76809229D01*
X110645963Y-76696946D01*
X110503054Y-76554037D01*
X110390771Y-76385993D01*
X110385803Y-76374000D01*
X110313428Y-76199272D01*
X110274000Y-76001053D01*
X110274000Y-75798947D01*
X110313428Y-75600728D01*
X110390770Y-75414009D01*
X110390771Y-75414007D01*
X110503054Y-75245963D01*
X110645963Y-75103054D01*
X110814007Y-74990771D01*
X110814009Y-74990770D01*
X111000728Y-74913428D01*
X111198947Y-74874000D01*
X111401053Y-74874000D01*
X111599272Y-74913428D01*
X111599272Y-74913428D01*
G37*
G36*
X114099272Y-73413428D02*
G01*
X114285991Y-73490770D01*
X114285993Y-73490771D01*
X114454037Y-73603054D01*
X114596946Y-73745963D01*
X114709229Y-73914007D01*
X114709230Y-73914009D01*
X114786572Y-74100728D01*
X114826000Y-74298947D01*
X114826000Y-74501053D01*
X114786572Y-74699272D01*
X114730309Y-74835101D01*
X114709229Y-74885993D01*
X114596946Y-75054037D01*
X114454037Y-75196946D01*
X114285993Y-75309229D01*
X114285992Y-75309230D01*
X114285991Y-75309230D01*
X114099272Y-75386572D01*
X113901053Y-75426000D01*
X113698947Y-75426000D01*
X113500728Y-75386572D01*
X113314009Y-75309230D01*
X113314008Y-75309230D01*
X113314007Y-75309229D01*
X113145963Y-75196946D01*
X113003054Y-75054037D01*
X112890771Y-74885993D01*
X112869691Y-74835101D01*
X112813428Y-74699272D01*
X112774000Y-74501053D01*
X112774000Y-74298947D01*
X112813428Y-74100728D01*
X112890770Y-73914009D01*
X112890771Y-73914007D01*
X113003054Y-73745963D01*
X113145963Y-73603054D01*
X113314007Y-73490771D01*
X113314009Y-73490770D01*
X113500728Y-73413428D01*
X113698947Y-73374000D01*
X113901053Y-73374000D01*
X114099272Y-73413428D01*
X114099272Y-73413428D01*
G37*
G36*
X117099272Y-73413428D02*
G01*
X117285991Y-73490770D01*
X117285993Y-73490771D01*
X117454037Y-73603054D01*
X117596946Y-73745963D01*
X117709229Y-73914007D01*
X117709230Y-73914009D01*
X117786572Y-74100728D01*
X117826000Y-74298947D01*
X117826000Y-74501053D01*
X117786572Y-74699272D01*
X117730309Y-74835101D01*
X117709229Y-74885993D01*
X117596946Y-75054037D01*
X117454037Y-75196946D01*
X117285993Y-75309229D01*
X117285992Y-75309230D01*
X117285991Y-75309230D01*
X117099272Y-75386572D01*
X116901053Y-75426000D01*
X116698947Y-75426000D01*
X116500728Y-75386572D01*
X116314009Y-75309230D01*
X116314008Y-75309230D01*
X116314007Y-75309229D01*
X116145963Y-75196946D01*
X116003054Y-75054037D01*
X115890771Y-74885993D01*
X115869691Y-74835101D01*
X115813428Y-74699272D01*
X115774000Y-74501053D01*
X115774000Y-74298947D01*
X115813428Y-74100728D01*
X115890770Y-73914009D01*
X115890771Y-73914007D01*
X116003054Y-73745963D01*
X116145963Y-73603054D01*
X116314007Y-73490771D01*
X116314009Y-73490770D01*
X116500728Y-73413428D01*
X116698947Y-73374000D01*
X116901053Y-73374000D01*
X117099272Y-73413428D01*
X117099272Y-73413428D01*
G37*
G36*
X135988674Y-73353465D02*
G01*
X136026367Y-73364899D01*
X136061103Y-73383466D01*
X136091548Y-73408452D01*
X136116534Y-73438897D01*
X136135101Y-73473633D01*
X136146535Y-73511326D01*
X136151000Y-73556661D01*
X136151000Y-74643339D01*
X136146535Y-74688674D01*
X136135101Y-74726367D01*
X136116534Y-74761103D01*
X136091548Y-74791548D01*
X136061103Y-74816534D01*
X136026367Y-74835101D01*
X135988674Y-74846535D01*
X135943339Y-74851000D01*
X135106661Y-74851000D01*
X135061326Y-74846535D01*
X135023633Y-74835101D01*
X134988897Y-74816534D01*
X134958452Y-74791548D01*
X134933466Y-74761103D01*
X134914899Y-74726367D01*
X134903465Y-74688674D01*
X134899000Y-74643339D01*
X134899000Y-73556661D01*
X134903465Y-73511326D01*
X134914899Y-73473633D01*
X134933466Y-73438897D01*
X134958452Y-73408452D01*
X134988897Y-73383466D01*
X135023633Y-73364899D01*
X135061326Y-73353465D01*
X135106661Y-73349000D01*
X135943339Y-73349000D01*
X135988674Y-73353465D01*
X135988674Y-73353465D01*
G37*
G36*
X133938674Y-73353465D02*
G01*
X133976367Y-73364899D01*
X134011103Y-73383466D01*
X134041548Y-73408452D01*
X134066534Y-73438897D01*
X134085101Y-73473633D01*
X134096535Y-73511326D01*
X134101000Y-73556661D01*
X134101000Y-74643339D01*
X134096535Y-74688674D01*
X134085101Y-74726367D01*
X134066534Y-74761103D01*
X134041548Y-74791548D01*
X134011103Y-74816534D01*
X133976367Y-74835101D01*
X133938674Y-74846535D01*
X133893339Y-74851000D01*
X133056661Y-74851000D01*
X133011326Y-74846535D01*
X132973633Y-74835101D01*
X132938897Y-74816534D01*
X132908452Y-74791548D01*
X132883466Y-74761103D01*
X132864899Y-74726367D01*
X132853465Y-74688674D01*
X132849000Y-74643339D01*
X132849000Y-73556661D01*
X132853465Y-73511326D01*
X132864899Y-73473633D01*
X132883466Y-73438897D01*
X132908452Y-73408452D01*
X132938897Y-73383466D01*
X132973633Y-73364899D01*
X133011326Y-73353465D01*
X133056661Y-73349000D01*
X133893339Y-73349000D01*
X133938674Y-73353465D01*
X133938674Y-73353465D01*
G37*
G36*
X119599272Y-71913428D02*
G01*
X119785991Y-71990770D01*
X119785993Y-71990771D01*
X119954037Y-72103054D01*
X120096946Y-72245963D01*
X120202578Y-72404053D01*
X120209230Y-72414009D01*
X120286572Y-72600728D01*
X120326000Y-72798947D01*
X120326000Y-73001053D01*
X120286572Y-73199272D01*
X120214197Y-73374000D01*
X120209229Y-73385993D01*
X120096946Y-73554037D01*
X119954037Y-73696946D01*
X119785993Y-73809229D01*
X119785992Y-73809230D01*
X119785991Y-73809230D01*
X119599272Y-73886572D01*
X119401053Y-73926000D01*
X119198947Y-73926000D01*
X119000728Y-73886572D01*
X118814009Y-73809230D01*
X118814008Y-73809230D01*
X118814007Y-73809229D01*
X118645963Y-73696946D01*
X118503054Y-73554037D01*
X118390771Y-73385993D01*
X118385803Y-73374000D01*
X118313428Y-73199272D01*
X118274000Y-73001053D01*
X118274000Y-72798947D01*
X118313428Y-72600728D01*
X118390770Y-72414009D01*
X118397422Y-72404053D01*
X118503054Y-72245963D01*
X118645963Y-72103054D01*
X118814007Y-71990771D01*
X118814009Y-71990770D01*
X119000728Y-71913428D01*
X119198947Y-71874000D01*
X119401053Y-71874000D01*
X119599272Y-71913428D01*
X119599272Y-71913428D01*
G37*
G36*
X111599272Y-71913428D02*
G01*
X111785991Y-71990770D01*
X111785993Y-71990771D01*
X111954037Y-72103054D01*
X112096946Y-72245963D01*
X112202578Y-72404053D01*
X112209230Y-72414009D01*
X112286572Y-72600728D01*
X112326000Y-72798947D01*
X112326000Y-73001053D01*
X112286572Y-73199272D01*
X112214197Y-73374000D01*
X112209229Y-73385993D01*
X112096946Y-73554037D01*
X111954037Y-73696946D01*
X111785993Y-73809229D01*
X111785992Y-73809230D01*
X111785991Y-73809230D01*
X111599272Y-73886572D01*
X111401053Y-73926000D01*
X111198947Y-73926000D01*
X111000728Y-73886572D01*
X110814009Y-73809230D01*
X110814008Y-73809230D01*
X110814007Y-73809229D01*
X110645963Y-73696946D01*
X110503054Y-73554037D01*
X110390771Y-73385993D01*
X110385803Y-73374000D01*
X110313428Y-73199272D01*
X110274000Y-73001053D01*
X110274000Y-72798947D01*
X110313428Y-72600728D01*
X110390770Y-72414009D01*
X110397422Y-72404053D01*
X110503054Y-72245963D01*
X110645963Y-72103054D01*
X110814007Y-71990771D01*
X110814009Y-71990770D01*
X111000728Y-71913428D01*
X111198947Y-71874000D01*
X111401053Y-71874000D01*
X111599272Y-71913428D01*
X111599272Y-71913428D01*
G37*
G36*
X172801000Y-73601000D02*
G01*
X171799000Y-73601000D01*
X171799000Y-72699000D01*
X172801000Y-72699000D01*
X172801000Y-73601000D01*
X172801000Y-73601000D01*
G37*
G36*
X170264499Y-72403445D02*
G01*
X170301995Y-72414820D01*
X170336554Y-72433292D01*
X170366847Y-72458153D01*
X170391708Y-72488446D01*
X170410180Y-72523005D01*
X170421555Y-72560501D01*
X170426000Y-72605638D01*
X170426000Y-73344362D01*
X170421555Y-73389499D01*
X170410180Y-73426995D01*
X170391708Y-73461554D01*
X170366847Y-73491847D01*
X170336554Y-73516708D01*
X170301995Y-73535180D01*
X170264499Y-73546555D01*
X170219362Y-73551000D01*
X169580638Y-73551000D01*
X169535501Y-73546555D01*
X169498005Y-73535180D01*
X169463446Y-73516708D01*
X169433153Y-73491847D01*
X169408292Y-73461554D01*
X169389820Y-73426995D01*
X169378445Y-73389499D01*
X169374000Y-73344362D01*
X169374000Y-72605638D01*
X169378445Y-72560501D01*
X169389820Y-72523005D01*
X169408292Y-72488446D01*
X169433153Y-72458153D01*
X169463446Y-72433292D01*
X169498005Y-72414820D01*
X169535501Y-72403445D01*
X169580638Y-72399000D01*
X170219362Y-72399000D01*
X170264499Y-72403445D01*
X170264499Y-72403445D01*
G37*
G36*
X147326000Y-72851000D02*
G01*
X145674000Y-72851000D01*
X145674000Y-72149000D01*
X147326000Y-72149000D01*
X147326000Y-72851000D01*
X147326000Y-72851000D01*
G37*
G36*
X141926000Y-72851000D02*
G01*
X140274000Y-72851000D01*
X140274000Y-72149000D01*
X141926000Y-72149000D01*
X141926000Y-72851000D01*
X141926000Y-72851000D01*
G37*
G36*
X174801000Y-72651000D02*
G01*
X173799000Y-72651000D01*
X173799000Y-71749000D01*
X174801000Y-71749000D01*
X174801000Y-72651000D01*
X174801000Y-72651000D01*
G37*
G36*
X138451000Y-72501000D02*
G01*
X136549000Y-72501000D01*
X136549000Y-71199000D01*
X138451000Y-71199000D01*
X138451000Y-72501000D01*
X138451000Y-72501000D01*
G37*
G36*
X133901000Y-72501000D02*
G01*
X131999000Y-72501000D01*
X131999000Y-71199000D01*
X133901000Y-71199000D01*
X133901000Y-72501000D01*
X133901000Y-72501000D01*
G37*
G36*
X114099272Y-70413428D02*
G01*
X114285991Y-70490770D01*
X114285993Y-70490771D01*
X114454037Y-70603054D01*
X114596946Y-70745963D01*
X114707888Y-70912000D01*
X114709230Y-70914009D01*
X114786572Y-71100728D01*
X114826000Y-71298947D01*
X114826000Y-71501053D01*
X114786572Y-71699272D01*
X114714197Y-71874000D01*
X114709229Y-71885993D01*
X114596946Y-72054037D01*
X114454037Y-72196946D01*
X114285993Y-72309229D01*
X114285992Y-72309230D01*
X114285991Y-72309230D01*
X114099272Y-72386572D01*
X113901053Y-72426000D01*
X113698947Y-72426000D01*
X113500728Y-72386572D01*
X113314009Y-72309230D01*
X113314008Y-72309230D01*
X113314007Y-72309229D01*
X113145963Y-72196946D01*
X113003054Y-72054037D01*
X112890771Y-71885993D01*
X112885803Y-71874000D01*
X112813428Y-71699272D01*
X112774000Y-71501053D01*
X112774000Y-71298947D01*
X112813428Y-71100728D01*
X112890770Y-70914009D01*
X112892112Y-70912000D01*
X113003054Y-70745963D01*
X113145963Y-70603054D01*
X113314007Y-70490771D01*
X113314009Y-70490770D01*
X113500728Y-70413428D01*
X113698947Y-70374000D01*
X113901053Y-70374000D01*
X114099272Y-70413428D01*
X114099272Y-70413428D01*
G37*
G36*
X117099272Y-70413428D02*
G01*
X117285991Y-70490770D01*
X117285993Y-70490771D01*
X117454037Y-70603054D01*
X117596946Y-70745963D01*
X117707888Y-70912000D01*
X117709230Y-70914009D01*
X117786572Y-71100728D01*
X117826000Y-71298947D01*
X117826000Y-71501053D01*
X117786572Y-71699272D01*
X117714197Y-71874000D01*
X117709229Y-71885993D01*
X117596946Y-72054037D01*
X117454037Y-72196946D01*
X117285993Y-72309229D01*
X117285992Y-72309230D01*
X117285991Y-72309230D01*
X117099272Y-72386572D01*
X116901053Y-72426000D01*
X116698947Y-72426000D01*
X116500728Y-72386572D01*
X116314009Y-72309230D01*
X116314008Y-72309230D01*
X116314007Y-72309229D01*
X116145963Y-72196946D01*
X116003054Y-72054037D01*
X115890771Y-71885993D01*
X115885803Y-71874000D01*
X115813428Y-71699272D01*
X115774000Y-71501053D01*
X115774000Y-71298947D01*
X115813428Y-71100728D01*
X115890770Y-70914009D01*
X115892112Y-70912000D01*
X116003054Y-70745963D01*
X116145963Y-70603054D01*
X116314007Y-70490771D01*
X116314009Y-70490770D01*
X116500728Y-70413428D01*
X116698947Y-70374000D01*
X116901053Y-70374000D01*
X117099272Y-70413428D01*
X117099272Y-70413428D01*
G37*
G36*
X170264499Y-70653445D02*
G01*
X170301995Y-70664820D01*
X170336554Y-70683292D01*
X170366847Y-70708153D01*
X170391708Y-70738446D01*
X170410180Y-70773005D01*
X170421555Y-70810501D01*
X170426000Y-70855638D01*
X170426000Y-71594362D01*
X170421555Y-71639499D01*
X170410180Y-71676995D01*
X170391708Y-71711554D01*
X170366847Y-71741847D01*
X170336554Y-71766708D01*
X170301995Y-71785180D01*
X170264499Y-71796555D01*
X170219362Y-71801000D01*
X169580638Y-71801000D01*
X169535501Y-71796555D01*
X169498005Y-71785180D01*
X169463446Y-71766708D01*
X169433153Y-71741847D01*
X169408292Y-71711554D01*
X169389820Y-71676995D01*
X169378445Y-71639499D01*
X169374000Y-71594362D01*
X169374000Y-70855638D01*
X169378445Y-70810501D01*
X169389820Y-70773005D01*
X169408292Y-70738446D01*
X169433153Y-70708153D01*
X169463446Y-70683292D01*
X169498005Y-70664820D01*
X169535501Y-70653445D01*
X169580638Y-70649000D01*
X170219362Y-70649000D01*
X170264499Y-70653445D01*
X170264499Y-70653445D01*
G37*
G36*
X172801000Y-71701000D02*
G01*
X171799000Y-71701000D01*
X171799000Y-70799000D01*
X172801000Y-70799000D01*
X172801000Y-71701000D01*
X172801000Y-71701000D01*
G37*
G36*
X147326000Y-71581000D02*
G01*
X145674000Y-71581000D01*
X145674000Y-70879000D01*
X147326000Y-70879000D01*
X147326000Y-71581000D01*
X147326000Y-71581000D01*
G37*
G36*
X141926000Y-71581000D02*
G01*
X140274000Y-71581000D01*
X140274000Y-70879000D01*
X141926000Y-70879000D01*
X141926000Y-71581000D01*
X141926000Y-71581000D01*
G37*
G36*
X119599272Y-68913428D02*
G01*
X119785991Y-68990770D01*
X119785993Y-68990771D01*
X119954037Y-69103054D01*
X120096946Y-69245963D01*
X120189178Y-69383999D01*
X120209230Y-69414009D01*
X120286572Y-69600728D01*
X120326000Y-69798947D01*
X120326000Y-70001053D01*
X120286572Y-70199272D01*
X120240292Y-70311000D01*
X120209229Y-70385993D01*
X120096946Y-70554037D01*
X119954037Y-70696946D01*
X119785993Y-70809229D01*
X119785992Y-70809230D01*
X119785991Y-70809230D01*
X119599272Y-70886572D01*
X119401053Y-70926000D01*
X119198947Y-70926000D01*
X119000728Y-70886572D01*
X118814009Y-70809230D01*
X118814008Y-70809230D01*
X118814007Y-70809229D01*
X118645963Y-70696946D01*
X118503054Y-70554037D01*
X118390771Y-70385993D01*
X118359708Y-70311000D01*
X118313428Y-70199272D01*
X118274000Y-70001053D01*
X118274000Y-69798947D01*
X118313428Y-69600728D01*
X118390770Y-69414009D01*
X118410822Y-69383999D01*
X118503054Y-69245963D01*
X118645963Y-69103054D01*
X118814007Y-68990771D01*
X118814009Y-68990770D01*
X119000728Y-68913428D01*
X119198947Y-68874000D01*
X119401053Y-68874000D01*
X119599272Y-68913428D01*
X119599272Y-68913428D01*
G37*
G36*
X112326000Y-70926000D02*
G01*
X110274000Y-70926000D01*
X110274000Y-68874000D01*
X112326000Y-68874000D01*
X112326000Y-70926000D01*
X112326000Y-70926000D01*
G37*
G36*
X147326000Y-70311000D02*
G01*
X145674000Y-70311000D01*
X145674000Y-69609000D01*
X147326000Y-69609000D01*
X147326000Y-70311000D01*
X147326000Y-70311000D01*
G37*
G36*
X141926000Y-70311000D02*
G01*
X140274000Y-70311000D01*
X140274000Y-69609000D01*
X141926000Y-69609000D01*
X141926000Y-70311000D01*
X141926000Y-70311000D01*
G37*
G36*
X133901000Y-70001000D02*
G01*
X131999000Y-70001000D01*
X131999000Y-68699000D01*
X133901000Y-68699000D01*
X133901000Y-70001000D01*
X133901000Y-70001000D01*
G37*
G36*
X138451000Y-70001000D02*
G01*
X136549000Y-70001000D01*
X136549000Y-68699000D01*
X138451000Y-68699000D01*
X138451000Y-70001000D01*
X138451000Y-70001000D01*
G37*
G36*
X170588674Y-68303465D02*
G01*
X170626367Y-68314899D01*
X170661103Y-68333466D01*
X170691548Y-68358452D01*
X170716534Y-68388897D01*
X170735101Y-68423633D01*
X170746535Y-68461326D01*
X170751000Y-68506661D01*
X170751000Y-69343339D01*
X170746535Y-69388674D01*
X170735101Y-69426367D01*
X170716534Y-69461103D01*
X170691548Y-69491548D01*
X170661103Y-69516534D01*
X170626367Y-69535101D01*
X170588674Y-69546535D01*
X170543339Y-69551000D01*
X169456661Y-69551000D01*
X169411326Y-69546535D01*
X169373633Y-69535101D01*
X169338897Y-69516534D01*
X169308452Y-69491548D01*
X169283466Y-69461103D01*
X169264899Y-69426367D01*
X169253465Y-69388674D01*
X169249000Y-69343339D01*
X169249000Y-68506661D01*
X169253465Y-68461326D01*
X169264899Y-68423633D01*
X169283466Y-68388897D01*
X169308452Y-68358452D01*
X169338897Y-68333466D01*
X169373633Y-68314899D01*
X169411326Y-68303465D01*
X169456661Y-68299000D01*
X170543339Y-68299000D01*
X170588674Y-68303465D01*
X170588674Y-68303465D01*
G37*
G36*
X147326000Y-69041000D02*
G01*
X145674000Y-69041000D01*
X145674000Y-68339000D01*
X147326000Y-68339000D01*
X147326000Y-69041000D01*
X147326000Y-69041000D01*
G37*
G36*
X141926000Y-69041000D02*
G01*
X140274000Y-69041000D01*
X140274000Y-68339000D01*
X141926000Y-68339000D01*
X141926000Y-69041000D01*
X141926000Y-69041000D01*
G37*
G36*
X133838674Y-66253465D02*
G01*
X133876367Y-66264899D01*
X133911103Y-66283466D01*
X133941548Y-66308452D01*
X133966534Y-66338897D01*
X133985101Y-66373633D01*
X133996535Y-66411326D01*
X134001000Y-66456661D01*
X134001000Y-67543339D01*
X133996535Y-67588674D01*
X133985101Y-67626367D01*
X133966534Y-67661103D01*
X133941548Y-67691548D01*
X133911103Y-67716534D01*
X133876367Y-67735101D01*
X133838674Y-67746535D01*
X133793339Y-67751000D01*
X132956661Y-67751000D01*
X132911326Y-67746535D01*
X132873633Y-67735101D01*
X132838897Y-67716534D01*
X132808452Y-67691548D01*
X132783466Y-67661103D01*
X132764899Y-67626367D01*
X132753465Y-67588674D01*
X132749000Y-67543339D01*
X132749000Y-66456661D01*
X132753465Y-66411326D01*
X132764899Y-66373633D01*
X132783466Y-66338897D01*
X132808452Y-66308452D01*
X132838897Y-66283466D01*
X132873633Y-66264899D01*
X132911326Y-66253465D01*
X132956661Y-66249000D01*
X133793339Y-66249000D01*
X133838674Y-66253465D01*
X133838674Y-66253465D01*
G37*
G36*
X135888674Y-66253465D02*
G01*
X135926367Y-66264899D01*
X135961103Y-66283466D01*
X135991548Y-66308452D01*
X136016534Y-66338897D01*
X136035101Y-66373633D01*
X136046535Y-66411326D01*
X136051000Y-66456661D01*
X136051000Y-67543339D01*
X136046535Y-67588674D01*
X136035101Y-67626367D01*
X136016534Y-67661103D01*
X135991548Y-67691548D01*
X135961103Y-67716534D01*
X135926367Y-67735101D01*
X135888674Y-67746535D01*
X135843339Y-67751000D01*
X135006661Y-67751000D01*
X134961326Y-67746535D01*
X134923633Y-67735101D01*
X134888897Y-67716534D01*
X134858452Y-67691548D01*
X134833466Y-67661103D01*
X134814899Y-67626367D01*
X134803465Y-67588674D01*
X134799000Y-67543339D01*
X134799000Y-66456661D01*
X134803465Y-66411326D01*
X134814899Y-66373633D01*
X134833466Y-66338897D01*
X134858452Y-66308452D01*
X134888897Y-66283466D01*
X134923633Y-66264899D01*
X134961326Y-66253465D01*
X135006661Y-66249000D01*
X135843339Y-66249000D01*
X135888674Y-66253465D01*
X135888674Y-66253465D01*
G37*
G36*
X170588674Y-66253465D02*
G01*
X170626367Y-66264899D01*
X170661103Y-66283466D01*
X170691548Y-66308452D01*
X170716534Y-66338897D01*
X170735101Y-66373633D01*
X170746535Y-66411326D01*
X170751000Y-66456661D01*
X170751000Y-67293339D01*
X170746535Y-67338674D01*
X170735101Y-67376367D01*
X170716534Y-67411103D01*
X170691548Y-67441548D01*
X170661103Y-67466534D01*
X170626367Y-67485101D01*
X170588674Y-67496535D01*
X170543339Y-67501000D01*
X169456661Y-67501000D01*
X169411326Y-67496535D01*
X169373633Y-67485101D01*
X169338897Y-67466534D01*
X169308452Y-67441548D01*
X169283466Y-67411103D01*
X169264899Y-67376367D01*
X169253465Y-67338674D01*
X169249000Y-67293339D01*
X169249000Y-66456661D01*
X169253465Y-66411326D01*
X169264899Y-66373633D01*
X169283466Y-66338897D01*
X169308452Y-66308452D01*
X169338897Y-66283466D01*
X169373633Y-66264899D01*
X169411326Y-66253465D01*
X169456661Y-66249000D01*
X170543339Y-66249000D01*
X170588674Y-66253465D01*
X170588674Y-66253465D01*
G37*
G36*
X143588674Y-65353465D02*
G01*
X143626367Y-65364899D01*
X143661103Y-65383466D01*
X143691548Y-65408452D01*
X143716534Y-65438897D01*
X143735101Y-65473633D01*
X143746535Y-65511326D01*
X143751000Y-65556661D01*
X143751000Y-66643339D01*
X143746535Y-66688674D01*
X143735101Y-66726367D01*
X143716534Y-66761103D01*
X143691548Y-66791548D01*
X143661103Y-66816534D01*
X143626367Y-66835101D01*
X143588674Y-66846535D01*
X143543339Y-66851000D01*
X142706661Y-66851000D01*
X142661326Y-66846535D01*
X142623633Y-66835101D01*
X142588897Y-66816534D01*
X142558452Y-66791548D01*
X142533466Y-66761103D01*
X142514899Y-66726367D01*
X142503465Y-66688674D01*
X142499000Y-66643339D01*
X142499000Y-65556661D01*
X142503465Y-65511326D01*
X142514899Y-65473633D01*
X142533466Y-65438897D01*
X142558452Y-65408452D01*
X142588897Y-65383466D01*
X142623633Y-65364899D01*
X142661326Y-65353465D01*
X142706661Y-65349000D01*
X143543339Y-65349000D01*
X143588674Y-65353465D01*
X143588674Y-65353465D01*
G37*
G36*
X141538674Y-65353465D02*
G01*
X141576367Y-65364899D01*
X141611103Y-65383466D01*
X141641548Y-65408452D01*
X141666534Y-65438897D01*
X141685101Y-65473633D01*
X141696535Y-65511326D01*
X141701000Y-65556661D01*
X141701000Y-66643339D01*
X141696535Y-66688674D01*
X141685101Y-66726367D01*
X141666534Y-66761103D01*
X141641548Y-66791548D01*
X141611103Y-66816534D01*
X141576367Y-66835101D01*
X141538674Y-66846535D01*
X141493339Y-66851000D01*
X140656661Y-66851000D01*
X140611326Y-66846535D01*
X140573633Y-66835101D01*
X140538897Y-66816534D01*
X140508452Y-66791548D01*
X140483466Y-66761103D01*
X140464899Y-66726367D01*
X140453465Y-66688674D01*
X140449000Y-66643339D01*
X140449000Y-65556661D01*
X140453465Y-65511326D01*
X140464899Y-65473633D01*
X140483466Y-65438897D01*
X140508452Y-65408452D01*
X140538897Y-65383466D01*
X140573633Y-65364899D01*
X140611326Y-65353465D01*
X140656661Y-65349000D01*
X141493339Y-65349000D01*
X141538674Y-65353465D01*
X141538674Y-65353465D01*
G37*
G36*
X164716001Y-66475999D02*
G01*
X152334001Y-66475999D01*
X152334001Y-64873999D01*
X164716001Y-64873999D01*
X164716001Y-66475999D01*
X164716001Y-66475999D01*
G37*
G36*
X128263674Y-64853465D02*
G01*
X128301367Y-64864899D01*
X128336103Y-64883466D01*
X128366548Y-64908452D01*
X128391534Y-64938897D01*
X128410101Y-64973633D01*
X128421535Y-65011326D01*
X128426000Y-65056661D01*
X128426000Y-66143339D01*
X128421535Y-66188674D01*
X128410101Y-66226367D01*
X128391534Y-66261103D01*
X128366548Y-66291548D01*
X128336103Y-66316534D01*
X128301367Y-66335101D01*
X128263674Y-66346535D01*
X128218339Y-66351000D01*
X127381661Y-66351000D01*
X127336326Y-66346535D01*
X127298633Y-66335101D01*
X127263897Y-66316534D01*
X127233452Y-66291548D01*
X127208466Y-66261103D01*
X127189899Y-66226367D01*
X127178465Y-66188674D01*
X127174000Y-66143339D01*
X127174000Y-65056661D01*
X127178465Y-65011326D01*
X127189899Y-64973633D01*
X127208466Y-64938897D01*
X127233452Y-64908452D01*
X127263897Y-64883466D01*
X127298633Y-64864899D01*
X127336326Y-64853465D01*
X127381661Y-64849000D01*
X128218339Y-64849000D01*
X128263674Y-64853465D01*
X128263674Y-64853465D01*
G37*
G36*
X126213674Y-64853465D02*
G01*
X126251367Y-64864899D01*
X126286103Y-64883466D01*
X126316548Y-64908452D01*
X126341534Y-64938897D01*
X126360101Y-64973633D01*
X126371535Y-65011326D01*
X126376000Y-65056661D01*
X126376000Y-66143339D01*
X126371535Y-66188674D01*
X126360101Y-66226367D01*
X126341534Y-66261103D01*
X126316548Y-66291548D01*
X126286103Y-66316534D01*
X126251367Y-66335101D01*
X126213674Y-66346535D01*
X126168339Y-66351000D01*
X125331661Y-66351000D01*
X125286326Y-66346535D01*
X125248633Y-66335101D01*
X125213897Y-66316534D01*
X125183452Y-66291548D01*
X125158466Y-66261103D01*
X125139899Y-66226367D01*
X125128465Y-66188674D01*
X125124000Y-66143339D01*
X125124000Y-65056661D01*
X125128465Y-65011326D01*
X125139899Y-64973633D01*
X125158466Y-64938897D01*
X125183452Y-64908452D01*
X125213897Y-64883466D01*
X125248633Y-64864899D01*
X125286326Y-64853465D01*
X125331661Y-64849000D01*
X126168339Y-64849000D01*
X126213674Y-64853465D01*
X126213674Y-64853465D01*
G37*
G36*
X112614499Y-64278445D02*
G01*
X112651995Y-64289820D01*
X112686554Y-64308292D01*
X112716847Y-64333153D01*
X112741708Y-64363446D01*
X112760180Y-64398005D01*
X112771555Y-64435501D01*
X112776000Y-64480638D01*
X112776000Y-65219362D01*
X112771555Y-65264499D01*
X112760180Y-65301995D01*
X112741708Y-65336554D01*
X112716847Y-65366847D01*
X112686554Y-65391708D01*
X112651995Y-65410180D01*
X112614499Y-65421555D01*
X112569362Y-65426000D01*
X111930638Y-65426000D01*
X111885501Y-65421555D01*
X111848005Y-65410180D01*
X111813446Y-65391708D01*
X111783153Y-65366847D01*
X111758292Y-65336554D01*
X111739820Y-65301995D01*
X111728445Y-65264499D01*
X111724000Y-65219362D01*
X111724000Y-64480638D01*
X111728445Y-64435501D01*
X111739820Y-64398005D01*
X111758292Y-64363446D01*
X111783153Y-64333153D01*
X111813446Y-64308292D01*
X111848005Y-64289820D01*
X111885501Y-64278445D01*
X111930638Y-64274000D01*
X112569362Y-64274000D01*
X112614499Y-64278445D01*
X112614499Y-64278445D01*
G37*
G36*
X109764499Y-64253445D02*
G01*
X109801995Y-64264820D01*
X109836554Y-64283292D01*
X109866847Y-64308153D01*
X109891708Y-64338446D01*
X109910180Y-64373005D01*
X109921555Y-64410501D01*
X109926000Y-64455638D01*
X109926000Y-65194362D01*
X109921555Y-65239499D01*
X109910180Y-65276995D01*
X109891708Y-65311554D01*
X109866847Y-65341847D01*
X109836554Y-65366708D01*
X109801995Y-65385180D01*
X109764499Y-65396555D01*
X109719362Y-65401000D01*
X109080638Y-65401000D01*
X109035501Y-65396555D01*
X108998005Y-65385180D01*
X108963446Y-65366708D01*
X108933153Y-65341847D01*
X108908292Y-65311554D01*
X108889820Y-65276995D01*
X108878445Y-65239499D01*
X108874000Y-65194362D01*
X108874000Y-64455638D01*
X108878445Y-64410501D01*
X108889820Y-64373005D01*
X108908292Y-64338446D01*
X108933153Y-64308153D01*
X108963446Y-64283292D01*
X108998005Y-64264820D01*
X109035501Y-64253445D01*
X109080638Y-64249000D01*
X109719362Y-64249000D01*
X109764499Y-64253445D01*
X109764499Y-64253445D01*
G37*
G36*
X117863674Y-63803465D02*
G01*
X117901367Y-63814899D01*
X117936103Y-63833466D01*
X117966548Y-63858452D01*
X117991534Y-63888897D01*
X118010101Y-63923633D01*
X118021535Y-63961326D01*
X118026000Y-64006661D01*
X118026000Y-65093339D01*
X118021535Y-65138674D01*
X118010101Y-65176367D01*
X117991534Y-65211103D01*
X117966548Y-65241548D01*
X117936103Y-65266534D01*
X117901367Y-65285101D01*
X117863674Y-65296535D01*
X117818339Y-65301000D01*
X116981661Y-65301000D01*
X116936326Y-65296535D01*
X116898633Y-65285101D01*
X116863897Y-65266534D01*
X116833452Y-65241548D01*
X116808466Y-65211103D01*
X116789899Y-65176367D01*
X116778465Y-65138674D01*
X116774000Y-65093339D01*
X116774000Y-64006661D01*
X116778465Y-63961326D01*
X116789899Y-63923633D01*
X116808466Y-63888897D01*
X116833452Y-63858452D01*
X116863897Y-63833466D01*
X116898633Y-63814899D01*
X116936326Y-63803465D01*
X116981661Y-63799000D01*
X117818339Y-63799000D01*
X117863674Y-63803465D01*
X117863674Y-63803465D01*
G37*
G36*
X115813674Y-63803465D02*
G01*
X115851367Y-63814899D01*
X115886103Y-63833466D01*
X115916548Y-63858452D01*
X115941534Y-63888897D01*
X115960101Y-63923633D01*
X115971535Y-63961326D01*
X115976000Y-64006661D01*
X115976000Y-65093339D01*
X115971535Y-65138674D01*
X115960101Y-65176367D01*
X115941534Y-65211103D01*
X115916548Y-65241548D01*
X115886103Y-65266534D01*
X115851367Y-65285101D01*
X115813674Y-65296535D01*
X115768339Y-65301000D01*
X114931661Y-65301000D01*
X114886326Y-65296535D01*
X114848633Y-65285101D01*
X114813897Y-65266534D01*
X114783452Y-65241548D01*
X114758466Y-65211103D01*
X114739899Y-65176367D01*
X114728465Y-65138674D01*
X114724000Y-65093339D01*
X114724000Y-64006661D01*
X114728465Y-63961326D01*
X114739899Y-63923633D01*
X114758466Y-63888897D01*
X114783452Y-63858452D01*
X114813897Y-63833466D01*
X114848633Y-63814899D01*
X114886326Y-63803465D01*
X114931661Y-63799000D01*
X115768339Y-63799000D01*
X115813674Y-63803465D01*
X115813674Y-63803465D01*
G37*
G36*
X105296162Y-61014368D02*
G01*
X105605724Y-61142593D01*
X105605725Y-61142594D01*
X105884324Y-61328747D01*
X106121253Y-61565676D01*
X106216652Y-61708452D01*
X106307407Y-61844276D01*
X106435632Y-62153838D01*
X106501000Y-62482465D01*
X106501000Y-62817535D01*
X106435632Y-63146162D01*
X106307407Y-63455724D01*
X106298294Y-63469362D01*
X106121253Y-63734324D01*
X105884324Y-63971253D01*
X105734782Y-64071173D01*
X105605724Y-64157407D01*
X105296162Y-64285632D01*
X104967535Y-64351000D01*
X104632465Y-64351000D01*
X104303838Y-64285632D01*
X103994276Y-64157407D01*
X103865218Y-64071173D01*
X103715676Y-63971253D01*
X103478747Y-63734324D01*
X103301706Y-63469362D01*
X103292593Y-63455724D01*
X103164368Y-63146162D01*
X103099000Y-62817535D01*
X103099000Y-62482465D01*
X103164368Y-62153838D01*
X103292593Y-61844276D01*
X103383348Y-61708452D01*
X103478747Y-61565676D01*
X103715676Y-61328747D01*
X103994275Y-61142594D01*
X103994276Y-61142593D01*
X104303838Y-61014368D01*
X104632465Y-60949000D01*
X104967535Y-60949000D01*
X105296162Y-61014368D01*
X105296162Y-61014368D01*
G37*
G36*
X146138674Y-62653465D02*
G01*
X146176367Y-62664899D01*
X146211103Y-62683466D01*
X146241548Y-62708452D01*
X146266534Y-62738897D01*
X146285101Y-62773633D01*
X146296535Y-62811326D01*
X146301000Y-62856661D01*
X146301000Y-63693339D01*
X146296535Y-63738674D01*
X146285101Y-63776367D01*
X146266534Y-63811103D01*
X146241548Y-63841548D01*
X146211103Y-63866534D01*
X146176367Y-63885101D01*
X146138674Y-63896535D01*
X146093339Y-63901000D01*
X145006661Y-63901000D01*
X144961326Y-63896535D01*
X144923633Y-63885101D01*
X144888897Y-63866534D01*
X144858452Y-63841548D01*
X144833466Y-63811103D01*
X144814899Y-63776367D01*
X144803465Y-63738674D01*
X144799000Y-63693339D01*
X144799000Y-62856661D01*
X144803465Y-62811326D01*
X144814899Y-62773633D01*
X144833466Y-62738897D01*
X144858452Y-62708452D01*
X144888897Y-62683466D01*
X144923633Y-62664899D01*
X144961326Y-62653465D01*
X145006661Y-62649000D01*
X146093339Y-62649000D01*
X146138674Y-62653465D01*
X146138674Y-62653465D01*
G37*
G36*
X112614499Y-62528445D02*
G01*
X112651995Y-62539820D01*
X112686554Y-62558292D01*
X112716847Y-62583153D01*
X112741708Y-62613446D01*
X112760180Y-62648005D01*
X112771555Y-62685501D01*
X112776000Y-62730638D01*
X112776000Y-63469362D01*
X112771555Y-63514499D01*
X112760180Y-63551995D01*
X112741708Y-63586554D01*
X112716847Y-63616847D01*
X112686554Y-63641708D01*
X112651995Y-63660180D01*
X112614499Y-63671555D01*
X112569362Y-63676000D01*
X111930638Y-63676000D01*
X111885501Y-63671555D01*
X111848005Y-63660180D01*
X111813446Y-63641708D01*
X111783153Y-63616847D01*
X111758292Y-63586554D01*
X111739820Y-63551995D01*
X111728445Y-63514499D01*
X111724000Y-63469362D01*
X111724000Y-62730638D01*
X111728445Y-62685501D01*
X111739820Y-62648005D01*
X111758292Y-62613446D01*
X111783153Y-62583153D01*
X111813446Y-62558292D01*
X111848005Y-62539820D01*
X111885501Y-62528445D01*
X111930638Y-62524000D01*
X112569362Y-62524000D01*
X112614499Y-62528445D01*
X112614499Y-62528445D01*
G37*
G36*
X109764499Y-62503445D02*
G01*
X109801995Y-62514820D01*
X109836554Y-62533292D01*
X109866847Y-62558153D01*
X109891708Y-62588446D01*
X109910180Y-62623005D01*
X109921555Y-62660501D01*
X109926000Y-62705638D01*
X109926000Y-63444362D01*
X109921555Y-63489499D01*
X109910180Y-63526995D01*
X109891708Y-63561554D01*
X109866847Y-63591847D01*
X109836554Y-63616708D01*
X109801995Y-63635180D01*
X109764499Y-63646555D01*
X109719362Y-63651000D01*
X109080638Y-63651000D01*
X109035501Y-63646555D01*
X108998005Y-63635180D01*
X108963446Y-63616708D01*
X108933153Y-63591847D01*
X108908292Y-63561554D01*
X108889820Y-63526995D01*
X108878445Y-63489499D01*
X108874000Y-63444362D01*
X108874000Y-62705638D01*
X108878445Y-62660501D01*
X108889820Y-62623005D01*
X108908292Y-62588446D01*
X108933153Y-62558153D01*
X108963446Y-62533292D01*
X108998005Y-62514820D01*
X109035501Y-62503445D01*
X109080638Y-62499000D01*
X109719362Y-62499000D01*
X109764499Y-62503445D01*
X109764499Y-62503445D01*
G37*
G36*
X154288674Y-61653465D02*
G01*
X154326367Y-61664899D01*
X154361103Y-61683466D01*
X154391548Y-61708452D01*
X154416534Y-61738897D01*
X154435101Y-61773633D01*
X154446535Y-61811326D01*
X154451000Y-61856661D01*
X154451000Y-62943339D01*
X154446535Y-62988674D01*
X154435101Y-63026367D01*
X154416534Y-63061103D01*
X154391548Y-63091548D01*
X154361103Y-63116534D01*
X154326367Y-63135101D01*
X154288674Y-63146535D01*
X154243339Y-63151000D01*
X153406661Y-63151000D01*
X153361326Y-63146535D01*
X153323633Y-63135101D01*
X153288897Y-63116534D01*
X153258452Y-63091548D01*
X153233466Y-63061103D01*
X153214899Y-63026367D01*
X153203465Y-62988674D01*
X153199000Y-62943339D01*
X153199000Y-61856661D01*
X153203465Y-61811326D01*
X153214899Y-61773633D01*
X153233466Y-61738897D01*
X153258452Y-61708452D01*
X153288897Y-61683466D01*
X153323633Y-61664899D01*
X153361326Y-61653465D01*
X153406661Y-61649000D01*
X154243339Y-61649000D01*
X154288674Y-61653465D01*
X154288674Y-61653465D01*
G37*
G36*
X152238674Y-61653465D02*
G01*
X152276367Y-61664899D01*
X152311103Y-61683466D01*
X152341548Y-61708452D01*
X152366534Y-61738897D01*
X152385101Y-61773633D01*
X152396535Y-61811326D01*
X152401000Y-61856661D01*
X152401000Y-62943339D01*
X152396535Y-62988674D01*
X152385101Y-63026367D01*
X152366534Y-63061103D01*
X152341548Y-63091548D01*
X152311103Y-63116534D01*
X152276367Y-63135101D01*
X152238674Y-63146535D01*
X152193339Y-63151000D01*
X151356661Y-63151000D01*
X151311326Y-63146535D01*
X151273633Y-63135101D01*
X151238897Y-63116534D01*
X151208452Y-63091548D01*
X151183466Y-63061103D01*
X151164899Y-63026367D01*
X151153465Y-62988674D01*
X151149000Y-62943339D01*
X151149000Y-61856661D01*
X151153465Y-61811326D01*
X151164899Y-61773633D01*
X151183466Y-61738897D01*
X151208452Y-61708452D01*
X151238897Y-61683466D01*
X151273633Y-61664899D01*
X151311326Y-61653465D01*
X151356661Y-61649000D01*
X152193339Y-61649000D01*
X152238674Y-61653465D01*
X152238674Y-61653465D01*
G37*
G36*
X117276000Y-62306000D02*
G01*
X114114000Y-62306000D01*
X114114000Y-61314000D01*
X117276000Y-61314000D01*
X117276000Y-62306000D01*
X117276000Y-62306000D01*
G37*
G36*
X164489499Y-60978445D02*
G01*
X164526995Y-60989820D01*
X164561554Y-61008292D01*
X164591847Y-61033153D01*
X164616708Y-61063446D01*
X164635180Y-61098005D01*
X164646555Y-61135501D01*
X164651000Y-61180638D01*
X164651000Y-61819362D01*
X164646555Y-61864499D01*
X164635180Y-61901995D01*
X164616708Y-61936554D01*
X164591847Y-61966847D01*
X164561554Y-61991708D01*
X164526995Y-62010180D01*
X164489499Y-62021555D01*
X164444362Y-62026000D01*
X163705638Y-62026000D01*
X163660501Y-62021555D01*
X163623005Y-62010180D01*
X163588446Y-61991708D01*
X163558153Y-61966847D01*
X163533292Y-61936554D01*
X163514820Y-61901995D01*
X163503445Y-61864499D01*
X163499000Y-61819362D01*
X163499000Y-61180638D01*
X163503445Y-61135501D01*
X163514820Y-61098005D01*
X163533292Y-61063446D01*
X163558153Y-61033153D01*
X163588446Y-61008292D01*
X163623005Y-60989820D01*
X163660501Y-60978445D01*
X163705638Y-60974000D01*
X164444362Y-60974000D01*
X164489499Y-60978445D01*
X164489499Y-60978445D01*
G37*
G36*
X162739499Y-60978445D02*
G01*
X162776995Y-60989820D01*
X162811554Y-61008292D01*
X162841847Y-61033153D01*
X162866708Y-61063446D01*
X162885180Y-61098005D01*
X162896555Y-61135501D01*
X162901000Y-61180638D01*
X162901000Y-61819362D01*
X162896555Y-61864499D01*
X162885180Y-61901995D01*
X162866708Y-61936554D01*
X162841847Y-61966847D01*
X162811554Y-61991708D01*
X162776995Y-62010180D01*
X162739499Y-62021555D01*
X162694362Y-62026000D01*
X161955638Y-62026000D01*
X161910501Y-62021555D01*
X161873005Y-62010180D01*
X161838446Y-61991708D01*
X161808153Y-61966847D01*
X161783292Y-61936554D01*
X161764820Y-61901995D01*
X161753445Y-61864499D01*
X161749000Y-61819362D01*
X161749000Y-61180638D01*
X161753445Y-61135501D01*
X161764820Y-61098005D01*
X161783292Y-61063446D01*
X161808153Y-61033153D01*
X161838446Y-61008292D01*
X161873005Y-60989820D01*
X161910501Y-60978445D01*
X161955638Y-60974000D01*
X162694362Y-60974000D01*
X162739499Y-60978445D01*
X162739499Y-60978445D01*
G37*
G36*
X146138674Y-60603465D02*
G01*
X146176367Y-60614899D01*
X146211103Y-60633466D01*
X146241548Y-60658452D01*
X146266534Y-60688897D01*
X146285101Y-60723633D01*
X146296535Y-60761326D01*
X146301000Y-60806661D01*
X146301000Y-61643339D01*
X146296535Y-61688674D01*
X146285101Y-61726367D01*
X146266534Y-61761103D01*
X146241548Y-61791548D01*
X146211103Y-61816534D01*
X146176367Y-61835101D01*
X146138674Y-61846535D01*
X146093339Y-61851000D01*
X145006661Y-61851000D01*
X144961326Y-61846535D01*
X144923633Y-61835101D01*
X144888897Y-61816534D01*
X144858452Y-61791548D01*
X144833466Y-61761103D01*
X144814899Y-61726367D01*
X144803465Y-61688674D01*
X144799000Y-61643339D01*
X144799000Y-60806661D01*
X144803465Y-60761326D01*
X144814899Y-60723633D01*
X144833466Y-60688897D01*
X144858452Y-60658452D01*
X144888897Y-60633466D01*
X144923633Y-60614899D01*
X144961326Y-60603465D01*
X145006661Y-60599000D01*
X146093339Y-60599000D01*
X146138674Y-60603465D01*
X146138674Y-60603465D01*
G37*
G36*
X134901000Y-61301000D02*
G01*
X133299000Y-61301000D01*
X133299000Y-59199000D01*
X134901000Y-59199000D01*
X134901000Y-61301000D01*
X134901000Y-61301000D01*
G37*
G36*
X137201000Y-61301000D02*
G01*
X135599000Y-61301000D01*
X135599000Y-59199000D01*
X137201000Y-59199000D01*
X137201000Y-61301000D01*
X137201000Y-61301000D01*
G37*
G36*
X139501000Y-61301000D02*
G01*
X137899000Y-61301000D01*
X137899000Y-59199000D01*
X139501000Y-59199000D01*
X139501000Y-61301000D01*
X139501000Y-61301000D01*
G37*
G36*
X117276000Y-61036000D02*
G01*
X114114000Y-61036000D01*
X114114000Y-60044000D01*
X117276000Y-60044000D01*
X117276000Y-61036000D01*
X117276000Y-61036000D01*
G37*
G36*
X130801000Y-60726000D02*
G01*
X118699000Y-60726000D01*
X118699000Y-55274000D01*
X130801000Y-55274000D01*
X130801000Y-60726000D01*
X130801000Y-60726000D01*
G37*
G36*
X111588674Y-58628465D02*
G01*
X111626367Y-58639899D01*
X111661103Y-58658466D01*
X111691548Y-58683452D01*
X111716534Y-58713897D01*
X111735101Y-58748633D01*
X111746535Y-58786326D01*
X111751000Y-58831661D01*
X111751000Y-59668339D01*
X111746535Y-59713674D01*
X111735101Y-59751367D01*
X111716534Y-59786103D01*
X111691548Y-59816548D01*
X111661103Y-59841534D01*
X111626367Y-59860101D01*
X111588674Y-59871535D01*
X111543339Y-59876000D01*
X110456661Y-59876000D01*
X110411326Y-59871535D01*
X110373633Y-59860101D01*
X110338897Y-59841534D01*
X110308452Y-59816548D01*
X110283466Y-59786103D01*
X110264899Y-59751367D01*
X110253465Y-59713674D01*
X110249000Y-59668339D01*
X110249000Y-58831661D01*
X110253465Y-58786326D01*
X110264899Y-58748633D01*
X110283466Y-58713897D01*
X110308452Y-58683452D01*
X110338897Y-58658466D01*
X110373633Y-58639899D01*
X110411326Y-58628465D01*
X110456661Y-58624000D01*
X111543339Y-58624000D01*
X111588674Y-58628465D01*
X111588674Y-58628465D01*
G37*
G36*
X117276000Y-59766000D02*
G01*
X114114000Y-59766000D01*
X114114000Y-58774000D01*
X117276000Y-58774000D01*
X117276000Y-59766000D01*
X117276000Y-59766000D01*
G37*
G36*
X164788674Y-57953465D02*
G01*
X164826367Y-57964899D01*
X164861103Y-57983466D01*
X164891548Y-58008452D01*
X164916534Y-58038897D01*
X164935101Y-58073633D01*
X164946535Y-58111326D01*
X164951000Y-58156661D01*
X164951000Y-59243339D01*
X164946535Y-59288674D01*
X164935101Y-59326367D01*
X164916534Y-59361103D01*
X164891548Y-59391548D01*
X164861103Y-59416534D01*
X164826367Y-59435101D01*
X164788674Y-59446535D01*
X164743339Y-59451000D01*
X163906661Y-59451000D01*
X163861326Y-59446535D01*
X163823633Y-59435101D01*
X163788897Y-59416534D01*
X163758452Y-59391548D01*
X163733466Y-59361103D01*
X163714899Y-59326367D01*
X163703465Y-59288674D01*
X163699000Y-59243339D01*
X163699000Y-58156661D01*
X163703465Y-58111326D01*
X163714899Y-58073633D01*
X163733466Y-58038897D01*
X163758452Y-58008452D01*
X163788897Y-57983466D01*
X163823633Y-57964899D01*
X163861326Y-57953465D01*
X163906661Y-57949000D01*
X164743339Y-57949000D01*
X164788674Y-57953465D01*
X164788674Y-57953465D01*
G37*
G36*
X162738674Y-57953465D02*
G01*
X162776367Y-57964899D01*
X162811103Y-57983466D01*
X162841548Y-58008452D01*
X162866534Y-58038897D01*
X162885101Y-58073633D01*
X162896535Y-58111326D01*
X162901000Y-58156661D01*
X162901000Y-59243339D01*
X162896535Y-59288674D01*
X162885101Y-59326367D01*
X162866534Y-59361103D01*
X162841548Y-59391548D01*
X162811103Y-59416534D01*
X162776367Y-59435101D01*
X162738674Y-59446535D01*
X162693339Y-59451000D01*
X161856661Y-59451000D01*
X161811326Y-59446535D01*
X161773633Y-59435101D01*
X161738897Y-59416534D01*
X161708452Y-59391548D01*
X161683466Y-59361103D01*
X161664899Y-59326367D01*
X161653465Y-59288674D01*
X161649000Y-59243339D01*
X161649000Y-58156661D01*
X161653465Y-58111326D01*
X161664899Y-58073633D01*
X161683466Y-58038897D01*
X161708452Y-58008452D01*
X161738897Y-57983466D01*
X161773633Y-57964899D01*
X161811326Y-57953465D01*
X161856661Y-57949000D01*
X162693339Y-57949000D01*
X162738674Y-57953465D01*
X162738674Y-57953465D01*
G37*
G36*
X158871213Y-57977502D02*
G01*
X158942321Y-57984505D01*
X159063556Y-58021282D01*
X159079175Y-58026020D01*
X159205294Y-58093432D01*
X159315843Y-58184157D01*
X159406568Y-58294706D01*
X159473980Y-58420825D01*
X159473981Y-58420828D01*
X159515495Y-58557679D01*
X159529512Y-58700000D01*
X159515495Y-58842321D01*
X159473981Y-58979172D01*
X159473980Y-58979175D01*
X159406568Y-59105294D01*
X159315843Y-59215843D01*
X159205294Y-59306568D01*
X159079175Y-59373980D01*
X159079172Y-59373981D01*
X158942321Y-59415495D01*
X158871213Y-59422498D01*
X158835660Y-59426000D01*
X158764340Y-59426000D01*
X158728787Y-59422498D01*
X158657679Y-59415495D01*
X158520828Y-59373981D01*
X158520825Y-59373980D01*
X158394706Y-59306568D01*
X158284157Y-59215843D01*
X158193432Y-59105294D01*
X158126020Y-58979175D01*
X158126019Y-58979172D01*
X158084505Y-58842321D01*
X158070488Y-58700000D01*
X158084505Y-58557679D01*
X158126019Y-58420828D01*
X158126020Y-58420825D01*
X158193432Y-58294706D01*
X158284157Y-58184157D01*
X158394706Y-58093432D01*
X158520825Y-58026020D01*
X158536444Y-58021282D01*
X158657679Y-57984505D01*
X158728787Y-57977502D01*
X158764340Y-57974000D01*
X158835660Y-57974000D01*
X158871213Y-57977502D01*
X158871213Y-57977502D01*
G37*
G36*
X154871213Y-57977502D02*
G01*
X154942321Y-57984505D01*
X155063556Y-58021282D01*
X155079175Y-58026020D01*
X155205294Y-58093432D01*
X155315843Y-58184157D01*
X155406568Y-58294706D01*
X155473980Y-58420825D01*
X155473981Y-58420828D01*
X155515495Y-58557679D01*
X155529512Y-58700000D01*
X155515495Y-58842321D01*
X155473981Y-58979172D01*
X155473980Y-58979175D01*
X155406568Y-59105294D01*
X155315843Y-59215843D01*
X155205294Y-59306568D01*
X155079175Y-59373980D01*
X155079172Y-59373981D01*
X154942321Y-59415495D01*
X154871213Y-59422498D01*
X154835660Y-59426000D01*
X154764340Y-59426000D01*
X154728787Y-59422498D01*
X154657679Y-59415495D01*
X154520828Y-59373981D01*
X154520825Y-59373980D01*
X154394706Y-59306568D01*
X154284157Y-59215843D01*
X154193432Y-59105294D01*
X154126020Y-58979175D01*
X154126019Y-58979172D01*
X154084505Y-58842321D01*
X154070488Y-58700000D01*
X154084505Y-58557679D01*
X154126019Y-58420828D01*
X154126020Y-58420825D01*
X154193432Y-58294706D01*
X154284157Y-58184157D01*
X154394706Y-58093432D01*
X154520825Y-58026020D01*
X154536444Y-58021282D01*
X154657679Y-57984505D01*
X154728787Y-57977502D01*
X154764340Y-57974000D01*
X154835660Y-57974000D01*
X154871213Y-57977502D01*
X154871213Y-57977502D01*
G37*
G36*
X151526000Y-59426000D02*
G01*
X150074000Y-59426000D01*
X150074000Y-57974000D01*
X151526000Y-57974000D01*
X151526000Y-59426000D01*
X151526000Y-59426000D01*
G37*
G36*
X152871213Y-57977502D02*
G01*
X152942321Y-57984505D01*
X153063556Y-58021282D01*
X153079175Y-58026020D01*
X153205294Y-58093432D01*
X153315843Y-58184157D01*
X153406568Y-58294706D01*
X153473980Y-58420825D01*
X153473981Y-58420828D01*
X153515495Y-58557679D01*
X153529512Y-58700000D01*
X153515495Y-58842321D01*
X153473981Y-58979172D01*
X153473980Y-58979175D01*
X153406568Y-59105294D01*
X153315843Y-59215843D01*
X153205294Y-59306568D01*
X153079175Y-59373980D01*
X153079172Y-59373981D01*
X152942321Y-59415495D01*
X152871213Y-59422498D01*
X152835660Y-59426000D01*
X152764340Y-59426000D01*
X152728787Y-59422498D01*
X152657679Y-59415495D01*
X152520828Y-59373981D01*
X152520825Y-59373980D01*
X152394706Y-59306568D01*
X152284157Y-59215843D01*
X152193432Y-59105294D01*
X152126020Y-58979175D01*
X152126019Y-58979172D01*
X152084505Y-58842321D01*
X152070488Y-58700000D01*
X152084505Y-58557679D01*
X152126019Y-58420828D01*
X152126020Y-58420825D01*
X152193432Y-58294706D01*
X152284157Y-58184157D01*
X152394706Y-58093432D01*
X152520825Y-58026020D01*
X152536444Y-58021282D01*
X152657679Y-57984505D01*
X152728787Y-57977502D01*
X152764340Y-57974000D01*
X152835660Y-57974000D01*
X152871213Y-57977502D01*
X152871213Y-57977502D01*
G37*
G36*
X156871213Y-57977502D02*
G01*
X156942321Y-57984505D01*
X157063556Y-58021282D01*
X157079175Y-58026020D01*
X157205294Y-58093432D01*
X157315843Y-58184157D01*
X157406568Y-58294706D01*
X157473980Y-58420825D01*
X157473981Y-58420828D01*
X157515495Y-58557679D01*
X157529512Y-58700000D01*
X157515495Y-58842321D01*
X157473981Y-58979172D01*
X157473980Y-58979175D01*
X157406568Y-59105294D01*
X157315843Y-59215843D01*
X157205294Y-59306568D01*
X157079175Y-59373980D01*
X157079172Y-59373981D01*
X156942321Y-59415495D01*
X156871213Y-59422498D01*
X156835660Y-59426000D01*
X156764340Y-59426000D01*
X156728787Y-59422498D01*
X156657679Y-59415495D01*
X156520828Y-59373981D01*
X156520825Y-59373980D01*
X156394706Y-59306568D01*
X156284157Y-59215843D01*
X156193432Y-59105294D01*
X156126020Y-58979175D01*
X156126019Y-58979172D01*
X156084505Y-58842321D01*
X156070488Y-58700000D01*
X156084505Y-58557679D01*
X156126019Y-58420828D01*
X156126020Y-58420825D01*
X156193432Y-58294706D01*
X156284157Y-58184157D01*
X156394706Y-58093432D01*
X156520825Y-58026020D01*
X156536444Y-58021282D01*
X156657679Y-57984505D01*
X156728787Y-57977502D01*
X156764340Y-57974000D01*
X156835660Y-57974000D01*
X156871213Y-57977502D01*
X156871213Y-57977502D01*
G37*
G36*
X117276000Y-58496000D02*
G01*
X114114000Y-58496000D01*
X114114000Y-57504000D01*
X117276000Y-57504000D01*
X117276000Y-58496000D01*
X117276000Y-58496000D01*
G37*
G36*
X142893675Y-56603465D02*
G01*
X142931368Y-56614899D01*
X142966104Y-56633466D01*
X142996549Y-56658452D01*
X143021535Y-56688897D01*
X143040102Y-56723633D01*
X143051536Y-56761326D01*
X143056001Y-56806661D01*
X143056001Y-57893339D01*
X143051536Y-57938674D01*
X143040102Y-57976367D01*
X143021535Y-58011103D01*
X142996549Y-58041548D01*
X142966104Y-58066534D01*
X142931368Y-58085101D01*
X142893675Y-58096535D01*
X142848340Y-58101000D01*
X142011662Y-58101000D01*
X141966327Y-58096535D01*
X141928634Y-58085101D01*
X141893898Y-58066534D01*
X141863453Y-58041548D01*
X141838467Y-58011103D01*
X141819900Y-57976367D01*
X141808466Y-57938674D01*
X141804001Y-57893339D01*
X141804001Y-56806661D01*
X141808466Y-56761326D01*
X141819900Y-56723633D01*
X141838467Y-56688897D01*
X141863453Y-56658452D01*
X141893898Y-56633466D01*
X141928634Y-56614899D01*
X141966327Y-56603465D01*
X142011662Y-56599000D01*
X142848340Y-56599000D01*
X142893675Y-56603465D01*
X142893675Y-56603465D01*
G37*
G36*
X144943675Y-56603465D02*
G01*
X144981368Y-56614899D01*
X145016104Y-56633466D01*
X145046549Y-56658452D01*
X145071535Y-56688897D01*
X145090102Y-56723633D01*
X145101536Y-56761326D01*
X145106001Y-56806661D01*
X145106001Y-57893339D01*
X145101536Y-57938674D01*
X145090102Y-57976367D01*
X145071535Y-58011103D01*
X145046549Y-58041548D01*
X145016104Y-58066534D01*
X144981368Y-58085101D01*
X144943675Y-58096535D01*
X144898340Y-58101000D01*
X144061662Y-58101000D01*
X144016327Y-58096535D01*
X143978634Y-58085101D01*
X143943898Y-58066534D01*
X143913453Y-58041548D01*
X143888467Y-58011103D01*
X143869900Y-57976367D01*
X143858466Y-57938674D01*
X143854001Y-57893339D01*
X143854001Y-56806661D01*
X143858466Y-56761326D01*
X143869900Y-56723633D01*
X143888467Y-56688897D01*
X143913453Y-56658452D01*
X143943898Y-56633466D01*
X143978634Y-56614899D01*
X144016327Y-56603465D01*
X144061662Y-56599000D01*
X144898340Y-56599000D01*
X144943675Y-56603465D01*
X144943675Y-56603465D01*
G37*
G36*
X171375256Y-54791298D02*
G01*
X171481579Y-54812447D01*
X171782042Y-54936903D01*
X172052451Y-55117585D01*
X172282415Y-55347549D01*
X172282416Y-55347551D01*
X172463098Y-55617960D01*
X172587553Y-55918422D01*
X172651000Y-56237389D01*
X172651000Y-56562611D01*
X172623943Y-56698633D01*
X172587553Y-56881579D01*
X172463097Y-57182042D01*
X172282415Y-57452451D01*
X172052451Y-57682415D01*
X171782042Y-57863097D01*
X171782041Y-57863098D01*
X171782040Y-57863098D01*
X171694037Y-57899550D01*
X171481579Y-57987553D01*
X171375256Y-58008702D01*
X171162611Y-58051000D01*
X170837389Y-58051000D01*
X170624744Y-58008702D01*
X170518421Y-57987553D01*
X170305963Y-57899550D01*
X170217960Y-57863098D01*
X170217959Y-57863098D01*
X170217958Y-57863097D01*
X169947549Y-57682415D01*
X169717585Y-57452451D01*
X169536903Y-57182042D01*
X169412447Y-56881579D01*
X169376057Y-56698633D01*
X169349000Y-56562611D01*
X169349000Y-56237389D01*
X169412447Y-55918422D01*
X169536902Y-55617960D01*
X169717584Y-55347551D01*
X169717585Y-55347549D01*
X169947549Y-55117585D01*
X170217958Y-54936903D01*
X170518421Y-54812447D01*
X170624744Y-54791298D01*
X170837389Y-54749000D01*
X171162611Y-54749000D01*
X171375256Y-54791298D01*
X171375256Y-54791298D01*
G37*
G36*
X111588674Y-56578465D02*
G01*
X111626367Y-56589899D01*
X111661103Y-56608466D01*
X111691548Y-56633452D01*
X111716534Y-56663897D01*
X111735101Y-56698633D01*
X111746535Y-56736326D01*
X111751000Y-56781661D01*
X111751000Y-57618339D01*
X111746535Y-57663674D01*
X111735101Y-57701367D01*
X111716534Y-57736103D01*
X111691548Y-57766548D01*
X111661103Y-57791534D01*
X111626367Y-57810101D01*
X111588674Y-57821535D01*
X111543339Y-57826000D01*
X110456661Y-57826000D01*
X110411326Y-57821535D01*
X110373633Y-57810101D01*
X110338897Y-57791534D01*
X110308452Y-57766548D01*
X110283466Y-57736103D01*
X110264899Y-57701367D01*
X110253465Y-57663674D01*
X110249000Y-57618339D01*
X110249000Y-56781661D01*
X110253465Y-56736326D01*
X110264899Y-56698633D01*
X110283466Y-56663897D01*
X110308452Y-56633452D01*
X110338897Y-56608466D01*
X110373633Y-56589899D01*
X110411326Y-56578465D01*
X110456661Y-56574000D01*
X111543339Y-56574000D01*
X111588674Y-56578465D01*
X111588674Y-56578465D01*
G37*
G36*
X158871213Y-55977502D02*
G01*
X158942321Y-55984505D01*
X159079172Y-56026019D01*
X159079175Y-56026020D01*
X159205294Y-56093432D01*
X159315843Y-56184157D01*
X159406568Y-56294706D01*
X159473980Y-56420825D01*
X159473981Y-56420828D01*
X159515495Y-56557679D01*
X159529512Y-56700000D01*
X159515495Y-56842321D01*
X159503586Y-56881578D01*
X159473980Y-56979175D01*
X159406568Y-57105294D01*
X159315843Y-57215843D01*
X159205294Y-57306568D01*
X159079175Y-57373980D01*
X159079172Y-57373981D01*
X158942321Y-57415495D01*
X158871213Y-57422498D01*
X158835660Y-57426000D01*
X158764340Y-57426000D01*
X158728787Y-57422498D01*
X158657679Y-57415495D01*
X158520828Y-57373981D01*
X158520825Y-57373980D01*
X158394706Y-57306568D01*
X158284157Y-57215843D01*
X158193432Y-57105294D01*
X158126020Y-56979175D01*
X158096414Y-56881578D01*
X158084505Y-56842321D01*
X158070488Y-56700000D01*
X158084505Y-56557679D01*
X158126019Y-56420828D01*
X158126020Y-56420825D01*
X158193432Y-56294706D01*
X158284157Y-56184157D01*
X158394706Y-56093432D01*
X158520825Y-56026020D01*
X158520828Y-56026019D01*
X158657679Y-55984505D01*
X158728787Y-55977502D01*
X158764340Y-55974000D01*
X158835660Y-55974000D01*
X158871213Y-55977502D01*
X158871213Y-55977502D01*
G37*
G36*
X156871213Y-55977502D02*
G01*
X156942321Y-55984505D01*
X157079172Y-56026019D01*
X157079175Y-56026020D01*
X157205294Y-56093432D01*
X157315843Y-56184157D01*
X157406568Y-56294706D01*
X157473980Y-56420825D01*
X157473981Y-56420828D01*
X157515495Y-56557679D01*
X157529512Y-56700000D01*
X157515495Y-56842321D01*
X157503586Y-56881578D01*
X157473980Y-56979175D01*
X157406568Y-57105294D01*
X157315843Y-57215843D01*
X157205294Y-57306568D01*
X157079175Y-57373980D01*
X157079172Y-57373981D01*
X156942321Y-57415495D01*
X156871213Y-57422498D01*
X156835660Y-57426000D01*
X156764340Y-57426000D01*
X156728787Y-57422498D01*
X156657679Y-57415495D01*
X156520828Y-57373981D01*
X156520825Y-57373980D01*
X156394706Y-57306568D01*
X156284157Y-57215843D01*
X156193432Y-57105294D01*
X156126020Y-56979175D01*
X156096414Y-56881578D01*
X156084505Y-56842321D01*
X156070488Y-56700000D01*
X156084505Y-56557679D01*
X156126019Y-56420828D01*
X156126020Y-56420825D01*
X156193432Y-56294706D01*
X156284157Y-56184157D01*
X156394706Y-56093432D01*
X156520825Y-56026020D01*
X156520828Y-56026019D01*
X156657679Y-55984505D01*
X156728787Y-55977502D01*
X156764340Y-55974000D01*
X156835660Y-55974000D01*
X156871213Y-55977502D01*
X156871213Y-55977502D01*
G37*
G36*
X154871213Y-55977502D02*
G01*
X154942321Y-55984505D01*
X155079172Y-56026019D01*
X155079175Y-56026020D01*
X155205294Y-56093432D01*
X155315843Y-56184157D01*
X155406568Y-56294706D01*
X155473980Y-56420825D01*
X155473981Y-56420828D01*
X155515495Y-56557679D01*
X155529512Y-56700000D01*
X155515495Y-56842321D01*
X155503586Y-56881578D01*
X155473980Y-56979175D01*
X155406568Y-57105294D01*
X155315843Y-57215843D01*
X155205294Y-57306568D01*
X155079175Y-57373980D01*
X155079172Y-57373981D01*
X154942321Y-57415495D01*
X154871213Y-57422498D01*
X154835660Y-57426000D01*
X154764340Y-57426000D01*
X154728787Y-57422498D01*
X154657679Y-57415495D01*
X154520828Y-57373981D01*
X154520825Y-57373980D01*
X154394706Y-57306568D01*
X154284157Y-57215843D01*
X154193432Y-57105294D01*
X154126020Y-56979175D01*
X154096414Y-56881578D01*
X154084505Y-56842321D01*
X154070488Y-56700000D01*
X154084505Y-56557679D01*
X154126019Y-56420828D01*
X154126020Y-56420825D01*
X154193432Y-56294706D01*
X154284157Y-56184157D01*
X154394706Y-56093432D01*
X154520825Y-56026020D01*
X154520828Y-56026019D01*
X154657679Y-55984505D01*
X154728787Y-55977502D01*
X154764340Y-55974000D01*
X154835660Y-55974000D01*
X154871213Y-55977502D01*
X154871213Y-55977502D01*
G37*
G36*
X152871213Y-55977502D02*
G01*
X152942321Y-55984505D01*
X153079172Y-56026019D01*
X153079175Y-56026020D01*
X153205294Y-56093432D01*
X153315843Y-56184157D01*
X153406568Y-56294706D01*
X153473980Y-56420825D01*
X153473981Y-56420828D01*
X153515495Y-56557679D01*
X153529512Y-56700000D01*
X153515495Y-56842321D01*
X153503586Y-56881578D01*
X153473980Y-56979175D01*
X153406568Y-57105294D01*
X153315843Y-57215843D01*
X153205294Y-57306568D01*
X153079175Y-57373980D01*
X153079172Y-57373981D01*
X152942321Y-57415495D01*
X152871213Y-57422498D01*
X152835660Y-57426000D01*
X152764340Y-57426000D01*
X152728787Y-57422498D01*
X152657679Y-57415495D01*
X152520828Y-57373981D01*
X152520825Y-57373980D01*
X152394706Y-57306568D01*
X152284157Y-57215843D01*
X152193432Y-57105294D01*
X152126020Y-56979175D01*
X152096414Y-56881578D01*
X152084505Y-56842321D01*
X152070488Y-56700000D01*
X152084505Y-56557679D01*
X152126019Y-56420828D01*
X152126020Y-56420825D01*
X152193432Y-56294706D01*
X152284157Y-56184157D01*
X152394706Y-56093432D01*
X152520825Y-56026020D01*
X152520828Y-56026019D01*
X152657679Y-55984505D01*
X152728787Y-55977502D01*
X152764340Y-55974000D01*
X152835660Y-55974000D01*
X152871213Y-55977502D01*
X152871213Y-55977502D01*
G37*
G36*
X150871213Y-55977502D02*
G01*
X150942321Y-55984505D01*
X151079172Y-56026019D01*
X151079175Y-56026020D01*
X151205294Y-56093432D01*
X151315843Y-56184157D01*
X151406568Y-56294706D01*
X151473980Y-56420825D01*
X151473981Y-56420828D01*
X151515495Y-56557679D01*
X151529512Y-56700000D01*
X151515495Y-56842321D01*
X151503586Y-56881578D01*
X151473980Y-56979175D01*
X151406568Y-57105294D01*
X151315843Y-57215843D01*
X151205294Y-57306568D01*
X151079175Y-57373980D01*
X151079172Y-57373981D01*
X150942321Y-57415495D01*
X150871213Y-57422498D01*
X150835660Y-57426000D01*
X150764340Y-57426000D01*
X150728787Y-57422498D01*
X150657679Y-57415495D01*
X150520828Y-57373981D01*
X150520825Y-57373980D01*
X150394706Y-57306568D01*
X150284157Y-57215843D01*
X150193432Y-57105294D01*
X150126020Y-56979175D01*
X150096414Y-56881578D01*
X150084505Y-56842321D01*
X150070488Y-56700000D01*
X150084505Y-56557679D01*
X150126019Y-56420828D01*
X150126020Y-56420825D01*
X150193432Y-56294706D01*
X150284157Y-56184157D01*
X150394706Y-56093432D01*
X150520825Y-56026020D01*
X150520828Y-56026019D01*
X150657679Y-55984505D01*
X150728787Y-55977502D01*
X150764340Y-55974000D01*
X150835660Y-55974000D01*
X150871213Y-55977502D01*
X150871213Y-55977502D01*
G37*
G36*
X117276000Y-57226000D02*
G01*
X114114000Y-57226000D01*
X114114000Y-56234000D01*
X117276000Y-56234000D01*
X117276000Y-57226000D01*
X117276000Y-57226000D01*
G37*
G36*
X117276000Y-55956000D02*
G01*
X114114000Y-55956000D01*
X114114000Y-54964000D01*
X117276000Y-54964000D01*
X117276000Y-55956000D01*
X117276000Y-55956000D01*
G37*
G36*
X138351000Y-55001000D02*
G01*
X134449000Y-55001000D01*
X134449000Y-52899000D01*
X138351000Y-52899000D01*
X138351000Y-55001000D01*
X138351000Y-55001000D01*
G37*
G36*
X143325562Y-52878181D02*
G01*
X143360481Y-52888774D01*
X143392663Y-52905976D01*
X143420873Y-52929127D01*
X143444024Y-52957337D01*
X143461226Y-52989519D01*
X143471819Y-53024438D01*
X143476000Y-53066895D01*
X143476000Y-54533105D01*
X143471819Y-54575562D01*
X143461226Y-54610481D01*
X143444024Y-54642663D01*
X143420873Y-54670873D01*
X143392663Y-54694024D01*
X143360481Y-54711226D01*
X143325562Y-54721819D01*
X143283105Y-54726000D01*
X142141895Y-54726000D01*
X142099438Y-54721819D01*
X142064519Y-54711226D01*
X142032337Y-54694024D01*
X142004127Y-54670873D01*
X141980976Y-54642663D01*
X141963774Y-54610481D01*
X141953181Y-54575562D01*
X141949000Y-54533105D01*
X141949000Y-53066895D01*
X141953181Y-53024438D01*
X141963774Y-52989519D01*
X141980976Y-52957337D01*
X142004127Y-52929127D01*
X142032337Y-52905976D01*
X142064519Y-52888774D01*
X142099438Y-52878181D01*
X142141895Y-52874000D01*
X143283105Y-52874000D01*
X143325562Y-52878181D01*
X143325562Y-52878181D01*
G37*
G36*
X146300562Y-52878181D02*
G01*
X146335481Y-52888774D01*
X146367663Y-52905976D01*
X146395873Y-52929127D01*
X146419024Y-52957337D01*
X146436226Y-52989519D01*
X146446819Y-53024438D01*
X146451000Y-53066895D01*
X146451000Y-54533105D01*
X146446819Y-54575562D01*
X146436226Y-54610481D01*
X146419024Y-54642663D01*
X146395873Y-54670873D01*
X146367663Y-54694024D01*
X146335481Y-54711226D01*
X146300562Y-54721819D01*
X146258105Y-54726000D01*
X145116895Y-54726000D01*
X145074438Y-54721819D01*
X145039519Y-54711226D01*
X145007337Y-54694024D01*
X144979127Y-54670873D01*
X144955976Y-54642663D01*
X144938774Y-54610481D01*
X144928181Y-54575562D01*
X144924000Y-54533105D01*
X144924000Y-53066895D01*
X144928181Y-53024438D01*
X144938774Y-52989519D01*
X144955976Y-52957337D01*
X144979127Y-52929127D01*
X145007337Y-52905976D01*
X145039519Y-52888774D01*
X145074438Y-52878181D01*
X145116895Y-52874000D01*
X146258105Y-52874000D01*
X146300562Y-52878181D01*
X146300562Y-52878181D01*
G37*
G36*
X117276000Y-54686000D02*
G01*
X114114000Y-54686000D01*
X114114000Y-53694000D01*
X117276000Y-53694000D01*
X117276000Y-54686000D01*
X117276000Y-54686000D01*
G37*
M02*
